;TYPE=PLATED
;Layer: PTH_Through_Via
;EasyEDA Pro v3.2.148, 2026-07-05 23:03:08
;Gerber Generator version 0.3
M48
METRIC,LZ,0000.00000
;Hole size 1 = 0.30500 METRIC
T01C0.30500
%
G05
G90
T01
X83.89756Y-61.26584
X94.967Y-64.47047
X94.996Y-63.373
X84.455Y-80.391
X80.01Y-80.772
X81.91427Y-78.31
X81.17706Y-77.49406
X81.915Y-76.71258
X81.153Y-75.819
X81.915Y-61.312
X81.153Y-61.976
X81.44158Y-63.881
X82.677Y-61.976
X79.043Y-67.76189
X83.10093Y-67.76189
X78.95107Y-79.81216
X79.79058Y-71.02758
X87.679Y-73.23607
X89.11501Y-71.03593
X83.10093Y-79.81216
X87.757Y-63.627
X89.789Y-63.627
X89.789Y-65.659
X87.757Y-65.659
X11.83644Y-61.46046
X11.83644Y-56.63446
X82.042Y-74.549
X78.645Y-65.50183
X79.77458Y-73.04358
X77.1959Y-61.93018
X58.54945Y-59.88921
X90.17Y-55.372
X72.136Y-54.737
X77.216Y-55.88
X92.583Y-60.198
X60.582Y-63.246
X91.186Y-59.69
X90.55926Y-69.74754
X89.64267Y-69.52692
X88.76171Y-69.52692
X91.469Y-69.723
X89.154Y-59.69
X90.01584Y-59.69
X95.758Y-59.817
X67.31Y-62.865
X61.976Y-64.293
X51.44569Y-58.38322
X15.113Y-58.801
X25.527Y-57.404
X25.527Y-58.621
X32.512Y-56.134
X54.991Y-62.357
X84.26971Y-68.023
X84.84886Y-69.10086
X88.05864Y-66.71849
X83.439Y-66.294
X90.68757Y-62.78143
X65.278Y-59.69
X71.43496Y-59.801
X77.69595Y-73.533
X72.70796Y-63.47699
X81.28Y-79.883
X19.431Y-60.706
X19.685Y-58.547
X93.98Y-59.944
X80.391Y-60.833
X55.60001Y-64.262
X39.21309Y-53.36159
X50.23708Y-55.47427
M30