G04 Layer: BottomSilkscreenLayer*
G04 EasyEDA Pro v3.2.148, 2026-07-05 23:03:08*
G04 Gerber Generator version 0.3*
G04 Scale: 100 percent, Rotated: No, Reflected: No*
G04 Dimensions in millimeters*
G04 Leading zeros omitted, absolute positions, 4 integers and 5 decimals*
G04 Generated by one-click*
G04 Object Configs: Pad,Via,Track,Text,Image,Dimension,BoardOutline,BoardCutout,CopperFilled,SolidRegion,FPCStiffener,Line,PlaneZone,ComponentProperty,ComponentSilkscreen,TearDrop*
G04 Layer Configs: 1,2,3,4,5,6,7,8,9,10,11,13,14,56*
G04 Copper Areas: 0*
%FSLAX45Y45*%
%MOMM*%
%ADD10C,0.203*%
%ADD11C,0.1028*%
G75*


G04 Image Start*
G36*
G01X6820846Y-6521227D02*
G01X5843911Y-6521247D01*
G01X5576825Y-6517513D01*
G01X5412574Y-6514504D01*
G01X5335662Y-6512221D01*
G01X5258750Y-6509939D01*
G01X5202619Y-6506973D01*
G01X5190835Y-6506054D01*
G01X5179052Y-6505135D01*
G01X5179052Y-6499346D01*
G01X5466134Y-6499346D01*
G01X5468901Y-6499346D01*
G01X5467257Y-6494800D01*
G01X5466134Y-6494800D01*
G01X5466134Y-6499346D01*
G01X5466134Y-6499346D01*
G01X5179052Y-6499346D01*
G01X5179052Y-6496607D01*
G01X5208332Y-6494871D01*
G01X5233316Y-6493940D01*
G01X5258300Y-6493009D01*
G01X5259382Y-6492299D01*
G01X5260464Y-6491590D01*
G01X5260464Y-6443345D01*
G01X5234398Y-6442932D01*
G01X5208332Y-6442519D01*
G01X5207942Y-6414864D01*
G01X5207553Y-6387208D01*
G01X5156200Y-6387208D01*
G01X5156200Y-6329557D01*
G01X5182980Y-6329969D01*
G01X5209760Y-6330381D01*
G01X5210149Y-6358037D01*
G01X5210539Y-6385692D01*
G01X5260464Y-6385692D01*
G01X5260464Y-6329623D01*
G01X5311881Y-6329623D01*
G01X5311881Y-6275070D01*
G01X5366218Y-6275070D01*
G01X5365830Y-6303483D01*
G01X5365441Y-6331897D01*
G01X5340089Y-6332310D01*
G01X5314738Y-6332724D01*
G01X5314738Y-6491973D01*
G01X5317237Y-6491198D01*
G01X5319737Y-6490424D01*
G01X5392578Y-6488713D01*
G01X5465420Y-6487003D01*
G01X5468991Y-6485803D01*
G01X5468991Y-6443277D01*
G01X5416145Y-6443277D01*
G01X5416145Y-6275070D01*
G01X5469027Y-6275070D01*
G01X5468652Y-6220895D01*
G01X5468276Y-6166720D01*
G01X5442211Y-6166307D01*
G01X5416145Y-6165894D01*
G01X5416145Y-6055340D01*
G01X5470419Y-6055340D01*
G01X5470419Y-6164447D01*
G01X5521836Y-6164447D01*
G01X5521836Y-6218932D01*
G01X5547902Y-6219345D01*
G01X5573968Y-6219759D01*
G01X5574358Y-6247414D01*
G01X5574747Y-6275070D01*
G01X5626036Y-6275070D01*
G01X5626425Y-6302725D01*
G01X5626814Y-6330381D01*
G01X5730364Y-6330381D01*
G01X5730364Y-6385692D01*
G01X5887473Y-6385692D01*
G01X5887473Y-6439922D01*
G01X5889634Y-6440802D01*
G01X5889634Y-6440802D01*
G01X5891796Y-6441682D01*
G01X6093219Y-6441801D01*
G01X6093868Y-6439887D01*
G01X6094518Y-6437973D01*
G01X6094902Y-6384935D01*
G01X6095286Y-6331897D01*
G01X6121352Y-6331483D01*
G01X6147418Y-6331071D01*
G01X6147418Y-6275070D01*
G01X6460144Y-6275070D01*
G01X6460533Y-6247414D01*
G01X6460922Y-6219759D01*
G01X6539120Y-6219367D01*
G01X6617318Y-6218975D01*
G01X6617318Y-6166031D01*
G01X6670164Y-6166031D01*
G01X6670164Y-6331139D01*
G01X6722974Y-6331139D01*
G01X6723349Y-6386071D01*
G01X6723724Y-6441004D01*
G01X6823702Y-6441439D01*
G01X6823702Y-6441439D01*
G01X6923681Y-6441874D01*
G01X6930108Y-6440188D01*
G01X6930108Y-6385692D01*
G01X6982954Y-6385692D01*
G01X6982954Y-6331139D01*
G01X7034372Y-6331139D01*
G01X7034372Y-6165963D01*
G01X6982954Y-6165963D01*
G01X6982954Y-6055340D01*
G01X6930108Y-6055340D01*
G01X6930108Y-5999271D01*
G01X6878691Y-5999271D01*
G01X6878691Y-5944786D01*
G01X6852625Y-5944373D01*
G01X6826559Y-5943960D01*
G01X6826169Y-5916304D01*
G01X6825780Y-5888648D01*
G01X6723024Y-5888648D01*
G01X6722660Y-6026927D01*
G01X6722295Y-6165205D01*
G01X6696229Y-6165618D01*
G01X6670164Y-6166031D01*
G01X6617318Y-6166031D01*
G01X6617318Y-6164447D01*
G01X6668735Y-6164447D01*
G01X6668735Y-5834095D01*
G01X6617353Y-5834095D01*
G01X6616603Y-5722714D01*
G01X6590538Y-5722301D01*
G01X6564472Y-5721888D01*
G01X6564472Y-5667403D01*
G01X6513054Y-5667403D01*
G01X6513054Y-5613174D01*
G01X6508536Y-5611334D01*
G01X6460208Y-5611334D01*
G01X6460208Y-5556780D01*
G01X6408791Y-5556780D01*
G01X6408613Y-5552992D01*
G01X6408644Y-5506015D01*
G01X6407170Y-5500711D01*
G01X6355945Y-5500711D01*
G01X6355945Y-5446183D01*
G01X6277747Y-5445792D01*
G01X6199549Y-5445400D01*
G01X6199160Y-5417744D01*
G01X6198771Y-5390089D01*
G01X5940383Y-5390089D01*
G01X5939994Y-5417744D01*
G01X5939605Y-5445400D01*
G01X5861407Y-5445792D01*
G01X5783209Y-5446183D01*
G01X5783209Y-5500643D01*
G01X5757144Y-5501056D01*
G01X5731078Y-5501469D01*
G01X5730688Y-5529125D01*
G01X5730299Y-5556780D01*
G01X5678946Y-5556780D01*
G01X5678946Y-5667403D01*
G01X5626100Y-5667403D01*
G01X5626100Y-5776510D01*
G01X5783209Y-5776510D01*
G01X5783209Y-5832579D01*
G01X5834627Y-5832579D01*
G01X5834627Y-5999271D01*
G01X5783209Y-5999271D01*
G01X5783209Y-6055272D01*
G01X5757144Y-6055684D01*
G01X5731078Y-6056098D01*
G01X5730688Y-6083766D01*
G01X5730299Y-6111435D01*
G01X5652134Y-6111043D01*
G01X5573968Y-6110651D01*
G01X5573579Y-6082996D01*
G01X5573190Y-6055340D01*
G01X5470419Y-6055340D01*
G01X5416145Y-6055340D01*
G01X5416145Y-6053825D01*
G01X5468991Y-6053825D01*
G01X5468991Y-5943202D01*
G01X5520344Y-5943202D01*
G01X5520733Y-5915546D01*
G01X5521122Y-5887891D01*
G01X5547188Y-5887477D01*
G01X5573254Y-5887064D01*
G01X5573254Y-5665888D01*
G01X5624672Y-5665888D01*
G01X5624672Y-5388573D01*
G01X5677518Y-5388573D01*
G01X5677518Y-5334000D01*
G01X5782852Y-5334389D01*
G01X5888187Y-5334777D01*
G01X5888577Y-5361675D01*
G01X5888967Y-5388573D01*
G01X5938891Y-5388573D01*
G01X5938891Y-5334020D01*
G01X6201692Y-5334020D01*
G01X6201692Y-5388573D01*
G01X6357373Y-5388573D01*
G01X6357373Y-5444642D01*
G01X6407298Y-5444642D01*
G01X6407687Y-5416987D01*
G01X6408076Y-5389331D01*
G01X6486956Y-5388939D01*
G01X6565835Y-5388548D01*
G01X6566225Y-5416216D01*
G01X6566614Y-5443885D01*
G01X6592680Y-5444298D01*
G01X6618746Y-5444711D01*
G01X6618746Y-5499196D01*
G01X6670164Y-5499196D01*
G01X6670164Y-5667403D01*
G01X6618746Y-5667403D01*
G01X6618746Y-5720441D01*
G01X6670164Y-5720441D01*
G01X6670164Y-5832579D01*
G01X6825845Y-5832579D01*
G01X6825845Y-5776510D01*
G01X6877262Y-5776510D01*
G01X6877262Y-5725235D01*
G01X6878996Y-5720441D01*
G01X7035736Y-5720441D01*
G01X7036125Y-5748097D01*
G01X7036514Y-5775752D01*
G01X7062580Y-5776166D01*
G01X7088646Y-5776579D01*
G01X7088646Y-5944649D01*
G01X7062580Y-5945062D01*
G01X7036514Y-5945475D01*
G01X7036125Y-5973131D01*
G01X7035736Y-6000786D01*
G01X6984382Y-6000786D01*
G01X6984382Y-6053825D01*
G01X7035800Y-6053825D01*
G01X7035800Y-6164447D01*
G01X7088646Y-6164447D01*
G01X7088646Y-6219001D01*
G01X7192909Y-6219001D01*
G01X7192909Y-6275070D01*
G01X7245041Y-6275070D01*
G01X7244378Y-6442519D01*
G01X7218644Y-6442932D01*
G01X7192909Y-6443345D01*
G01X7192909Y-6486669D01*
G01X7267494Y-6488572D01*
G01X7342078Y-6490476D01*
G01X7342835Y-6490544D01*
G01X7343592Y-6490612D01*
G01X7347162Y-6490254D01*
G01X7347162Y-6276654D01*
G01X7321096Y-6276241D01*
G01X7295031Y-6275828D01*
G01X7294251Y-6222101D01*
G01X7243613Y-6221274D01*
G01X7243224Y-6192861D01*
G01X7242836Y-6164447D01*
G01X7297173Y-6164447D01*
G01X7297173Y-6219001D01*
G01X7348526Y-6219001D01*
G01X7348915Y-6246656D01*
G01X7349305Y-6274312D01*
G01X7399294Y-6274312D01*
G01X7399669Y-6219380D01*
G01X7400044Y-6164447D01*
G01X7452854Y-6164447D01*
G01X7452854Y-6276585D01*
G01X7401436Y-6276585D01*
G01X7401436Y-6385692D01*
G01X7451361Y-6385692D01*
G01X7451751Y-6358037D01*
G01X7452140Y-6330381D01*
G01X7478920Y-6329969D01*
G01X7505700Y-6329557D01*
G01X7505700Y-6387208D01*
G01X7452854Y-6387208D01*
G01X7452854Y-6443277D01*
G01X7401436Y-6443277D01*
G01X7401436Y-6492940D01*
G01X7432144Y-6493407D01*
G01X7456292Y-6494795D01*
G01X7480439Y-6496184D01*
G01X7482754Y-6498640D01*
G01X7481920Y-6502024D01*
G01X7481086Y-6505407D01*
G01X7479468Y-6505523D01*
G01X7477849Y-6505639D01*
G01X7473564Y-6506513D01*
G01X7434287Y-6508246D01*
G01X7395009Y-6509978D01*
G01X7357160Y-6511462D01*
G01X7319311Y-6512945D01*
G01X7245041Y-6514470D01*
G01X7170771Y-6515995D01*
G01X7131494Y-6516703D01*
G01X7092217Y-6517411D01*
G01X6956531Y-6519319D01*
G01X6820846Y-6521227D01*
G37*
G36*
G01X5939605Y-6165205D02*
G01X5834627Y-6166000D01*
G01X5834627Y-6053825D01*
G01X5991799Y-6053825D01*
G01X5991411Y-6082238D01*
G01X5991022Y-6110651D01*
G01X5940385Y-6111479D01*
G01X5939605Y-6165205D01*
G37*
G36*
G01X6405700Y-6111409D02*
G01X6357373Y-6111409D01*
G01X6357373Y-6165963D01*
G01X6147418Y-6165963D01*
G01X6147418Y-6111409D01*
G01X6100285Y-6111409D01*
G01X6099214Y-6111280D01*
G01X6098142Y-6111151D01*
G01X6094572Y-6108007D01*
G01X6094572Y-6055340D01*
G01X6043130Y-6055340D01*
G01X6043499Y-5971615D01*
G01X6043868Y-5887891D01*
G01X6094574Y-5887891D01*
G01X6094624Y-5884102D01*
G01X6094673Y-5880314D01*
G01X6095286Y-5833337D01*
G01X6121352Y-5832924D01*
G01X6147418Y-5832511D01*
G01X6147418Y-5776510D01*
G01X6357373Y-5776510D01*
G01X6357373Y-5832579D01*
G01X6410219Y-5832579D01*
G01X6410217Y-5860235D01*
G01X6410215Y-5887891D01*
G01X6432681Y-5887434D01*
G01X6455147Y-5886978D01*
G01X6458392Y-5887842D01*
G01X6461636Y-5888706D01*
G01X6461636Y-6055340D01*
G01X6410219Y-6055340D01*
G01X6410219Y-6109569D01*
G01X6405700Y-6111409D01*
G37*
G04 Image End*

G04 Text Start*
G54D10*
G01X9330690Y-5615940D02*
G01X9339580Y-5598160D01*
G01X9357360Y-5589270D01*
G01X9384030Y-5589270D01*
G01X9401810Y-5598160D01*
G01X9410700Y-5607050D01*
G01X9419590Y-5633720D01*
G01X9419590Y-5660390D01*
G01X9410700Y-5678170D01*
G01X9392920Y-5687060D01*
G01X9366250Y-5687060D01*
G01X9348470Y-5678170D01*
G01X9339580Y-5660390D01*
G01X9384030Y-5589270D02*
G01X9401810Y-5607050D01*
G01X9410700Y-5633720D01*
G01X9410700Y-5660390D01*
G01X9401810Y-5678170D01*
G01X9392920Y-5687060D01*
G01X9330690Y-5589270D02*
G01X9339580Y-5660390D01*
G01X9339580Y-5678170D01*
G01X9321800Y-5687060D01*
G01X9304020Y-5687060D01*
G01X9286240Y-5669280D01*
G01X9277350Y-5642610D01*
G01X9277350Y-5624830D01*
G01X9286240Y-5598160D01*
G01X9295130Y-5580380D01*
G01X9312910Y-5562600D01*
G01X9330690Y-5553710D01*
G01X9357360Y-5544820D01*
G01X9384030Y-5544820D01*
G01X9410700Y-5553710D01*
G01X9428480Y-5562600D01*
G01X9446260Y-5580380D01*
G01X9455150Y-5598160D01*
G01X9464040Y-5624830D01*
G01X9464040Y-5651500D01*
G01X9455150Y-5678170D01*
G01X9446260Y-5695950D01*
G01X9428480Y-5713730D01*
G01X9410700Y-5722620D01*
G01X9384030Y-5731510D01*
G01X9357360Y-5731510D01*
G01X9330690Y-5722620D01*
G01X9312910Y-5713730D01*
G01X9304020Y-5704840D01*
G01X9321800Y-5589270D02*
G01X9330690Y-5660390D01*
G01X9330690Y-5678170D01*
G01X9321800Y-5687060D01*
G01X9214358Y-5544820D02*
G01X9214358Y-5731510D01*
G01X9214358Y-5633720D02*
G01X9196578Y-5615940D01*
G01X9178798Y-5607050D01*
G01X9152128Y-5607050D01*
G01X9134348Y-5615940D01*
G01X9116568Y-5633720D01*
G01X9107678Y-5660390D01*
G01X9107678Y-5678170D01*
G01X9116568Y-5704840D01*
G01X9134348Y-5722620D01*
G01X9152128Y-5731510D01*
G01X9178798Y-5731510D01*
G01X9196578Y-5722620D01*
G01X9214358Y-5704840D01*
G01X9044686Y-5607050D02*
G01X9044686Y-5695950D01*
G01X9035796Y-5722620D01*
G01X9018016Y-5731510D01*
G01X8991346Y-5731510D01*
G01X8973566Y-5722620D01*
G01X8946896Y-5695950D01*
G01X8946896Y-5607050D02*
G01X8946896Y-5731510D01*
G01X8883904Y-5544820D02*
G01X8883904Y-5731510D01*
G01X8714232Y-5607050D02*
G01X8714232Y-5731510D01*
G01X8714232Y-5633720D02*
G01X8732012Y-5615940D01*
G01X8749792Y-5607050D01*
G01X8776462Y-5607050D01*
G01X8794242Y-5615940D01*
G01X8812022Y-5633720D01*
G01X8820912Y-5660390D01*
G01X8820912Y-5678170D01*
G01X8812022Y-5704840D01*
G01X8794242Y-5722620D01*
G01X8776462Y-5731510D01*
G01X8749792Y-5731510D01*
G01X8732012Y-5722620D01*
G01X8714232Y-5704840D01*
G01X8624570Y-5544820D02*
G01X8624570Y-5695950D01*
G01X8615680Y-5722620D01*
G01X8597900Y-5731510D01*
G01X8580120Y-5731510D01*
G01X8651240Y-5607050D02*
G01X8589010Y-5607050D01*
G01X8517128Y-5651500D02*
G01X8357108Y-5651500D01*
G01X8187436Y-5633720D02*
G01X8205216Y-5615940D01*
G01X8222996Y-5607050D01*
G01X8249666Y-5607050D01*
G01X8267446Y-5615940D01*
G01X8285226Y-5633720D01*
G01X8294116Y-5660390D01*
G01X8294116Y-5678170D01*
G01X8285226Y-5704840D01*
G01X8267446Y-5722620D01*
G01X8249666Y-5731510D01*
G01X8222996Y-5731510D01*
G01X8205216Y-5722620D01*
G01X8187436Y-5704840D01*
G01X8124444Y-5544820D02*
G01X8124444Y-5731510D01*
G01X8124444Y-5642610D02*
G01X8097774Y-5615940D01*
G01X8079994Y-5607050D01*
G01X8053324Y-5607050D01*
G01X8035544Y-5615940D01*
G01X8026654Y-5642610D01*
G01X8026654Y-5731510D01*
G01X7963662Y-5607050D02*
G01X7963662Y-5695950D01*
G01X7954772Y-5722620D01*
G01X7936992Y-5731510D01*
G01X7910322Y-5731510D01*
G01X7892542Y-5722620D01*
G01X7865872Y-5695950D01*
G01X7865872Y-5607050D02*
G01X7865872Y-5731510D01*
G01X5007102Y-5585460D02*
G01X5092192Y-5585460D01*
G01X5007102Y-5585460D02*
G01X5007102Y-5622036D01*
G01X5011166Y-5633974D01*
G01X5015230Y-5638038D01*
G01X5023358Y-5642102D01*
G01X5035550Y-5642102D01*
G01X5043678Y-5638038D01*
G01X5047742Y-5633974D01*
G01X5051806Y-5622036D01*
G01X5051806Y-5585460D01*
G01X5007102Y-5681980D02*
G01X5092192Y-5702046D01*
G01X5007102Y-5722366D02*
G01X5092192Y-5702046D01*
G01X5007102Y-5722366D02*
G01X5092192Y-5742686D01*
G01X5007102Y-5763006D02*
G01X5092192Y-5742686D01*
G01X5007102Y-5802884D02*
G01X5092192Y-5802884D01*
G01X5007102Y-5802884D02*
G01X5007102Y-5839206D01*
G01X5011166Y-5851398D01*
G01X5015230Y-5855462D01*
G01X5023358Y-5859526D01*
G01X5031486Y-5859526D01*
G01X5039614Y-5855462D01*
G01X5043678Y-5851398D01*
G01X5047742Y-5839206D01*
G01X5047742Y-5802884D01*
G01X5047742Y-5831078D02*
G01X5092192Y-5859526D01*
G01X5019294Y-6046724D02*
G01X5011166Y-6038596D01*
G01X5007102Y-6026658D01*
G01X5007102Y-6010402D01*
G01X5011166Y-5998210D01*
G01X5019294Y-5990082D01*
G01X5027422Y-5990082D01*
G01X5035550Y-5994146D01*
G01X5039614Y-5998210D01*
G01X5043678Y-6006338D01*
G01X5051806Y-6030722D01*
G01X5055870Y-6038596D01*
G01X5059934Y-6042660D01*
G01X5068062Y-6046724D01*
G01X5080000Y-6046724D01*
G01X5088128Y-6038596D01*
G01X5092192Y-6026658D01*
G01X5092192Y-6010402D01*
G01X5088128Y-5998210D01*
G01X5080000Y-5990082D01*
G01X5007102Y-6086602D02*
G01X5092192Y-6106668D01*
G01X5007102Y-6126988D02*
G01X5092192Y-6106668D01*
G01X5007102Y-6126988D02*
G01X5092192Y-6147308D01*
G01X5007102Y-6167628D02*
G01X5092192Y-6147308D01*
G01X5062780Y-6246674D02*
G01X5026204Y-6311444D01*
G01X4989882Y-6246674D01*
G01X5026204Y-6286044D02*
G01X5026204Y-6213146D01*
G01X9437370Y-6217920D02*
G01X9437370Y-6369050D01*
G01X9428480Y-6395720D01*
G01X9410700Y-6404610D01*
G01X9392920Y-6404610D01*
G01X9464040Y-6280150D02*
G01X9401810Y-6280150D01*
G01X9329928Y-6217920D02*
G01X9329928Y-6404610D01*
G01X9329928Y-6315710D02*
G01X9303258Y-6289040D01*
G01X9285478Y-6280150D01*
G01X9258808Y-6280150D01*
G01X9241028Y-6289040D01*
G01X9232138Y-6315710D01*
G01X9232138Y-6404610D01*
G01X9169146Y-6217920D02*
G01X9160256Y-6226810D01*
G01X9151366Y-6217920D01*
G01X9160256Y-6209030D01*
G01X9169146Y-6217920D01*
G01X9160256Y-6280150D02*
G01X9160256Y-6404610D01*
G01X9088374Y-6280150D02*
G01X9088374Y-6404610D01*
G01X9088374Y-6315710D02*
G01X9061704Y-6289040D01*
G01X9043924Y-6280150D01*
G01X9017254Y-6280150D01*
G01X8999474Y-6289040D01*
G01X8990584Y-6315710D01*
G01X8990584Y-6404610D01*
G01X8927592Y-6217920D02*
G01X8927592Y-6404610D01*
G01X8838692Y-6280150D02*
G01X8927592Y-6369050D01*
G01X8892032Y-6333490D02*
G01X8829802Y-6404610D01*
G01X8766810Y-6280150D02*
G01X8766810Y-6466840D01*
G01X8766810Y-6306820D02*
G01X8749030Y-6289040D01*
G01X8731250Y-6280150D01*
G01X8704580Y-6280150D01*
G01X8686800Y-6289040D01*
G01X8669020Y-6306820D01*
G01X8660130Y-6333490D01*
G01X8660130Y-6351270D01*
G01X8669020Y-6377940D01*
G01X8686800Y-6395720D01*
G01X8704580Y-6404610D01*
G01X8731250Y-6404610D01*
G01X8749030Y-6395720D01*
G01X8766810Y-6377940D01*
G01X8490458Y-6280150D02*
G01X8490458Y-6404610D01*
G01X8490458Y-6306820D02*
G01X8508238Y-6289040D01*
G01X8526018Y-6280150D01*
G01X8552688Y-6280150D01*
G01X8570468Y-6289040D01*
G01X8588248Y-6306820D01*
G01X8597138Y-6333490D01*
G01X8597138Y-6351270D01*
G01X8588248Y-6377940D01*
G01X8570468Y-6395720D01*
G01X8552688Y-6404610D01*
G01X8526018Y-6404610D01*
G01X8508238Y-6395720D01*
G01X8490458Y-6377940D01*
G01X8320786Y-6217920D02*
G01X8320786Y-6404610D01*
G01X8320786Y-6306820D02*
G01X8338566Y-6289040D01*
G01X8356346Y-6280150D01*
G01X8383016Y-6280150D01*
G01X8400796Y-6289040D01*
G01X8418576Y-6306820D01*
G01X8427466Y-6333490D01*
G01X8427466Y-6351270D01*
G01X8418576Y-6377940D01*
G01X8400796Y-6395720D01*
G01X8383016Y-6404610D01*
G01X8356346Y-6404610D01*
G01X8338566Y-6395720D01*
G01X8320786Y-6377940D01*
G01X9464040Y-6522720D02*
G01X9339580Y-6709410D01*
G01X9339580Y-6522720D02*
G01X9464040Y-6709410D01*
G01X9267698Y-6567170D02*
G01X9267698Y-6558280D01*
G01X9258808Y-6540500D01*
G01X9249918Y-6531610D01*
G01X9232138Y-6522720D01*
G01X9196578Y-6522720D01*
G01X9178798Y-6531610D01*
G01X9169908Y-6540500D01*
G01X9161018Y-6558280D01*
G01X9161018Y-6576060D01*
G01X9169908Y-6593840D01*
G01X9187688Y-6620510D01*
G01X9276588Y-6709410D01*
G01X9152128Y-6709410D01*
G01X9035796Y-6522720D02*
G01X9062466Y-6531610D01*
G01X9080246Y-6558280D01*
G01X9089136Y-6602730D01*
G01X9089136Y-6629400D01*
G01X9080246Y-6673850D01*
G01X9062466Y-6700520D01*
G01X9035796Y-6709410D01*
G01X9018016Y-6709410D01*
G01X8991346Y-6700520D01*
G01X8973566Y-6673850D01*
G01X8964676Y-6629400D01*
G01X8964676Y-6602730D01*
G01X8973566Y-6558280D01*
G01X8991346Y-6531610D01*
G01X9018016Y-6522720D01*
G01X9035796Y-6522720D01*
G01X8848344Y-6522720D02*
G01X8875014Y-6531610D01*
G01X8892794Y-6558280D01*
G01X8901684Y-6602730D01*
G01X8901684Y-6629400D01*
G01X8892794Y-6673850D01*
G01X8875014Y-6700520D01*
G01X8848344Y-6709410D01*
G01X8830564Y-6709410D01*
G01X8803894Y-6700520D01*
G01X8786114Y-6673850D01*
G01X8777224Y-6629400D01*
G01X8777224Y-6602730D01*
G01X8786114Y-6558280D01*
G01X8803894Y-6531610D01*
G01X8830564Y-6522720D01*
G01X8848344Y-6522720D01*
G01X8515096Y-6522720D02*
G01X8390636Y-6709410D01*
G01X8390636Y-6522720D02*
G01X8515096Y-6709410D01*
G01X8318754Y-6567170D02*
G01X8318754Y-6558280D01*
G01X8309864Y-6540500D01*
G01X8300974Y-6531610D01*
G01X8283194Y-6522720D01*
G01X8247634Y-6522720D01*
G01X8229854Y-6531610D01*
G01X8220964Y-6540500D01*
G01X8212074Y-6558280D01*
G01X8212074Y-6576060D01*
G01X8220964Y-6593840D01*
G01X8238744Y-6620510D01*
G01X8327644Y-6709410D01*
G01X8203184Y-6709410D01*
G01X8086852Y-6522720D02*
G01X8113522Y-6531610D01*
G01X8131302Y-6558280D01*
G01X8140192Y-6602730D01*
G01X8140192Y-6629400D01*
G01X8131302Y-6673850D01*
G01X8113522Y-6700520D01*
G01X8086852Y-6709410D01*
G01X8069072Y-6709410D01*
G01X8042402Y-6700520D01*
G01X8024622Y-6673850D01*
G01X8015732Y-6629400D01*
G01X8015732Y-6602730D01*
G01X8024622Y-6558280D01*
G01X8042402Y-6531610D01*
G01X8069072Y-6522720D01*
G01X8086852Y-6522720D01*
G01X7952740Y-6558280D02*
G01X7934960Y-6549390D01*
G01X7908290Y-6522720D01*
G01X7908290Y-6709410D01*
G01X9464040Y-7132320D02*
G01X9464040Y-7319010D01*
G01X9375140Y-7194550D02*
G01X9464040Y-7283450D01*
G01X9428480Y-7247890D02*
G01X9366250Y-7319010D01*
G01X9303258Y-7247890D02*
G01X9196578Y-7247890D01*
G01X9196578Y-7230110D01*
G01X9205468Y-7212330D01*
G01X9214358Y-7203440D01*
G01X9232138Y-7194550D01*
G01X9258808Y-7194550D01*
G01X9276588Y-7203440D01*
G01X9294368Y-7221220D01*
G01X9303258Y-7247890D01*
G01X9303258Y-7265670D01*
G01X9294368Y-7292340D01*
G01X9276588Y-7310120D01*
G01X9258808Y-7319010D01*
G01X9232138Y-7319010D01*
G01X9214358Y-7310120D01*
G01X9196578Y-7292340D01*
G01X9124696Y-7194550D02*
G01X9071356Y-7319010D01*
G01X9018016Y-7194550D02*
G01X9071356Y-7319010D01*
G01X9089136Y-7354570D01*
G01X9106916Y-7372350D01*
G01X9124696Y-7381240D01*
G01X9133586Y-7381240D01*
G01X8955024Y-7132320D02*
G01X8955024Y-7319010D01*
G01X8955024Y-7221220D02*
G01X8937244Y-7203440D01*
G01X8919464Y-7194550D01*
G01X8892794Y-7194550D01*
G01X8875014Y-7203440D01*
G01X8857234Y-7221220D01*
G01X8848344Y-7247890D01*
G01X8848344Y-7265670D01*
G01X8857234Y-7292340D01*
G01X8875014Y-7310120D01*
G01X8892794Y-7319010D01*
G01X8919464Y-7319010D01*
G01X8937244Y-7310120D01*
G01X8955024Y-7292340D01*
G01X8740902Y-7194550D02*
G01X8758682Y-7203440D01*
G01X8776462Y-7221220D01*
G01X8785352Y-7247890D01*
G01X8785352Y-7265670D01*
G01X8776462Y-7292340D01*
G01X8758682Y-7310120D01*
G01X8740902Y-7319010D01*
G01X8714232Y-7319010D01*
G01X8696452Y-7310120D01*
G01X8678672Y-7292340D01*
G01X8669782Y-7265670D01*
G01X8669782Y-7247890D01*
G01X8678672Y-7221220D01*
G01X8696452Y-7203440D01*
G01X8714232Y-7194550D01*
G01X8740902Y-7194550D01*
G01X8500110Y-7194550D02*
G01X8500110Y-7319010D01*
G01X8500110Y-7221220D02*
G01X8517890Y-7203440D01*
G01X8535670Y-7194550D01*
G01X8562340Y-7194550D01*
G01X8580120Y-7203440D01*
G01X8597900Y-7221220D01*
G01X8606790Y-7247890D01*
G01X8606790Y-7265670D01*
G01X8597900Y-7292340D01*
G01X8580120Y-7310120D01*
G01X8562340Y-7319010D01*
G01X8535670Y-7319010D01*
G01X8517890Y-7310120D01*
G01X8500110Y-7292340D01*
G01X8437118Y-7194550D02*
G01X8437118Y-7319010D01*
G01X8437118Y-7247890D02*
G01X8428228Y-7221220D01*
G01X8410448Y-7203440D01*
G01X8392668Y-7194550D01*
G01X8365998Y-7194550D01*
G01X8196326Y-7132320D02*
G01X8196326Y-7319010D01*
G01X8196326Y-7221220D02*
G01X8214106Y-7203440D01*
G01X8231886Y-7194550D01*
G01X8258556Y-7194550D01*
G01X8276336Y-7203440D01*
G01X8294116Y-7221220D01*
G01X8303006Y-7247890D01*
G01X8303006Y-7265670D01*
G01X8294116Y-7292340D01*
G01X8276336Y-7310120D01*
G01X8258556Y-7319010D01*
G01X8231886Y-7319010D01*
G01X8214106Y-7310120D01*
G01X8196326Y-7292340D01*
G01X9357360Y-7499350D02*
G01X9357360Y-7623810D01*
G01X9357360Y-7526020D02*
G01X9375140Y-7508240D01*
G01X9392920Y-7499350D01*
G01X9419590Y-7499350D01*
G01X9437370Y-7508240D01*
G01X9455150Y-7526020D01*
G01X9464040Y-7552690D01*
G01X9464040Y-7570470D01*
G01X9455150Y-7597140D01*
G01X9437370Y-7614920D01*
G01X9419590Y-7623810D01*
G01X9392920Y-7623810D01*
G01X9375140Y-7614920D01*
G01X9357360Y-7597140D01*
G01X9187688Y-7437120D02*
G01X9187688Y-7623810D01*
G01X9187688Y-7526020D02*
G01X9205468Y-7508240D01*
G01X9223248Y-7499350D01*
G01X9249918Y-7499350D01*
G01X9267698Y-7508240D01*
G01X9285478Y-7526020D01*
G01X9294368Y-7552690D01*
G01X9294368Y-7570470D01*
G01X9285478Y-7597140D01*
G01X9267698Y-7614920D01*
G01X9249918Y-7623810D01*
G01X9223248Y-7623810D01*
G01X9205468Y-7614920D01*
G01X9187688Y-7597140D01*
G01X9018016Y-7499350D02*
G01X9018016Y-7623810D01*
G01X9018016Y-7526020D02*
G01X9035796Y-7508240D01*
G01X9053576Y-7499350D01*
G01X9080246Y-7499350D01*
G01X9098026Y-7508240D01*
G01X9115806Y-7526020D01*
G01X9124696Y-7552690D01*
G01X9124696Y-7570470D01*
G01X9115806Y-7597140D01*
G01X9098026Y-7614920D01*
G01X9080246Y-7623810D01*
G01X9053576Y-7623810D01*
G01X9035796Y-7614920D01*
G01X9018016Y-7597140D01*
G01X8955024Y-7499350D02*
G01X8955024Y-7686040D01*
G01X8955024Y-7526020D02*
G01X8937244Y-7508240D01*
G01X8919464Y-7499350D01*
G01X8892794Y-7499350D01*
G01X8875014Y-7508240D01*
G01X8857234Y-7526020D01*
G01X8848344Y-7552690D01*
G01X8848344Y-7570470D01*
G01X8857234Y-7597140D01*
G01X8875014Y-7614920D01*
G01X8892794Y-7623810D01*
G01X8919464Y-7623810D01*
G01X8937244Y-7614920D01*
G01X8955024Y-7597140D01*
G01X8758682Y-7437120D02*
G01X8758682Y-7588250D01*
G01X8749792Y-7614920D01*
G01X8732012Y-7623810D01*
G01X8714232Y-7623810D01*
G01X8785352Y-7499350D02*
G01X8723122Y-7499350D01*
G01X8651240Y-7552690D02*
G01X8544560Y-7552690D01*
G01X8544560Y-7534910D01*
G01X8553450Y-7517130D01*
G01X8562340Y-7508240D01*
G01X8580120Y-7499350D01*
G01X8606790Y-7499350D01*
G01X8624570Y-7508240D01*
G01X8642350Y-7526020D01*
G01X8651240Y-7552690D01*
G01X8651240Y-7570470D01*
G01X8642350Y-7597140D01*
G01X8624570Y-7614920D01*
G01X8606790Y-7623810D01*
G01X8580120Y-7623810D01*
G01X8562340Y-7614920D01*
G01X8544560Y-7597140D01*
G01X8481568Y-7499350D02*
G01X8481568Y-7623810D01*
G01X8481568Y-7552690D02*
G01X8472678Y-7526020D01*
G01X8454898Y-7508240D01*
G01X8437118Y-7499350D01*
G01X8410448Y-7499350D01*
G01X4608322Y-5493766D02*
G01X4600194Y-5489702D01*
G01X4592066Y-5481574D01*
G01X4588002Y-5473700D01*
G01X4588002Y-5457444D01*
G01X4592066Y-5449316D01*
G01X4600194Y-5441188D01*
G01X4608322Y-5437124D01*
G01X4620514Y-5433060D01*
G01X4640834Y-5433060D01*
G01X4653026Y-5437124D01*
G01X4660900Y-5441188D01*
G01X4669028Y-5449316D01*
G01X4673092Y-5457444D01*
G01X4673092Y-5473700D01*
G01X4669028Y-5481574D01*
G01X4660900Y-5489702D01*
G01X4653026Y-5493766D01*
G01X4588002Y-5565902D02*
G01X4673092Y-5533644D01*
G01X4588002Y-5565902D02*
G01X4673092Y-5598414D01*
G01X4644898Y-5545582D02*
G01X4644898Y-5586222D01*
G01X4588002Y-5638292D02*
G01X4673092Y-5638292D01*
G01X4588002Y-5638292D02*
G01X4588002Y-5674614D01*
G01X4592066Y-5686806D01*
G01X4596130Y-5690870D01*
G01X4604258Y-5694934D01*
G01X4616450Y-5694934D01*
G01X4624578Y-5690870D01*
G01X4628642Y-5686806D01*
G01X4632706Y-5674614D01*
G01X4632706Y-5638292D01*
G01X4600194Y-5791454D02*
G01X4592066Y-5783326D01*
G01X4588002Y-5771134D01*
G01X4588002Y-5754878D01*
G01X4592066Y-5742686D01*
G01X4600194Y-5734812D01*
G01X4608322Y-5734812D01*
G01X4616450Y-5738622D01*
G01X4620514Y-5742686D01*
G01X4624578Y-5750814D01*
G01X4632706Y-5775198D01*
G01X4636770Y-5783326D01*
G01X4640834Y-5787390D01*
G01X4648962Y-5791454D01*
G01X4660900Y-5791454D01*
G01X4669028Y-5783326D01*
G01X4673092Y-5771134D01*
G01X4673092Y-5754878D01*
G01X4669028Y-5742686D01*
G01X4660900Y-5734812D01*
G01X4588002Y-5922010D02*
G01X4673092Y-5922010D01*
G01X4673092Y-5922010D02*
G01X4673092Y-5970524D01*
G01X4588002Y-6010402D02*
G01X4673092Y-6010402D01*
G01X4588002Y-6010402D02*
G01X4588002Y-6062980D01*
G01X4628642Y-6010402D02*
G01X4628642Y-6042660D01*
G01X4673092Y-6010402D02*
G01X4673092Y-6062980D01*
G01X4588002Y-6102858D02*
G01X4673092Y-6102858D01*
G01X4588002Y-6102858D02*
G01X4588002Y-6131052D01*
G01X4592066Y-6143244D01*
G01X4600194Y-6151372D01*
G01X4608322Y-6155436D01*
G01X4620514Y-6159500D01*
G01X4640834Y-6159500D01*
G01X4653026Y-6155436D01*
G01X4660900Y-6151372D01*
G01X4669028Y-6143244D01*
G01X4673092Y-6131052D01*
G01X4673092Y-6102858D01*
G01X4619804Y-6286044D02*
G01X4619804Y-6213146D01*
G01X4656380Y-6246674D02*
G01X4619804Y-6311444D01*
G01X4583482Y-6246674D01*
G04 Text End*

M02*

