G04 Layer: BottomLayer*
G04 EasyEDA Pro v3.2.148, 2026-07-05 23:03:08*
G04 Gerber Generator version 0.3*
G04 Scale: 100 percent, Rotated: No, Reflected: No*
G04 Dimensions in millimeters*
G04 Leading zeros omitted, absolute positions, 4 integers and 5 decimals*
G04 Generated by one-click*
G04 Object Configs: Pad,Via,Track,Text,Image,Dimension,BoardOutline,BoardCutout,CopperFilled,SolidRegion,FPCStiffener,Line,PlaneZone,ComponentProperty,ComponentSilkscreen,TearDrop*
G04 Layer Configs: 1,2,3,4,5,6,7,8,9,10,11,13,14,56*
G04 Copper Areas: 33*
%FSLAX45Y45*%
%MOMM*%
%ADD10C,0.203*%
%ADD11C,0.254*%
%ADD12C,0.35*%
%ADD13C,3.5*%
%ADD14C,1.5*%
%ADD15C,1.524*%
%ADD16O,2.1X1.0*%
%ADD17O,1.8094X1.0*%
%ADD18O,1.8X1.0*%
%ADD19C,0.61*%
%ADD20C,0.2*%
%ADD21C,0.25*%
G75*


G04 Copper Start*
G36*
G01X364882Y-5293604D02*
G01X3870463Y-5293604D01*
G01X3861745Y-5307032D01*
G01X3856500Y-5322158D01*
G01X3855033Y-5338100D01*
G01X3857430Y-5353929D01*
G01X3863552Y-5368722D01*
G01X3873041Y-5381617D01*
G01X3885343Y-5391861D01*
G01X3899743Y-5398858D01*
G01X3915400Y-5402200D01*
G01X3931402Y-5401691D01*
G01X3946815Y-5397361D01*
G01X3960741Y-5389463D01*
G01X4763796Y-5389463D01*
G01X4958882Y-5561353D01*
G01X4964205Y-5576679D01*
G01X4973090Y-5590253D01*
G01X4985006Y-5601263D01*
G01X4999238Y-5609051D01*
G01X5014936Y-5613148D01*
G01X5031159Y-5613311D01*
G01X5046936Y-5609529D01*
G01X5061322Y-5602029D01*
G01X5073456Y-5591260D01*
G01X5082611Y-5577866D01*
G01X5088240Y-5562650D01*
G01X5090005Y-5546523D01*
G01X5087801Y-5530449D01*
G01X5081760Y-5515393D01*
G01X5072242Y-5502254D01*
G01X5059819Y-5491819D01*
G01X5045234Y-5484714D01*
G01X5029360Y-5481364D01*
G01X4819167Y-5296165D01*
G01X4816028Y-5293604D01*
G01X9677878Y-5293604D01*
G01X9677877Y-6196800D01*
G01X9564377Y-6083300D01*
G01X9608035Y-6039641D01*
G01X9620332Y-6030823D01*
G01X9630310Y-6019448D01*
G01X9637449Y-6006106D01*
G01X9641377Y-5991494D01*
G01X9641890Y-5976371D01*
G01X9638960Y-5961526D01*
G01X9632742Y-5947731D01*
G01X9623558Y-5935706D01*
G01X9611886Y-5926076D01*
G01X9598335Y-5919343D01*
G01X9583611Y-5915858D01*
G01X9568480Y-5915801D01*
G01X9553730Y-5919177D01*
G01X9540129Y-5925809D01*
G01X9528386Y-5935352D01*
G01X9519113Y-5947308D01*
G01X9514582Y-5934683D01*
G01X9506588Y-5923912D01*
G01X9455788Y-5873112D01*
G01X9446302Y-5865833D01*
G01X9435255Y-5861257D01*
G01X9423400Y-5859696D01*
G01X9182100Y-5859696D01*
G01X9170245Y-5861257D01*
G01X9159198Y-5865833D01*
G01X9149712Y-5873112D01*
G01X9120110Y-5902713D01*
G01X9105559Y-5903991D01*
G01X9091641Y-5908424D01*
G01X9079031Y-5915797D01*
G01X9068342Y-5925752D01*
G01X9060092Y-5937806D01*
G01X9055462Y-5930355D01*
G01X9049888Y-5923580D01*
G01X9049888Y-5902784D01*
G01X9048242Y-5890282D01*
G01X9043417Y-5878632D01*
G01X9035740Y-5868628D01*
G01X8847956Y-5680844D01*
G01X8837952Y-5673168D01*
G01X8826302Y-5668342D01*
G01X8813800Y-5666696D01*
G01X5105400Y-5666696D01*
G01X5092898Y-5668342D01*
G01X5081248Y-5673168D01*
G01X5071244Y-5680844D01*
G01X5021892Y-5730196D01*
G01X2674308Y-5730196D01*
G01X2650356Y-5706244D01*
G01X2640352Y-5698568D01*
G01X2628702Y-5693742D01*
G01X2616200Y-5692096D01*
G01X2598120Y-5692096D01*
G01X2586598Y-5683416D01*
G01X2573473Y-5677434D01*
G01X2559364Y-5674432D01*
G01X2544939Y-5674552D01*
G01X2530882Y-5677788D01*
G01X2517858Y-5683988D01*
G01X2506483Y-5692859D01*
G01X2497295Y-5703979D01*
G01X2490729Y-5716823D01*
G01X2487097Y-5730783D01*
G01X2486570Y-5745198D01*
G01X2489172Y-5759386D01*
G01X2494782Y-5772676D01*
G01X2503133Y-5784437D01*
G01X2513829Y-5794115D01*
G01X2526366Y-5801250D01*
G01X2513829Y-5808385D01*
G01X2503133Y-5818063D01*
G01X2494782Y-5829825D01*
G01X2489172Y-5843114D01*
G01X2486570Y-5857302D01*
G01X2487097Y-5871717D01*
G01X2490729Y-5885677D01*
G01X2497295Y-5898522D01*
G01X2506483Y-5909642D01*
G01X2517858Y-5918512D01*
G01X2530882Y-5924712D01*
G01X2544939Y-5927949D01*
G01X2559364Y-5928069D01*
G01X2573473Y-5925066D01*
G01X2586598Y-5919084D01*
G01X2598120Y-5910404D01*
G01X5034500Y-5910404D01*
G01X5047002Y-5908758D01*
G01X5058652Y-5903933D01*
G01X5068656Y-5896256D01*
G01X5089566Y-5875347D01*
G01X5098267Y-5885781D01*
G01X5108912Y-5894222D01*
G01X5121055Y-5900317D01*
G01X5134185Y-5903808D01*
G01X5147751Y-5904550D01*
G01X5161183Y-5902511D01*
G01X5173918Y-5897777D01*
G01X5185420Y-5890547D01*
G01X5195208Y-5881124D01*
G01X5202869Y-5869904D01*
G01X5685820Y-5869904D01*
G01X5682612Y-5873112D01*
G01X5675333Y-5882598D01*
G01X5670757Y-5893645D01*
G01X5669196Y-5905500D01*
G01X5669196Y-6045200D01*
G01X5670757Y-6057055D01*
G01X5675333Y-6068102D01*
G01X5682612Y-6077588D01*
G01X5962012Y-6356988D01*
G01X5971498Y-6364267D01*
G01X5982545Y-6368843D01*
G01X5994400Y-6370404D01*
G01X6010260Y-6370404D01*
G01X6022380Y-6380396D01*
G01X5607941Y-6380396D01*
G01X5595349Y-6370104D01*
G01X5580630Y-6363187D01*
G01X5564670Y-6360061D01*
G01X5548430Y-6360914D01*
G01X5532885Y-6365694D01*
G01X5518972Y-6374115D01*
G01X5507527Y-6385670D01*
G01X5499239Y-6399663D01*
G01X5381081Y-6281504D01*
G01X5451160Y-6281504D01*
G01X5463305Y-6291511D01*
G01X5477465Y-6298375D01*
G01X5492845Y-6301708D01*
G01X5508576Y-6301323D01*
G01X5523774Y-6297242D01*
G01X5537582Y-6289694D01*
G01X5549223Y-6279105D01*
G01X5558040Y-6266070D01*
G01X5563537Y-6251325D01*
G01X5565404Y-6235700D01*
G01X5563537Y-6220075D01*
G01X5558040Y-6205330D01*
G01X5549223Y-6192295D01*
G01X5537582Y-6181706D01*
G01X5523774Y-6174158D01*
G01X5508576Y-6170077D01*
G01X5492845Y-6169692D01*
G01X5477465Y-6173025D01*
G01X5463305Y-6179889D01*
G01X5451160Y-6189896D01*
G01X4279900Y-6189896D01*
G01X4268045Y-6191457D01*
G01X4256998Y-6196033D01*
G01X4247512Y-6203312D01*
G01X4188059Y-6262765D01*
G01X4169297Y-6255785D01*
G01X4149586Y-6252294D01*
G01X4129568Y-6252407D01*
G01X4109897Y-6256120D01*
G01X4091216Y-6263312D01*
G01X4074133Y-6273747D01*
G01X4059206Y-6287086D01*
G01X4046923Y-6302892D01*
G01X4037685Y-6320651D01*
G01X4031792Y-6339782D01*
G01X4029438Y-6359661D01*
G01X4030698Y-6379639D01*
G01X4035533Y-6399064D01*
G01X4043784Y-6417303D01*
G01X4055182Y-6433759D01*
G01X4069354Y-6447896D01*
G01X4085839Y-6459253D01*
G01X4104098Y-6467458D01*
G01X4123536Y-6472244D01*
G01X4143517Y-6473454D01*
G01X4163390Y-6471050D01*
G01X4182507Y-6465109D01*
G01X4200242Y-6455826D01*
G01X4216018Y-6443504D01*
G01X4229319Y-6428544D01*
G01X4239711Y-6411435D01*
G01X4246856Y-6392735D01*
G01X4250519Y-6373055D01*
G01X4250582Y-6353037D01*
G01X4247042Y-6333335D01*
G01X4298873Y-6281504D01*
G01X4702719Y-6281504D01*
G01X4662685Y-6321538D01*
G01X4643154Y-6316061D01*
G01X4622956Y-6314196D01*
G01X4602752Y-6316005D01*
G01X4583206Y-6321428D01*
G01X4564959Y-6330287D01*
G01X4548608Y-6342292D01*
G01X4534691Y-6357050D01*
G01X4523664Y-6374075D01*
G01X4515889Y-6392810D01*
G01X4511620Y-6412640D01*
G01X4510997Y-6432915D01*
G01X4514042Y-6452969D01*
G01X4520654Y-6472146D01*
G01X4530616Y-6489816D01*
G01X4543601Y-6505399D01*
G01X4559184Y-6518384D01*
G01X4576854Y-6528346D01*
G01X4596031Y-6534958D01*
G01X4616085Y-6538003D01*
G01X4636360Y-6537380D01*
G01X4656190Y-6533111D01*
G01X4674925Y-6525336D01*
G01X4691950Y-6514309D01*
G01X4706708Y-6500392D01*
G01X4718713Y-6484041D01*
G01X4727572Y-6465794D01*
G01X4732995Y-6446248D01*
G01X4734804Y-6426044D01*
G01X4732939Y-6405846D01*
G01X4727462Y-6386315D01*
G01X4756073Y-6357704D01*
G01X4940582Y-6357704D01*
G01X4929457Y-6375247D01*
G01X4921763Y-6394543D01*
G01X4917765Y-6414927D01*
G01X4917600Y-6435700D01*
G01X4921273Y-6456146D01*
G01X4928660Y-6475561D01*
G01X4939504Y-6493279D01*
G01X4953434Y-6508689D01*
G01X4969971Y-6521262D01*
G01X4988544Y-6530565D01*
G01X5008516Y-6536278D01*
G01X5029200Y-6538204D01*
G01X5049884Y-6536278D01*
G01X5069856Y-6530565D01*
G01X5088429Y-6521262D01*
G01X5104966Y-6508689D01*
G01X5118896Y-6493279D01*
G01X5129740Y-6475561D01*
G01X5137127Y-6456146D01*
G01X5140800Y-6435700D01*
G01X5140635Y-6414927D01*
G01X5136637Y-6394543D01*
G01X5128943Y-6375247D01*
G01X5117818Y-6357704D01*
G01X5327727Y-6357704D01*
G01X5487412Y-6517389D01*
G01X5496898Y-6524668D01*
G01X5507945Y-6529243D01*
G01X5519800Y-6530804D01*
G01X6265800Y-6530804D01*
G01X6277655Y-6529243D01*
G01X6288702Y-6524668D01*
G01X6298188Y-6517389D01*
G01X6422073Y-6393503D01*
G01X7222857Y-6393503D01*
G01X7234393Y-6403116D01*
G01X7247796Y-6409886D01*
G01X7262379Y-6413467D01*
G01X7277394Y-6413674D01*
G01X7292070Y-6410498D01*
G01X7305655Y-6404101D01*
G01X7317452Y-6394810D01*
G01X7326857Y-6383104D01*
G01X7575627Y-6383104D01*
G01X7713896Y-6521373D01*
G01X7713896Y-6548638D01*
G01X7704522Y-6544288D01*
G01X7694296Y-6542796D01*
G01X364882Y-6542796D01*
G01X364882Y-6327776D01*
G01X427115Y-6327776D01*
G01X427115Y-6345713D01*
G01X430844Y-6363259D01*
G01X438140Y-6379646D01*
G01X448684Y-6394158D01*
G01X462014Y-6406161D01*
G01X477549Y-6415130D01*
G01X494609Y-6420673D01*
G01X512449Y-6422548D01*
G01X592448Y-6422548D01*
G01X610288Y-6420673D01*
G01X627348Y-6415130D01*
G01X642883Y-6406161D01*
G01X656213Y-6394158D01*
G01X666757Y-6379646D01*
G01X674053Y-6363259D01*
G01X677782Y-6345713D01*
G01X677782Y-6332320D01*
G01X826759Y-6332320D01*
G01X827624Y-6349669D01*
G01X831966Y-6366489D01*
G01X839606Y-6382090D01*
G01X850232Y-6395832D01*
G01X863408Y-6407152D01*
G01X878594Y-6415587D01*
G01X895167Y-6420790D01*
G01X912449Y-6422548D01*
G01X912449Y-6422548D01*
G01X1022449Y-6422548D01*
G01X1040288Y-6420673D01*
G01X1057348Y-6415130D01*
G01X1072883Y-6406161D01*
G01X1086214Y-6394158D01*
G01X1096757Y-6379646D01*
G01X1104053Y-6363259D01*
G01X1104172Y-6362700D01*
G01X3686496Y-6362700D01*
G01X3688383Y-6383060D01*
G01X3693978Y-6402727D01*
G01X3703093Y-6421031D01*
G01X3715415Y-6437348D01*
G01X3730526Y-6451123D01*
G01X3747910Y-6461888D01*
G01X3766977Y-6469274D01*
G01X3787076Y-6473031D01*
G01X3807524Y-6473031D01*
G01X3827623Y-6469274D01*
G01X3846690Y-6461888D01*
G01X3864074Y-6451123D01*
G01X3879185Y-6437348D01*
G01X3891507Y-6421031D01*
G01X3900622Y-6402727D01*
G01X3906217Y-6383060D01*
G01X3908104Y-6362700D01*
G01X3906217Y-6342340D01*
G01X3900622Y-6322673D01*
G01X3891507Y-6304369D01*
G01X3879185Y-6288052D01*
G01X3864074Y-6274277D01*
G01X3846690Y-6263512D01*
G01X3827623Y-6256126D01*
G01X3807524Y-6252369D01*
G01X3787076Y-6252369D01*
G01X3766977Y-6256126D01*
G01X3747910Y-6263512D01*
G01X3730526Y-6274277D01*
G01X3715415Y-6288052D01*
G01X3703093Y-6304369D01*
G01X3693978Y-6322673D01*
G01X3688383Y-6342340D01*
G01X3686496Y-6362700D01*
G01X3686496Y-6362700D01*
G01X1104172Y-6362700D01*
G01X1107783Y-6345713D01*
G01X1107783Y-6327776D01*
G01X1104053Y-6310230D01*
G01X1096757Y-6293843D01*
G01X1086214Y-6279331D01*
G01X1072883Y-6267328D01*
G01X1057348Y-6258359D01*
G01X1040288Y-6252816D01*
G01X1022449Y-6250941D01*
G01X954783Y-6250941D01*
G01X967226Y-6240514D01*
G01X976857Y-6227446D01*
G01X983132Y-6212475D01*
G01X985696Y-6196445D01*
G01X984406Y-6180263D01*
G01X979333Y-6164842D01*
G01X971725Y-6152599D01*
G01X1117664Y-6152599D01*
G01X1121231Y-6168426D01*
G01X1128534Y-6182913D01*
G01X1139136Y-6195192D01*
G01X1152404Y-6204530D01*
G01X1167542Y-6210366D01*
G01X1183644Y-6212350D01*
G01X1199745Y-6210366D01*
G01X1214883Y-6204530D01*
G01X1228151Y-6195192D01*
G01X1238753Y-6182913D01*
G01X1246057Y-6168426D01*
G01X1249623Y-6152599D01*
G01X1249239Y-6136380D01*
G01X1244928Y-6120739D01*
G01X1236947Y-6106614D01*
G01X1236947Y-5958804D01*
G01X1485900Y-5958804D01*
G01X1498506Y-5957292D01*
G01X1510396Y-5952842D01*
G01X1520897Y-5945706D01*
G01X1535576Y-5941800D01*
G01X1548981Y-5934656D01*
G01X1560409Y-5924649D01*
G01X1569258Y-5912303D01*
G01X1575066Y-5898268D01*
G01X1577528Y-5883278D01*
G01X1576513Y-5868123D01*
G01X1572076Y-5853595D01*
G01X1564449Y-5840459D01*
G01X1554033Y-5829403D01*
G01X1541373Y-5821008D01*
G01X1527136Y-5815715D01*
G01X1512067Y-5813800D01*
G01X1496958Y-5815366D01*
G01X1482602Y-5820328D01*
G01X1469752Y-5828428D01*
G01X1459082Y-5839240D01*
G01X1451154Y-5852196D01*
G01X1236947Y-5852196D01*
G01X1236947Y-5702879D01*
G01X1244928Y-5688754D01*
G01X1249239Y-5673113D01*
G01X1249623Y-5656894D01*
G01X1246057Y-5641067D01*
G01X1238753Y-5626580D01*
G01X1228151Y-5614300D01*
G01X1214883Y-5604963D01*
G01X1199745Y-5599127D01*
G01X1183644Y-5597142D01*
G01X1167542Y-5599127D01*
G01X1152404Y-5604963D01*
G01X1139136Y-5614300D01*
G01X1128534Y-5626580D01*
G01X1121231Y-5641067D01*
G01X1117664Y-5656894D01*
G01X1118048Y-5673113D01*
G01X1122359Y-5688754D01*
G01X1130340Y-5702879D01*
G01X1130340Y-5883280D01*
G01X1126715Y-5894128D01*
G01X1125487Y-5905500D01*
G01X1126715Y-5916872D01*
G01X1130340Y-5927720D01*
G01X1130340Y-6106614D01*
G01X1130340Y-6106614D01*
G01X1122359Y-6120739D01*
G01X1118048Y-6136380D01*
G01X1117664Y-6152599D01*
G01X971725Y-6152599D01*
G01X970765Y-6151054D01*
G01X959184Y-6139677D01*
G01X945246Y-6131355D01*
G01X929738Y-6126557D01*
G01X913535Y-6125554D01*
G01X897554Y-6128403D01*
G01X882696Y-6134943D01*
G01X869801Y-6144804D01*
G01X859597Y-6157430D01*
G01X852661Y-6172107D01*
G01X849385Y-6188007D01*
G01X849953Y-6204231D01*
G01X854333Y-6219862D01*
G01X862279Y-6234018D01*
G01X873341Y-6245899D01*
G01X886894Y-6254834D01*
G01X870921Y-6261660D01*
G01X856649Y-6271563D01*
G01X844664Y-6284138D01*
G01X835457Y-6298868D01*
G01X829407Y-6315152D01*
G01X826759Y-6332320D01*
G01X677782Y-6332320D01*
G01X677782Y-6327776D01*
G01X674053Y-6310230D01*
G01X666757Y-6293843D01*
G01X656213Y-6279331D01*
G01X642883Y-6267328D01*
G01X627348Y-6258359D01*
G01X610288Y-6252816D01*
G01X592448Y-6250941D01*
G01X592448Y-6250941D01*
G01X512449Y-6250941D01*
G01X494609Y-6252816D01*
G01X477549Y-6258359D01*
G01X462014Y-6267328D01*
G01X448684Y-6279331D01*
G01X438140Y-6293843D01*
G01X430844Y-6310230D01*
G01X427115Y-6327776D01*
G01X364882Y-6327776D01*
G01X364882Y-5463779D01*
G01X427110Y-5463779D01*
G01X427110Y-5481717D01*
G01X430839Y-5499263D01*
G01X438135Y-5515650D01*
G01X448679Y-5530162D01*
G01X462009Y-5542165D01*
G01X477544Y-5551134D01*
G01X494604Y-5556677D01*
G01X512443Y-5558552D01*
G01X592443Y-5558552D01*
G01X610283Y-5556677D01*
G01X627343Y-5551134D01*
G01X642878Y-5542165D01*
G01X656208Y-5530162D01*
G01X666752Y-5515650D01*
G01X674048Y-5499263D01*
G01X677777Y-5481717D01*
G01X677777Y-5477176D01*
G01X826752Y-5477176D01*
G01X829400Y-5494344D01*
G01X835451Y-5510628D01*
G01X844659Y-5525358D01*
G01X856644Y-5537932D01*
G01X870917Y-5547835D01*
G01X886892Y-5554660D01*
G01X873339Y-5563596D01*
G01X862277Y-5575477D01*
G01X854332Y-5589634D01*
G01X849952Y-5605265D01*
G01X849385Y-5621488D01*
G01X852662Y-5637388D01*
G01X859598Y-5652065D01*
G01X869802Y-5664690D01*
G01X882697Y-5674551D01*
G01X897555Y-5681091D01*
G01X913537Y-5683939D01*
G01X929739Y-5682936D01*
G01X945247Y-5678137D01*
G01X959185Y-5669815D01*
G01X970765Y-5658438D01*
G01X979333Y-5644650D01*
G01X984406Y-5629229D01*
G01X985696Y-5613047D01*
G01X983132Y-5597018D01*
G01X976856Y-5582046D01*
G01X967226Y-5568978D01*
G01X954783Y-5558552D01*
G01X1022441Y-5558552D01*
G01X1022441Y-5558552D01*
G01X1040281Y-5556677D01*
G01X1057341Y-5551134D01*
G01X1059478Y-5549900D01*
G01X2087896Y-5549900D01*
G01X2089859Y-5578604D01*
G01X2095713Y-5606774D01*
G01X2105348Y-5633885D01*
G01X2118585Y-5659430D01*
G01X2135177Y-5682936D01*
G01X2154815Y-5703963D01*
G01X2177133Y-5722121D01*
G01X2201716Y-5737070D01*
G01X2228106Y-5748532D01*
G01X2255811Y-5756295D01*
G01X2284314Y-5760213D01*
G01X2313086Y-5760213D01*
G01X2341589Y-5756295D01*
G01X2369294Y-5748532D01*
G01X2395684Y-5737070D01*
G01X2420267Y-5722121D01*
G01X2442585Y-5703963D01*
G01X2462223Y-5682936D01*
G01X2478815Y-5659430D01*
G01X2492052Y-5633885D01*
G01X2501687Y-5606774D01*
G01X2507541Y-5578604D01*
G01X2509504Y-5549900D01*
G01X2507541Y-5521196D01*
G01X2501687Y-5493026D01*
G01X2492052Y-5465915D01*
G01X2478815Y-5440370D01*
G01X2462223Y-5416864D01*
G01X2442585Y-5395837D01*
G01X2420267Y-5377679D01*
G01X2395684Y-5362730D01*
G01X2369294Y-5351268D01*
G01X2341589Y-5343505D01*
G01X2313086Y-5339587D01*
G01X2284314Y-5339587D01*
G01X2255811Y-5343505D01*
G01X2228106Y-5351268D01*
G01X2201716Y-5362730D01*
G01X2177133Y-5377679D01*
G01X2154815Y-5395837D01*
G01X2135177Y-5416864D01*
G01X2118585Y-5440370D01*
G01X2105348Y-5465915D01*
G01X2095713Y-5493026D01*
G01X2089859Y-5521196D01*
G01X2087896Y-5549900D01*
G01X2087896Y-5549900D01*
G01X1059478Y-5549900D01*
G01X1072875Y-5542165D01*
G01X1086206Y-5530162D01*
G01X1096750Y-5515650D01*
G01X1104046Y-5499263D01*
G01X1107775Y-5481717D01*
G01X1107775Y-5463779D01*
G01X1104046Y-5446233D01*
G01X1096750Y-5429846D01*
G01X1086206Y-5415334D01*
G01X1072875Y-5403331D01*
G01X1057341Y-5394363D01*
G01X1040281Y-5388819D01*
G01X1022441Y-5386944D01*
G01X912441Y-5386944D01*
G01X895159Y-5388703D01*
G01X878585Y-5393906D01*
G01X863399Y-5402341D01*
G01X850223Y-5413662D01*
G01X839597Y-5427404D01*
G01X831957Y-5443006D01*
G01X827616Y-5459826D01*
G01X826752Y-5477176D01*
G01X677777Y-5477176D01*
G01X677777Y-5463779D01*
G01X674048Y-5446233D01*
G01X666752Y-5429846D01*
G01X656208Y-5415334D01*
G01X642878Y-5403331D01*
G01X627343Y-5394363D01*
G01X610283Y-5388819D01*
G01X592443Y-5386944D01*
G01X592443Y-5386944D01*
G01X512443Y-5386944D01*
G01X494604Y-5388819D01*
G01X477544Y-5394363D01*
G01X462009Y-5403331D01*
G01X448679Y-5415334D01*
G01X438135Y-5429846D01*
G01X430839Y-5446233D01*
G01X427110Y-5463779D01*
G01X364882Y-5463779D01*
G01X364882Y-5293604D01*
G37*
G36*
G01X6491981Y-5913204D02*
G01X6480141Y-5922904D01*
G01X6470841Y-5935060D01*
G01X6464576Y-5949025D01*
G01X6461681Y-5964055D01*
G01X6462308Y-5979348D01*
G01X6466426Y-5994089D01*
G01X6473814Y-6007494D01*
G01X6484080Y-6018847D01*
G01X6496674Y-6027544D01*
G01X6510928Y-6033121D01*
G01X6526081Y-6035282D01*
G01X6541325Y-6033910D01*
G01X6555848Y-6029079D01*
G01X6568877Y-6021047D01*
G01X6579717Y-6010241D01*
G01X6587790Y-5997238D01*
G01X6592667Y-5982730D01*
G01X6594087Y-5967490D01*
G01X6610273Y-5951304D01*
G01X7083771Y-5951304D01*
G01X7078551Y-5966743D01*
G01X7077255Y-5982990D01*
G01X7079961Y-5999062D01*
G01X7086507Y-6013988D01*
G01X7096495Y-6026867D01*
G01X7109324Y-6036920D01*
G01X7124217Y-6043539D01*
G01X7140275Y-6046326D01*
G01X7156528Y-6045110D01*
G01X7171994Y-6039967D01*
G01X7185737Y-6031207D01*
G01X7196928Y-6019358D01*
G01X7204891Y-6005137D01*
G01X7209144Y-5989404D01*
G01X8464627Y-5989404D01*
G01X8844196Y-6368973D01*
G01X8844196Y-6568741D01*
G01X8807375Y-6605562D01*
G01X8791711Y-6607073D01*
G01X8776844Y-6612233D01*
G01X8763613Y-6620751D01*
G01X8752761Y-6632147D01*
G01X8744900Y-6645779D01*
G01X8740474Y-6660880D01*
G01X8739731Y-6676599D01*
G01X8742713Y-6692051D01*
G01X8749252Y-6706364D01*
G01X8758980Y-6718733D01*
G01X8771349Y-6728461D01*
G01X8785663Y-6735001D01*
G01X8801114Y-6737983D01*
G01X8816833Y-6737239D01*
G01X8831934Y-6732813D01*
G01X8845566Y-6724952D01*
G01X8856962Y-6714101D01*
G01X8865480Y-6700869D01*
G01X8870640Y-6686002D01*
G01X8872151Y-6670339D01*
G01X8922388Y-6620102D01*
G01X8929667Y-6610615D01*
G01X8934243Y-6599568D01*
G01X8935804Y-6587713D01*
G01X8935804Y-6350000D01*
G01X8934243Y-6338145D01*
G01X8929667Y-6327098D01*
G01X8922388Y-6317612D01*
G01X8822781Y-6218004D01*
G01X8943841Y-6218004D01*
G01X9002470Y-6276633D01*
G01X9003981Y-6292296D01*
G01X9009141Y-6307163D01*
G01X9017659Y-6320395D01*
G01X9029055Y-6331246D01*
G01X9042687Y-6339107D01*
G01X9057788Y-6343533D01*
G01X9073507Y-6344277D01*
G01X9088958Y-6341294D01*
G01X9103272Y-6334755D01*
G01X9115641Y-6325027D01*
G01X9125369Y-6312658D01*
G01X9131908Y-6298344D01*
G01X9134890Y-6282893D01*
G01X9134147Y-6267174D01*
G01X9129721Y-6252073D01*
G01X9121860Y-6238441D01*
G01X9111008Y-6227045D01*
G01X9097777Y-6218527D01*
G01X9082910Y-6213367D01*
G01X9067247Y-6211856D01*
G01X9022594Y-6167204D01*
G01X9156700Y-6167204D01*
G01X9168555Y-6165643D01*
G01X9179602Y-6161067D01*
G01X9189088Y-6153788D01*
G01X9256790Y-6086087D01*
G01X9272453Y-6084576D01*
G01X9287320Y-6079416D01*
G01X9300552Y-6070898D01*
G01X9311403Y-6059502D01*
G01X9319264Y-6045870D01*
G01X9323690Y-6030769D01*
G01X9324434Y-6015050D01*
G01X9321452Y-5999598D01*
G01X9314912Y-5985285D01*
G01X9305184Y-5972916D01*
G01X9292815Y-5963188D01*
G01X9278502Y-5956648D01*
G01X9263050Y-5953666D01*
G01X9247331Y-5954410D01*
G01X9232230Y-5958836D01*
G01X9218598Y-5966697D01*
G01X9207202Y-5977548D01*
G01X9198684Y-5990780D01*
G01X9193524Y-6005647D01*
G01X9192013Y-6021310D01*
G01X9170989Y-6042335D01*
G01X9171904Y-6032500D01*
G01X9171904Y-6008432D01*
G01X9179222Y-5995856D01*
G01X9183620Y-5981985D01*
G01X9184887Y-5967490D01*
G01X9201073Y-5951304D01*
G01X9404427Y-5951304D01*
G01X9428396Y-5975273D01*
G01X9428396Y-6026227D01*
G01X9073512Y-6381112D01*
G01X9066233Y-6390598D01*
G01X9061657Y-6401645D01*
G01X9060096Y-6413500D01*
G01X9060096Y-6703991D01*
G01X8877681Y-6886406D01*
G01X8861675Y-6887992D01*
G01X8846522Y-6893387D01*
G01X8833114Y-6902271D01*
G01X8822240Y-6914123D01*
G01X8814539Y-6928244D01*
G01X8810465Y-6943804D01*
G01X8810258Y-6959887D01*
G01X8813930Y-6975547D01*
G01X8821265Y-6989862D01*
G01X8831831Y-7001989D01*
G01X8845006Y-7011216D01*
G01X8860015Y-7016998D01*
G01X8875975Y-7018996D01*
G01X8891946Y-7017092D01*
G01X8906990Y-7011399D01*
G01X8920219Y-7002250D01*
G01X8920409Y-7002419D01*
G01X8920396Y-7023100D01*
G01X8921957Y-7034955D01*
G01X8926533Y-7046002D01*
G01X8933812Y-7055488D01*
G01X9022712Y-7144388D01*
G01X9032198Y-7151667D01*
G01X9043245Y-7156243D01*
G01X9055100Y-7157804D01*
G01X9227504Y-7157804D01*
G01X9239359Y-7156243D01*
G01X9250406Y-7151667D01*
G01X9259892Y-7144388D01*
G01X9328788Y-7075492D01*
G01X9336067Y-7066006D01*
G01X9340643Y-7054959D01*
G01X9342204Y-7043104D01*
G01X9342204Y-6445173D01*
G01X9377761Y-6409615D01*
G01X9377596Y-6413500D01*
G01X9377596Y-7283527D01*
G01X8921827Y-7739296D01*
G01X8610600Y-7739296D01*
G01X8598745Y-7740857D01*
G01X8587698Y-7745433D01*
G01X8578212Y-7752712D01*
G01X8349612Y-7981312D01*
G01X8342333Y-7990798D01*
G01X8337757Y-8001845D01*
G01X8336196Y-8013700D01*
G01X8336196Y-8045538D01*
G01X8059256Y-8045538D01*
G01X8051658Y-8034421D01*
G01X8041970Y-8025069D01*
G01X8030593Y-8017866D01*
G01X8017995Y-8013111D01*
G01X8019045Y-8003359D01*
G01X8019045Y-7959194D01*
G01X8329910Y-7959194D01*
G01X8341765Y-7957633D01*
G01X8352812Y-7953057D01*
G01X8362299Y-7945778D01*
G01X8731888Y-7576188D01*
G01X8739167Y-7566702D01*
G01X8743743Y-7555655D01*
G01X8745304Y-7543800D01*
G01X8745304Y-6807223D01*
G01X8743747Y-6795360D01*
G01X8739171Y-6784305D01*
G01X8731888Y-6774812D01*
G01X8719904Y-6762827D01*
G01X8719904Y-6668630D01*
G01X8718343Y-6656775D01*
G01X8713767Y-6645728D01*
G01X8706488Y-6636242D01*
G01X8379530Y-6309283D01*
G01X8379530Y-6192095D01*
G01X8395071Y-6192675D01*
G01X8410319Y-6189619D01*
G01X8424436Y-6183095D01*
G01X8436646Y-6173462D01*
G01X8446275Y-6161251D01*
G01X8452796Y-6147132D01*
G01X8455848Y-6131883D01*
G01X8455264Y-6116342D01*
G01X8451076Y-6101365D01*
G01X8443515Y-6087775D01*
G01X8432997Y-6076320D01*
G01X8420099Y-6067630D01*
G01X8405532Y-6062184D01*
G01X8390098Y-6060281D01*
G01X8374644Y-6062025D01*
G01X8360022Y-6067321D01*
G01X8347035Y-6075877D01*
G01X8336399Y-6087223D01*
G01X8278224Y-6029047D01*
G01X8268738Y-6021768D01*
G01X8257691Y-6017192D01*
G01X8245836Y-6015632D01*
G01X8149864Y-6015632D01*
G01X8138009Y-6017192D01*
G01X8126962Y-6021768D01*
G01X8117476Y-6029047D01*
G01X8096468Y-6050056D01*
G01X8087300Y-6037770D01*
G01X8075555Y-6027917D01*
G01X8061862Y-6021026D01*
G01X8046952Y-6017463D01*
G01X8031623Y-6017419D01*
G01X8016693Y-6020897D01*
G01X8002961Y-6027711D01*
G01X7991160Y-6037496D01*
G01X7810500Y-6037496D01*
G01X7798645Y-6039057D01*
G01X7787598Y-6043633D01*
G01X7778112Y-6050912D01*
G01X7753427Y-6075596D01*
G01X6140373Y-6075596D01*
G01X5977981Y-5913204D01*
G01X6491981Y-5913204D01*
G37*
G36*
G01X7730099Y-8177903D02*
G01X7730099Y-7406557D01*
G01X7743776Y-7414370D01*
G01X7758909Y-7418737D01*
G01X7774645Y-7419411D01*
G01X7790096Y-7416355D01*
G01X7790096Y-7462247D01*
G01X7765412Y-7486931D01*
G01X7758133Y-7496418D01*
G01X7753557Y-7507465D01*
G01X7751996Y-7519319D01*
G01X7751996Y-8001000D01*
G01X7753557Y-8012855D01*
G01X7758133Y-8023902D01*
G01X7765412Y-8033388D01*
G01X7816212Y-8084188D01*
G01X7825698Y-8091467D01*
G01X7836745Y-8096043D01*
G01X7848600Y-8097604D01*
G01X7924800Y-8097604D01*
G01X7937371Y-8095845D01*
G01X7943853Y-8110822D01*
G01X7953796Y-8123762D01*
G01X7966599Y-8133881D01*
G01X7981485Y-8140567D01*
G01X7997554Y-8143414D01*
G01X8013831Y-8142251D01*
G01X8029332Y-8137146D01*
G01X8367858Y-8137146D01*
G01X8379713Y-8135585D01*
G01X8390760Y-8131010D01*
G01X8400246Y-8123730D01*
G01X8414388Y-8109588D01*
G01X8421250Y-8100810D01*
G01X8436111Y-8104736D01*
G01X8451476Y-8105134D01*
G01X8466520Y-8101984D01*
G01X8480435Y-8095454D01*
G01X8492472Y-8085896D01*
G01X8500222Y-8104112D01*
G01X8511090Y-8120658D01*
G01X8524728Y-8135007D01*
G01X8540702Y-8146699D01*
G01X8558502Y-8155363D01*
G01X8577559Y-8160721D01*
G01X8597266Y-8162602D01*
G01X8616993Y-8160947D01*
G01X8636110Y-8155807D01*
G01X8654008Y-8147348D01*
G01X8670115Y-8135839D01*
G01X8683916Y-8121648D01*
G01X8694973Y-8105227D01*
G01X8702930Y-8087100D01*
G01X8707536Y-8067847D01*
G01X8708642Y-8048082D01*
G01X8706213Y-8028435D01*
G01X8700326Y-8009535D01*
G01X8691171Y-7991983D01*
G01X8679038Y-7976340D01*
G01X8664315Y-7963107D01*
G01X8647473Y-7952704D01*
G01X8667673Y-7932504D01*
G01X8796952Y-7932504D01*
G01X8794294Y-7941175D01*
G01X8793396Y-7950200D01*
G01X8793396Y-7950906D01*
G01X8775850Y-7960892D01*
G01X8760407Y-7973895D01*
G01X8747580Y-7989484D01*
G01X8737794Y-8007142D01*
G01X8731374Y-8026283D01*
G01X8728534Y-8046270D01*
G01X8729368Y-8066441D01*
G01X8733847Y-8086126D01*
G01X8741824Y-8104672D01*
G01X8753033Y-8121462D01*
G01X8767103Y-8135940D01*
G01X8783566Y-8147625D01*
G01X8801876Y-8156129D01*
G01X8821425Y-8161169D01*
G01X8841564Y-8162579D01*
G01X8861625Y-8160311D01*
G01X8880941Y-8154441D01*
G01X8898872Y-8145164D01*
G01X8914821Y-8132787D01*
G01X8928260Y-8117722D01*
G01X8938743Y-8100469D01*
G01X8945921Y-8081600D01*
G01X8949557Y-8061742D01*
G01X8949529Y-8041553D01*
G01X8945839Y-8021705D01*
G01X8938608Y-8002856D01*
G01X8928078Y-7985632D01*
G01X8914597Y-7970604D01*
G01X9005103Y-7970604D01*
G01X8991302Y-7986064D01*
G01X8980621Y-8003824D01*
G01X8973434Y-8023262D01*
G01X8969993Y-8043699D01*
G01X8970417Y-8064418D01*
G01X8974692Y-8084697D01*
G01X8982669Y-8103824D01*
G01X8994067Y-8121132D01*
G01X9008490Y-8136014D01*
G01X9025431Y-8147951D01*
G01X9044299Y-8156524D01*
G01X9064434Y-8161433D01*
G01X9085130Y-8162507D01*
G01X9105664Y-8159709D01*
G01X9125318Y-8153135D01*
G01X9143404Y-8143017D01*
G01X9159290Y-8129708D01*
G01X9172420Y-8113673D01*
G01X9182334Y-8095474D01*
G01X9188685Y-8075747D01*
G01X9191252Y-8055183D01*
G01X9189945Y-8034500D01*
G01X9184809Y-8014422D01*
G01X9176024Y-7995652D01*
G01X9260915Y-7910761D01*
G01X9254063Y-7938073D01*
G01X9250912Y-7966054D01*
G01X9251519Y-7994205D01*
G01X9255871Y-8022024D01*
G01X9263893Y-8049015D01*
G01X9275440Y-8074696D01*
G01X9290307Y-8098610D01*
G01X9308229Y-8120328D01*
G01X9328884Y-8139464D01*
G01X9351907Y-8155677D01*
G01X9376884Y-8168676D01*
G01X9403371Y-8178231D01*
G01X7730099Y-8177903D01*
G37*
G36*
G01X7765822Y-6240545D02*
G01X7775868Y-6228075D01*
G01X7782631Y-6213559D01*
G01X7785718Y-6197846D01*
G01X7784946Y-6181850D01*
G01X7780363Y-6166507D01*
G01X7789317Y-6163966D01*
G01X7797572Y-6159667D01*
G01X7804788Y-6153788D01*
G01X7829473Y-6129104D01*
G01X7991160Y-6129104D01*
G01X7999638Y-6136582D01*
G01X8009263Y-6142511D01*
G01X8006820Y-6150850D01*
G01X8005996Y-6159500D01*
G01X8005996Y-6400800D01*
G01X8007557Y-6412655D01*
G01X8012133Y-6423702D01*
G01X8019412Y-6433188D01*
G01X8070212Y-6483988D01*
G01X8079698Y-6491267D01*
G01X8090745Y-6495843D01*
G01X8102600Y-6497404D01*
G01X8174952Y-6497404D01*
G01X8221896Y-6544348D01*
G01X8221896Y-6645149D01*
G01X8223457Y-6657004D01*
G01X8228033Y-6668051D01*
G01X8235312Y-6677537D01*
G01X8284139Y-6726364D01*
G01X8293625Y-6733644D01*
G01X8304673Y-6738219D01*
G01X8316527Y-6739780D01*
G01X8326004Y-6739780D01*
G01X8364986Y-6778762D01*
G01X8361886Y-6789647D01*
G01X8360682Y-6800901D01*
G01X8361410Y-6812196D01*
G01X8281273Y-6812196D01*
G01X8275404Y-6806327D01*
G01X8275404Y-6769100D01*
G01X8273843Y-6757245D01*
G01X8269267Y-6746198D01*
G01X8261988Y-6736712D01*
G01X7765822Y-6240545D01*
G37*
G36*
G01X7866011Y-6616470D02*
G01X7993296Y-6743756D01*
G01X7993296Y-7223743D01*
G01X7978968Y-7238071D01*
G01X7963304Y-7239582D01*
G01X7948438Y-7244742D01*
G01X7935206Y-7253260D01*
G01X7924354Y-7264656D01*
G01X7916494Y-7278288D01*
G01X7912067Y-7293389D01*
G01X7911324Y-7309108D01*
G01X7914306Y-7324559D01*
G01X7920846Y-7338873D01*
G01X7930574Y-7351242D01*
G01X7942943Y-7360970D01*
G01X7957256Y-7367509D01*
G01X7972707Y-7370491D01*
G01X7988426Y-7369748D01*
G01X8003527Y-7365322D01*
G01X8017160Y-7357461D01*
G01X8028556Y-7346609D01*
G01X8037074Y-7333378D01*
G01X8042234Y-7318511D01*
G01X8043745Y-7302847D01*
G01X8071488Y-7275104D01*
G01X8078767Y-7265617D01*
G01X8083343Y-7254570D01*
G01X8084904Y-7242716D01*
G01X8084904Y-6752681D01*
G01X8132996Y-6800773D01*
G01X8132996Y-7429500D01*
G01X8134277Y-7440256D01*
G01X8138048Y-7450411D01*
G01X8138697Y-7465176D01*
G01X8142601Y-7479431D01*
G01X8149565Y-7492467D01*
G01X8159244Y-7503636D01*
G01X8171156Y-7512383D01*
G01X8184710Y-7518275D01*
G01X8199233Y-7521018D01*
G01X8214002Y-7520475D01*
G01X8228285Y-7516675D01*
G01X8241370Y-7509805D01*
G01X8252609Y-7500207D01*
G01X8261443Y-7488359D01*
G01X8267432Y-7474847D01*
G01X8270280Y-7460345D01*
G01X8269845Y-7445572D01*
G01X8266148Y-7431263D01*
G01X8259373Y-7418128D01*
G01X8249856Y-7406820D01*
G01X8238072Y-7397901D01*
G01X8224604Y-7391814D01*
G01X8224604Y-6885081D01*
G01X8229912Y-6890388D01*
G01X8239398Y-6897667D01*
G01X8250445Y-6902243D01*
G01X8262300Y-6903804D01*
G01X8458200Y-6903804D01*
G01X8470055Y-6902243D01*
G01X8481102Y-6897667D01*
G01X8490588Y-6890388D01*
G01X8501296Y-6879681D01*
G01X8501296Y-7423227D01*
G01X8388427Y-7536096D01*
G01X8163240Y-7536096D01*
G01X8151434Y-7526307D01*
G01X8137695Y-7519492D01*
G01X8122757Y-7516017D01*
G01X8107421Y-7516066D01*
G01X8092506Y-7519637D01*
G01X8078811Y-7526540D01*
G01X8067068Y-7536404D01*
G01X8057905Y-7548703D01*
G01X8051813Y-7562777D01*
G01X8049118Y-7577875D01*
G01X8049964Y-7593188D01*
G01X8054305Y-7607897D01*
G01X8061910Y-7621216D01*
G01X8072371Y-7632430D01*
G01X8085129Y-7640942D01*
G01X8099501Y-7646294D01*
G01X8114718Y-7648201D01*
G01X8129967Y-7646561D01*
G01X8126410Y-7658627D01*
G01X8125196Y-7671147D01*
G01X8126368Y-7683670D01*
G01X8110239Y-7683524D01*
G01X8094551Y-7687277D01*
G01X8080234Y-7694707D01*
G01X8068134Y-7705374D01*
G01X8058969Y-7718647D01*
G01X8053279Y-7733740D01*
G01X8051403Y-7749761D01*
G01X8053451Y-7765761D01*
G01X8059301Y-7780793D01*
G01X8068609Y-7793967D01*
G01X8080822Y-7804504D01*
G01X8095217Y-7811780D01*
G01X8110944Y-7815364D01*
G01X8127071Y-7815045D01*
G01X8125167Y-7828605D01*
G01X8126088Y-7842266D01*
G01X8129795Y-7855447D01*
G01X8136131Y-7867586D01*
G01X7973241Y-7867586D01*
G01X7961386Y-7869146D01*
G01X7950339Y-7873722D01*
G01X7940853Y-7881001D01*
G01X7933574Y-7890488D01*
G01X7928998Y-7901535D01*
G01X7927437Y-7913390D01*
G01X7927437Y-7984386D01*
G01X7905827Y-8005996D01*
G01X7867573Y-8005996D01*
G01X7843604Y-7982027D01*
G01X7843604Y-7538292D01*
G01X7868288Y-7513608D01*
G01X7875567Y-7504121D01*
G01X7880143Y-7493074D01*
G01X7881704Y-7481219D01*
G01X7881704Y-7175500D01*
G01X7880143Y-7163645D01*
G01X7875567Y-7152598D01*
G01X7868288Y-7143112D01*
G01X7843604Y-7118427D01*
G01X7843604Y-6613109D01*
G01X7854663Y-6615754D01*
G01X7866011Y-6616470D01*
G37*
G36*
G01X9677875Y-8178285D02*
G01X9519550Y-8178254D01*
G01X9545776Y-8168825D01*
G01X9570529Y-8156019D01*
G01X9593376Y-8140060D01*
G01X9613919Y-8121226D01*
G01X9631797Y-8099846D01*
G01X9646699Y-8076295D01*
G01X9658364Y-8050984D01*
G01X9666588Y-8024356D01*
G01X9671228Y-7996875D01*
G01X9672201Y-7969023D01*
G01X9669492Y-7941285D01*
G01X9663148Y-7914147D01*
G01X9653279Y-7888083D01*
G01X9640058Y-7863549D01*
G01X9623716Y-7840974D01*
G01X9604539Y-7820751D01*
G01X9582862Y-7803235D01*
G01X9559063Y-7788732D01*
G01X9533560Y-7777495D01*
G01X9506797Y-7769720D01*
G01X9479242Y-7765544D01*
G01X9451377Y-7765039D01*
G01X9423689Y-7768215D01*
G01X9396661Y-7775015D01*
G01X9677876Y-7493801D01*
G01X9677875Y-8178285D01*
G37*
G54D10*
G01X364882Y-5293604D02*
G01X3870463Y-5293604D01*
G03X3873041Y-5381617I50846J-42555D01*
G03X3960741Y-5389463I48268J45458D01*
G01X4763796Y-5389463D01*
G01X4958882Y-5561353D01*
G03X5073456Y-5591260I64825J13926D01*
G03X5029360Y-5481364I-49748J43833D01*
G01X4819167Y-5296165D01*
G03X4816028Y-5293604I-35239J-39994D01*
G01X9677878Y-5293604D01*
G01X9677877Y-6196800D01*
G01X9564377Y-6083300D01*
G01X9608035Y-6039641D01*
G03X9623558Y-5935706I-32235J57941D01*
G03X9519113Y-5947308I-47758J-45994D01*
G03X9506588Y-5923912I-44913J-8992D01*
G01X9455788Y-5873112D01*
G03X9423400Y-5859696I-32388J-32388D01*
G01X9182100Y-5859696D01*
G03X9149712Y-5873112I0J-45804D01*
G01X9120110Y-5902713D01*
G03X9060092Y-5937806I-1510J-66287D01*
G03X9049888Y-5923580I-58508J-31194D01*
G01X9049888Y-5902784D01*
G03X9035740Y-5868628I-48304J0D01*
G01X8847956Y-5680844D01*
G03X8813800Y-5666696I-34156J-34156D01*
G01X5105400Y-5666696D01*
G03X5071244Y-5680844I0J-48304D01*
G01X5021892Y-5730196D01*
G01X2674308Y-5730196D01*
G01X2650356Y-5706244D01*
G03X2616200Y-5692096I-34156J-34156D01*
G01X2598120Y-5692096D01*
G03X2497295Y-5703979I-45420J-48304D01*
G03X2526366Y-5801250I55405J-36421D01*
G03X2497295Y-5898522I26334J-60850D01*
G03X2598120Y-5910404I55405J36421D01*
G01X5034500Y-5910404D01*
G03X5068656Y-5896256I0J48304D01*
G01X5089566Y-5875347D01*
G03X5147751Y-5904550I55004J37024D01*
G03X5202869Y-5869904I-3181J66228D01*
G01X5685820Y-5869904D01*
G01X5682612Y-5873112D01*
G03X5669196Y-5905500I32388J-32388D01*
G01X5669196Y-6045200D01*
G03X5682612Y-6077588I45804J0D01*
G01X5962012Y-6356988D01*
G03X5994400Y-6370404I32388J32388D01*
G01X6010260Y-6370404D01*
G03X6022380Y-6380396I47940J45804D01*
G01X5607941Y-6380396D01*
G03X5499239Y-6399663I-47940J-45804D01*
G01X5381081Y-6281504D01*
G01X5451160Y-6281504D01*
G03X5565404Y-6235700I47940J45804D01*
G03X5451160Y-6189896I-66304J0D01*
G01X4279900Y-6189896D01*
G03X4247512Y-6203312I0J-45804D01*
G01X4188059Y-6262765D01*
G03X4055182Y-6433759I-47859J-99935D01*
G03X4247042Y-6333335I85018J71059D01*
G01X4298873Y-6281504D01*
G01X4702719Y-6281504D01*
G01X4662685Y-6321538D01*
G03X4543601Y-6505399I-39885J-104662D01*
G03X4727462Y-6386315I79199J79199D01*
G01X4756073Y-6357704D01*
G01X4940582Y-6357704D01*
G03X5029200Y-6538204I88618J-68496D01*
G03X5117818Y-6357704I0J112004D01*
G01X5327727Y-6357704D01*
G01X5487412Y-6517389D01*
G03X5519800Y-6530804I32388J32388D01*
G01X6265800Y-6530804D01*
G03X6298188Y-6517389I0J45804D01*
G01X6422073Y-6393503D01*
G01X7222857Y-6393503D01*
G03X7277394Y-6413674I47940J45804D01*
G03X7326857Y-6383104I-6597J65975D01*
G01X7575627Y-6383104D01*
G01X7713896Y-6521373D01*
G01X7713896Y-6548638D01*
G03X7694296Y-6542796I-19601J-29962D01*
G01X364882Y-6542796D01*
G01X364882Y-5293604D01*
G01X592443Y-5386944D02*
G01X512443Y-5386944D01*
G03X512443Y-5558552I0J-85804D01*
G01X592443Y-5558552D01*
G03X592443Y-5386944I0J85804D01*
G01X592448Y-6250941D02*
G01X512449Y-6250941D01*
G03X512449Y-6422548I0J-85804D01*
G01X592448Y-6422548D01*
G03X592448Y-6250941I0J85804D01*
G01X1022441Y-5558552D02*
G03X1022441Y-5386944I0J85804D01*
G01X912441Y-5386944D01*
G03X886892Y-5554660I0J-85804D01*
G03X913537Y-5683939I30555J-61088D01*
G03X954783Y-5558552I3909J68191D01*
G01X1022441Y-5558552D01*
G01X912449Y-6422548D02*
G01X1022449Y-6422548D01*
G03X1022449Y-6250941I0J85804D01*
G01X954783Y-6250941D01*
G03X913535Y-6125554I-37336J57196D01*
G03X886894Y-6254834I3911J-68191D01*
G03X912449Y-6422548I25555J-81910D01*
G01X1130340Y-6106614D02*
G03X1183644Y-6212350I53304J-39432D01*
G03X1236947Y-6106614I0J66304D01*
G01X1236947Y-5958804D01*
G01X1485900Y-5958804D01*
G03X1520897Y-5945706I0J53304D01*
G03X1564449Y-5840459I-9597J65606D01*
G03X1451154Y-5852196I-53149J-39641D01*
G01X1236947Y-5852196D01*
G01X1236947Y-5702879D01*
G03X1183644Y-5597142I-53304J39432D01*
G03X1130340Y-5702879I0J-66304D01*
G01X1130340Y-5883280D01*
G03X1130340Y-5927720I48452J-22220D01*
G01X1130340Y-6106614D01*
G01X2087896Y-5549900D02*
G03X2509504Y-5549900I210804J0D01*
G03X2087896Y-5549900I-210804J0D01*
G01X3686496Y-6362700D02*
G03X3908104Y-6362700I110804J0D01*
G03X3686496Y-6362700I-110804J0D01*
G01X6491981Y-5913204D02*
G03X6496674Y-6027544I35819J-55796D01*
G03X6594087Y-5967490I31126J58544D01*
G01X6610273Y-5951304D01*
G01X7083771Y-5951304D01*
G03X7124217Y-6043539I59725J-28796D01*
G03X7209144Y-5989404I19279J63439D01*
G01X8464627Y-5989404D01*
G01X8844196Y-6368973D01*
G01X8844196Y-6568741D01*
G01X8807375Y-6605562D01*
G03X8758980Y-6718733I-1510J-66287D01*
G03X8872151Y-6670339I46884J46884D01*
G01X8922388Y-6620102D01*
G03X8935804Y-6587713I-32388J32388D01*
G01X8935804Y-6350000D01*
G03X8922388Y-6317612I-45804J0D01*
G01X8822781Y-6218004D01*
G01X8943841Y-6218004D01*
G01X9002470Y-6276633D01*
G03X9115641Y-6325027I66287J-1510D01*
G03X9067247Y-6211856I-46884J46884D01*
G01X9022594Y-6167204D01*
G01X9156700Y-6167204D01*
G03X9189088Y-6153788I0J45804D01*
G01X9256790Y-6086087D01*
G03X9305184Y-5972916I1510J66287D01*
G03X9192013Y-6021310I-46884J-46884D01*
G01X9170989Y-6042335D01*
G03X9171904Y-6032500I-52389J9835D01*
G01X9171904Y-6008432D01*
G03X9184887Y-5967490I-53304J39432D01*
G01X9201073Y-5951304D01*
G01X9404427Y-5951304D01*
G01X9428396Y-5975273D01*
G01X9428396Y-6026227D01*
G01X9073512Y-6381112D01*
G03X9060096Y-6413500I32388J-32388D01*
G01X9060096Y-6703991D01*
G01X8877681Y-6886406D01*
G03X8813930Y-6975547I-1510J-66287D01*
G03X8920219Y-7002250I62241J22855D01*
G01X8920409Y-7002419D01*
G01X8920396Y-7023100D01*
G03X8933812Y-7055488I45804J0D01*
G01X9022712Y-7144388D01*
G03X9055100Y-7157804I32388J32388D01*
G01X9227504Y-7157804D01*
G03X9259892Y-7144388I0J45804D01*
G01X9328788Y-7075492D01*
G03X9342204Y-7043104I-32388J32388D01*
G01X9342204Y-6445173D01*
G01X9377761Y-6409615D01*
G03X9377596Y-6413500I45639J-3885D01*
G01X9377596Y-7283527D01*
G01X8921827Y-7739296D01*
G01X8610600Y-7739296D01*
G03X8578212Y-7752712I0J-45804D01*
G01X8349612Y-7981312D01*
G03X8336196Y-8013700I32388J-32388D01*
G01X8336196Y-8045538D01*
G01X8059256Y-8045538D01*
G03X8017995Y-8013111I-58256J-31662D01*
G03X8019045Y-8003359I-44754J9752D01*
G01X8019045Y-7959194D01*
G01X8329910Y-7959194D01*
G03X8362299Y-7945778I0J45804D01*
G01X8731888Y-7576188D01*
G03X8745304Y-7543800I-32388J32388D01*
G01X8745304Y-6807223D01*
G03X8731888Y-6774812I-45804J23D01*
G01X8719904Y-6762827D01*
G01X8719904Y-6668630D01*
G03X8706488Y-6636242I-45804J0D01*
G01X8379530Y-6309283D01*
G01X8379530Y-6192095D01*
G03X8451076Y-6101365I10226J65511D01*
G03X8336399Y-6087223I-61321J-25219D01*
G01X8278224Y-6029047D01*
G03X8245836Y-6015632I-32388J-32388D01*
G01X8149864Y-6015632D01*
G03X8117476Y-6029047I0J-45804D01*
G01X8096468Y-6050056D01*
G03X7991160Y-6037496I-57368J-33244D01*
G01X7810500Y-6037496D01*
G03X7778112Y-6050912I0J-45804D01*
G01X7753427Y-6075596D01*
G01X6140373Y-6075596D01*
G01X5977981Y-5913204D01*
G01X6491981Y-5913204D01*
G01X7730099Y-8177903D02*
G01X7730099Y-7406557D01*
G03X7790096Y-7416355I39495J53257D01*
G01X7790096Y-7462247D01*
G01X7765412Y-7486931D01*
G03X7751996Y-7519319I32388J-32388D01*
G01X7751996Y-8001000D01*
G03X7765412Y-8033388I45804J0D01*
G01X7816212Y-8084188D01*
G03X7848600Y-8097604I32388J32388D01*
G01X7924800Y-8097604D01*
G03X7937371Y-8095845I0J45804D01*
G03X8029332Y-8137146I63629J18645D01*
G01X8367858Y-8137146D01*
G03X8400246Y-8123730I0J45804D01*
G01X8414388Y-8109588D01*
G03X8421250Y-8100810I-32388J32388D01*
G03X8492472Y-8085896I24250J61710D01*
G03X8670115Y-8135839I105428J34096D01*
G03X8647473Y-7952704I-72215J84039D01*
G01X8667673Y-7932504D01*
G01X8796952Y-7932504D01*
G03X8793396Y-7950200I42248J-17696D01*
G01X8793396Y-7950906D01*
G03X8821425Y-8161169I45804J-100894D01*
G03X8914597Y-7970604I17775J109369D01*
G01X9005103Y-7970604D01*
G03X9064434Y-8161433I75397J-81196D01*
G03X9176024Y-7995652I16066J109633D01*
G01X9260915Y-7910761D01*
G03X9403371Y-8178231I200585J-64839D01*
G01X7730099Y-8177903D01*
G01X7765822Y-6240545D02*
G03X7780363Y-6166507I-46232J47527D01*
G03X7804788Y-6153788I-7963J45107D01*
G01X7829473Y-6129104D01*
G01X7991160Y-6129104D01*
G03X8009263Y-6142511I47940J45804D01*
G03X8005996Y-6159500I42537J-16989D01*
G01X8005996Y-6400800D01*
G03X8019412Y-6433188I45804J0D01*
G01X8070212Y-6483988D01*
G03X8102600Y-6497404I32388J32388D01*
G01X8174952Y-6497404D01*
G01X8221896Y-6544348D01*
G01X8221896Y-6645149D01*
G03X8235312Y-6677537I45804J0D01*
G01X8284139Y-6726364D01*
G03X8316527Y-6739780I32388J32388D01*
G01X8326004Y-6739780D01*
G01X8364986Y-6778762D01*
G03X8361410Y-6812196I61986J-23538D01*
G01X8281273Y-6812196D01*
G01X8275404Y-6806327D01*
G01X8275404Y-6769100D01*
G03X8261988Y-6736712I-45804J0D01*
G01X7765822Y-6240545D01*
G01X7866011Y-6616470D02*
G01X7993296Y-6743756D01*
G01X7993296Y-7223743D01*
G01X7978968Y-7238071D01*
G03X7930574Y-7351242I-1510J-66287D01*
G03X8043745Y-7302847I46884J46884D01*
G01X8071488Y-7275104D01*
G03X8084904Y-7242716I-32388J32388D01*
G01X8084904Y-6752681D01*
G01X8132996Y-6800773D01*
G01X8132996Y-7429500D01*
G03X8138048Y-7450411I45804J0D01*
G03X8241370Y-7509805I66152J-4489D01*
G03X8224604Y-7391814I-37170J54905D01*
G01X8224604Y-6885081D01*
G01X8229912Y-6890388D01*
G03X8262300Y-6903804I32388J32388D01*
G01X8458200Y-6903804D01*
G03X8490588Y-6890388I0J45804D01*
G01X8501296Y-6879681D01*
G01X8501296Y-7423227D01*
G01X8388427Y-7536096D01*
G01X8163240Y-7536096D01*
G03X8051813Y-7562777I-47940J-45804D01*
G03X8129967Y-7646561I63487J-19123D01*
G03X8126368Y-7683670I61533J-24696D01*
G03X8051403Y-7749761I-8662J-65736D01*
G03X8127071Y-7815045I66303J355D01*
G03X8136131Y-7867586I64356J-15954D01*
G01X7973241Y-7867586D01*
G03X7927437Y-7913390I0J-45804D01*
G01X7927437Y-7984386D01*
G01X7905827Y-8005996D01*
G01X7867573Y-8005996D01*
G01X7843604Y-7982027D01*
G01X7843604Y-7538292D01*
G01X7868288Y-7513608D01*
G03X7881704Y-7481219I-32388J32388D01*
G01X7881704Y-7175500D01*
G03X7868288Y-7143112I-45804J0D01*
G01X7843604Y-7118427D01*
G01X7843604Y-6613109D01*
G03X7866011Y-6616470I20896J62925D01*
G01X9677875Y-8178285D02*
G01X9519550Y-8178254D01*
G03X9663148Y-7914147I-58050J202654D01*
G03X9396661Y-7775015I-201648J-61453D01*
G01X9677876Y-7493801D01*
G01X9677875Y-8178285D01*
G54D11*
G01X552443Y-5472748D02*
G01X552443Y-5397094D01*
G01X552443Y-5472748D02*
G01X552443Y-5548402D01*
G01X552443Y-5472748D02*
G01X668097Y-5472748D01*
G01X552443Y-5472748D02*
G01X436790Y-5472748D01*
G01X552448Y-6336745D02*
G01X552448Y-6261091D01*
G01X552448Y-6336745D02*
G01X552448Y-6412398D01*
G01X552448Y-6336745D02*
G01X668102Y-6336745D01*
G01X552448Y-6336745D02*
G01X436795Y-6336745D01*
G01X967441Y-5472748D02*
G01X967441Y-5397094D01*
G01X967441Y-5472748D02*
G01X967441Y-5548402D01*
G01X967441Y-5472748D02*
G01X1098095Y-5472748D01*
G01X967441Y-5472748D02*
G01X836788Y-5472748D01*
G01X967449Y-6336745D02*
G01X967449Y-6261091D01*
G01X967449Y-6336745D02*
G01X967449Y-6412398D01*
G01X967449Y-6336745D02*
G01X1098103Y-6336745D01*
G01X967449Y-6336745D02*
G01X836795Y-6336745D01*
G01X2298700Y-5549900D02*
G01X2098046Y-5549900D01*
G01X2298700Y-5549900D02*
G01X2499354Y-5549900D01*
G01X2298700Y-5549900D02*
G01X2298700Y-5349246D01*
G01X2298700Y-5549900D02*
G01X2298700Y-5750554D01*
G01X3797300Y-6362700D02*
G01X3696646Y-6362700D01*
G01X3797300Y-6362700D02*
G01X3897954Y-6362700D01*
G01X3797300Y-6362700D02*
G01X3797300Y-6262046D01*
G01X3797300Y-6362700D02*
G01X3797300Y-6463354D01*
G01X9461500Y-7975600D02*
G01X9260846Y-7975600D01*
G01X9461500Y-7975600D02*
G01X9662154Y-7975600D01*
G01X9461500Y-7975600D02*
G01X9461500Y-7774946D01*
G04 Copper End*

G04 PolygonModel Start*
G54D12*
G01X5023708Y-5547427D02*
G01X4783928Y-5336159D01*
G01X3921309Y-5336159D01*

G04 Pad Start*
G54D13*
G01X9461500Y-7975600D03*
G01X2298700Y-5549900D03*
G54D14*
G01X8597900Y-8051800D03*
G01X8839200Y-8051800D03*
G01X9080500Y-8051800D03*
G01X4140200Y-6362700D03*
G01X3797300Y-6362700D03*
G54D15*
G01X4622800Y-6426200D03*
G01X5029200Y-6426200D03*
G54D16*
G01X967449Y-6336745D03*
G54D18*
G01X552448Y-6336745D03*
G01X552443Y-5472748D03*
G54D16*
G01X967441Y-5472748D03*
G04 Pad End*

G04 Via Start*
G54D19*
G01X8389756Y-6126584D03*
G01X9496700Y-6447047D03*
G01X9499600Y-6337300D03*
G01X8445500Y-8039100D03*
G01X8001000Y-8077200D03*
G01X8191427Y-7831000D03*
G01X8117706Y-7749406D03*
G01X8191500Y-7671258D03*
G01X8115300Y-7581900D03*
G01X8191500Y-6131200D03*
G01X8115300Y-6197600D03*
G01X8144158Y-6388100D03*
G01X8267700Y-6197600D03*
G01X7904300Y-6776189D03*
G01X8310093Y-6776189D03*
G01X7895107Y-7981216D03*
G01X7979058Y-7102758D03*
G01X8767900Y-7323607D03*
G01X8911501Y-7103593D03*
G01X8310093Y-7981216D03*
G01X8775700Y-6362700D03*
G01X8978900Y-6362700D03*
G01X8978900Y-6565900D03*
G01X8775700Y-6565900D03*
G01X1183644Y-6146046D03*
G01X1183644Y-5663446D03*
G01X8204200Y-7454900D03*
G01X7864500Y-6550183D03*
G01X7977458Y-7304358D03*
G01X7719590Y-6193018D03*
G01X5854945Y-5988921D03*
G01X9017000Y-5537200D03*
G01X7213600Y-5473700D03*
G01X7721600Y-5588000D03*
G01X9258300Y-6019800D03*
G01X6058200Y-6324600D03*
G01X9118600Y-5969000D03*
G01X9055926Y-6974754D03*
G01X8964267Y-6952692D03*
G01X8876171Y-6952692D03*
G01X9146900Y-6972300D03*
G01X8915400Y-5969000D03*
G01X9001584Y-5969000D03*
G01X9575800Y-5981700D03*
G01X6731000Y-6286500D03*
G01X6197600Y-6429300D03*
G01X5144569Y-5838322D03*
G01X1511300Y-5880100D03*
G01X2552700Y-5740400D03*
G01X2552700Y-5862100D03*
G01X3251200Y-5613400D03*
G01X5499100Y-6235700D03*
G01X8426971Y-6802300D03*
G01X8484886Y-6910086D03*
G01X8805864Y-6671849D03*
G01X8343900Y-6629400D03*
G01X9068757Y-6278143D03*
G01X6527800Y-5969000D03*
G01X7143496Y-5980100D03*
G01X7769595Y-7353300D03*
G01X7270796Y-6347699D03*
G01X8128000Y-7988300D03*
G01X1943100Y-6070600D03*
G01X1968500Y-5854700D03*
G01X9398000Y-5994400D03*
G01X8039100Y-6083300D03*
G01X5560001Y-6426200D03*
G01X3921309Y-5336159D03*
G01X5023708Y-5547427D03*
G04 Via End*

G04 Track Start*
G54D20*
G01X9499600Y-6083300D02*
G01X9146900Y-6436000D01*
G01X9146900Y-6972300D01*
G01X8876171Y-6952692D02*
G01X9105900Y-6722963D01*
G01X9105900Y-6413500D01*
G54D12*
G01X9086904Y-6064196D02*
G01X9118600Y-6032500D01*
G01X9118600Y-5969000D01*
G54D21*
G01X9001584Y-5902784D02*
G01X9001584Y-5969000D01*
G01X8813800Y-5715000D02*
G01X9001584Y-5902784D01*
G01X8813800Y-5715000D02*
G01X5105400Y-5715000D01*
G01X8915400Y-5969000D02*
G01X8915400Y-5880100D01*
G01X8801100Y-5765800D01*
G01X5130800Y-5765800D01*
G54D20*
G01X9648308Y-6232008D02*
G01X9648308Y-7458592D01*
G01X9499600Y-6083300D02*
G01X9648308Y-6232008D01*
G01X9055926Y-6974754D02*
G01X9055926Y-7023100D01*
G01X9081326Y-7048500D01*
G01X8839200Y-7950200D02*
G01X8839200Y-8051800D01*
G01X9499600Y-6146800D02*
G01X9607794Y-6254994D01*
G01X9423400Y-7302500D02*
G01X8940800Y-7785100D01*
G01X8964267Y-6952692D02*
G01X8966200Y-6954625D01*
G01X9563100Y-6279200D02*
G01X9563100Y-7366000D01*
G01X8597900Y-7937500D02*
G01X8597900Y-8051800D01*
G01X9648308Y-7458592D02*
G01X9080500Y-8026400D01*
G01X9080500Y-8051800D01*
G01X9563100Y-7366000D02*
G01X9042400Y-7886700D01*
G01X8648700Y-7886700D01*
G01X8597900Y-7937500D01*
G01X8864600Y-7924800D02*
G01X8839200Y-7950200D01*
G01X9607794Y-6254994D02*
G01X9607794Y-7410206D01*
G01X9093200Y-7924800D01*
G01X8864600Y-7924800D01*
G01X9296400Y-6426200D02*
G01X9503250Y-6219350D01*
G01X9563100Y-6279200D01*
G01X8953500Y-7835900D02*
G01X9496700Y-7292700D01*
G01X9496700Y-6447047D01*
G01X9499600Y-6337300D02*
G01X9423400Y-6413500D01*
G01X9423400Y-7302500D01*
G01X9240709Y-6405691D02*
G01X9499600Y-6146800D01*
G01X9081326Y-7048500D02*
G01X9209387Y-7048500D01*
G01X9240709Y-7017178D01*
G01X9240709Y-6405691D01*
G01X9296400Y-7043104D02*
G01X9296400Y-6426200D01*
G01X9227504Y-7112000D02*
G01X9296400Y-7043104D01*
G01X8966200Y-6954625D02*
G01X8966200Y-7023100D01*
G01X9055100Y-7112000D01*
G01X9227504Y-7112000D01*
G54D21*
G01X5130800Y-5765800D02*
G01X5034500Y-5862100D01*
G01X2552700Y-5862100D01*
G01X5105400Y-5715000D02*
G01X5041900Y-5778500D01*
G01X2654300Y-5778500D01*
G54D20*
G01X2565400Y-5613400D02*
G01X3251200Y-5613400D01*
G54D21*
G01X2654300Y-5778500D02*
G01X2616200Y-5740400D01*
G01X2552700Y-5740400D01*
G54D20*
G01X2476500Y-5702300D02*
G01X2565400Y-5613400D01*
G01X2496500Y-5956300D02*
G01X2476500Y-5936300D01*
G01X2476500Y-5702300D01*
G01X3797300Y-6362700D02*
G01X3797300Y-6019800D01*
G01X3733800Y-5956300D01*
G01X2496500Y-5956300D01*
G01X8382000Y-8077200D02*
G01X8367858Y-8091342D01*
G01X8015142Y-8091342D01*
G01X8001000Y-8077200D01*
G01X7864500Y-6550183D02*
G01X8039100Y-6724783D01*
G01X8262300Y-6858000D02*
G01X8458200Y-6858000D01*
G01X8229600Y-6825300D02*
G01X8262300Y-6858000D01*
G54D12*
G01X8832796Y-6064196D02*
G01X9086904Y-6064196D01*
G54D20*
G01X7594600Y-6197600D02*
G01X8178800Y-6781800D01*
G54D12*
G01X8585200Y-5816600D02*
G01X8832796Y-6064196D01*
G54D20*
G01X8775700Y-6121400D02*
G01X8521700Y-5867400D01*
G01X6591300Y-5905500D02*
G01X6527800Y-5969000D01*
G01X8775700Y-6172200D02*
G01X8509000Y-5905500D01*
G01X6591300Y-5905500D01*
G01X8356600Y-6629400D02*
G01X8343900Y-6629400D01*
G01X6731000Y-6286500D02*
G01X7607300Y-6286500D01*
G01X7797800Y-6477000D02*
G01X7607300Y-6286500D01*
G01X7797800Y-6477000D02*
G01X7797800Y-7137400D01*
G01X9068757Y-6278143D02*
G01X8962814Y-6172200D01*
G01X8775700Y-6172200D01*
G01X8445500Y-8039100D02*
G01X8648700Y-7835900D01*
G01X8953500Y-7835900D01*
G01X8940800Y-7785100D02*
G01X8610600Y-7785100D01*
G01X8382000Y-8013700D01*
G01X8382000Y-8077200D01*
G01X8039100Y-6724783D02*
G01X8039100Y-7242716D01*
G01X7977458Y-7304358D01*
G01X7759700Y-7343405D02*
G01X7769595Y-7353300D01*
G01X7797800Y-7137400D02*
G01X7835900Y-7175500D01*
G01X7835900Y-7481219D02*
G01X7835900Y-7175500D01*
G01X7973241Y-8003359D02*
G01X7924800Y-8051800D01*
G01X7848600Y-8051800D01*
G01X7797800Y-8001000D01*
G01X7797800Y-7519319D01*
G01X7835900Y-7481219D01*
G01X7179996Y-5943600D02*
G01X7143496Y-5980100D01*
G54D12*
G01X1183644Y-6146046D02*
G01X1183644Y-5910352D01*
G01X1178791Y-5905500D01*
G01X1183644Y-5900648D02*
G01X1183644Y-5663446D01*
G01X1183644Y-5900648D02*
G01X1178791Y-5905500D01*
G01X1511300Y-5880100D02*
G01X1485900Y-5905500D01*
G01X1188495Y-5905500D01*
G01X1183644Y-5900648D01*
G54D20*
G01X9575800Y-5981700D02*
G01X9575800Y-6007100D01*
G01X9499600Y-6083300D01*
G01X9105900Y-6413500D02*
G01X9474200Y-6045200D01*
G01X9474200Y-5956300D01*
G01X9423400Y-5905500D01*
G01X9182100Y-5905500D01*
G01X9118600Y-5969000D01*
G01X9258300Y-6019800D02*
G01X9156700Y-6121400D01*
G01X8775700Y-6121400D01*
G01X8483600Y-5943600D02*
G01X7179996Y-5943600D01*
G01X8458200Y-6858000D02*
G01X8483600Y-6832600D01*
G01X8483600Y-6756400D01*
G01X8356600Y-6629400D01*
G01X8547100Y-6858000D02*
G01X8521700Y-6832600D01*
G01X8521700Y-6718300D01*
G01X8547100Y-6858000D02*
G01X8547100Y-7442200D01*
G01X8585200Y-6845300D02*
G01X8585200Y-7467600D01*
G01X8699500Y-7543800D02*
G01X8699500Y-6807247D01*
G01X8333726Y-6328256D02*
G01X8333726Y-6149326D01*
G01X8585200Y-6845300D02*
G01X8559800Y-6819900D01*
G01X8559800Y-6705600D01*
G01X8699500Y-6807200D02*
G01X8674100Y-6781800D01*
G01X8674100Y-6668630D01*
G01X8333726Y-6328256D01*
G01X8623300Y-7493000D02*
G01X8623300Y-6824509D01*
G01X8601000Y-6802209D01*
G01X8601000Y-6696000D02*
G01X8601000Y-6802209D01*
G01X8643900Y-6688100D02*
G01X8643900Y-6794309D01*
G01X8661400Y-6811809D01*
G01X8661400Y-7518400D01*
G01X8890000Y-6350000D02*
G01X8483600Y-5943600D01*
G01X8601000Y-6696000D02*
G01X8191500Y-6286500D01*
G01X8191500Y-6131200D01*
G01X8267700Y-6197600D02*
G01X8267700Y-6311900D01*
G01X8643900Y-6688100D01*
G01X8115300Y-6197600D02*
G01X8115300Y-6261100D01*
G01X8559800Y-6705600D01*
G01X8521700Y-6718300D02*
G01X8191500Y-6388100D01*
G01X8144158Y-6388100D01*
G01X8193925Y-6451600D02*
G01X8102600Y-6451600D01*
G01X8267700Y-6645149D02*
G01X8267700Y-6525375D01*
G01X8193925Y-6451600D01*
G01X8426971Y-6802300D02*
G01X8426971Y-6775971D01*
G01X8344976Y-6693976D01*
G01X8316527Y-6693976D01*
G01X8267700Y-6645149D01*
G01X7719590Y-6193018D02*
G01X7719590Y-6259090D01*
G01X8229600Y-6769100D01*
G01X8229600Y-6825300D01*
G01X8521700Y-5867400D02*
G01X5753100Y-5867400D01*
G01X5715000Y-5905500D01*
G01X5715000Y-6045200D01*
G01X5994400Y-6324600D01*
G01X6058200Y-6324600D01*
G54D12*
G01X6731000Y-6286500D02*
G01X6340400Y-6286500D01*
G01X6197600Y-6429300D01*
G54D20*
G01X8102600Y-6451600D02*
G01X8051800Y-6400800D01*
G01X8051800Y-6159500D01*
G01X8149864Y-6061436D01*
G01X8245836Y-6061436D01*
G01X8333726Y-6149326D01*
G01X5854945Y-5988921D02*
G01X6063624Y-6197600D01*
G01X7594600Y-6197600D01*
G01X5778500Y-6019800D02*
G01X6019800Y-6261100D01*
G01X6083300Y-6261100D01*
G01X6121400Y-6299200D01*
G01X6121400Y-6350000D01*
G01X5778500Y-5956300D02*
G01X5778500Y-6019800D01*
G01X5918200Y-5918200D02*
G01X5816600Y-5918200D01*
G01X5778500Y-5956300D01*
G01X6121400Y-6121400D02*
G01X5918200Y-5918200D01*
G01X8039100Y-6083300D02*
G01X7810500Y-6083300D01*
G01X7772400Y-6121400D01*
G01X6121400Y-6121400D01*
G01X8805864Y-6671849D02*
G01X8890000Y-6587713D01*
G01X8890000Y-6350000D01*
G01X8699500Y-7543800D02*
G01X8329910Y-7913390D01*
G01X7973241Y-7913390D01*
G01X7973241Y-8003359D01*
G01X8661400Y-7518400D02*
G01X8348800Y-7831000D01*
G01X8191427Y-7831000D01*
G01X8117706Y-7749406D02*
G01X8366894Y-7749406D01*
G01X8623300Y-7493000D01*
G01X8585200Y-7467600D02*
G01X8381542Y-7671258D01*
G01X8191500Y-7671258D01*
G01X8115300Y-7581900D02*
G01X8407400Y-7581900D01*
G01X8547100Y-7442200D01*
G01X8178800Y-6781800D02*
G01X8178800Y-7429500D01*
G01X8204200Y-7454900D01*
G01X4152900Y-6362700D02*
G01X4279900Y-6235700D01*
G01X5499100Y-6235700D01*
G54D12*
G01X5144569Y-5838322D02*
G01X5166292Y-5816600D01*
G01X8585200Y-5816600D01*
G54D20*
G01X6121400Y-6350000D02*
G01X6045200Y-6426200D01*
G01X5560001Y-6426200D01*
G01X7270796Y-6347699D02*
G01X7281196Y-6337300D01*
G01X7594600Y-6337300D01*
G01X7759700Y-6502400D01*
G01X7759700Y-7343405D01*
G01X7270796Y-6347699D02*
G01X6403101Y-6347699D01*
G01X6265800Y-6485000D01*
G01X5519800Y-6485000D01*
G01X5346700Y-6311900D01*
G01X4622800Y-6426200D02*
G01X4737100Y-6311900D01*
G01X5346700Y-6311900D01*
G04 Track End*

M02*

