G04 Layer: TopSilkscreenLayer*
G04 EasyEDA Pro v3.2.148, 2026-07-05 23:03:08*
G04 Gerber Generator version 0.3*
G04 Scale: 100 percent, Rotated: No, Reflected: No*
G04 Dimensions in millimeters*
G04 Leading zeros omitted, absolute positions, 4 integers and 5 decimals*
G04 Generated by one-click*
G04 Object Configs: Pad,Via,Track,Text,Image,Dimension,BoardOutline,BoardCutout,CopperFilled,SolidRegion,FPCStiffener,Line,PlaneZone,ComponentProperty,ComponentSilkscreen,TearDrop*
G04 Layer Configs: 1,2,3,4,5,6,7,8,9,10,11,13,14,56*
G04 Copper Areas: 0*
%FSLAX45Y45*%
%MOMM*%
%ADD10C,0.203*%
%ADD11C,0.1524*%
%ADD12C,0.152*%
%ADD13C,0.254*%
%ADD14C,0.13*%
%ADD15C,0.3030*%
%ADD16C,0.3*%
G75*


G04 Text Start*
G54D10*
G01X3322066Y-6411722D02*
G01X3318002Y-6403594D01*
G01X3309874Y-6395466D01*
G01X3302000Y-6391402D01*
G01X3285744Y-6391402D01*
G01X3277616Y-6395466D01*
G01X3269488Y-6403594D01*
G01X3265424Y-6411722D01*
G01X3261360Y-6423914D01*
G01X3261360Y-6444234D01*
G01X3265424Y-6456426D01*
G01X3269488Y-6464300D01*
G01X3277616Y-6472428D01*
G01X3285744Y-6476492D01*
G01X3302000Y-6476492D01*
G01X3309874Y-6472428D01*
G01X3318002Y-6464300D01*
G01X3322066Y-6456426D01*
G01X3322066Y-6444234D01*
G01X3302000Y-6444234D02*
G01X3322066Y-6444234D01*
G01X3361944Y-6391402D02*
G01X3361944Y-6476492D01*
G01X3361944Y-6391402D02*
G01X3418586Y-6476492D01*
G01X3418586Y-6391402D02*
G01X3418586Y-6476492D01*
G01X3458464Y-6391402D02*
G01X3458464Y-6476492D01*
G01X3458464Y-6391402D02*
G01X3486658Y-6391402D01*
G01X3498850Y-6395466D01*
G01X3506978Y-6403594D01*
G01X3511042Y-6411722D01*
G01X3515106Y-6423914D01*
G01X3515106Y-6444234D01*
G01X3511042Y-6456426D01*
G01X3506978Y-6464300D01*
G01X3498850Y-6472428D01*
G01X3486658Y-6476492D01*
G01X3458464Y-6476492D01*
G01X4199636Y-6441694D02*
G01X4199636Y-6514592D01*
G01X4163060Y-6478270D02*
G01X4235958Y-6478270D01*
G01X4283710Y-6429502D02*
G01X4328414Y-6429502D01*
G01X4304030Y-6462014D01*
G01X4316222Y-6462014D01*
G01X4324350Y-6466078D01*
G01X4328414Y-6470142D01*
G01X4332478Y-6482334D01*
G01X4332478Y-6490462D01*
G01X4328414Y-6502400D01*
G01X4320286Y-6510528D01*
G01X4308094Y-6514592D01*
G01X4295902Y-6514592D01*
G01X4283710Y-6510528D01*
G01X4279646Y-6506464D01*
G01X4275836Y-6498590D01*
G01X4372356Y-6429502D02*
G01X4404614Y-6514592D01*
G01X4437126Y-6429502D02*
G01X4404614Y-6514592D01*
G01X4484878Y-6429502D02*
G01X4529582Y-6429502D01*
G01X4505198Y-6462014D01*
G01X4517390Y-6462014D01*
G01X4525518Y-6466078D01*
G01X4529582Y-6470142D01*
G01X4533646Y-6482334D01*
G01X4533646Y-6490462D01*
G01X4529582Y-6502400D01*
G01X4521454Y-6510528D01*
G01X4509262Y-6514592D01*
G01X4497070Y-6514592D01*
G01X4484878Y-6510528D01*
G01X4480814Y-6506464D01*
G01X4477004Y-6498590D01*
G01X8570722Y-7892034D02*
G01X8562594Y-7896098D01*
G01X8554466Y-7904226D01*
G01X8550402Y-7912100D01*
G01X8550402Y-7928356D01*
G01X8554466Y-7936484D01*
G01X8562594Y-7944612D01*
G01X8570722Y-7948676D01*
G01X8582914Y-7952740D01*
G01X8603234Y-7952740D01*
G01X8615426Y-7948676D01*
G01X8623300Y-7944612D01*
G01X8631428Y-7936484D01*
G01X8635492Y-7928356D01*
G01X8635492Y-7912100D01*
G01X8631428Y-7904226D01*
G01X8623300Y-7896098D01*
G01X8615426Y-7892034D01*
G01X8550402Y-7852156D02*
G01X8635492Y-7852156D01*
G01X8635492Y-7852156D02*
G01X8635492Y-7803642D01*
G01X8550402Y-7763764D02*
G01X8635492Y-7763764D01*
G01X8550402Y-7707122D02*
G01X8607298Y-7763764D01*
G01X8586978Y-7743698D02*
G01X8635492Y-7707122D01*
G01X8791702Y-7952740D02*
G01X8876792Y-7952740D01*
G01X8791702Y-7952740D02*
G01X8791702Y-7924292D01*
G01X8795766Y-7912100D01*
G01X8803894Y-7904226D01*
G01X8812022Y-7900162D01*
G01X8824214Y-7896098D01*
G01X8844534Y-7896098D01*
G01X8856726Y-7900162D01*
G01X8864600Y-7904226D01*
G01X8872728Y-7912100D01*
G01X8876792Y-7924292D01*
G01X8876792Y-7952740D01*
G01X8791702Y-7823962D02*
G01X8876792Y-7856220D01*
G01X8791702Y-7823962D02*
G01X8876792Y-7791450D01*
G01X8848598Y-7844282D02*
G01X8848598Y-7803642D01*
G01X8791702Y-7723378D02*
G01X8876792Y-7723378D01*
G01X8791702Y-7751572D02*
G01X8791702Y-7694930D01*
G01X8791702Y-7622794D02*
G01X8876792Y-7655052D01*
G01X8791702Y-7622794D02*
G01X8876792Y-7590282D01*
G01X8848598Y-7643114D02*
G01X8848598Y-7602474D01*
G01X9033002Y-7952740D02*
G01X9118092Y-7952740D01*
G01X9033002Y-7952740D02*
G01X9033002Y-7916164D01*
G01X9037066Y-7904226D01*
G01X9041130Y-7900162D01*
G01X9049258Y-7896098D01*
G01X9057386Y-7896098D01*
G01X9065514Y-7900162D01*
G01X9069578Y-7904226D01*
G01X9073642Y-7916164D01*
G01X9073642Y-7952740D01*
G01X9073642Y-7924292D02*
G01X9118092Y-7896098D01*
G01X9045194Y-7799578D02*
G01X9037066Y-7807706D01*
G01X9033002Y-7819898D01*
G01X9033002Y-7836154D01*
G01X9037066Y-7848346D01*
G01X9045194Y-7856220D01*
G01X9053322Y-7856220D01*
G01X9061450Y-7852410D01*
G01X9065514Y-7848346D01*
G01X9069578Y-7840218D01*
G01X9077706Y-7815834D01*
G01X9081770Y-7807706D01*
G01X9085834Y-7803642D01*
G01X9093962Y-7799578D01*
G01X9105900Y-7799578D01*
G01X9114028Y-7807706D01*
G01X9118092Y-7819898D01*
G01X9118092Y-7836154D01*
G01X9114028Y-7848346D01*
G01X9105900Y-7856220D01*
G01X9033002Y-7731506D02*
G01X9118092Y-7731506D01*
G01X9033002Y-7759700D02*
G01X9033002Y-7703058D01*
G01X1225550Y-5565140D02*
G01X1282192Y-5540756D01*
G01X1225550Y-5516626D02*
G01X1282192Y-5540756D01*
G01X1197102Y-5476748D02*
G01X1282192Y-5476748D01*
G01X1197102Y-5476748D02*
G01X1197102Y-5448554D01*
G01X1201166Y-5436362D01*
G01X1209294Y-5428234D01*
G01X1217422Y-5424170D01*
G01X1229614Y-5420106D01*
G01X1249934Y-5420106D01*
G01X1262126Y-5424170D01*
G01X1270000Y-5428234D01*
G01X1278128Y-5436362D01*
G01X1282192Y-5448554D01*
G01X1282192Y-5476748D01*
G01X1245870Y-5380228D02*
G01X1245870Y-5307330D01*
G01X1197102Y-6504940D02*
G01X1282192Y-6504940D01*
G01X1197102Y-6504940D02*
G01X1197102Y-6476492D01*
G01X1201166Y-6464300D01*
G01X1209294Y-6456426D01*
G01X1217422Y-6452362D01*
G01X1229614Y-6448298D01*
G01X1249934Y-6448298D01*
G01X1262126Y-6452362D01*
G01X1270000Y-6456426D01*
G01X1278128Y-6464300D01*
G01X1282192Y-6476492D01*
G01X1282192Y-6504940D01*
G01X1209294Y-6372098D02*
G01X1282192Y-6372098D01*
G01X1245870Y-6408420D02*
G01X1245870Y-6335522D01*
G01X1225550Y-6295644D02*
G01X1282192Y-6271514D01*
G01X1225550Y-6247130D02*
G01X1282192Y-6271514D01*
G01X2087372Y-6357874D02*
G01X2054860Y-6414770D01*
G01X2087372Y-6357874D02*
G01X2119630Y-6414770D01*
G01X2159508Y-6366002D02*
G01X2159508Y-6451092D01*
G01X2159508Y-6366002D02*
G01X2195830Y-6366002D01*
G01X2208022Y-6370066D01*
G01X2212086Y-6374130D01*
G01X2216150Y-6382258D01*
G01X2216150Y-6394450D01*
G01X2212086Y-6402578D01*
G01X2208022Y-6406642D01*
G01X2195830Y-6410706D01*
G01X2159508Y-6410706D01*
G01X2256028Y-6366002D02*
G01X2276094Y-6451092D01*
G01X2296414Y-6366002D02*
G01X2276094Y-6451092D01*
G01X2296414Y-6366002D02*
G01X2316734Y-6451092D01*
G01X2337054Y-6366002D02*
G01X2316734Y-6451092D01*
G01X2376932Y-6366002D02*
G01X2376932Y-6451092D01*
G01X2376932Y-6366002D02*
G01X2413254Y-6366002D01*
G01X2425446Y-6370066D01*
G01X2429510Y-6374130D01*
G01X2433574Y-6382258D01*
G01X2433574Y-6390386D01*
G01X2429510Y-6398514D01*
G01X2425446Y-6402578D01*
G01X2413254Y-6406642D01*
G01X2376932Y-6406642D01*
G01X2405126Y-6406642D02*
G01X2433574Y-6451092D01*
G01X2509774Y-6378194D02*
G01X2509774Y-6451092D01*
G01X2473452Y-6414770D02*
G01X2546350Y-6414770D01*
G01X2614422Y-6349746D02*
G01X2606294Y-6357874D01*
G01X2598166Y-6370066D01*
G01X2590038Y-6386322D01*
G01X2586228Y-6406642D01*
G01X2586228Y-6422898D01*
G01X2590038Y-6442964D01*
G01X2598166Y-6459220D01*
G01X2606294Y-6471412D01*
G01X2614422Y-6479540D01*
G01X2702814Y-6366002D02*
G01X2662174Y-6366002D01*
G01X2658110Y-6402578D01*
G01X2662174Y-6398514D01*
G01X2674366Y-6394450D01*
G01X2686558Y-6394450D01*
G01X2698750Y-6398514D01*
G01X2706878Y-6406642D01*
G01X2710942Y-6418834D01*
G01X2710942Y-6426962D01*
G01X2706878Y-6438900D01*
G01X2698750Y-6447028D01*
G01X2686558Y-6451092D01*
G01X2674366Y-6451092D01*
G01X2662174Y-6447028D01*
G01X2658110Y-6442964D01*
G01X2654300Y-6435090D01*
G01X2750820Y-6366002D02*
G01X2783078Y-6451092D01*
G01X2815590Y-6366002D02*
G01X2783078Y-6451092D01*
G01X2855468Y-6349746D02*
G01X2863342Y-6357874D01*
G01X2871470Y-6370066D01*
G01X2879598Y-6386322D01*
G01X2883662Y-6406642D01*
G01X2883662Y-6422898D01*
G01X2879598Y-6442964D01*
G01X2871470Y-6459220D01*
G01X2863342Y-6471412D01*
G01X2855468Y-6479540D01*
G01X1171702Y-5539740D02*
G01X1256792Y-5539740D01*
G01X1170502Y-6273795D02*
G01X1255592Y-6273795D01*
G01X2085340Y-6460998D02*
G01X2085340Y-6375908D01*
G01X9553702Y-6530340D02*
G01X9638792Y-6530340D01*
G01X9553702Y-6530340D02*
G01X9553702Y-6493764D01*
G01X9557766Y-6481826D01*
G01X9561830Y-6477762D01*
G01X9569958Y-6473698D01*
G01X9578086Y-6473698D01*
G01X9586214Y-6477762D01*
G01X9590278Y-6481826D01*
G01X9594342Y-6493764D01*
G01X9594342Y-6530340D01*
G01X9594342Y-6501892D02*
G01X9638792Y-6473698D01*
G01X9553702Y-6433820D02*
G01X9638792Y-6433820D01*
G01X9553702Y-6433820D02*
G01X9553702Y-6381242D01*
G01X9594342Y-6433820D02*
G01X9594342Y-6401562D01*
G01X9638792Y-6433820D02*
G01X9638792Y-6381242D01*
G01X9565894Y-6284722D02*
G01X9557766Y-6292850D01*
G01X9553702Y-6305042D01*
G01X9553702Y-6321298D01*
G01X9557766Y-6333490D01*
G01X9565894Y-6341364D01*
G01X9574022Y-6341364D01*
G01X9582150Y-6337554D01*
G01X9586214Y-6333490D01*
G01X9590278Y-6325362D01*
G01X9598406Y-6300978D01*
G01X9602470Y-6292850D01*
G01X9606534Y-6288786D01*
G01X9614662Y-6284722D01*
G01X9626600Y-6284722D01*
G01X9634728Y-6292850D01*
G01X9638792Y-6305042D01*
G01X9638792Y-6321298D01*
G01X9634728Y-6333490D01*
G01X9626600Y-6341364D01*
G01X9553702Y-6244844D02*
G01X9638792Y-6244844D01*
G01X9553702Y-6244844D02*
G01X9553702Y-6192266D01*
G01X9594342Y-6244844D02*
G01X9594342Y-6212586D01*
G01X9638792Y-6244844D02*
G01X9638792Y-6192266D01*
G01X9553702Y-6124194D02*
G01X9638792Y-6124194D01*
G01X9553702Y-6152388D02*
G01X9553702Y-6095746D01*
G01X9536576Y-6040338D02*
G01X9476409Y-5980171D01*
G01X9516460Y-5984302D02*
G01X9459166Y-5961492D01*
G01X9482156Y-6018606D02*
G01X9459166Y-5961492D01*
G01X7207037Y-5570391D02*
G01X7264331Y-5593201D01*
G01X7241342Y-5536087D02*
G01X7264331Y-5593201D01*
G01X7199621Y-5524875D02*
G01X7259789Y-5585043D01*
G01X7198360Y-5438902D02*
G01X7198360Y-5523992D01*
G01X7284466Y-5319522D02*
G01X7280402Y-5311394D01*
G01X7272274Y-5303266D01*
G01X7264400Y-5299202D01*
G01X7248144Y-5299202D01*
G01X7240016Y-5303266D01*
G01X7231888Y-5311394D01*
G01X7227824Y-5319522D01*
G01X7223760Y-5331714D01*
G01X7223760Y-5352034D01*
G01X7227824Y-5364226D01*
G01X7231888Y-5372100D01*
G01X7240016Y-5380228D01*
G01X7248144Y-5384292D01*
G01X7264400Y-5384292D01*
G01X7272274Y-5380228D01*
G01X7280402Y-5372100D01*
G01X7284466Y-5364226D01*
G01X7380986Y-5311394D02*
G01X7372858Y-5303266D01*
G01X7360666Y-5299202D01*
G01X7344410Y-5299202D01*
G01X7332218Y-5303266D01*
G01X7324344Y-5311394D01*
G01X7324344Y-5319522D01*
G01X7328154Y-5327650D01*
G01X7332218Y-5331714D01*
G01X7340346Y-5335778D01*
G01X7364730Y-5343906D01*
G01X7372858Y-5347970D01*
G01X7376922Y-5352034D01*
G01X7380986Y-5360162D01*
G01X7380986Y-5372100D01*
G01X7372858Y-5380228D01*
G01X7360666Y-5384292D01*
G01X7344410Y-5384292D01*
G01X7332218Y-5380228D01*
G01X7324344Y-5372100D01*
G01X7453122Y-5282946D02*
G01X7424674Y-5412740D01*
G01X7477506Y-5282946D02*
G01X7449058Y-5412740D01*
G01X7424674Y-5335778D02*
G01X7481570Y-5335778D01*
G01X7420864Y-5360162D02*
G01X7477506Y-5360162D01*
G01X7549642Y-5282946D02*
G01X7541514Y-5291074D01*
G01X7533386Y-5303266D01*
G01X7525258Y-5319522D01*
G01X7521448Y-5339842D01*
G01X7521448Y-5356098D01*
G01X7525258Y-5376164D01*
G01X7533386Y-5392420D01*
G01X7541514Y-5404612D01*
G01X7549642Y-5412740D01*
G01X7621778Y-5299202D02*
G01X7613650Y-5299202D01*
G01X7605522Y-5303266D01*
G01X7601458Y-5315458D01*
G01X7601458Y-5384292D01*
G01X7589520Y-5327650D02*
G01X7617714Y-5327650D01*
G01X7661656Y-5299202D02*
G01X7661656Y-5384292D01*
G01X7750048Y-5327650D02*
G01X7750048Y-5384292D01*
G01X7750048Y-5339842D02*
G01X7741920Y-5331714D01*
G01X7733792Y-5327650D01*
G01X7721600Y-5327650D01*
G01X7713472Y-5331714D01*
G01X7705344Y-5339842D01*
G01X7701534Y-5352034D01*
G01X7701534Y-5360162D01*
G01X7705344Y-5372100D01*
G01X7713472Y-5380228D01*
G01X7721600Y-5384292D01*
G01X7733792Y-5384292D01*
G01X7741920Y-5380228D01*
G01X7750048Y-5372100D01*
G01X7834376Y-5339842D02*
G01X7830312Y-5331714D01*
G01X7818120Y-5327650D01*
G01X7805928Y-5327650D01*
G01X7793736Y-5331714D01*
G01X7789926Y-5339842D01*
G01X7793736Y-5347970D01*
G01X7801864Y-5352034D01*
G01X7822184Y-5356098D01*
G01X7830312Y-5360162D01*
G01X7834376Y-5368290D01*
G01X7834376Y-5372100D01*
G01X7830312Y-5380228D01*
G01X7818120Y-5384292D01*
G01X7805928Y-5384292D01*
G01X7793736Y-5380228D01*
G01X7789926Y-5372100D01*
G01X7874254Y-5299202D02*
G01X7874254Y-5384292D01*
G01X7874254Y-5343906D02*
G01X7886192Y-5331714D01*
G01X7894320Y-5327650D01*
G01X7906512Y-5327650D01*
G01X7914640Y-5331714D01*
G01X7918704Y-5343906D01*
G01X7918704Y-5384292D01*
G01X7958582Y-5282946D02*
G01X7966456Y-5291074D01*
G01X7974584Y-5303266D01*
G01X7982712Y-5319522D01*
G01X7986776Y-5339842D01*
G01X7986776Y-5356098D01*
G01X7982712Y-5376164D01*
G01X7974584Y-5392420D01*
G01X7966456Y-5404612D01*
G01X7958582Y-5412740D01*
G01X7198360Y-5375402D02*
G01X7198360Y-5460492D01*
G01X540766Y-6106922D02*
G01X536702Y-6098794D01*
G01X528574Y-6090666D01*
G01X520700Y-6086602D01*
G01X504444Y-6086602D01*
G01X496316Y-6090666D01*
G01X488188Y-6098794D01*
G01X484124Y-6106922D01*
G01X480060Y-6119114D01*
G01X480060Y-6139434D01*
G01X484124Y-6151626D01*
G01X488188Y-6159500D01*
G01X496316Y-6167628D01*
G01X504444Y-6171692D01*
G01X520700Y-6171692D01*
G01X528574Y-6167628D01*
G01X536702Y-6159500D01*
G01X540766Y-6151626D01*
G01X540766Y-6139434D01*
G01X520700Y-6139434D02*
G01X540766Y-6139434D01*
G01X580644Y-6086602D02*
G01X580644Y-6171692D01*
G01X580644Y-6086602D02*
G01X637286Y-6171692D01*
G01X637286Y-6086602D02*
G01X637286Y-6171692D01*
G01X677164Y-6086602D02*
G01X677164Y-6171692D01*
G01X677164Y-6086602D02*
G01X705358Y-6086602D01*
G01X717550Y-6090666D01*
G01X725678Y-6098794D01*
G01X729742Y-6106922D01*
G01X733806Y-6119114D01*
G01X733806Y-6139434D01*
G01X729742Y-6151626D01*
G01X725678Y-6159500D01*
G01X717550Y-6167628D01*
G01X705358Y-6171692D01*
G01X677164Y-6171692D01*
G01X773684Y-6115050D02*
G01X797814Y-6171692D01*
G01X822198Y-6115050D02*
G01X797814Y-6171692D01*
G01X802640Y-6143498D02*
G01X802640Y-6058408D01*
G01X3626348Y-6427330D02*
G01X3553450Y-6427330D01*
G01X3586978Y-6463906D02*
G01X3651748Y-6427330D01*
G01X3586978Y-6391008D01*
G01X4302760Y-6363970D02*
G01X4375658Y-6363970D01*
G01X4342130Y-6327394D02*
G01X4277360Y-6363970D01*
G01X4342130Y-6400292D01*
G54D11*
G01X5338117Y-5319398D02*
G01X5335069Y-5313048D01*
G01X5328719Y-5306952D01*
G01X5322623Y-5303904D01*
G01X5310177Y-5303904D01*
G01X5304081Y-5306952D01*
G01X5297731Y-5313048D01*
G01X5294683Y-5319398D01*
G01X5291635Y-5328542D01*
G01X5291635Y-5344036D01*
G01X5294683Y-5353434D01*
G01X5297731Y-5359530D01*
G01X5304081Y-5365880D01*
G01X5310177Y-5368928D01*
G01X5322623Y-5368928D01*
G01X5328719Y-5365880D01*
G01X5335069Y-5359530D01*
G01X5338117Y-5353434D01*
G01X5368343Y-5316350D02*
G01X5374439Y-5313048D01*
G01X5383583Y-5303904D01*
G01X5383583Y-5368928D01*
G01X5413809Y-5316350D02*
G01X5419905Y-5313048D01*
G01X5429049Y-5303904D01*
G01X5429049Y-5368928D01*
G01X6298237Y-5319398D02*
G01X6295189Y-5313048D01*
G01X6288839Y-5306952D01*
G01X6282743Y-5303904D01*
G01X6270297Y-5303904D01*
G01X6264201Y-5306952D01*
G01X6257851Y-5313048D01*
G01X6254803Y-5319398D01*
G01X6251755Y-5328542D01*
G01X6251755Y-5344036D01*
G01X6254803Y-5353434D01*
G01X6257851Y-5359530D01*
G01X6264201Y-5365880D01*
G01X6270297Y-5368928D01*
G01X6282743Y-5368928D01*
G01X6288839Y-5365880D01*
G01X6295189Y-5359530D01*
G01X6298237Y-5353434D01*
G01X6331511Y-5319398D02*
G01X6331511Y-5316350D01*
G01X6334559Y-5310000D01*
G01X6337607Y-5306952D01*
G01X6343703Y-5303904D01*
G01X6356149Y-5303904D01*
G01X6362499Y-5306952D01*
G01X6365547Y-5310000D01*
G01X6368595Y-5316350D01*
G01X6368595Y-5322446D01*
G01X6365547Y-5328542D01*
G01X6359197Y-5337940D01*
G01X6328463Y-5368928D01*
G01X6371643Y-5368928D01*
G01X6404917Y-5319398D02*
G01X6404917Y-5316350D01*
G01X6407965Y-5310000D01*
G01X6411013Y-5306952D01*
G01X6417109Y-5303904D01*
G01X6429555Y-5303904D01*
G01X6435905Y-5306952D01*
G01X6438953Y-5310000D01*
G01X6442001Y-5316350D01*
G01X6442001Y-5322446D01*
G01X6438953Y-5328542D01*
G01X6432603Y-5337940D01*
G01X6401869Y-5368928D01*
G01X6445049Y-5368928D01*
G01X5815637Y-5319398D02*
G01X5812589Y-5313048D01*
G01X5806239Y-5306952D01*
G01X5800143Y-5303904D01*
G01X5787697Y-5303904D01*
G01X5781601Y-5306952D01*
G01X5775251Y-5313048D01*
G01X5772203Y-5319398D01*
G01X5769155Y-5328542D01*
G01X5769155Y-5344036D01*
G01X5772203Y-5353434D01*
G01X5775251Y-5359530D01*
G01X5781601Y-5365880D01*
G01X5787697Y-5368928D01*
G01X5800143Y-5368928D01*
G01X5806239Y-5365880D01*
G01X5812589Y-5359530D01*
G01X5815637Y-5353434D01*
G01X5848911Y-5319398D02*
G01X5848911Y-5316350D01*
G01X5851959Y-5310000D01*
G01X5855007Y-5306952D01*
G01X5861103Y-5303904D01*
G01X5873549Y-5303904D01*
G01X5879899Y-5306952D01*
G01X5882947Y-5310000D01*
G01X5885995Y-5316350D01*
G01X5885995Y-5322446D01*
G01X5882947Y-5328542D01*
G01X5876597Y-5337940D01*
G01X5845863Y-5368928D01*
G01X5889043Y-5368928D01*
G01X5925365Y-5303904D02*
G01X5959401Y-5303904D01*
G01X5940859Y-5328542D01*
G01X5950003Y-5328542D01*
G01X5956353Y-5331590D01*
G01X5959401Y-5334892D01*
G01X5962449Y-5344036D01*
G01X5962449Y-5350386D01*
G01X5959401Y-5359530D01*
G01X5953305Y-5365880D01*
G01X5943907Y-5368928D01*
G01X5934509Y-5368928D01*
G01X5925365Y-5365880D01*
G01X5922317Y-5362578D01*
G01X5919269Y-5356482D01*
G01X7019089Y-5319398D02*
G01X7016041Y-5313048D01*
G01X7009691Y-5306952D01*
G01X7003595Y-5303904D01*
G01X6991149Y-5303904D01*
G01X6985053Y-5306952D01*
G01X6978703Y-5313048D01*
G01X6975655Y-5319398D01*
G01X6972607Y-5328542D01*
G01X6972607Y-5344036D01*
G01X6975655Y-5353434D01*
G01X6978703Y-5359530D01*
G01X6985053Y-5365880D01*
G01X6991149Y-5368928D01*
G01X7003595Y-5368928D01*
G01X7009691Y-5365880D01*
G01X7016041Y-5359530D01*
G01X7019089Y-5353434D01*
G01X7052363Y-5319398D02*
G01X7052363Y-5316350D01*
G01X7055411Y-5310000D01*
G01X7058459Y-5306952D01*
G01X7064555Y-5303904D01*
G01X7077001Y-5303904D01*
G01X7083351Y-5306952D01*
G01X7086399Y-5310000D01*
G01X7089447Y-5316350D01*
G01X7089447Y-5322446D01*
G01X7086399Y-5328542D01*
G01X7080049Y-5337940D01*
G01X7049315Y-5368928D01*
G01X7092495Y-5368928D01*
G01X7153455Y-5303904D02*
G01X7122721Y-5347084D01*
G01X7168949Y-5347084D01*
G01X7153455Y-5303904D02*
G01X7153455Y-5368928D01*
G01X4866185Y-5319398D02*
G01X4863137Y-5313048D01*
G01X4856787Y-5306952D01*
G01X4850691Y-5303904D01*
G01X4838245Y-5303904D01*
G01X4832149Y-5306952D01*
G01X4825799Y-5313048D01*
G01X4822751Y-5319398D01*
G01X4819703Y-5328542D01*
G01X4819703Y-5344036D01*
G01X4822751Y-5353434D01*
G01X4825799Y-5359530D01*
G01X4832149Y-5365880D01*
G01X4838245Y-5368928D01*
G01X4850691Y-5368928D01*
G01X4856787Y-5365880D01*
G01X4863137Y-5359530D01*
G01X4866185Y-5353434D01*
G01X4899459Y-5319398D02*
G01X4899459Y-5316350D01*
G01X4902507Y-5310000D01*
G01X4905555Y-5306952D01*
G01X4911651Y-5303904D01*
G01X4924097Y-5303904D01*
G01X4930447Y-5306952D01*
G01X4933495Y-5310000D01*
G01X4936543Y-5316350D01*
G01X4936543Y-5322446D01*
G01X4933495Y-5328542D01*
G01X4927145Y-5337940D01*
G01X4896411Y-5368928D01*
G01X4939591Y-5368928D01*
G01X5006901Y-5313048D02*
G01X5003853Y-5306952D01*
G01X4994455Y-5303904D01*
G01X4988359Y-5303904D01*
G01X4978961Y-5306952D01*
G01X4972865Y-5316350D01*
G01X4969817Y-5331590D01*
G01X4969817Y-5347084D01*
G01X4972865Y-5359530D01*
G01X4978961Y-5365880D01*
G01X4988359Y-5368928D01*
G01X4991407Y-5368928D01*
G01X5000551Y-5365880D01*
G01X5006901Y-5359530D01*
G01X5009949Y-5350386D01*
G01X5009949Y-5347084D01*
G01X5006901Y-5337940D01*
G01X5000551Y-5331590D01*
G01X4991407Y-5328542D01*
G01X4988359Y-5328542D01*
G01X4978961Y-5331590D01*
G01X4972865Y-5337940D01*
G01X4969817Y-5347084D01*
G01X4112768Y-5318760D02*
G01X4109720Y-5312410D01*
G01X4103370Y-5306314D01*
G01X4097274Y-5303266D01*
G01X4084828Y-5303266D01*
G01X4078732Y-5306314D01*
G01X4072382Y-5312410D01*
G01X4069334Y-5318760D01*
G01X4066286Y-5327904D01*
G01X4066286Y-5343398D01*
G01X4069334Y-5352796D01*
G01X4072382Y-5358892D01*
G01X4078732Y-5365242D01*
G01X4084828Y-5368290D01*
G01X4097274Y-5368290D01*
G01X4103370Y-5365242D01*
G01X4109720Y-5358892D01*
G01X4112768Y-5352796D01*
G01X4146042Y-5318760D02*
G01X4146042Y-5315712D01*
G01X4149090Y-5309362D01*
G01X4152138Y-5306314D01*
G01X4158234Y-5303266D01*
G01X4170680Y-5303266D01*
G01X4177030Y-5306314D01*
G01X4180078Y-5309362D01*
G01X4183126Y-5315712D01*
G01X4183126Y-5321808D01*
G01X4180078Y-5327904D01*
G01X4173728Y-5337302D01*
G01X4142994Y-5368290D01*
G01X4186174Y-5368290D01*
G01X4259580Y-5303266D02*
G01X4228592Y-5368290D01*
G01X4216400Y-5303266D02*
G01X4259580Y-5303266D01*
G01X4598538Y-5318007D02*
G01X4595490Y-5311657D01*
G01X4589140Y-5305561D01*
G01X4583044Y-5302513D01*
G01X4570598Y-5302513D01*
G01X4564502Y-5305561D01*
G01X4558152Y-5311657D01*
G01X4555104Y-5318007D01*
G01X4552056Y-5327151D01*
G01X4552056Y-5342645D01*
G01X4555104Y-5352043D01*
G01X4558152Y-5358139D01*
G01X4564502Y-5364489D01*
G01X4570598Y-5367537D01*
G01X4583044Y-5367537D01*
G01X4589140Y-5364489D01*
G01X4595490Y-5358139D01*
G01X4598538Y-5352043D01*
G01X4631812Y-5318007D02*
G01X4631812Y-5314959D01*
G01X4634860Y-5308609D01*
G01X4637908Y-5305561D01*
G01X4644004Y-5302513D01*
G01X4656450Y-5302513D01*
G01X4662800Y-5305561D01*
G01X4665848Y-5308609D01*
G01X4668896Y-5314959D01*
G01X4668896Y-5321055D01*
G01X4665848Y-5327151D01*
G01X4659498Y-5336549D01*
G01X4628764Y-5367537D01*
G01X4671944Y-5367537D01*
G01X4717410Y-5302513D02*
G01X4708266Y-5305561D01*
G01X4705218Y-5311657D01*
G01X4705218Y-5318007D01*
G01X4708266Y-5324103D01*
G01X4714362Y-5327151D01*
G01X4726808Y-5330199D01*
G01X4736206Y-5333501D01*
G01X4742302Y-5339597D01*
G01X4745350Y-5345693D01*
G01X4745350Y-5355091D01*
G01X4742302Y-5361187D01*
G01X4739254Y-5364489D01*
G01X4729856Y-5367537D01*
G01X4717410Y-5367537D01*
G01X4708266Y-5364489D01*
G01X4705218Y-5361187D01*
G01X4702170Y-5355091D01*
G01X4702170Y-5345693D01*
G01X4705218Y-5339597D01*
G01X4711314Y-5333501D01*
G01X4720712Y-5330199D01*
G01X4732904Y-5327151D01*
G01X4739254Y-5324103D01*
G01X4742302Y-5318007D01*
G01X4742302Y-5311657D01*
G01X4739254Y-5305561D01*
G01X4729856Y-5302513D01*
G01X4717410Y-5302513D01*
G01X6552237Y-5319398D02*
G01X6549189Y-5313048D01*
G01X6542839Y-5306952D01*
G01X6536743Y-5303904D01*
G01X6524297Y-5303904D01*
G01X6518201Y-5306952D01*
G01X6511851Y-5313048D01*
G01X6508803Y-5319398D01*
G01X6505755Y-5328542D01*
G01X6505755Y-5344036D01*
G01X6508803Y-5353434D01*
G01X6511851Y-5359530D01*
G01X6518201Y-5365880D01*
G01X6524297Y-5368928D01*
G01X6536743Y-5368928D01*
G01X6542839Y-5365880D01*
G01X6549189Y-5359530D01*
G01X6552237Y-5353434D01*
G01X6588559Y-5303904D02*
G01X6622595Y-5303904D01*
G01X6604053Y-5328542D01*
G01X6613197Y-5328542D01*
G01X6619547Y-5331590D01*
G01X6622595Y-5334892D01*
G01X6625643Y-5344036D01*
G01X6625643Y-5350386D01*
G01X6622595Y-5359530D01*
G01X6616499Y-5365880D01*
G01X6607101Y-5368928D01*
G01X6597703Y-5368928D01*
G01X6588559Y-5365880D01*
G01X6585511Y-5362578D01*
G01X6582463Y-5356482D01*
G01X6674411Y-5303904D02*
G01X6665013Y-5306952D01*
G01X6658917Y-5316350D01*
G01X6655869Y-5331590D01*
G01X6655869Y-5340988D01*
G01X6658917Y-5356482D01*
G01X6665013Y-5365880D01*
G01X6674411Y-5368928D01*
G01X6680507Y-5368928D01*
G01X6689905Y-5365880D01*
G01X6696001Y-5356482D01*
G01X6699049Y-5340988D01*
G01X6699049Y-5331590D01*
G01X6696001Y-5316350D01*
G01X6689905Y-5306952D01*
G01X6680507Y-5303904D01*
G01X6674411Y-5303904D01*
G01X5106977Y-5319398D02*
G01X5103929Y-5313048D01*
G01X5097579Y-5306952D01*
G01X5091483Y-5303904D01*
G01X5079037Y-5303904D01*
G01X5072941Y-5306952D01*
G01X5066591Y-5313048D01*
G01X5063543Y-5319398D01*
G01X5060495Y-5328542D01*
G01X5060495Y-5344036D01*
G01X5063543Y-5353434D01*
G01X5066591Y-5359530D01*
G01X5072941Y-5365880D01*
G01X5079037Y-5368928D01*
G01X5091483Y-5368928D01*
G01X5097579Y-5365880D01*
G01X5103929Y-5359530D01*
G01X5106977Y-5353434D01*
G01X5143299Y-5303904D02*
G01X5177335Y-5303904D01*
G01X5158793Y-5328542D01*
G01X5167937Y-5328542D01*
G01X5174287Y-5331590D01*
G01X5177335Y-5334892D01*
G01X5180383Y-5344036D01*
G01X5180383Y-5350386D01*
G01X5177335Y-5359530D01*
G01X5171239Y-5365880D01*
G01X5161841Y-5368928D01*
G01X5152443Y-5368928D01*
G01X5143299Y-5365880D01*
G01X5140251Y-5362578D01*
G01X5137203Y-5356482D01*
G01X5210609Y-5316350D02*
G01X5216705Y-5313048D01*
G01X5225849Y-5303904D01*
G01X5225849Y-5368928D01*
G01X5240020Y-5811266D02*
G01X5240020Y-5876290D01*
G01X5240020Y-5811266D02*
G01X5261610Y-5811266D01*
G01X5271008Y-5814314D01*
G01X5277104Y-5820410D01*
G01X5280152Y-5826760D01*
G01X5283454Y-5835904D01*
G01X5283454Y-5851398D01*
G01X5280152Y-5860796D01*
G01X5277104Y-5866892D01*
G01X5271008Y-5873242D01*
G01X5261610Y-5876290D01*
G01X5240020Y-5876290D01*
G01X5313680Y-5823712D02*
G01X5319776Y-5820410D01*
G01X5328920Y-5811266D01*
G01X5328920Y-5876290D01*
G01X2242820Y-5811266D02*
G01X2242820Y-5876290D01*
G01X2242820Y-5811266D02*
G01X2282952Y-5811266D01*
G01X2242820Y-5842254D02*
G01X2267712Y-5842254D01*
G01X2313178Y-5823712D02*
G01X2319274Y-5820410D01*
G01X2328418Y-5811266D01*
G01X2328418Y-5876290D01*
G01X7912608Y-6522466D02*
G01X7912608Y-6571996D01*
G01X7909560Y-6581140D01*
G01X7906512Y-6584442D01*
G01X7900162Y-6587490D01*
G01X7894066Y-6587490D01*
G01X7887716Y-6584442D01*
G01X7884668Y-6581140D01*
G01X7881620Y-6571996D01*
G01X7881620Y-6565646D01*
G01X7979918Y-6531610D02*
G01X7976870Y-6525514D01*
G01X7967472Y-6522466D01*
G01X7961376Y-6522466D01*
G01X7951978Y-6525514D01*
G01X7945882Y-6534912D01*
G01X7942834Y-6550152D01*
G01X7942834Y-6565646D01*
G01X7945882Y-6578092D01*
G01X7951978Y-6584442D01*
G01X7961376Y-6587490D01*
G01X7964424Y-6587490D01*
G01X7973568Y-6584442D01*
G01X7979918Y-6578092D01*
G01X7982966Y-6568948D01*
G01X7982966Y-6565646D01*
G01X7979918Y-6556502D01*
G01X7973568Y-6550152D01*
G01X7964424Y-6547104D01*
G01X7961376Y-6547104D01*
G01X7951978Y-6550152D01*
G01X7945882Y-6556502D01*
G01X7942834Y-6565646D01*
G01X6287262Y-5811266D02*
G01X6281166Y-5814314D01*
G01X6274816Y-5820410D01*
G01X6271768Y-5826760D01*
G01X6268720Y-5835904D01*
G01X6268720Y-5851398D01*
G01X6271768Y-5860796D01*
G01X6274816Y-5866892D01*
G01X6281166Y-5873242D01*
G01X6287262Y-5876290D01*
G01X6299708Y-5876290D01*
G01X6305804Y-5873242D01*
G01X6312154Y-5866892D01*
G01X6315202Y-5860796D01*
G01X6318250Y-5851398D01*
G01X6318250Y-5835904D01*
G01X6315202Y-5826760D01*
G01X6312154Y-5820410D01*
G01X6305804Y-5814314D01*
G01X6299708Y-5811266D01*
G01X6287262Y-5811266D01*
G01X6296660Y-5863844D02*
G01X6315202Y-5882386D01*
G01X6348476Y-5823712D02*
G01X6354572Y-5820410D01*
G01X6363716Y-5811266D01*
G01X6363716Y-5876290D01*
G01X6871462Y-5803520D02*
G01X6865366Y-5806568D01*
G01X6859016Y-5812664D01*
G01X6855968Y-5819014D01*
G01X6852920Y-5828158D01*
G01X6852920Y-5843652D01*
G01X6855968Y-5853050D01*
G01X6859016Y-5859146D01*
G01X6865366Y-5865496D01*
G01X6871462Y-5868544D01*
G01X6883908Y-5868544D01*
G01X6890004Y-5865496D01*
G01X6896354Y-5859146D01*
G01X6899402Y-5853050D01*
G01X6902450Y-5843652D01*
G01X6902450Y-5828158D01*
G01X6899402Y-5819014D01*
G01X6896354Y-5812664D01*
G01X6890004Y-5806568D01*
G01X6883908Y-5803520D01*
G01X6871462Y-5803520D01*
G01X6880860Y-5856098D02*
G01X6899402Y-5874640D01*
G01X6935724Y-5819014D02*
G01X6935724Y-5815966D01*
G01X6938772Y-5809616D01*
G01X6941820Y-5806568D01*
G01X6947916Y-5803520D01*
G01X6960362Y-5803520D01*
G01X6966712Y-5806568D01*
G01X6969760Y-5809616D01*
G01X6972808Y-5815966D01*
G01X6972808Y-5822062D01*
G01X6969760Y-5828158D01*
G01X6963410Y-5837556D01*
G01X6932676Y-5868544D01*
G01X6975856Y-5868544D01*
G01X5652262Y-5808373D02*
G01X5646166Y-5811421D01*
G01X5639816Y-5817517D01*
G01X5636768Y-5823867D01*
G01X5633720Y-5833011D01*
G01X5633720Y-5848505D01*
G01X5636768Y-5857903D01*
G01X5639816Y-5863999D01*
G01X5646166Y-5870349D01*
G01X5652262Y-5873397D01*
G01X5664708Y-5873397D01*
G01X5670804Y-5870349D01*
G01X5677154Y-5863999D01*
G01X5680202Y-5857903D01*
G01X5683250Y-5848505D01*
G01X5683250Y-5833011D01*
G01X5680202Y-5823867D01*
G01X5677154Y-5817517D01*
G01X5670804Y-5811421D01*
G01X5664708Y-5808373D01*
G01X5652262Y-5808373D01*
G01X5661660Y-5860951D02*
G01X5680202Y-5879493D01*
G01X5719572Y-5808373D02*
G01X5753608Y-5808373D01*
G01X5735066Y-5833011D01*
G01X5744210Y-5833011D01*
G01X5750560Y-5836059D01*
G01X5753608Y-5839361D01*
G01X5756656Y-5848505D01*
G01X5756656Y-5854855D01*
G01X5753608Y-5863999D01*
G01X5747512Y-5870349D01*
G01X5738114Y-5873397D01*
G01X5728716Y-5873397D01*
G01X5719572Y-5870349D01*
G01X5716524Y-5867047D01*
G01X5713476Y-5860951D01*
G01X1518920Y-6344666D02*
G01X1518920Y-6409690D01*
G01X1518920Y-6344666D02*
G01X1546860Y-6344666D01*
G01X1556004Y-6347714D01*
G01X1559052Y-6350762D01*
G01X1562354Y-6357112D01*
G01X1562354Y-6363208D01*
G01X1559052Y-6369304D01*
G01X1556004Y-6372352D01*
G01X1546860Y-6375654D01*
G01X1518920Y-6375654D01*
G01X1540510Y-6375654D02*
G01X1562354Y-6409690D01*
G01X1598676Y-6344666D02*
G01X1632712Y-6344666D01*
G01X1614170Y-6369304D01*
G01X1623314Y-6369304D01*
G01X1629664Y-6372352D01*
G01X1632712Y-6375654D01*
G01X1635760Y-6384798D01*
G01X1635760Y-6391148D01*
G01X1632712Y-6400292D01*
G01X1626616Y-6406642D01*
G01X1617218Y-6409690D01*
G01X1607820Y-6409690D01*
G01X1598676Y-6406642D01*
G01X1595628Y-6403340D01*
G01X1592580Y-6397244D01*
G01X6268720Y-6408166D02*
G01X6268720Y-6473190D01*
G01X6268720Y-6408166D02*
G01X6296660Y-6408166D01*
G01X6305804Y-6411214D01*
G01X6308852Y-6414262D01*
G01X6312154Y-6420612D01*
G01X6312154Y-6426708D01*
G01X6308852Y-6432804D01*
G01X6305804Y-6435852D01*
G01X6296660Y-6439154D01*
G01X6268720Y-6439154D01*
G01X6290310Y-6439154D02*
G01X6312154Y-6473190D01*
G01X6373114Y-6408166D02*
G01X6342380Y-6451346D01*
G01X6388608Y-6451346D01*
G01X6373114Y-6408166D02*
G01X6373114Y-6473190D01*
G01X7982966Y-6266180D02*
G01X8047990Y-6266180D01*
G01X7982966Y-6266180D02*
G01X7982966Y-6238240D01*
G01X7986014Y-6229096D01*
G01X7989062Y-6226048D01*
G01X7995412Y-6222746D01*
G01X8001508Y-6222746D01*
G01X8007604Y-6226048D01*
G01X8010652Y-6229096D01*
G01X8013954Y-6238240D01*
G01X8013954Y-6266180D01*
G01X8013954Y-6244590D02*
G01X8047990Y-6222746D01*
G01X7995412Y-6192520D02*
G01X7992110Y-6186424D01*
G01X7982966Y-6177280D01*
G01X8047990Y-6177280D01*
G01X7982966Y-6128512D02*
G01X7986014Y-6137910D01*
G01X7995412Y-6144006D01*
G01X8010652Y-6147054D01*
G01X8020050Y-6147054D01*
G01X8035544Y-6144006D01*
G01X8044942Y-6137910D01*
G01X8047990Y-6128512D01*
G01X8047990Y-6122416D01*
G01X8044942Y-6113018D01*
G01X8035544Y-6106922D01*
G01X8020050Y-6103874D01*
G01X8010652Y-6103874D01*
G01X7995412Y-6106922D01*
G01X7986014Y-6113018D01*
G01X7982966Y-6122416D01*
G01X7982966Y-6128512D01*
G01X6090920Y-6179566D02*
G01X6090920Y-6244590D01*
G01X6090920Y-6179566D02*
G01X6118860Y-6179566D01*
G01X6128004Y-6182614D01*
G01X6131052Y-6185662D01*
G01X6134354Y-6192012D01*
G01X6134354Y-6198108D01*
G01X6131052Y-6204204D01*
G01X6128004Y-6207252D01*
G01X6118860Y-6210554D01*
G01X6090920Y-6210554D01*
G01X6112510Y-6210554D02*
G01X6134354Y-6244590D01*
G01X6164580Y-6192012D02*
G01X6170676Y-6188710D01*
G01X6179820Y-6179566D01*
G01X6179820Y-6244590D01*
G01X6210046Y-6192012D02*
G01X6216142Y-6188710D01*
G01X6225286Y-6179566D01*
G01X6225286Y-6244590D01*
G01X4351020Y-6204966D02*
G01X4351020Y-6269990D01*
G01X4351020Y-6204966D02*
G01X4378960Y-6204966D01*
G01X4388104Y-6208014D01*
G01X4391152Y-6211062D01*
G01X4394454Y-6217412D01*
G01X4394454Y-6223508D01*
G01X4391152Y-6229604D01*
G01X4388104Y-6232652D01*
G01X4378960Y-6235954D01*
G01X4351020Y-6235954D01*
G01X4372610Y-6235954D02*
G01X4394454Y-6269990D01*
G01X4424680Y-6217412D02*
G01X4430776Y-6214110D01*
G01X4439920Y-6204966D01*
G01X4439920Y-6269990D01*
G01X4473194Y-6220460D02*
G01X4473194Y-6217412D01*
G01X4476242Y-6211062D01*
G01X4479290Y-6208014D01*
G01X4485386Y-6204966D01*
G01X4497832Y-6204966D01*
G01X4504182Y-6208014D01*
G01X4507230Y-6211062D01*
G01X4510278Y-6217412D01*
G01X4510278Y-6223508D01*
G01X4507230Y-6229604D01*
G01X4500880Y-6239002D01*
G01X4470146Y-6269990D01*
G01X4513326Y-6269990D01*
G01X1506220Y-5404866D02*
G01X1506220Y-5469890D01*
G01X1506220Y-5404866D02*
G01X1534160Y-5404866D01*
G01X1543304Y-5407914D01*
G01X1546352Y-5410962D01*
G01X1549654Y-5417312D01*
G01X1549654Y-5423408D01*
G01X1546352Y-5429504D01*
G01X1543304Y-5432552D01*
G01X1534160Y-5435854D01*
G01X1506220Y-5435854D01*
G01X1527810Y-5435854D02*
G01X1549654Y-5469890D01*
G01X1579880Y-5417312D02*
G01X1585976Y-5414010D01*
G01X1595120Y-5404866D01*
G01X1595120Y-5469890D01*
G01X1631442Y-5404866D02*
G01X1665478Y-5404866D01*
G01X1646936Y-5429504D01*
G01X1656080Y-5429504D01*
G01X1662430Y-5432552D01*
G01X1665478Y-5435854D01*
G01X1668526Y-5444998D01*
G01X1668526Y-5451348D01*
G01X1665478Y-5460492D01*
G01X1659382Y-5466842D01*
G01X1649984Y-5469890D01*
G01X1640586Y-5469890D01*
G01X1631442Y-5466842D01*
G01X1628394Y-5463540D01*
G01X1625346Y-5457444D01*
G01X9227566Y-7294880D02*
G01X9292590Y-7294880D01*
G01X9227566Y-7294880D02*
G01X9227566Y-7266940D01*
G01X9230614Y-7257796D01*
G01X9233662Y-7254748D01*
G01X9240012Y-7251446D01*
G01X9246108Y-7251446D01*
G01X9252204Y-7254748D01*
G01X9255252Y-7257796D01*
G01X9258554Y-7266940D01*
G01X9258554Y-7294880D01*
G01X9258554Y-7273290D02*
G01X9292590Y-7251446D01*
G01X9240012Y-7221220D02*
G01X9236710Y-7215124D01*
G01X9227566Y-7205980D01*
G01X9292590Y-7205980D01*
G01X9227566Y-7145020D02*
G01X9270746Y-7175754D01*
G01X9270746Y-7129526D01*
G01X9227566Y-7145020D02*
G01X9292590Y-7145020D01*
G01X7652766Y-6113780D02*
G01X7717790Y-6113780D01*
G01X7652766Y-6113780D02*
G01X7652766Y-6085840D01*
G01X7655814Y-6076696D01*
G01X7658862Y-6073648D01*
G01X7665212Y-6070346D01*
G01X7671308Y-6070346D01*
G01X7677404Y-6073648D01*
G01X7680452Y-6076696D01*
G01X7683754Y-6085840D01*
G01X7683754Y-6113780D01*
G01X7683754Y-6092190D02*
G01X7717790Y-6070346D01*
G01X7665212Y-6040120D02*
G01X7661910Y-6034024D01*
G01X7652766Y-6024880D01*
G01X7717790Y-6024880D01*
G01X7652766Y-5957570D02*
G01X7652766Y-5988558D01*
G01X7680452Y-5991606D01*
G01X7677404Y-5988558D01*
G01X7674356Y-5979414D01*
G01X7674356Y-5970016D01*
G01X7677404Y-5960618D01*
G01X7683754Y-5954522D01*
G01X7692898Y-5951474D01*
G01X7699248Y-5951474D01*
G01X7708392Y-5954522D01*
G01X7714742Y-5960618D01*
G01X7717790Y-5970016D01*
G01X7717790Y-5979414D01*
G01X7714742Y-5988558D01*
G01X7711440Y-5991606D01*
G01X7705344Y-5994654D01*
G01X9506966Y-5567680D02*
G01X9571990Y-5567680D01*
G01X9506966Y-5567680D02*
G01X9506966Y-5539740D01*
G01X9510014Y-5530596D01*
G01X9513062Y-5527548D01*
G01X9519412Y-5524246D01*
G01X9525508Y-5524246D01*
G01X9531604Y-5527548D01*
G01X9534652Y-5530596D01*
G01X9537954Y-5539740D01*
G01X9537954Y-5567680D01*
G01X9537954Y-5546090D02*
G01X9571990Y-5524246D01*
G01X9519412Y-5494020D02*
G01X9516110Y-5487924D01*
G01X9506966Y-5478780D01*
G01X9571990Y-5478780D01*
G01X9516110Y-5411470D02*
G01X9510014Y-5414518D01*
G01X9506966Y-5423916D01*
G01X9506966Y-5430012D01*
G01X9510014Y-5439410D01*
G01X9519412Y-5445506D01*
G01X9534652Y-5448554D01*
G01X9550146Y-5448554D01*
G01X9562592Y-5445506D01*
G01X9568942Y-5439410D01*
G01X9571990Y-5430012D01*
G01X9571990Y-5426964D01*
G01X9568942Y-5417820D01*
G01X9562592Y-5411470D01*
G01X9553448Y-5408422D01*
G01X9550146Y-5408422D01*
G01X9541002Y-5411470D01*
G01X9534652Y-5417820D01*
G01X9531604Y-5426964D01*
G01X9531604Y-5430012D01*
G01X9534652Y-5439410D01*
G01X9541002Y-5445506D01*
G01X9550146Y-5448554D01*
G01X7678166Y-5580380D02*
G01X7743190Y-5580380D01*
G01X7678166Y-5580380D02*
G01X7678166Y-5552440D01*
G01X7681214Y-5543296D01*
G01X7684262Y-5540248D01*
G01X7690612Y-5536946D01*
G01X7696708Y-5536946D01*
G01X7702804Y-5540248D01*
G01X7705852Y-5543296D01*
G01X7709154Y-5552440D01*
G01X7709154Y-5580380D01*
G01X7709154Y-5558790D02*
G01X7743190Y-5536946D01*
G01X7690612Y-5506720D02*
G01X7687310Y-5500624D01*
G01X7678166Y-5491480D01*
G01X7743190Y-5491480D01*
G01X7678166Y-5418074D02*
G01X7743190Y-5449062D01*
G01X7678166Y-5461254D02*
G01X7678166Y-5418074D01*
G01X7665466Y-6367780D02*
G01X7730490Y-6367780D01*
G01X7665466Y-6367780D02*
G01X7665466Y-6339840D01*
G01X7668514Y-6330696D01*
G01X7671562Y-6327648D01*
G01X7677912Y-6324346D01*
G01X7684008Y-6324346D01*
G01X7690104Y-6327648D01*
G01X7693152Y-6330696D01*
G01X7696454Y-6339840D01*
G01X7696454Y-6367780D01*
G01X7696454Y-6346190D02*
G01X7730490Y-6324346D01*
G01X7677912Y-6294120D02*
G01X7674610Y-6288024D01*
G01X7665466Y-6278880D01*
G01X7730490Y-6278880D01*
G01X7665466Y-6233414D02*
G01X7668514Y-6242558D01*
G01X7674610Y-6245606D01*
G01X7680960Y-6245606D01*
G01X7687056Y-6242558D01*
G01X7690104Y-6236462D01*
G01X7693152Y-6224016D01*
G01X7696454Y-6214618D01*
G01X7702550Y-6208522D01*
G01X7708646Y-6205474D01*
G01X7718044Y-6205474D01*
G01X7724140Y-6208522D01*
G01X7727442Y-6211570D01*
G01X7730490Y-6220968D01*
G01X7730490Y-6233414D01*
G01X7727442Y-6242558D01*
G01X7724140Y-6245606D01*
G01X7718044Y-6248654D01*
G01X7708646Y-6248654D01*
G01X7702550Y-6245606D01*
G01X7696454Y-6239510D01*
G01X7693152Y-6230112D01*
G01X7690104Y-6217920D01*
G01X7687056Y-6211570D01*
G01X7680960Y-6208522D01*
G01X7674610Y-6208522D01*
G01X7668514Y-6211570D01*
G01X7665466Y-6220968D01*
G01X7665466Y-6233414D01*
G01X6954520Y-6408166D02*
G01X6954520Y-6473190D01*
G01X6954520Y-6408166D02*
G01X6982460Y-6408166D01*
G01X6991604Y-6411214D01*
G01X6994652Y-6414262D01*
G01X6997954Y-6420612D01*
G01X6997954Y-6426708D01*
G01X6994652Y-6432804D01*
G01X6991604Y-6435852D01*
G01X6982460Y-6439154D01*
G01X6954520Y-6439154D01*
G01X6976110Y-6439154D02*
G01X6997954Y-6473190D01*
G01X7031228Y-6423660D02*
G01X7031228Y-6420612D01*
G01X7034276Y-6414262D01*
G01X7037324Y-6411214D01*
G01X7043420Y-6408166D01*
G01X7055866Y-6408166D01*
G01X7062216Y-6411214D01*
G01X7065264Y-6414262D01*
G01X7068312Y-6420612D01*
G01X7068312Y-6426708D01*
G01X7065264Y-6432804D01*
G01X7058914Y-6442202D01*
G01X7028180Y-6473190D01*
G01X7071360Y-6473190D01*
G01X7120128Y-6408166D02*
G01X7110730Y-6411214D01*
G01X7104634Y-6420612D01*
G01X7101586Y-6435852D01*
G01X7101586Y-6445250D01*
G01X7104634Y-6460744D01*
G01X7110730Y-6470142D01*
G01X7120128Y-6473190D01*
G01X7126224Y-6473190D01*
G01X7135622Y-6470142D01*
G01X7141718Y-6460744D01*
G01X7144766Y-6445250D01*
G01X7144766Y-6435852D01*
G01X7141718Y-6420612D01*
G01X7135622Y-6411214D01*
G01X7126224Y-6408166D01*
G01X7120128Y-6408166D01*
G01X6662674Y-6194019D02*
G01X6662674Y-6259043D01*
G01X6662674Y-6194019D02*
G01X6690614Y-6194019D01*
G01X6699758Y-6197067D01*
G01X6702806Y-6200115D01*
G01X6706108Y-6206465D01*
G01X6706108Y-6212561D01*
G01X6702806Y-6218657D01*
G01X6699758Y-6221705D01*
G01X6690614Y-6225007D01*
G01X6662674Y-6225007D01*
G01X6684264Y-6225007D02*
G01X6706108Y-6259043D01*
G01X6739382Y-6209513D02*
G01X6739382Y-6206465D01*
G01X6742430Y-6200115D01*
G01X6745478Y-6197067D01*
G01X6751574Y-6194019D01*
G01X6764020Y-6194019D01*
G01X6770370Y-6197067D01*
G01X6773418Y-6200115D01*
G01X6776466Y-6206465D01*
G01X6776466Y-6212561D01*
G01X6773418Y-6218657D01*
G01X6767068Y-6228055D01*
G01X6736334Y-6259043D01*
G01X6779514Y-6259043D01*
G01X6809740Y-6206465D02*
G01X6815836Y-6203163D01*
G01X6824980Y-6194019D01*
G01X6824980Y-6259043D01*
G01X5976620Y-6395466D02*
G01X5976620Y-6460490D01*
G01X5976620Y-6395466D02*
G01X6004560Y-6395466D01*
G01X6013704Y-6398514D01*
G01X6016752Y-6401562D01*
G01X6020054Y-6407912D01*
G01X6020054Y-6414008D01*
G01X6016752Y-6420104D01*
G01X6013704Y-6423152D01*
G01X6004560Y-6426454D01*
G01X5976620Y-6426454D01*
G01X5998210Y-6426454D02*
G01X6020054Y-6460490D01*
G01X6053328Y-6410960D02*
G01X6053328Y-6407912D01*
G01X6056376Y-6401562D01*
G01X6059424Y-6398514D01*
G01X6065520Y-6395466D01*
G01X6077966Y-6395466D01*
G01X6084316Y-6398514D01*
G01X6087364Y-6401562D01*
G01X6090412Y-6407912D01*
G01X6090412Y-6414008D01*
G01X6087364Y-6420104D01*
G01X6081014Y-6429502D01*
G01X6050280Y-6460490D01*
G01X6093460Y-6460490D01*
G01X6126734Y-6410960D02*
G01X6126734Y-6407912D01*
G01X6129782Y-6401562D01*
G01X6132830Y-6398514D01*
G01X6138926Y-6395466D01*
G01X6151372Y-6395466D01*
G01X6157722Y-6398514D01*
G01X6160770Y-6401562D01*
G01X6163818Y-6407912D01*
G01X6163818Y-6414008D01*
G01X6160770Y-6420104D01*
G01X6154420Y-6429502D01*
G01X6123686Y-6460490D01*
G01X6166866Y-6460490D01*
G01X5417820Y-6179566D02*
G01X5417820Y-6244590D01*
G01X5417820Y-6179566D02*
G01X5445760Y-6179566D01*
G01X5454904Y-6182614D01*
G01X5457952Y-6185662D01*
G01X5461254Y-6192012D01*
G01X5461254Y-6198108D01*
G01X5457952Y-6204204D01*
G01X5454904Y-6207252D01*
G01X5445760Y-6210554D01*
G01X5417820Y-6210554D01*
G01X5439410Y-6210554D02*
G01X5461254Y-6244590D01*
G01X5494528Y-6195060D02*
G01X5494528Y-6192012D01*
G01X5497576Y-6185662D01*
G01X5500624Y-6182614D01*
G01X5506720Y-6179566D01*
G01X5519166Y-6179566D01*
G01X5525516Y-6182614D01*
G01X5528564Y-6185662D01*
G01X5531612Y-6192012D01*
G01X5531612Y-6198108D01*
G01X5528564Y-6204204D01*
G01X5522214Y-6213602D01*
G01X5491480Y-6244590D01*
G01X5534660Y-6244590D01*
G01X5570982Y-6179566D02*
G01X5605018Y-6179566D01*
G01X5586476Y-6204204D01*
G01X5595620Y-6204204D01*
G01X5601970Y-6207252D01*
G01X5605018Y-6210554D01*
G01X5608066Y-6219698D01*
G01X5608066Y-6226048D01*
G01X5605018Y-6235192D01*
G01X5598922Y-6241542D01*
G01X5589524Y-6244590D01*
G01X5580126Y-6244590D01*
G01X5570982Y-6241542D01*
G01X5567934Y-6238240D01*
G01X5564886Y-6232144D01*
G01X8919210Y-5803646D02*
G01X8913114Y-5809996D01*
G01X8910066Y-5819140D01*
G01X8910066Y-5831586D01*
G01X8913114Y-5840984D01*
G01X8919210Y-5847080D01*
G01X8925560Y-5847080D01*
G01X8931656Y-5844032D01*
G01X8934704Y-5840984D01*
G01X8937752Y-5834634D01*
G01X8944102Y-5816092D01*
G01X8947150Y-5809996D01*
G01X8950198Y-5806948D01*
G01X8956548Y-5803646D01*
G01X8965692Y-5803646D01*
G01X8972042Y-5809996D01*
G01X8975090Y-5819140D01*
G01X8975090Y-5831586D01*
G01X8972042Y-5840984D01*
G01X8965692Y-5847080D01*
G01X8910066Y-5773420D02*
G01X8975090Y-5758180D01*
G01X8910066Y-5742686D02*
G01X8975090Y-5758180D01*
G01X8910066Y-5742686D02*
G01X8975090Y-5727192D01*
G01X8910066Y-5711698D02*
G01X8975090Y-5727192D01*
G01X8922512Y-5681472D02*
G01X8919210Y-5675376D01*
G01X8910066Y-5666232D01*
G01X8975090Y-5666232D01*
G01X7776210Y-5816346D02*
G01X7770114Y-5822696D01*
G01X7767066Y-5831840D01*
G01X7767066Y-5844286D01*
G01X7770114Y-5853684D01*
G01X7776210Y-5859780D01*
G01X7782560Y-5859780D01*
G01X7788656Y-5856732D01*
G01X7791704Y-5853684D01*
G01X7794752Y-5847334D01*
G01X7801102Y-5828792D01*
G01X7804150Y-5822696D01*
G01X7807198Y-5819648D01*
G01X7813548Y-5816346D01*
G01X7822692Y-5816346D01*
G01X7829042Y-5822696D01*
G01X7832090Y-5831840D01*
G01X7832090Y-5844286D01*
G01X7829042Y-5853684D01*
G01X7822692Y-5859780D01*
G01X7767066Y-5786120D02*
G01X7832090Y-5770880D01*
G01X7767066Y-5755386D02*
G01X7832090Y-5770880D01*
G01X7767066Y-5755386D02*
G01X7832090Y-5739892D01*
G01X7767066Y-5724398D02*
G01X7832090Y-5739892D01*
G01X7767066Y-5688076D02*
G01X7767066Y-5654040D01*
G01X7791704Y-5672582D01*
G01X7791704Y-5663438D01*
G01X7794752Y-5657088D01*
G01X7798054Y-5654040D01*
G01X7807198Y-5650992D01*
G01X7813548Y-5650992D01*
G01X7822692Y-5654040D01*
G01X7829042Y-5660136D01*
G01X7832090Y-5669534D01*
G01X7832090Y-5678932D01*
G01X7829042Y-5688076D01*
G01X7825740Y-5691124D01*
G01X7819644Y-5694172D01*
G01X8465820Y-5976366D02*
G01X8465820Y-6022848D01*
G01X8468868Y-6031992D01*
G01X8475218Y-6038342D01*
G01X8484362Y-6041390D01*
G01X8490712Y-6041390D01*
G01X8499856Y-6038342D01*
G01X8505952Y-6031992D01*
G01X8509254Y-6022848D01*
G01X8509254Y-5976366D01*
G01X8539480Y-5988812D02*
G01X8545576Y-5985510D01*
G01X8554720Y-5976366D01*
G01X8554720Y-6041390D01*
G01X8186420Y-5874766D02*
G01X8186420Y-5921248D01*
G01X8189468Y-5930392D01*
G01X8195818Y-5936742D01*
G01X8204962Y-5939790D01*
G01X8211312Y-5939790D01*
G01X8220456Y-5936742D01*
G01X8226552Y-5930392D01*
G01X8229854Y-5921248D01*
G01X8229854Y-5874766D01*
G01X8263128Y-5890260D02*
G01X8263128Y-5887212D01*
G01X8266176Y-5880862D01*
G01X8269224Y-5877814D01*
G01X8275320Y-5874766D01*
G01X8287766Y-5874766D01*
G01X8294116Y-5877814D01*
G01X8297164Y-5880862D01*
G01X8300212Y-5887212D01*
G01X8300212Y-5893308D01*
G01X8297164Y-5899404D01*
G01X8290814Y-5908802D01*
G01X8260080Y-5939790D01*
G01X8303260Y-5939790D01*
G01X2623820Y-5595366D02*
G01X2623820Y-5641848D01*
G01X2626868Y-5650992D01*
G01X2633218Y-5657342D01*
G01X2642362Y-5660390D01*
G01X2648712Y-5660390D01*
G01X2657856Y-5657342D01*
G01X2663952Y-5650992D01*
G01X2667254Y-5641848D01*
G01X2667254Y-5595366D01*
G01X2712720Y-5595366D02*
G01X2703576Y-5598414D01*
G01X2700528Y-5604510D01*
G01X2700528Y-5610860D01*
G01X2703576Y-5616956D01*
G01X2709672Y-5620004D01*
G01X2722118Y-5623052D01*
G01X2731516Y-5626354D01*
G01X2737612Y-5632450D01*
G01X2740660Y-5638546D01*
G01X2740660Y-5647944D01*
G01X2737612Y-5654040D01*
G01X2734564Y-5657342D01*
G01X2725166Y-5660390D01*
G01X2712720Y-5660390D01*
G01X2703576Y-5657342D01*
G01X2700528Y-5654040D01*
G01X2697480Y-5647944D01*
G01X2697480Y-5638546D01*
G01X2700528Y-5632450D01*
G01X2706624Y-5626354D01*
G01X2716022Y-5623052D01*
G01X2728214Y-5620004D01*
G01X2734564Y-5616956D01*
G01X2737612Y-5610860D01*
G01X2737612Y-5604510D01*
G01X2734564Y-5598414D01*
G01X2725166Y-5595366D01*
G01X2712720Y-5595366D01*
G01X1213866Y-5999480D02*
G01X1260348Y-5999480D01*
G01X1269492Y-5996432D01*
G01X1275842Y-5990082D01*
G01X1278890Y-5980938D01*
G01X1278890Y-5974588D01*
G01X1275842Y-5965444D01*
G01X1269492Y-5959348D01*
G01X1260348Y-5956046D01*
G01X1213866Y-5956046D01*
G01X1226312Y-5925820D02*
G01X1223010Y-5919724D01*
G01X1213866Y-5910580D01*
G01X1278890Y-5910580D01*
G01X1213866Y-5861812D02*
G01X1216914Y-5871210D01*
G01X1226312Y-5877306D01*
G01X1241552Y-5880354D01*
G01X1250950Y-5880354D01*
G01X1266444Y-5877306D01*
G01X1275842Y-5871210D01*
G01X1278890Y-5861812D01*
G01X1278890Y-5855716D01*
G01X1275842Y-5846318D01*
G01X1266444Y-5840222D01*
G01X1250950Y-5837174D01*
G01X1241552Y-5837174D01*
G01X1226312Y-5840222D01*
G01X1216914Y-5846318D01*
G01X1213866Y-5855716D01*
G01X1213866Y-5861812D01*
G01X528320Y-5874766D02*
G01X528320Y-5921248D01*
G01X531368Y-5930392D01*
G01X537718Y-5936742D01*
G01X546862Y-5939790D01*
G01X553212Y-5939790D01*
G01X562356Y-5936742D01*
G01X568452Y-5930392D01*
G01X571754Y-5921248D01*
G01X571754Y-5874766D01*
G01X645160Y-5883910D02*
G01X639064Y-5877814D01*
G01X629666Y-5874766D01*
G01X617220Y-5874766D01*
G01X608076Y-5877814D01*
G01X601980Y-5883910D01*
G01X601980Y-5890260D01*
G01X605028Y-5896356D01*
G01X608076Y-5899404D01*
G01X614172Y-5902452D01*
G01X632714Y-5908802D01*
G01X639064Y-5911850D01*
G01X642112Y-5914898D01*
G01X645160Y-5921248D01*
G01X645160Y-5930392D01*
G01X639064Y-5936742D01*
G01X629666Y-5939790D01*
G01X617220Y-5939790D01*
G01X608076Y-5936742D01*
G01X601980Y-5930392D01*
G01X675386Y-5874766D02*
G01X675386Y-5939790D01*
G01X675386Y-5874766D02*
G01X703072Y-5874766D01*
G01X712470Y-5877814D01*
G01X715518Y-5880862D01*
G01X718566Y-5887212D01*
G01X718566Y-5893308D01*
G01X715518Y-5899404D01*
G01X712470Y-5902452D01*
G01X703072Y-5905754D01*
G01X675386Y-5905754D02*
G01X703072Y-5905754D01*
G01X712470Y-5908802D01*
G01X715518Y-5911850D01*
G01X718566Y-5917946D01*
G01X718566Y-5927344D01*
G01X715518Y-5933440D01*
G01X712470Y-5936742D01*
G01X703072Y-5939790D01*
G01X675386Y-5939790D01*
G01X748792Y-5887212D02*
G01X754888Y-5883910D01*
G01X764032Y-5874766D01*
G01X764032Y-5939790D01*
G01X3622802Y-6245860D02*
G01X3619754Y-6239510D01*
G01X3613404Y-6233414D01*
G01X3607308Y-6230366D01*
G01X3594862Y-6230366D01*
G01X3588766Y-6233414D01*
G01X3582416Y-6239510D01*
G01X3579368Y-6245860D01*
G01X3576320Y-6255004D01*
G01X3576320Y-6270498D01*
G01X3579368Y-6279896D01*
G01X3582416Y-6285992D01*
G01X3588766Y-6292342D01*
G01X3594862Y-6295390D01*
G01X3607308Y-6295390D01*
G01X3613404Y-6292342D01*
G01X3619754Y-6285992D01*
G01X3622802Y-6279896D01*
G01X3653028Y-6242812D02*
G01X3659124Y-6239510D01*
G01X3668268Y-6230366D01*
G01X3668268Y-6295390D01*
G01X3729228Y-6230366D02*
G01X3698494Y-6273546D01*
G01X3744722Y-6273546D01*
G01X3729228Y-6230366D02*
G01X3729228Y-6295390D01*
G01X3889007Y-5313034D02*
G01X3885959Y-5306684D01*
G01X3879609Y-5300588D01*
G01X3873513Y-5297540D01*
G01X3861067Y-5297540D01*
G01X3854971Y-5300588D01*
G01X3848621Y-5306684D01*
G01X3845573Y-5313034D01*
G01X3842525Y-5322178D01*
G01X3842525Y-5337672D01*
G01X3845573Y-5347070D01*
G01X3848621Y-5353166D01*
G01X3854971Y-5359516D01*
G01X3861067Y-5362564D01*
G01X3873513Y-5362564D01*
G01X3879609Y-5359516D01*
G01X3885959Y-5353166D01*
G01X3889007Y-5347070D01*
G01X3919233Y-5309986D02*
G01X3925329Y-5306684D01*
G01X3934473Y-5297540D01*
G01X3934473Y-5362564D01*
G01X4001783Y-5297540D02*
G01X3970795Y-5297540D01*
G01X3967747Y-5325226D01*
G01X3970795Y-5322178D01*
G01X3979939Y-5319130D01*
G01X3989337Y-5319130D01*
G01X3998735Y-5322178D01*
G01X4004831Y-5328528D01*
G01X4007879Y-5337672D01*
G01X4007879Y-5344022D01*
G01X4004831Y-5353166D01*
G01X3998735Y-5359516D01*
G01X3989337Y-5362564D01*
G01X3979939Y-5362564D01*
G01X3970795Y-5359516D01*
G01X3967747Y-5356214D01*
G01X3964699Y-5350118D01*
G01X3399064Y-5316458D02*
G01X3396016Y-5310108D01*
G01X3389666Y-5304012D01*
G01X3383570Y-5300964D01*
G01X3371124Y-5300964D01*
G01X3365028Y-5304012D01*
G01X3358678Y-5310108D01*
G01X3355630Y-5316458D01*
G01X3352582Y-5325602D01*
G01X3352582Y-5341096D01*
G01X3355630Y-5350494D01*
G01X3358678Y-5356590D01*
G01X3365028Y-5362940D01*
G01X3371124Y-5365988D01*
G01X3383570Y-5365988D01*
G01X3389666Y-5362940D01*
G01X3396016Y-5356590D01*
G01X3399064Y-5350494D01*
G01X3429290Y-5313410D02*
G01X3435386Y-5310108D01*
G01X3444530Y-5300964D01*
G01X3444530Y-5365988D01*
G01X3511840Y-5310108D02*
G01X3508792Y-5304012D01*
G01X3499394Y-5300964D01*
G01X3493298Y-5300964D01*
G01X3483900Y-5304012D01*
G01X3477804Y-5313410D01*
G01X3474756Y-5328650D01*
G01X3474756Y-5344144D01*
G01X3477804Y-5356590D01*
G01X3483900Y-5362940D01*
G01X3493298Y-5365988D01*
G01X3496346Y-5365988D01*
G01X3505490Y-5362940D01*
G01X3511840Y-5356590D01*
G01X3514888Y-5347446D01*
G01X3514888Y-5344144D01*
G01X3511840Y-5335000D01*
G01X3505490Y-5328650D01*
G01X3496346Y-5325602D01*
G01X3493298Y-5325602D01*
G01X3483900Y-5328650D01*
G01X3477804Y-5335000D01*
G01X3474756Y-5344144D01*
G01X3647707Y-5312275D02*
G01X3644659Y-5305925D01*
G01X3638309Y-5299829D01*
G01X3632213Y-5296781D01*
G01X3619767Y-5296781D01*
G01X3613671Y-5299829D01*
G01X3607321Y-5305925D01*
G01X3604273Y-5312275D01*
G01X3601225Y-5321419D01*
G01X3601225Y-5336913D01*
G01X3604273Y-5346311D01*
G01X3607321Y-5352407D01*
G01X3613671Y-5358757D01*
G01X3619767Y-5361805D01*
G01X3632213Y-5361805D01*
G01X3638309Y-5358757D01*
G01X3644659Y-5352407D01*
G01X3647707Y-5346311D01*
G01X3677933Y-5309227D02*
G01X3684029Y-5305925D01*
G01X3693173Y-5296781D01*
G01X3693173Y-5361805D01*
G01X3766579Y-5296781D02*
G01X3735591Y-5361805D01*
G01X3723399Y-5296781D02*
G01X3766579Y-5296781D01*
G01X3889502Y-6245860D02*
G01X3886454Y-6239510D01*
G01X3880104Y-6233414D01*
G01X3874008Y-6230366D01*
G01X3861562Y-6230366D01*
G01X3855466Y-6233414D01*
G01X3849116Y-6239510D01*
G01X3846068Y-6245860D01*
G01X3843020Y-6255004D01*
G01X3843020Y-6270498D01*
G01X3846068Y-6279896D01*
G01X3849116Y-6285992D01*
G01X3855466Y-6292342D01*
G01X3861562Y-6295390D01*
G01X3874008Y-6295390D01*
G01X3880104Y-6292342D01*
G01X3886454Y-6285992D01*
G01X3889502Y-6279896D01*
G01X3919728Y-6242812D02*
G01X3925824Y-6239510D01*
G01X3934968Y-6230366D01*
G01X3934968Y-6295390D01*
G01X4005326Y-6251956D02*
G01X4002278Y-6261354D01*
G01X3995928Y-6267450D01*
G01X3986784Y-6270498D01*
G01X3983736Y-6270498D01*
G01X3974338Y-6267450D01*
G01X3968242Y-6261354D01*
G01X3965194Y-6251956D01*
G01X3965194Y-6248908D01*
G01X3968242Y-6239510D01*
G01X3974338Y-6233414D01*
G01X3983736Y-6230366D01*
G01X3986784Y-6230366D01*
G01X3995928Y-6233414D01*
G01X4002278Y-6239510D01*
G01X4005326Y-6251956D01*
G01X4005326Y-6267450D01*
G01X4002278Y-6282944D01*
G01X3995928Y-6292342D01*
G01X3986784Y-6295390D01*
G01X3980434Y-6295390D01*
G01X3971290Y-6292342D01*
G01X3968242Y-6285992D01*
G01X4369308Y-5318760D02*
G01X4366260Y-5312410D01*
G01X4359910Y-5306314D01*
G01X4353814Y-5303266D01*
G01X4341368Y-5303266D01*
G01X4335272Y-5306314D01*
G01X4328922Y-5312410D01*
G01X4325874Y-5318760D01*
G01X4322826Y-5327904D01*
G01X4322826Y-5343398D01*
G01X4325874Y-5352796D01*
G01X4328922Y-5358892D01*
G01X4335272Y-5365242D01*
G01X4341368Y-5368290D01*
G01X4353814Y-5368290D01*
G01X4359910Y-5365242D01*
G01X4366260Y-5358892D01*
G01X4369308Y-5352796D01*
G01X4402582Y-5318760D02*
G01X4402582Y-5315712D01*
G01X4405630Y-5309362D01*
G01X4408678Y-5306314D01*
G01X4414774Y-5303266D01*
G01X4427220Y-5303266D01*
G01X4433570Y-5306314D01*
G01X4436618Y-5309362D01*
G01X4439666Y-5315712D01*
G01X4439666Y-5321808D01*
G01X4436618Y-5327904D01*
G01X4430268Y-5337302D01*
G01X4399534Y-5368290D01*
G01X4442714Y-5368290D01*
G01X4472940Y-5315712D02*
G01X4479036Y-5312410D01*
G01X4488180Y-5303266D01*
G01X4488180Y-5368290D01*
G01X5574337Y-5319398D02*
G01X5571289Y-5313048D01*
G01X5564939Y-5306952D01*
G01X5558843Y-5303904D01*
G01X5546397Y-5303904D01*
G01X5540301Y-5306952D01*
G01X5533951Y-5313048D01*
G01X5530903Y-5319398D01*
G01X5527855Y-5328542D01*
G01X5527855Y-5344036D01*
G01X5530903Y-5353434D01*
G01X5533951Y-5359530D01*
G01X5540301Y-5365880D01*
G01X5546397Y-5368928D01*
G01X5558843Y-5368928D01*
G01X5564939Y-5365880D01*
G01X5571289Y-5359530D01*
G01X5574337Y-5353434D01*
G01X5607611Y-5319398D02*
G01X5607611Y-5316350D01*
G01X5610659Y-5310000D01*
G01X5613707Y-5306952D01*
G01X5619803Y-5303904D01*
G01X5632249Y-5303904D01*
G01X5638599Y-5306952D01*
G01X5641647Y-5310000D01*
G01X5644695Y-5316350D01*
G01X5644695Y-5322446D01*
G01X5641647Y-5328542D01*
G01X5635297Y-5337940D01*
G01X5604563Y-5368928D01*
G01X5647743Y-5368928D01*
G01X5715053Y-5303904D02*
G01X5684065Y-5303904D01*
G01X5681017Y-5331590D01*
G01X5684065Y-5328542D01*
G01X5693209Y-5325494D01*
G01X5702607Y-5325494D01*
G01X5712005Y-5328542D01*
G01X5718101Y-5334892D01*
G01X5721149Y-5344036D01*
G01X5721149Y-5350386D01*
G01X5718101Y-5359530D01*
G01X5712005Y-5365880D01*
G01X5702607Y-5368928D01*
G01X5693209Y-5368928D01*
G01X5684065Y-5365880D01*
G01X5681017Y-5362578D01*
G01X5677969Y-5356482D01*
G01X6783885Y-5319398D02*
G01X6780837Y-5313048D01*
G01X6774487Y-5306952D01*
G01X6768391Y-5303904D01*
G01X6755945Y-5303904D01*
G01X6749849Y-5306952D01*
G01X6743499Y-5313048D01*
G01X6740451Y-5319398D01*
G01X6737403Y-5328542D01*
G01X6737403Y-5344036D01*
G01X6740451Y-5353434D01*
G01X6743499Y-5359530D01*
G01X6749849Y-5365880D01*
G01X6755945Y-5368928D01*
G01X6768391Y-5368928D01*
G01X6774487Y-5365880D01*
G01X6780837Y-5359530D01*
G01X6783885Y-5353434D01*
G01X6817159Y-5319398D02*
G01X6817159Y-5316350D01*
G01X6820207Y-5310000D01*
G01X6823255Y-5306952D01*
G01X6829351Y-5303904D01*
G01X6841797Y-5303904D01*
G01X6848147Y-5306952D01*
G01X6851195Y-5310000D01*
G01X6854243Y-5316350D01*
G01X6854243Y-5322446D01*
G01X6851195Y-5328542D01*
G01X6844845Y-5337940D01*
G01X6814111Y-5368928D01*
G01X6857291Y-5368928D01*
G01X6927649Y-5325494D02*
G01X6924601Y-5334892D01*
G01X6918251Y-5340988D01*
G01X6909107Y-5344036D01*
G01X6906059Y-5344036D01*
G01X6896661Y-5340988D01*
G01X6890565Y-5334892D01*
G01X6887517Y-5325494D01*
G01X6887517Y-5322446D01*
G01X6890565Y-5313048D01*
G01X6896661Y-5306952D01*
G01X6906059Y-5303904D01*
G01X6909107Y-5303904D01*
G01X6918251Y-5306952D01*
G01X6924601Y-5313048D01*
G01X6927649Y-5325494D01*
G01X6927649Y-5340988D01*
G01X6924601Y-5356482D01*
G01X6918251Y-5365880D01*
G01X6909107Y-5368928D01*
G01X6902757Y-5368928D01*
G01X6893613Y-5365880D01*
G01X6890565Y-5359530D01*
G01X6069637Y-5319398D02*
G01X6066589Y-5313048D01*
G01X6060239Y-5306952D01*
G01X6054143Y-5303904D01*
G01X6041697Y-5303904D01*
G01X6035601Y-5306952D01*
G01X6029251Y-5313048D01*
G01X6026203Y-5319398D01*
G01X6023155Y-5328542D01*
G01X6023155Y-5344036D01*
G01X6026203Y-5353434D01*
G01X6029251Y-5359530D01*
G01X6035601Y-5365880D01*
G01X6041697Y-5368928D01*
G01X6054143Y-5368928D01*
G01X6060239Y-5365880D01*
G01X6066589Y-5359530D01*
G01X6069637Y-5353434D01*
G01X6105959Y-5303904D02*
G01X6139995Y-5303904D01*
G01X6121453Y-5328542D01*
G01X6130597Y-5328542D01*
G01X6136947Y-5331590D01*
G01X6139995Y-5334892D01*
G01X6143043Y-5344036D01*
G01X6143043Y-5350386D01*
G01X6139995Y-5359530D01*
G01X6133899Y-5365880D01*
G01X6124501Y-5368928D01*
G01X6115103Y-5368928D01*
G01X6105959Y-5365880D01*
G01X6102911Y-5362578D01*
G01X6099863Y-5356482D01*
G01X6176317Y-5319398D02*
G01X6176317Y-5316350D01*
G01X6179365Y-5310000D01*
G01X6182413Y-5306952D01*
G01X6188509Y-5303904D01*
G01X6200955Y-5303904D01*
G01X6207305Y-5306952D01*
G01X6210353Y-5310000D01*
G01X6213401Y-5316350D01*
G01X6213401Y-5322446D01*
G01X6210353Y-5328542D01*
G01X6204003Y-5337940D01*
G01X6173269Y-5368928D01*
G01X6216449Y-5368928D01*
G01X4105402Y-6245860D02*
G01X4102354Y-6239510D01*
G01X4096004Y-6233414D01*
G01X4089908Y-6230366D01*
G01X4077462Y-6230366D01*
G01X4071366Y-6233414D01*
G01X4065016Y-6239510D01*
G01X4061968Y-6245860D01*
G01X4058920Y-6255004D01*
G01X4058920Y-6270498D01*
G01X4061968Y-6279896D01*
G01X4065016Y-6285992D01*
G01X4071366Y-6292342D01*
G01X4077462Y-6295390D01*
G01X4089908Y-6295390D01*
G01X4096004Y-6292342D01*
G01X4102354Y-6285992D01*
G01X4105402Y-6279896D01*
G01X4141724Y-6230366D02*
G01X4175760Y-6230366D01*
G01X4157218Y-6255004D01*
G01X4166362Y-6255004D01*
G01X4172712Y-6258052D01*
G01X4175760Y-6261354D01*
G01X4178808Y-6270498D01*
G01X4178808Y-6276848D01*
G01X4175760Y-6285992D01*
G01X4169664Y-6292342D01*
G01X4160266Y-6295390D01*
G01X4150868Y-6295390D01*
G01X4141724Y-6292342D01*
G01X4138676Y-6289040D01*
G01X4135628Y-6282944D01*
G01X4239768Y-6230366D02*
G01X4209034Y-6273546D01*
G01X4255262Y-6273546D01*
G01X4239768Y-6230366D02*
G01X4239768Y-6295390D01*
G01X4630420Y-6281166D02*
G01X4630420Y-6346190D01*
G01X4630420Y-6281166D02*
G01X4652010Y-6281166D01*
G01X4661408Y-6284214D01*
G01X4667504Y-6290310D01*
G01X4670552Y-6296660D01*
G01X4673854Y-6305804D01*
G01X4673854Y-6321298D01*
G01X4670552Y-6330696D01*
G01X4667504Y-6336792D01*
G01X4661408Y-6343142D01*
G01X4652010Y-6346190D01*
G01X4630420Y-6346190D01*
G01X4710176Y-6281166D02*
G01X4744212Y-6281166D01*
G01X4725670Y-6305804D01*
G01X4734814Y-6305804D01*
G01X4741164Y-6308852D01*
G01X4744212Y-6312154D01*
G01X4747260Y-6321298D01*
G01X4747260Y-6327648D01*
G01X4744212Y-6336792D01*
G01X4738116Y-6343142D01*
G01X4728718Y-6346190D01*
G01X4719320Y-6346190D01*
G01X4710176Y-6343142D01*
G01X4707128Y-6339840D01*
G01X4704080Y-6333744D01*
G01X3390392Y-6255766D02*
G01X3390392Y-6320790D01*
G01X3390392Y-6255766D02*
G01X3411982Y-6255766D01*
G01X3421380Y-6258814D01*
G01X3427476Y-6264910D01*
G01X3430524Y-6271260D01*
G01X3433826Y-6280404D01*
G01X3433826Y-6295898D01*
G01X3430524Y-6305296D01*
G01X3427476Y-6311392D01*
G01X3421380Y-6317742D01*
G01X3411982Y-6320790D01*
G01X3390392Y-6320790D01*
G01X3494786Y-6255766D02*
G01X3464052Y-6298946D01*
G01X3510280Y-6298946D01*
G01X3494786Y-6255766D02*
G01X3494786Y-6320790D01*
G01X5011166Y-6278880D02*
G01X5076190Y-6278880D01*
G01X5076190Y-6278880D02*
G01X5076190Y-6241796D01*
G01X5023612Y-6211570D02*
G01X5020310Y-6205474D01*
G01X5011166Y-6196330D01*
G01X5076190Y-6196330D01*
G01X1746549Y-6317018D02*
G01X1746549Y-6382042D01*
G01X1746549Y-6317018D02*
G01X1774489Y-6317018D01*
G01X1783633Y-6320066D01*
G01X1786681Y-6323114D01*
G01X1789983Y-6329464D01*
G01X1789983Y-6335560D01*
G01X1786681Y-6341656D01*
G01X1783633Y-6344704D01*
G01X1774489Y-6348006D01*
G01X1746549Y-6348006D01*
G01X1768139Y-6348006D02*
G01X1789983Y-6382042D01*
G01X1820209Y-6329464D02*
G01X1826305Y-6326162D01*
G01X1835449Y-6317018D01*
G01X1835449Y-6382042D01*
G01X1751368Y-5417535D02*
G01X1751368Y-5482559D01*
G01X1751368Y-5417535D02*
G01X1779308Y-5417535D01*
G01X1788452Y-5420583D01*
G01X1791500Y-5423631D01*
G01X1794802Y-5429981D01*
G01X1794802Y-5436077D01*
G01X1791500Y-5442173D01*
G01X1788452Y-5445221D01*
G01X1779308Y-5448523D01*
G01X1751368Y-5448523D01*
G01X1772958Y-5448523D02*
G01X1794802Y-5482559D01*
G01X1828076Y-5433029D02*
G01X1828076Y-5429981D01*
G01X1831124Y-5423631D01*
G01X1834172Y-5420583D01*
G01X1840268Y-5417535D01*
G01X1852714Y-5417535D01*
G01X1859064Y-5420583D01*
G01X1862112Y-5423631D01*
G01X1865160Y-5429981D01*
G01X1865160Y-5436077D01*
G01X1862112Y-5442173D01*
G01X1855762Y-5451571D01*
G01X1825028Y-5482559D01*
G01X1868208Y-5482559D01*
G01X8681720Y-6916166D02*
G01X8725154Y-6981190D01*
G01X8725154Y-6916166D02*
G01X8681720Y-6981190D01*
G01X8755380Y-6928612D02*
G01X8761476Y-6925310D01*
G01X8770620Y-6916166D01*
G01X8770620Y-6981190D01*
G01X8468360Y-7222998D02*
G01X8462010Y-7226046D01*
G01X8455914Y-7232396D01*
G01X8452866Y-7238492D01*
G01X8452866Y-7250938D01*
G01X8455914Y-7257034D01*
G01X8462010Y-7263384D01*
G01X8468360Y-7266432D01*
G01X8477504Y-7269480D01*
G01X8492998Y-7269480D01*
G01X8502396Y-7266432D01*
G01X8508492Y-7263384D01*
G01X8514842Y-7257034D01*
G01X8517890Y-7250938D01*
G01X8517890Y-7238492D01*
G01X8514842Y-7232396D01*
G01X8508492Y-7226046D01*
G01X8502396Y-7222998D01*
G01X8452866Y-7155688D02*
G01X8452866Y-7186676D01*
G01X8480552Y-7189724D01*
G01X8477504Y-7186676D01*
G01X8474456Y-7177532D01*
G01X8474456Y-7168134D01*
G01X8477504Y-7158736D01*
G01X8483854Y-7152640D01*
G01X8492998Y-7149592D01*
G01X8499348Y-7149592D01*
G01X8508492Y-7152640D01*
G01X8514842Y-7158736D01*
G01X8517890Y-7168134D01*
G01X8517890Y-7177532D01*
G01X8514842Y-7186676D01*
G01X8511540Y-7189724D01*
G01X8505444Y-7192772D01*
G01X8658860Y-7515098D02*
G01X8652510Y-7518146D01*
G01X8646414Y-7524496D01*
G01X8643366Y-7530592D01*
G01X8643366Y-7543038D01*
G01X8646414Y-7549134D01*
G01X8652510Y-7555484D01*
G01X8658860Y-7558532D01*
G01X8668004Y-7561580D01*
G01X8683498Y-7561580D01*
G01X8692896Y-7558532D01*
G01X8698992Y-7555484D01*
G01X8705342Y-7549134D01*
G01X8708390Y-7543038D01*
G01X8708390Y-7530592D01*
G01X8705342Y-7524496D01*
G01X8698992Y-7518146D01*
G01X8692896Y-7515098D01*
G01X8664956Y-7444740D02*
G01X8674354Y-7447788D01*
G01X8680450Y-7454138D01*
G01X8683498Y-7463282D01*
G01X8683498Y-7466330D01*
G01X8680450Y-7475728D01*
G01X8674354Y-7481824D01*
G01X8664956Y-7484872D01*
G01X8661908Y-7484872D01*
G01X8652510Y-7481824D01*
G01X8646414Y-7475728D01*
G01X8643366Y-7466330D01*
G01X8643366Y-7463282D01*
G01X8646414Y-7454138D01*
G01X8652510Y-7447788D01*
G01X8664956Y-7444740D01*
G01X8680450Y-7444740D01*
G01X8695944Y-7447788D01*
G01X8705342Y-7454138D01*
G01X8708390Y-7463282D01*
G01X8708390Y-7469632D01*
G01X8705342Y-7478776D01*
G01X8698992Y-7481824D01*
G54D12*
G01X5646420Y-6395466D02*
G01X5646420Y-6460490D01*
G01X5646420Y-6395466D02*
G01X5674360Y-6395466D01*
G01X5683504Y-6398514D01*
G01X5686552Y-6401562D01*
G01X5689854Y-6407658D01*
G01X5689854Y-6414008D01*
G01X5686552Y-6420104D01*
G01X5683504Y-6423152D01*
G01X5674360Y-6426454D01*
G01X5646420Y-6426454D01*
G01X5668010Y-6426454D02*
G01X5689854Y-6460490D01*
G01X5757164Y-6395466D02*
G01X5726176Y-6395466D01*
G01X5723128Y-6423152D01*
G01X5726176Y-6420104D01*
G01X5735320Y-6417056D01*
G01X5744718Y-6417056D01*
G01X5753862Y-6420104D01*
G01X5760212Y-6426454D01*
G01X5763260Y-6435598D01*
G01X5763260Y-6441948D01*
G01X5760212Y-6451092D01*
G01X5753862Y-6457442D01*
G01X5744718Y-6460490D01*
G01X5735320Y-6460490D01*
G01X5726176Y-6457442D01*
G01X5723128Y-6454140D01*
G01X5719826Y-6448044D01*
G04 Text End*

G04 PolygonModel Start*
G54D11*
G01X5467120Y-5755904D02*
G01X5467120Y-5614904D01*
G01X5286399Y-5614904D02*
G01X5286399Y-5755904D01*
G01X5301639Y-5771144D02*
G01X5451880Y-5771144D01*
G01X5467120Y-5393665D02*
G01X5467120Y-5534665D01*
G01X5286399Y-5534665D02*
G01X5286399Y-5393665D01*
G01X5301639Y-5378425D02*
G01X5451880Y-5378425D01*
G01X5286399Y-5755904D02*
G03X5301639Y-5771144I15240J0D01*
G01X5451880Y-5771144D02*
G03X5467120Y-5755904I0J15240D01*
G01X5286399Y-5393665D02*
G02X5301639Y-5378425I15240J0D01*
G01X5451880Y-5378425D02*
G02X5467120Y-5393665I0J-15240D01*
G01X6425095Y-5756019D02*
G01X6425095Y-5615018D01*
G01X6244374Y-5615018D02*
G01X6244374Y-5756019D01*
G01X6259614Y-5771259D02*
G01X6409855Y-5771259D01*
G01X6425095Y-5393779D02*
G01X6425095Y-5534780D01*
G01X6244374Y-5534780D02*
G01X6244374Y-5393779D01*
G01X6259614Y-5378539D02*
G01X6409855Y-5378539D01*
G01X6244374Y-5756019D02*
G03X6259614Y-5771259I15240J0D01*
G01X6409855Y-5771259D02*
G03X6425095Y-5756019I0J15240D01*
G01X6244374Y-5393779D02*
G02X6259614Y-5378539I15240J0D01*
G01X6409855Y-5378539D02*
G02X6425095Y-5393779I0J-15240D01*
G01X5946130Y-5757058D02*
G01X5946130Y-5616058D01*
G01X5765409Y-5616058D02*
G01X5765409Y-5757058D01*
G01X5780649Y-5772298D02*
G01X5930890Y-5772298D01*
G01X5946130Y-5394819D02*
G01X5946130Y-5535819D01*
G01X5765409Y-5535819D02*
G01X5765409Y-5394819D01*
G01X5780649Y-5379579D02*
G01X5930890Y-5379579D01*
G01X5765409Y-5757058D02*
G03X5780649Y-5772298I15240J0D01*
G01X5930890Y-5772298D02*
G03X5946130Y-5757058I0J15240D01*
G01X5765409Y-5394819D02*
G02X5780649Y-5379579I15240J0D01*
G01X5930890Y-5379579D02*
G02X5946130Y-5394819I0J-15240D01*
G01X7152630Y-5757058D02*
G01X7152630Y-5616058D01*
G01X6971909Y-5616058D02*
G01X6971909Y-5757058D01*
G01X6987149Y-5772298D02*
G01X7137390Y-5772298D01*
G01X7152630Y-5394819D02*
G01X7152630Y-5535819D01*
G01X6971909Y-5535819D02*
G01X6971909Y-5394819D01*
G01X6987149Y-5379579D02*
G01X7137390Y-5379579D01*
G01X6971909Y-5757058D02*
G03X6987149Y-5772298I15240J0D01*
G01X7137390Y-5772298D02*
G03X7152630Y-5757058I0J15240D01*
G01X6971909Y-5394819D02*
G02X6987149Y-5379579I15240J0D01*
G01X7137390Y-5379579D02*
G02X7152630Y-5394819I0J-15240D01*
G01X4993579Y-5752646D02*
G01X4993579Y-5611646D01*
G01X4812858Y-5611646D02*
G01X4812858Y-5752646D01*
G01X4828098Y-5767886D02*
G01X4978339Y-5767886D01*
G01X4993579Y-5390407D02*
G01X4993579Y-5531407D01*
G01X4812858Y-5531407D02*
G01X4812858Y-5390407D01*
G01X4828098Y-5375167D02*
G01X4978339Y-5375167D01*
G01X4812858Y-5752646D02*
G03X4828098Y-5767886I15240J0D01*
G01X4978339Y-5767886D02*
G03X4993579Y-5752646I0J15240D01*
G01X4812858Y-5390407D02*
G02X4828098Y-5375167I15240J0D01*
G01X4978339Y-5375167D02*
G02X4993579Y-5390407I0J-15240D01*
G01X4072249Y-5389785D02*
G01X4072249Y-5530785D01*
G01X4252970Y-5530785D02*
G01X4252970Y-5389785D01*
G01X4237730Y-5374545D02*
G01X4087489Y-5374545D01*
G01X4072249Y-5752025D02*
G01X4072249Y-5611024D01*
G01X4252970Y-5611024D02*
G01X4252970Y-5752025D01*
G01X4237730Y-5767265D02*
G01X4087489Y-5767265D01*
G01X4252970Y-5389785D02*
G03X4237730Y-5374545I-15240J0D01*
G01X4087489Y-5374545D02*
G03X4072249Y-5389785I0J-15240D01*
G01X4252970Y-5752025D02*
G02X4237730Y-5767265I-15240J0D01*
G01X4087489Y-5767265D02*
G02X4072249Y-5752025I0J15240D01*
G01X4554849Y-5389785D02*
G01X4554849Y-5530785D01*
G01X4735570Y-5530785D02*
G01X4735570Y-5389785D01*
G01X4720330Y-5374545D02*
G01X4570089Y-5374545D01*
G01X4554849Y-5752025D02*
G01X4554849Y-5611024D01*
G01X4735570Y-5611024D02*
G01X4735570Y-5752025D01*
G01X4720330Y-5767265D02*
G01X4570089Y-5767265D01*
G01X4735570Y-5389785D02*
G03X4720330Y-5374545I-15240J0D01*
G01X4570089Y-5374545D02*
G03X4554849Y-5389785I0J-15240D01*
G01X4735570Y-5752025D02*
G02X4720330Y-5767265I-15240J0D01*
G01X4570089Y-5767265D02*
G02X4554849Y-5752025I0J15240D01*
G01X6668961Y-5756420D02*
G01X6668961Y-5615419D01*
G01X6488240Y-5615419D02*
G01X6488240Y-5756420D01*
G01X6503480Y-5771660D02*
G01X6653721Y-5771660D01*
G01X6668961Y-5394180D02*
G01X6668961Y-5535181D01*
G01X6488240Y-5535181D02*
G01X6488240Y-5394180D01*
G01X6503480Y-5378940D02*
G01X6653721Y-5378940D01*
G01X6488240Y-5756420D02*
G03X6503480Y-5771660I15240J0D01*
G01X6653721Y-5771660D02*
G03X6668961Y-5756420I0J15240D01*
G01X6488240Y-5394180D02*
G02X6503480Y-5378940I15240J0D01*
G01X6653721Y-5378940D02*
G02X6668961Y-5394180I0J-15240D01*
G01X5234930Y-5757058D02*
G01X5234930Y-5616058D01*
G01X5054209Y-5616058D02*
G01X5054209Y-5757058D01*
G01X5069449Y-5772298D02*
G01X5219690Y-5772298D01*
G01X5234930Y-5394819D02*
G01X5234930Y-5535819D01*
G01X5054209Y-5535819D02*
G01X5054209Y-5394819D01*
G01X5069449Y-5379579D02*
G01X5219690Y-5379579D01*
G01X5054209Y-5757058D02*
G03X5069449Y-5772298I15240J0D01*
G01X5219690Y-5772298D02*
G03X5234930Y-5757058I0J15240D01*
G01X5054209Y-5394819D02*
G02X5069449Y-5379579I15240J0D01*
G01X5219690Y-5379579D02*
G02X5234930Y-5394819I0J-15240D01*
G54D13*
G01X5101666Y-6251334D02*
G01X5101666Y-5951334D01*
G01X5301666Y-6251334D02*
G01X5301666Y-5951334D01*
G54D14*
G01X5141666Y-6101334D02*
G01X5261658Y-6101334D01*
G36*
G01X5142126Y-6162167D02*
G01X5202146Y-6102172D01*
G01X5262141Y-6162167D01*
G01X5142126Y-6162167D01*
G37*
G36*
G01X5261668Y-6041334D02*
G01X5201648Y-6101329D01*
G01X5141653Y-6041334D01*
G01X5261668Y-6041334D01*
G37*
G54D12*
G01X2552700Y-6301176D02*
G01X2552700Y-5945576D01*
G01X1993900Y-6299200D02*
G01X1993900Y-5943600D01*
G54D11*
G01X2400300Y-5918200D02*
G01X2527300Y-5918200D01*
G01X2146300Y-5918200D02*
G01X2019300Y-5918200D01*
G01X2527300Y-6324600D02*
G01X2396795Y-6324600D01*
G01X2019300Y-6324600D02*
G01X2146300Y-6324600D01*
G54D12*
G01X2273300Y-6121400D02*
G02X2273300Y-6057900I0J31750D01*
G01X2273300Y-6121400D02*
G02X2273300Y-6184900I0J-31750D01*
G54D13*
G01X8412607Y-6618684D02*
G01X8412607Y-8138696D01*
G01X7792618Y-8138696D01*
G01X7792618Y-6618684D01*
G01X8412607Y-6618684D01*
G54D11*
G01X6591521Y-6054321D02*
G01X6591521Y-5909079D01*
G01X6591521Y-5909079D02*
G01X6488359Y-5909079D01*
G01X6286279Y-6054321D02*
G01X6286279Y-5909079D01*
G01X6286279Y-5909079D02*
G01X6389441Y-5909079D01*
G01X6484440Y-6054321D02*
G01X6393360Y-6054321D01*
G01X7201121Y-6054321D02*
G01X7201121Y-5909079D01*
G01X7201121Y-5909079D02*
G01X7097959Y-5909079D01*
G01X6895879Y-6054321D02*
G01X6895879Y-5909079D01*
G01X6895879Y-5909079D02*
G01X6999041Y-5909079D01*
G01X7094040Y-6054321D02*
G01X7002960Y-6054321D01*
G01X5981921Y-6054321D02*
G01X5981921Y-5909079D01*
G01X5981921Y-5909079D02*
G01X5878759Y-5909079D01*
G01X5676679Y-6054321D02*
G01X5676679Y-5909079D01*
G01X5676679Y-5909079D02*
G01X5779841Y-5909079D01*
G01X5874840Y-6054321D02*
G01X5783760Y-6054321D01*
G01X1434950Y-6121782D02*
G01X1306457Y-6121782D01*
G01X1306457Y-6121782D02*
G01X1306457Y-6305200D01*
G01X1306457Y-6305200D02*
G01X1434950Y-6305200D01*
G01X1530190Y-6121782D02*
G01X1658684Y-6121782D01*
G01X1658684Y-6121782D02*
G01X1658684Y-6305200D01*
G01X1658684Y-6305200D02*
G01X1530190Y-6305200D01*
G01X6391280Y-6196544D02*
G01X6262787Y-6196544D01*
G01X6262787Y-6196544D02*
G01X6262787Y-6379962D01*
G01X6262787Y-6379962D02*
G01X6391280Y-6379962D01*
G01X6486520Y-6196544D02*
G01X6615013Y-6196544D01*
G01X6615013Y-6196544D02*
G01X6615013Y-6379962D01*
G01X6615013Y-6379962D02*
G01X6486520Y-6379962D01*
G01X7956210Y-6140480D02*
G01X7956210Y-6011987D01*
G01X7956210Y-6011987D02*
G01X7772791Y-6011987D01*
G01X7772791Y-6011987D02*
G01X7772791Y-6140480D01*
G01X7956210Y-6235720D02*
G01X7956210Y-6364214D01*
G01X7956210Y-6364214D02*
G01X7772791Y-6364214D01*
G01X7772791Y-6364214D02*
G01X7772791Y-6235720D01*
G01X6029691Y-6031073D02*
G01X6029691Y-6159567D01*
G01X6029691Y-6159567D02*
G01X6213109Y-6159567D01*
G01X6213109Y-6159567D02*
G01X6213109Y-6031073D01*
G01X6029691Y-5935833D02*
G01X6029691Y-5807340D01*
G01X6029691Y-5807340D02*
G01X6213109Y-5807340D01*
G01X6213109Y-5807340D02*
G01X6213109Y-5935833D01*
G01X4312201Y-6050325D02*
G01X4312201Y-6178818D01*
G01X4312201Y-6178818D02*
G01X4495619Y-6178818D01*
G01X4495619Y-6178818D02*
G01X4495619Y-6050325D01*
G01X4312201Y-5955085D02*
G01X4312201Y-5826591D01*
G01X4312201Y-5826591D02*
G01X4495619Y-5826591D01*
G01X4495619Y-5826591D02*
G01X4495619Y-5955085D01*
G01X1433319Y-5509934D02*
G01X1304826Y-5509934D01*
G01X1304826Y-5509934D02*
G01X1304826Y-5693352D01*
G01X1304826Y-5693352D02*
G01X1433319Y-5693352D01*
G01X1528559Y-5509934D02*
G01X1657053Y-5509934D01*
G01X1657053Y-5509934D02*
G01X1657053Y-5693352D01*
G01X1657053Y-5693352D02*
G01X1528559Y-5693352D01*
G01X9197609Y-7165980D02*
G01X9197609Y-7037487D01*
G01X9197609Y-7037487D02*
G01X9014191Y-7037487D01*
G01X9014191Y-7037487D02*
G01X9014191Y-7165980D01*
G01X9197609Y-7261220D02*
G01X9197609Y-7389713D01*
G01X9197609Y-7389713D02*
G01X9014191Y-7389713D01*
G01X9014191Y-7389713D02*
G01X9014191Y-7261220D01*
G01X7498230Y-6140519D02*
G01X7626724Y-6140519D01*
G01X7626724Y-6140519D02*
G01X7626724Y-5957100D01*
G01X7626724Y-5957100D02*
G01X7498230Y-5957100D01*
G01X7402991Y-6140519D02*
G01X7274497Y-6140519D01*
G01X7274497Y-6140519D02*
G01X7274497Y-5957100D01*
G01X7274497Y-5957100D02*
G01X7402991Y-5957100D01*
G01X9336019Y-5577746D02*
G01X9464512Y-5577746D01*
G01X9464512Y-5577746D02*
G01X9464512Y-5394327D01*
G01X9464512Y-5394327D02*
G01X9336019Y-5394327D01*
G01X9240779Y-5577746D02*
G01X9112285Y-5577746D01*
G01X9112285Y-5577746D02*
G01X9112285Y-5394327D01*
G01X9112285Y-5394327D02*
G01X9240779Y-5394327D01*
G01X7407280Y-5394691D02*
G01X7278787Y-5394691D01*
G01X7278787Y-5394691D02*
G01X7278787Y-5578109D01*
G01X7278787Y-5578109D02*
G01X7407280Y-5578109D01*
G01X7502520Y-5394691D02*
G01X7631013Y-5394691D01*
G01X7631013Y-5394691D02*
G01X7631013Y-5578109D01*
G01X7631013Y-5578109D02*
G01X7502520Y-5578109D01*
G01X7419980Y-6194791D02*
G01X7291487Y-6194791D01*
G01X7291487Y-6194791D02*
G01X7291487Y-6378209D01*
G01X7291487Y-6378209D02*
G01X7419980Y-6378209D01*
G01X7515220Y-6194791D02*
G01X7643713Y-6194791D01*
G01X7643713Y-6194791D02*
G01X7643713Y-6378209D01*
G01X7643713Y-6378209D02*
G01X7515220Y-6378209D01*
G01X7000880Y-6196544D02*
G01X6872387Y-6196544D01*
G01X6872387Y-6196544D02*
G01X6872387Y-6379963D01*
G01X6872387Y-6379963D02*
G01X7000880Y-6379963D01*
G01X7096120Y-6196544D02*
G01X7224613Y-6196544D01*
G01X7224613Y-6196544D02*
G01X7224613Y-6379963D01*
G01X7224613Y-6379963D02*
G01X7096120Y-6379963D01*
G01X6639291Y-6031073D02*
G01X6639291Y-6159567D01*
G01X6639291Y-6159567D02*
G01X6822709Y-6159567D01*
G01X6822709Y-6159567D02*
G01X6822709Y-6031073D01*
G01X6639291Y-5935833D02*
G01X6639291Y-5807340D01*
G01X6639291Y-5807340D02*
G01X6822709Y-5807340D01*
G01X6822709Y-5807340D02*
G01X6822709Y-5935833D01*
G01X5781680Y-6191744D02*
G01X5653187Y-6191744D01*
G01X5653187Y-6191744D02*
G01X5653187Y-6375162D01*
G01X5653187Y-6375162D02*
G01X5781680Y-6375162D01*
G01X5876920Y-6191744D02*
G01X6005413Y-6191744D01*
G01X6005413Y-6191744D02*
G01X6005413Y-6375162D01*
G01X6005413Y-6375162D02*
G01X5876920Y-6375162D01*
G01X5420091Y-6026273D02*
G01X5420091Y-6154766D01*
G01X5420091Y-6154766D02*
G01X5603509Y-6154766D01*
G01X5603509Y-6154766D02*
G01X5603509Y-6026273D01*
G01X5420091Y-5931033D02*
G01X5420091Y-5802540D01*
G01X5420091Y-5802540D02*
G01X5603509Y-5802540D01*
G01X5603509Y-5802540D02*
G01X5603509Y-5931033D01*
G54D12*
G01X9486321Y-5919920D02*
G01X9486321Y-5876813D01*
G01X9486321Y-5611680D02*
G01X9486321Y-5654787D01*
G01X9081079Y-5654787D02*
G01X9081079Y-5611680D01*
G01X9081079Y-5919920D02*
G01X9081079Y-5876813D01*
G54D11*
G01X9081079Y-5919920D02*
G01X9486321Y-5919920D01*
G01X9081079Y-5611680D02*
G01X9486321Y-5611680D01*
G54D12*
G01X7657521Y-5919920D02*
G01X7657521Y-5876813D01*
G01X7657521Y-5611680D02*
G01X7657521Y-5654787D01*
G01X7252279Y-5654787D02*
G01X7252279Y-5611680D01*
G01X7252279Y-5919920D02*
G01X7252279Y-5876813D01*
G54D11*
G01X7252279Y-5919920D02*
G01X7657521Y-5919920D01*
G01X7252279Y-5611680D02*
G01X7657521Y-5611680D01*
G54D13*
G01X8553201Y-6114311D02*
G01X8553201Y-6123996D01*
G01X8553201Y-6123996D02*
G01X8527293Y-6149906D01*
G01X8527293Y-6171194D02*
G01X8584181Y-6114311D01*
G01X8527293Y-6171194D02*
G01X8527293Y-6114311D01*
G01X8584181Y-6814304D02*
G01X8537296Y-6814304D01*
G01X8537296Y-6814304D02*
G01X8527293Y-6814304D01*
G01X8527293Y-6814304D02*
G01X8527293Y-6757421D01*
G01X9227294Y-6757421D02*
G01X9227294Y-6814304D01*
G01X9227294Y-6814304D02*
G01X9170408Y-6814304D01*
G01X9170408Y-6114311D02*
G01X9227294Y-6114311D01*
G01X9227294Y-6114311D02*
G01X9227294Y-6171194D01*
G01X8527293Y-6114311D02*
G01X8584181Y-6114311D01*
G01X8553201Y-6114298D02*
G01X8553201Y-6123983D01*
G01X8553201Y-6123983D02*
G01X8527293Y-6149891D01*
G01X8527293Y-6171181D02*
G01X8584181Y-6114298D01*
G01X8527293Y-6171181D02*
G01X8527293Y-6114298D01*
G01X8584181Y-6814292D02*
G01X8537296Y-6814292D01*
G01X8537296Y-6814292D02*
G01X8527293Y-6814292D01*
G01X8527293Y-6814292D02*
G01X8527293Y-6757408D01*
G01X9227292Y-6757408D02*
G01X9227292Y-6814292D01*
G01X9227292Y-6814292D02*
G01X9170408Y-6814292D01*
G01X9170408Y-6114298D02*
G01X9227292Y-6114298D01*
G01X9227292Y-6114298D02*
G01X9227292Y-6171181D01*
G01X8527293Y-6114298D02*
G01X8584181Y-6114298D01*
G54D11*
G01X8164360Y-5324130D02*
G01X8599640Y-5324130D01*
G01X8599640Y-5324130D02*
G01X8599640Y-5851870D01*
G01X8599640Y-5851870D02*
G01X8164360Y-5851870D01*
G01X8164360Y-5851870D02*
G01X8164360Y-5324130D01*
G01X2623983Y-5966828D02*
G01X2623983Y-5691787D01*
G01X2623983Y-5691787D02*
G01X3294223Y-5691787D01*
G01X3294223Y-5691787D02*
G01X3294223Y-5966828D01*
G01X3294223Y-5966828D02*
G01X2623983Y-5966828D01*
G01X1417419Y-6060362D02*
G01X1595259Y-6060362D01*
G01X1417419Y-5752524D02*
G01X1595259Y-5752524D01*
G54D13*
G01X292446Y-6226371D02*
G01X877281Y-6226371D01*
G01X292446Y-5591371D02*
G01X871770Y-5591371D01*
G01X661064Y-6361946D02*
G01X843832Y-6361946D01*
G01X311446Y-6361946D02*
G01X443833Y-6361946D01*
G01X663995Y-5457747D02*
G01X840888Y-5457747D01*
G01X292446Y-5457747D02*
G01X440892Y-5457747D01*
G01X292446Y-6351746D02*
G01X292446Y-5457747D01*
G54D11*
G01X3589649Y-5834285D02*
G01X3589649Y-5975285D01*
G01X3770370Y-5975285D02*
G01X3770370Y-5834285D01*
G01X3755130Y-5819045D02*
G01X3604889Y-5819045D01*
G01X3589649Y-6196525D02*
G01X3589649Y-6055524D01*
G01X3770370Y-6055524D02*
G01X3770370Y-6196525D01*
G01X3755130Y-6211765D02*
G01X3604889Y-6211765D01*
G01X3770370Y-5834285D02*
G03X3755130Y-5819045I-15240J0D01*
G01X3604889Y-5819045D02*
G03X3589649Y-5834285I0J-15240D01*
G01X3770370Y-6196525D02*
G02X3755130Y-6211765I-15240J0D01*
G01X3604889Y-6211765D02*
G02X3589649Y-6196525I0J15240D01*
G01X4011670Y-5752025D02*
G01X4011670Y-5611024D01*
G01X3830949Y-5611024D02*
G01X3830949Y-5752025D01*
G01X3846189Y-5767265D02*
G01X3996430Y-5767265D01*
G01X4011670Y-5389785D02*
G01X4011670Y-5530785D01*
G01X3830949Y-5530785D02*
G01X3830949Y-5389785D01*
G01X3846189Y-5374545D02*
G01X3996430Y-5374545D01*
G01X3830949Y-5752025D02*
G03X3846189Y-5767265I15240J0D01*
G01X3996430Y-5767265D02*
G03X4011670Y-5752025I0J15240D01*
G01X3830949Y-5389785D02*
G02X3846189Y-5374545I15240J0D01*
G01X3996430Y-5374545D02*
G02X4011670Y-5389785I0J-15240D01*
G01X3529070Y-5752025D02*
G01X3529070Y-5611024D01*
G01X3348349Y-5611024D02*
G01X3348349Y-5752025D01*
G01X3363589Y-5767265D02*
G01X3513830Y-5767265D01*
G01X3529070Y-5389785D02*
G01X3529070Y-5530785D01*
G01X3348349Y-5530785D02*
G01X3348349Y-5389785D01*
G01X3363589Y-5374545D02*
G01X3513830Y-5374545D01*
G01X3348349Y-5752025D02*
G03X3363589Y-5767265I15240J0D01*
G01X3513830Y-5767265D02*
G03X3529070Y-5752025I0J15240D01*
G01X3348349Y-5389785D02*
G02X3363589Y-5374545I15240J0D01*
G01X3513830Y-5374545D02*
G02X3529070Y-5389785I0J-15240D01*
G01X3770370Y-5752025D02*
G01X3770370Y-5611024D01*
G01X3589649Y-5611024D02*
G01X3589649Y-5752025D01*
G01X3604889Y-5767265D02*
G01X3755130Y-5767265D01*
G01X3770370Y-5389785D02*
G01X3770370Y-5530785D01*
G01X3589649Y-5530785D02*
G01X3589649Y-5389785D01*
G01X3604889Y-5374545D02*
G01X3755130Y-5374545D01*
G01X3589649Y-5752025D02*
G03X3604889Y-5767265I15240J0D01*
G01X3755130Y-5767265D02*
G03X3770370Y-5752025I0J15240D01*
G01X3589649Y-5389785D02*
G02X3604889Y-5374545I15240J0D01*
G01X3755130Y-5374545D02*
G02X3770370Y-5389785I0J-15240D01*
G01X3830949Y-5834285D02*
G01X3830949Y-5975285D01*
G01X4011670Y-5975285D02*
G01X4011670Y-5834285D01*
G01X3996430Y-5819045D02*
G01X3846189Y-5819045D01*
G01X3830949Y-6196525D02*
G01X3830949Y-6055524D01*
G01X4011670Y-6055524D02*
G01X4011670Y-6196525D01*
G01X3996430Y-6211765D02*
G01X3846189Y-6211765D01*
G01X4011670Y-5834285D02*
G03X3996430Y-5819045I-15240J0D01*
G01X3846189Y-5819045D02*
G03X3830949Y-5834285I0J-15240D01*
G01X4011670Y-6196525D02*
G02X3996430Y-6211765I-15240J0D01*
G01X3846189Y-6211765D02*
G02X3830949Y-6196525I0J15240D01*
G01X4494270Y-5752025D02*
G01X4494270Y-5611024D01*
G01X4313549Y-5611024D02*
G01X4313549Y-5752025D01*
G01X4328789Y-5767265D02*
G01X4479030Y-5767265D01*
G01X4494270Y-5389785D02*
G01X4494270Y-5530785D01*
G01X4313549Y-5530785D02*
G01X4313549Y-5389785D01*
G01X4328789Y-5374545D02*
G01X4479030Y-5374545D01*
G01X4313549Y-5752025D02*
G03X4328789Y-5767265I15240J0D01*
G01X4479030Y-5767265D02*
G03X4494270Y-5752025I0J15240D01*
G01X4313549Y-5389785D02*
G02X4328789Y-5374545I15240J0D01*
G01X4479030Y-5374545D02*
G02X4494270Y-5389785I0J-15240D01*
G01X5524109Y-5394818D02*
G01X5524109Y-5535819D01*
G01X5704830Y-5535819D02*
G01X5704830Y-5394818D01*
G01X5689590Y-5379578D02*
G01X5539349Y-5379578D01*
G01X5524109Y-5757058D02*
G01X5524109Y-5616057D01*
G01X5704830Y-5616057D02*
G01X5704830Y-5757058D01*
G01X5689590Y-5772298D02*
G01X5539349Y-5772298D01*
G01X5704830Y-5394818D02*
G03X5689590Y-5379578I-15240J0D01*
G01X5539349Y-5379578D02*
G03X5524109Y-5394818I0J-15240D01*
G01X5704830Y-5757058D02*
G02X5689590Y-5772298I-15240J0D01*
G01X5539349Y-5772298D02*
G02X5524109Y-5757058I0J15240D01*
G01X6730609Y-5394819D02*
G01X6730609Y-5535819D01*
G01X6911330Y-5535819D02*
G01X6911330Y-5394819D01*
G01X6896090Y-5379579D02*
G01X6745849Y-5379579D01*
G01X6730609Y-5757058D02*
G01X6730609Y-5616058D01*
G01X6911330Y-5616058D02*
G01X6911330Y-5757058D01*
G01X6896090Y-5772298D02*
G01X6745849Y-5772298D01*
G01X6911330Y-5394819D02*
G03X6896090Y-5379579I-15240J0D01*
G01X6745849Y-5379579D02*
G03X6730609Y-5394819I0J-15240D01*
G01X6911330Y-5757058D02*
G02X6896090Y-5772298I-15240J0D01*
G01X6745849Y-5772298D02*
G02X6730609Y-5757058I0J15240D01*
G01X6006709Y-5394819D02*
G01X6006709Y-5535819D01*
G01X6187430Y-5535819D02*
G01X6187430Y-5394819D01*
G01X6172190Y-5379579D02*
G01X6021949Y-5379579D01*
G01X6006709Y-5757058D02*
G01X6006709Y-5616058D01*
G01X6187430Y-5616058D02*
G01X6187430Y-5757058D01*
G01X6172190Y-5772298D02*
G01X6021949Y-5772298D01*
G01X6187430Y-5394819D02*
G03X6172190Y-5379579I-15240J0D01*
G01X6021949Y-5379579D02*
G03X6006709Y-5394819I0J-15240D01*
G01X6187430Y-5757058D02*
G02X6172190Y-5772298I-15240J0D01*
G01X6021949Y-5772298D02*
G02X6006709Y-5757058I0J15240D01*
G01X4072249Y-5834285D02*
G01X4072249Y-5975285D01*
G01X4252970Y-5975285D02*
G01X4252970Y-5834285D01*
G01X4237730Y-5819045D02*
G01X4087489Y-5819045D01*
G01X4072249Y-6196525D02*
G01X4072249Y-6055524D01*
G01X4252970Y-6055524D02*
G01X4252970Y-6196525D01*
G01X4237730Y-6211765D02*
G01X4087489Y-6211765D01*
G01X4252970Y-5834285D02*
G03X4237730Y-5819045I-15240J0D01*
G01X4087489Y-5819045D02*
G03X4072249Y-5834285I0J-15240D01*
G01X4252970Y-6196525D02*
G02X4237730Y-6211765I-15240J0D01*
G01X4087489Y-6211765D02*
G02X4072249Y-6196525I0J15240D01*
G54D13*
G01X4645210Y-6120929D02*
G01X4645210Y-5968529D01*
G01X4594410Y-6095529D02*
G01X4696010Y-6095529D01*
G01X4685852Y-5993929D02*
G01X4645210Y-6095529D01*
G01X4604567Y-5993929D02*
G01X4685852Y-5993929D01*
G01X4645210Y-6095529D02*
G01X4604567Y-5993929D01*
G54D11*
G01X4558591Y-6194124D02*
G01X4558591Y-5912885D01*
G01X4558591Y-5912885D02*
G01X4575390Y-5912885D01*
G01X4731829Y-6194124D02*
G01X4731829Y-5912885D01*
G01X4731829Y-5912885D02*
G01X4715029Y-5912885D01*
G01X4558591Y-6158435D02*
G01X4731829Y-6158435D01*
G36*
G01X4550971Y-6186504D02*
G01X4580470Y-6186504D01*
G01X4580470Y-6216984D01*
G01X4550971Y-6216984D01*
G01X4550971Y-6186504D01*
G37*
G36*
G01X4739449Y-6186504D02*
G01X4739449Y-6216984D01*
G01X4709949Y-6216984D01*
G01X4709949Y-6186504D01*
G01X4739449Y-6186504D01*
G37*
G54D13*
G01X3438710Y-6082829D02*
G01X3438710Y-5930429D01*
G01X3387910Y-6057429D02*
G01X3489510Y-6057429D01*
G01X3479352Y-5955829D02*
G01X3438710Y-6057429D01*
G01X3398067Y-5955829D02*
G01X3479352Y-5955829D01*
G01X3438710Y-6057429D02*
G01X3398067Y-5955829D01*
G54D11*
G01X3352091Y-6156024D02*
G01X3352091Y-5874785D01*
G01X3352091Y-5874785D02*
G01X3368890Y-5874785D01*
G01X3525329Y-6156024D02*
G01X3525329Y-5874785D01*
G01X3525329Y-5874785D02*
G01X3508529Y-5874785D01*
G01X3352091Y-6120335D02*
G01X3525329Y-6120335D01*
G36*
G01X3344471Y-6148404D02*
G01X3373970Y-6148404D01*
G01X3373970Y-6178884D01*
G01X3344471Y-6178884D01*
G01X3344471Y-6148404D01*
G37*
G36*
G01X3532949Y-6148404D02*
G01X3532949Y-6178884D01*
G01X3503449Y-6178884D01*
G01X3503449Y-6148404D01*
G01X3532949Y-6148404D01*
G37*
G01X4767539Y-6174905D02*
G01X4767539Y-6323404D01*
G01X4767539Y-6323404D02*
G01X4782779Y-6338644D01*
G01X4782779Y-6338644D02*
G01X4970821Y-6338644D01*
G01X4970821Y-6338644D02*
G01X4986061Y-6323404D01*
G01X4986061Y-6323404D02*
G01X4986061Y-6174905D01*
G01X4767539Y-5989663D02*
G01X4767539Y-5841164D01*
G01X4767539Y-5841164D02*
G01X4782779Y-5825924D01*
G01X4782779Y-5825924D02*
G01X4970821Y-5825924D01*
G01X4970821Y-5825924D02*
G01X4986061Y-5841164D01*
G01X4986061Y-5841164D02*
G01X4986061Y-5989663D01*
G01X1895109Y-6073780D02*
G01X1895109Y-5945287D01*
G01X1895109Y-5945287D02*
G01X1711691Y-5945287D01*
G01X1711691Y-5945287D02*
G01X1711691Y-6073780D01*
G01X1895109Y-6169020D02*
G01X1895109Y-6297513D01*
G01X1895109Y-6297513D02*
G01X1711691Y-6297513D01*
G01X1711691Y-6297513D02*
G01X1711691Y-6169020D01*
G01X1713291Y-5735620D02*
G01X1713291Y-5864113D01*
G01X1713291Y-5864113D02*
G01X1896709Y-5864113D01*
G01X1896709Y-5864113D02*
G01X1896709Y-5735620D01*
G01X1713291Y-5640380D02*
G01X1713291Y-5511886D01*
G01X1713291Y-5511886D02*
G01X1896709Y-5511886D01*
G01X1896709Y-5511886D02*
G01X1896709Y-5640380D01*
G01X8994348Y-7416460D02*
G01X8658626Y-7416460D01*
G01X8658626Y-7416460D02*
G01X8658626Y-7010740D01*
G01X8658626Y-7010740D02*
G01X8994348Y-7010740D01*
G01X8994348Y-7010740D02*
G01X8994348Y-7416460D01*
G01X8851489Y-7439320D02*
G01X9017208Y-7439320D01*
G01X9017208Y-7439320D02*
G01X9017208Y-7253600D01*
G01X8535446Y-7285739D02*
G01X8535446Y-7235739D01*
G01X8619924Y-7300981D02*
G01X8550684Y-7300981D01*
G01X8635164Y-7235739D02*
G01X8635164Y-7285739D01*
G01X8634951Y-7141461D02*
G01X8634951Y-7191461D01*
G01X8535238Y-7191461D02*
G01X8535238Y-7141461D01*
G01X8550473Y-7126219D02*
G01X8619716Y-7126219D01*
G01X8535236Y-7141461D02*
G02X8550476Y-7126221I15240J0D01*
G01X8619716Y-7126221D02*
G02X8634956Y-7141461I0J-15240D01*
G01X8635164Y-7285739D02*
G02X8619924Y-7300979I-15240J0D01*
G01X8550684Y-7300979D02*
G02X8535444Y-7285739I0J15240D01*
G01X8754361Y-7443246D02*
G01X8804361Y-7443246D01*
G01X8739119Y-7527724D02*
G01X8739119Y-7458484D01*
G01X8804361Y-7542964D02*
G01X8754361Y-7542964D01*
G01X8898639Y-7542751D02*
G01X8848639Y-7542751D01*
G01X8848639Y-7443038D02*
G01X8898639Y-7443038D01*
G01X8913881Y-7458273D02*
G01X8913881Y-7527516D01*
G01X8898639Y-7443036D02*
G02X8913879Y-7458276I0J-15240D01*
G01X8913879Y-7527516D02*
G02X8898639Y-7542756I-15240J0D01*
G01X8754361Y-7542964D02*
G02X8739121Y-7527724I0J15240D01*
G01X8739121Y-7458484D02*
G02X8754361Y-7443244I15240J0D01*
G01X5299080Y-6334491D02*
G01X5170587Y-6334491D01*
G01X5170587Y-6334491D02*
G01X5170587Y-6517909D01*
G01X5170587Y-6517909D02*
G01X5299080Y-6517909D01*
G01X5394320Y-6334491D02*
G01X5522813Y-6334491D01*
G01X5522813Y-6334491D02*
G01X5522813Y-6517909D01*
G01X5522813Y-6517909D02*
G01X5394320Y-6517909D01*

G04 Circle Start*
G54D13*
G01X7748448Y-7868694D02*
G03X7776743Y-7868694I14148J0D01*
G03X7748448Y-7868694I-14148J0D01*
G01X9193708Y-5765800D02*
G03X9373692Y-5765800I89992J0D01*
G03X9193708Y-5765800I-89992J0D01*
G01X7364908Y-5765800D02*
G03X7544892Y-5765800I89992J0D01*
G03X7364908Y-5765800I-89992J0D01*
G01X8464601Y-6094285D02*
G03X8490001Y-6094285I12700J0D01*
G03X8464601Y-6094285I-12700J0D01*
G01X8464601Y-6094298D02*
G03X8490001Y-6094298I12700J0D01*
G03X8464601Y-6094298I-12700J0D01*
G54D16*
G01X8224596Y-5397500D02*
G03X8254619Y-5397500I15011J0D01*
G03X8224596Y-5397500I-15011J0D01*
G01X8013979Y-5320767D02*
G03X8044002Y-5320767I15011J0D01*
G03X8013979Y-5320767I-15011J0D01*
G54D13*
G01X2603500Y-6134100D02*
G03X2654300Y-6134100I25400J0D01*
G03X2603500Y-6134100I-25400J0D01*
G54D16*
G01X1361178Y-5739616D02*
G03X1391201Y-5739616I15011J0D01*
G03X1361178Y-5739616I-15011J0D01*
G04 Circle End*

M02*

