G04 Layer: TopLayer*
G04 EasyEDA Pro v3.2.148, 2026-07-05 23:03:08*
G04 Gerber Generator version 0.3*
G04 Scale: 100 percent, Rotated: No, Reflected: No*
G04 Dimensions in millimeters*
G04 Leading zeros omitted, absolute positions, 4 integers and 5 decimals*
G04 Generated by one-click*
G04 Object Configs: Pad,Via,Track,Text,Image,Dimension,BoardOutline,BoardCutout,CopperFilled,SolidRegion,FPCStiffener,Line,PlaneZone,ComponentProperty,ComponentSilkscreen,TearDrop*
G04 Layer Configs: 1,2,3,4,5,6,7,8,9,10,11,13,14,56*
G04 Copper Areas: 133*
%FSLAX45Y45*%
%MOMM*%
%ADD10C,0.203*%
%ADD11C,0.254*%
%ADD12C,0.2*%
%ADD13C,0.35*%
%ADD14C,3.5*%
%ADD15C,1.5*%
%ADD16C,1.524*%
%ADD17R,1.35001X1.41*%
%ADD18R,1.1X1.1*%
%ADD19R,1.4154X3.49921*%
%ADD20R,1.40668X3.49921*%
%ADD21R,1.0X0.28001*%
%ADD22R,1.15001X1.55001*%
%ADD23R,0.7X1.25001*%
%ADD24R,1.13254X1.37701*%
%ADD25R,1.37701X1.13254*%
%ADD26R,1.23X1.85999*%
%ADD27R,3.09999X3.09999*%
%ADD28R,0.2X0.85001*%
%ADD29R,0.85001X0.2*%
%ADD30O,2.25001X0.63*%
%ADD31R,0.98001X2.36598*%
%ADD32R,3.59999X2.36598*%
%ADD33R,1.07201X0.532*%
%ADD34R,1.2X0.6*%
%ADD35R,1.2X0.3*%
%ADD36O,2.1X1.0*%
%ADD37O,1.8X1.0*%
%ADD38R,0.98999X0.88001*%
%ADD39R,1.72799X1.48501*%
%ADD40R,1.2X1.4*%
%ADD41R,0.54X0.5*%
%ADD42R,0.5X0.54*%
%ADD43C,0.61*%
%ADD44C,0.25*%
%ADD45C,0.5*%
G75*


G04 Copper Start*
G36*
G01X364882Y-5293604D02*
G01X3870463Y-5293604D01*
G01X3862159Y-5306200D01*
G01X3856917Y-5320348D01*
G01X3855010Y-5335314D01*
G01X3856535Y-5350324D01*
G01X3861415Y-5364601D01*
G01X3853809Y-5364601D01*
G01X3842745Y-5366353D01*
G01X3832764Y-5371439D01*
G01X3824843Y-5379360D01*
G01X3819758Y-5389341D01*
G01X3818005Y-5400405D01*
G01X3818005Y-5417601D01*
G01X3783314Y-5417601D01*
G01X3783314Y-5400405D01*
G01X3781562Y-5389341D01*
G01X3776476Y-5379360D01*
G01X3768555Y-5371439D01*
G01X3758574Y-5366353D01*
G01X3747510Y-5364601D01*
G01X3612509Y-5364601D01*
G01X3601445Y-5366353D01*
G01X3591464Y-5371439D01*
G01X3583543Y-5379360D01*
G01X3578458Y-5389341D01*
G01X3576705Y-5400405D01*
G01X3576705Y-5417601D01*
G01X3542014Y-5417601D01*
G01X3542014Y-5400405D01*
G01X3540262Y-5389341D01*
G01X3535176Y-5379360D01*
G01X3527255Y-5371439D01*
G01X3517274Y-5366353D01*
G01X3506210Y-5364601D01*
G01X3371209Y-5364601D01*
G01X3360145Y-5366353D01*
G01X3350164Y-5371439D01*
G01X3342243Y-5379360D01*
G01X3337158Y-5389341D01*
G01X3335405Y-5400405D01*
G01X3335405Y-5417601D01*
G01X3174194Y-5417601D01*
G01X3170962Y-5408360D01*
G01X3165347Y-5400341D01*
G01X3157770Y-5394142D01*
G01X3148797Y-5390226D01*
G01X3139100Y-5388888D01*
G01X2779100Y-5388888D01*
G01X2768036Y-5390640D01*
G01X2758055Y-5395726D01*
G01X2750134Y-5403647D01*
G01X2745049Y-5413628D01*
G01X2743296Y-5424692D01*
G01X2743296Y-5661290D01*
G01X2745049Y-5672354D01*
G01X2750134Y-5682335D01*
G01X2758055Y-5690256D01*
G01X2768036Y-5695342D01*
G01X2779100Y-5697094D01*
G01X2779354Y-5697094D01*
G01X2618838Y-5857416D01*
G01X2616254Y-5843202D01*
G01X2610651Y-5829884D01*
G01X2602298Y-5818097D01*
G01X2591589Y-5808399D01*
G01X2579034Y-5801250D01*
G01X2591571Y-5794115D01*
G01X2602267Y-5784437D01*
G01X2610618Y-5772676D01*
G01X2616228Y-5759386D01*
G01X2618830Y-5745198D01*
G01X2618303Y-5730783D01*
G01X2614671Y-5716823D01*
G01X2608105Y-5703979D01*
G01X2598917Y-5692859D01*
G01X2587542Y-5683988D01*
G01X2574518Y-5677788D01*
G01X2560461Y-5674552D01*
G01X2546036Y-5674432D01*
G01X2531927Y-5677434D01*
G01X2518802Y-5683416D01*
G01X2507280Y-5692096D01*
G01X2489200Y-5692096D01*
G01X2476698Y-5693742D01*
G01X2465048Y-5698568D01*
G01X2455044Y-5706244D01*
G01X2431092Y-5730196D01*
G01X2407932Y-5730196D01*
G01X2431479Y-5713631D01*
G01X2452550Y-5694013D01*
G01X2470751Y-5671706D01*
G01X2485743Y-5647128D01*
G01X2497246Y-5620736D01*
G01X2505046Y-5593023D01*
G01X2508997Y-5564506D01*
G01X2509026Y-5535716D01*
G01X2505132Y-5507190D01*
G01X2497388Y-5479462D01*
G01X2485937Y-5453047D01*
G01X2470995Y-5428439D01*
G01X2452838Y-5406096D01*
G01X2431807Y-5386435D01*
G01X2408293Y-5369823D01*
G01X2382735Y-5356570D01*
G01X2355610Y-5346923D01*
G01X2327423Y-5341062D01*
G01X2298700Y-5339096D01*
G01X2269977Y-5341062D01*
G01X2241790Y-5346923D01*
G01X2214665Y-5356570D01*
G01X2189107Y-5369823D01*
G01X2165593Y-5386435D01*
G01X2144562Y-5406096D01*
G01X2126405Y-5428439D01*
G01X2111463Y-5453047D01*
G01X2100012Y-5479462D01*
G01X2092268Y-5507190D01*
G01X2088374Y-5535716D01*
G01X2088403Y-5564506D01*
G01X2092354Y-5593023D01*
G01X2100154Y-5620736D01*
G01X2111657Y-5647128D01*
G01X2126649Y-5671706D01*
G01X2144850Y-5694013D01*
G01X2165921Y-5713631D01*
G01X2189468Y-5730196D01*
G01X2038160Y-5730196D01*
G01X1967880Y-5656309D01*
G01X1957727Y-5648176D01*
G01X1945771Y-5643048D01*
G01X1932881Y-5641296D01*
G01X1909655Y-5641296D01*
G01X1909655Y-5531373D01*
G01X1907902Y-5520309D01*
G01X1902817Y-5510328D01*
G01X1894896Y-5502407D01*
G01X1884915Y-5497322D01*
G01X1873851Y-5495569D01*
G01X1830323Y-5495569D01*
G01X1824856Y-5489041D01*
G01X1800107Y-5464293D01*
G01X1790103Y-5456616D01*
G01X1778453Y-5451791D01*
G01X1765951Y-5450145D01*
G01X1295000Y-5450145D01*
G01X1282498Y-5451791D01*
G01X1270848Y-5456616D01*
G01X1260844Y-5464293D01*
G01X1235844Y-5489293D01*
G01X1228168Y-5499297D01*
G01X1223342Y-5510947D01*
G01X1221696Y-5523449D01*
G01X1221696Y-5609149D01*
G01X1207328Y-5601517D01*
G01X1191535Y-5597614D01*
G01X1175266Y-5597674D01*
G01X1159502Y-5601694D01*
G01X1145191Y-5609431D01*
G01X1123248Y-5609431D01*
G01X1123248Y-5552243D01*
G01X1121263Y-5540489D01*
G01X1115531Y-5530039D01*
G01X1106686Y-5522049D01*
G01X1095708Y-5517406D01*
G01X1103459Y-5501004D01*
G01X1107589Y-5483339D01*
G01X1107913Y-5465201D01*
G01X1104416Y-5447401D01*
G01X1097255Y-5430733D01*
G01X1086749Y-5415944D01*
G01X1073370Y-5403693D01*
G01X1057713Y-5394529D01*
G01X1040480Y-5388862D01*
G01X1022441Y-5386944D01*
G01X912441Y-5386944D01*
G01X895159Y-5388703D01*
G01X878585Y-5393906D01*
G01X863399Y-5402341D01*
G01X850223Y-5413662D01*
G01X839597Y-5427404D01*
G01X831957Y-5443006D01*
G01X827616Y-5459826D01*
G01X826752Y-5477176D01*
G01X829400Y-5494344D01*
G01X835451Y-5510628D01*
G01X844659Y-5525358D01*
G01X856644Y-5537932D01*
G01X870917Y-5547835D01*
G01X886892Y-5554660D01*
G01X874170Y-5562904D01*
G01X863581Y-5573750D01*
G01X855644Y-5586665D01*
G01X850751Y-5601013D01*
G01X849144Y-5616086D01*
G01X850901Y-5631143D01*
G01X855935Y-5645441D01*
G01X863999Y-5658277D01*
G01X874696Y-5669018D01*
G01X887499Y-5677135D01*
G01X876833Y-5680041D01*
G01X866996Y-5685085D01*
G01X858411Y-5692049D01*
G01X813208Y-5737252D01*
G01X804737Y-5748291D01*
G01X799412Y-5761147D01*
G01X797596Y-5774943D01*
G01X797596Y-5976396D01*
G01X799412Y-5990193D01*
G01X804737Y-6003049D01*
G01X813209Y-6014088D01*
G01X866552Y-6067431D01*
G01X877592Y-6075902D01*
G01X890448Y-6081227D01*
G01X904244Y-6083044D01*
G01X931635Y-6083044D01*
G01X931635Y-6094727D01*
G01X933374Y-6105750D01*
G01X931640Y-6116758D01*
G01X931640Y-6126933D01*
G01X915311Y-6125475D01*
G01X899105Y-6127951D01*
G01X883955Y-6134216D01*
G01X870735Y-6143911D01*
G01X860206Y-6156477D01*
G01X852975Y-6171190D01*
G01X849457Y-6187202D01*
G01X849857Y-6203591D01*
G01X854150Y-6219413D01*
G01X862089Y-6233757D01*
G01X873218Y-6245795D01*
G01X886894Y-6254834D01*
G01X870921Y-6261660D01*
G01X856649Y-6271563D01*
G01X844664Y-6284138D01*
G01X835457Y-6298868D01*
G01X829407Y-6315152D01*
G01X826759Y-6332320D01*
G01X827624Y-6349669D01*
G01X831966Y-6366489D01*
G01X839606Y-6382090D01*
G01X850232Y-6395832D01*
G01X863408Y-6407152D01*
G01X878594Y-6415587D01*
G01X895167Y-6420790D01*
G01X912449Y-6422548D01*
G01X1022449Y-6422548D01*
G01X1040488Y-6420631D01*
G01X1057721Y-6414963D01*
G01X1073378Y-6405799D01*
G01X1086757Y-6393549D01*
G01X1097263Y-6378759D01*
G01X1104424Y-6362091D01*
G01X1107920Y-6344290D01*
G01X1107596Y-6326152D01*
G01X1103466Y-6308487D01*
G01X1095715Y-6292086D01*
G01X1106690Y-6287441D01*
G01X1115533Y-6279451D01*
G01X1121264Y-6269002D01*
G01X1123248Y-6257250D01*
G01X1123248Y-6200062D01*
G01X1145191Y-6200062D01*
G01X1159502Y-6207799D01*
G01X1175266Y-6211819D01*
G01X1191535Y-6211879D01*
G01X1207328Y-6207976D01*
G01X1221696Y-6200344D01*
G01X1221696Y-6265571D01*
G01X1223342Y-6278073D01*
G01X1228168Y-6289723D01*
G01X1235844Y-6299727D01*
G01X1280314Y-6344198D01*
G01X1290318Y-6351874D01*
G01X1301968Y-6356700D01*
G01X1314470Y-6358345D01*
G01X1787174Y-6358345D01*
G01X1799676Y-6356700D01*
G01X1811326Y-6351874D01*
G01X1821330Y-6344198D01*
G01X1837556Y-6327971D01*
G01X1843094Y-6321341D01*
G01X1847362Y-6313831D01*
G01X1872251Y-6313831D01*
G01X1883315Y-6312078D01*
G01X1893296Y-6306993D01*
G01X1901217Y-6299072D01*
G01X1906302Y-6289091D01*
G01X1908054Y-6278027D01*
G01X1908054Y-6198369D01*
G01X1920196Y-6210511D01*
G01X1920196Y-6312300D01*
G01X1921842Y-6324802D01*
G01X1926668Y-6336452D01*
G01X1934344Y-6346456D01*
G01X1959344Y-6371456D01*
G01X1969348Y-6379132D01*
G01X1980998Y-6383958D01*
G01X1993500Y-6385604D01*
G01X2247900Y-6385604D01*
G01X2260402Y-6383958D01*
G01X2272052Y-6379132D01*
G01X2282056Y-6371456D01*
G01X2307456Y-6346056D01*
G01X2315132Y-6336052D01*
G01X2319958Y-6324402D01*
G01X2321604Y-6311900D01*
G01X2321604Y-5912808D01*
G01X2324008Y-5910404D01*
G01X2507280Y-5910404D01*
G01X2507528Y-5910636D01*
G01X2388310Y-5910636D01*
G01X2377246Y-5912388D01*
G01X2367265Y-5917474D01*
G01X2359344Y-5925395D01*
G01X2354258Y-5935376D01*
G01X2352506Y-5946440D01*
G01X2352506Y-6296360D01*
G01X2354258Y-6307424D01*
G01X2359344Y-6317405D01*
G01X2367265Y-6325326D01*
G01X2377246Y-6330412D01*
G01X2388310Y-6332164D01*
G01X2406880Y-6332164D01*
G01X2412206Y-6345613D01*
G01X2420952Y-6357135D01*
G01X2502308Y-6438492D01*
G01X2513348Y-6446963D01*
G01X2526204Y-6452288D01*
G01X2540000Y-6454104D01*
G01X3048000Y-6454104D01*
G01X3061796Y-6452288D01*
G01X3074652Y-6446963D01*
G01X3085692Y-6438492D01*
G01X3161483Y-6362700D01*
G01X3686496Y-6362700D01*
G01X3688383Y-6383060D01*
G01X3693978Y-6402727D01*
G01X3703093Y-6421031D01*
G01X3715415Y-6437348D01*
G01X3730526Y-6451123D01*
G01X3747910Y-6461888D01*
G01X3766977Y-6469274D01*
G01X3787076Y-6473031D01*
G01X3807524Y-6473031D01*
G01X3827623Y-6469274D01*
G01X3846690Y-6461888D01*
G01X3864074Y-6451123D01*
G01X3879185Y-6437348D01*
G01X3891507Y-6421031D01*
G01X3900622Y-6402727D01*
G01X3906217Y-6383060D01*
G01X3908104Y-6362700D01*
G01X4029396Y-6362700D01*
G01X4031283Y-6383060D01*
G01X4036878Y-6402727D01*
G01X4045993Y-6421031D01*
G01X4058315Y-6437348D01*
G01X4073426Y-6451123D01*
G01X4090810Y-6461888D01*
G01X4109877Y-6469274D01*
G01X4129976Y-6473031D01*
G01X4150424Y-6473031D01*
G01X4170523Y-6469274D01*
G01X4189590Y-6461888D01*
G01X4206974Y-6451123D01*
G01X4222085Y-6437348D01*
G01X4230504Y-6426200D01*
G01X4510796Y-6426200D01*
G01X4512703Y-6446781D01*
G01X4518359Y-6466660D01*
G01X4527572Y-6485162D01*
G01X4540028Y-6501657D01*
G01X4555303Y-6515581D01*
G01X4572876Y-6526462D01*
G01X4592149Y-6533928D01*
G01X4612466Y-6537726D01*
G01X4633134Y-6537726D01*
G01X4653451Y-6533928D01*
G01X4672724Y-6526462D01*
G01X4690297Y-6515581D01*
G01X4705572Y-6501657D01*
G01X4718028Y-6485162D01*
G01X4727241Y-6466660D01*
G01X4732897Y-6446781D01*
G01X4734804Y-6426200D01*
G01X4732897Y-6405619D01*
G01X4727241Y-6385740D01*
G01X4718028Y-6367238D01*
G01X4705572Y-6350743D01*
G01X4690297Y-6336819D01*
G01X4672724Y-6325938D01*
G01X4653451Y-6318472D01*
G01X4633134Y-6314674D01*
G01X4612466Y-6314674D01*
G01X4592149Y-6318472D01*
G01X4572876Y-6325938D01*
G01X4555303Y-6336819D01*
G01X4540028Y-6350743D01*
G01X4527572Y-6367238D01*
G01X4518359Y-6385740D01*
G01X4512703Y-6405619D01*
G01X4510796Y-6426200D01*
G01X4510796Y-6426200D01*
G01X4230504Y-6426200D01*
G01X4234407Y-6421031D01*
G01X4243522Y-6402727D01*
G01X4249117Y-6383060D01*
G01X4251004Y-6362700D01*
G01X4249117Y-6342340D01*
G01X4243522Y-6322673D01*
G01X4234407Y-6304369D01*
G01X4222085Y-6288052D01*
G01X4206974Y-6274277D01*
G01X4189590Y-6263512D01*
G01X4170523Y-6256126D01*
G01X4150424Y-6252369D01*
G01X4129976Y-6252369D01*
G01X4109877Y-6256126D01*
G01X4090810Y-6263512D01*
G01X4073426Y-6274277D01*
G01X4058315Y-6288052D01*
G01X4045993Y-6304369D01*
G01X4036878Y-6322673D01*
G01X4031283Y-6342340D01*
G01X4029396Y-6362700D01*
G01X4029396Y-6362700D01*
G01X3908104Y-6362700D01*
G01X3906217Y-6342340D01*
G01X3900622Y-6322673D01*
G01X3891507Y-6304369D01*
G01X3879185Y-6288052D01*
G01X3864074Y-6274277D01*
G01X3846690Y-6263512D01*
G01X3827623Y-6256126D01*
G01X3807524Y-6252369D01*
G01X3787076Y-6252369D01*
G01X3766977Y-6256126D01*
G01X3747910Y-6263512D01*
G01X3730526Y-6274277D01*
G01X3715415Y-6288052D01*
G01X3703093Y-6304369D01*
G01X3693978Y-6322673D01*
G01X3688383Y-6342340D01*
G01X3686496Y-6362700D01*
G01X3686496Y-6362700D01*
G01X3161483Y-6362700D01*
G01X3226789Y-6297395D01*
G01X3233521Y-6289161D01*
G01X3238485Y-6279756D01*
G01X3241483Y-6269552D01*
G01X3251245Y-6267211D01*
G01X3259973Y-6262252D01*
G01X3266981Y-6255066D01*
G01X3271719Y-6246216D01*
G01X3273815Y-6236400D01*
G01X3354256Y-6236400D01*
G01X3357599Y-6245458D01*
G01X3363241Y-6253293D01*
G01X3370772Y-6259336D01*
G01X3379643Y-6263147D01*
G01X3389210Y-6264449D01*
G01X3488209Y-6264449D01*
G01X3499273Y-6262697D01*
G01X3509254Y-6257611D01*
G01X3517175Y-6249690D01*
G01X3522261Y-6239709D01*
G01X3524013Y-6228645D01*
G01X3524013Y-6223700D01*
G01X3625019Y-6223700D01*
G01X3639450Y-6221709D01*
G01X3747510Y-6221709D01*
G01X3758574Y-6219956D01*
G01X3768555Y-6214871D01*
G01X3776476Y-6206950D01*
G01X3781562Y-6196969D01*
G01X3783314Y-6185905D01*
G01X3783314Y-6168709D01*
G01X3818005Y-6168709D01*
G01X3818005Y-6185905D01*
G01X3819758Y-6196969D01*
G01X3824843Y-6206950D01*
G01X3832764Y-6214871D01*
G01X3842745Y-6219956D01*
G01X3853809Y-6221709D01*
G01X3988810Y-6221709D01*
G01X3999874Y-6219956D01*
G01X4009855Y-6214871D01*
G01X4017776Y-6206950D01*
G01X4022862Y-6196969D01*
G01X4024614Y-6185905D01*
G01X4024614Y-6168709D01*
G01X4059305Y-6168709D01*
G01X4059305Y-6185905D01*
G01X4061058Y-6196969D01*
G01X4066143Y-6206950D01*
G01X4074064Y-6214871D01*
G01X4084045Y-6219956D01*
G01X4095109Y-6221709D01*
G01X4230110Y-6221709D01*
G01X4241174Y-6219956D01*
G01X4251155Y-6214871D01*
G01X4259076Y-6206950D01*
G01X4264162Y-6196969D01*
G01X4265914Y-6185905D01*
G01X4265914Y-6168709D01*
G01X4300505Y-6168709D01*
G01X4305337Y-6179294D01*
G01X4313309Y-6187771D01*
G01X4323578Y-6193244D01*
G01X4335059Y-6195135D01*
G01X4420957Y-6195135D01*
G01X4484709Y-6258887D01*
G01X4495749Y-6267358D01*
G01X4508605Y-6272683D01*
G01X4522401Y-6274500D01*
G01X4560756Y-6274500D01*
G01X4564099Y-6283558D01*
G01X4569741Y-6291393D01*
G01X4577272Y-6297436D01*
G01X4586143Y-6301247D01*
G01X4595710Y-6302549D01*
G01X4694709Y-6302549D01*
G01X4705773Y-6300797D01*
G01X4715754Y-6295711D01*
G01X4723675Y-6287790D01*
G01X4728761Y-6277809D01*
G01X4730513Y-6266745D01*
G01X4730513Y-6211275D01*
G01X4754597Y-6187192D01*
G01X4754597Y-6315793D01*
G01X4756349Y-6326857D01*
G01X4761435Y-6336838D01*
G01X4769356Y-6344759D01*
G01X4779337Y-6349844D01*
G01X4790401Y-6351597D01*
G01X4945658Y-6351597D01*
G01X4933390Y-6368189D01*
G01X4924374Y-6386750D01*
G01X4918915Y-6406650D01*
G01X4917201Y-6427213D01*
G01X4919287Y-6447743D01*
G01X4925105Y-6467541D01*
G01X4934455Y-6485936D01*
G01X4947022Y-6502303D01*
G01X4962378Y-6516087D01*
G01X4980002Y-6526820D01*
G01X4999296Y-6534138D01*
G01X5019605Y-6537792D01*
G01X5040239Y-6537659D01*
G01X5060499Y-6533742D01*
G01X5079697Y-6526175D01*
G01X5097180Y-6515214D01*
G01X5112356Y-6501233D01*
G01X5124710Y-6484704D01*
G01X5154269Y-6484704D01*
G01X5154269Y-6495051D01*
G01X5156022Y-6506115D01*
G01X5161107Y-6516096D01*
G01X5169028Y-6524017D01*
G01X5179009Y-6529102D01*
G01X5190073Y-6530854D01*
G01X5303327Y-6530854D01*
G01X5314391Y-6529102D01*
G01X5324372Y-6524017D01*
G01X5332293Y-6516096D01*
G01X5337379Y-6506115D01*
G01X5339131Y-6495051D01*
G01X5339131Y-6357349D01*
G01X5337379Y-6346285D01*
G01X5332293Y-6336304D01*
G01X5324372Y-6328383D01*
G01X5314391Y-6323298D01*
G01X5303327Y-6321546D01*
G01X5286243Y-6321546D01*
G01X5290878Y-6311926D01*
G01X5292470Y-6301368D01*
G01X5292470Y-6218315D01*
G01X5296308Y-6222592D01*
G01X5395262Y-6321546D01*
G01X5390073Y-6321546D01*
G01X5379009Y-6323298D01*
G01X5369028Y-6328383D01*
G01X5361107Y-6336304D01*
G01X5356021Y-6346285D01*
G01X5354269Y-6357349D01*
G01X5354269Y-6495051D01*
G01X5356021Y-6506115D01*
G01X5361107Y-6516096D01*
G01X5369028Y-6524017D01*
G01X5379009Y-6529102D01*
G01X5390073Y-6530854D01*
G01X5503327Y-6530854D01*
G01X5514391Y-6529102D01*
G01X5524372Y-6524017D01*
G01X5532293Y-6516096D01*
G01X5537378Y-6506115D01*
G01X5539131Y-6495051D01*
G01X5539131Y-6489134D01*
G01X5554446Y-6492271D01*
G01X5570070Y-6491735D01*
G01X5585134Y-6487556D01*
G01X5598801Y-6479966D01*
G01X5610311Y-6469387D01*
G01X5619024Y-6456408D01*
G01X5626508Y-6463892D01*
G01X5637548Y-6472363D01*
G01X5650404Y-6477688D01*
G01X5664200Y-6479504D01*
G01X6154290Y-6479504D01*
G01X6167659Y-6488459D01*
G01X6182792Y-6493929D01*
G01X6198798Y-6495593D01*
G01X6214733Y-6493352D01*
G01X6229658Y-6487339D01*
G01X6242696Y-6477907D01*
G01X6253077Y-6465611D01*
G01X6260191Y-6451178D01*
G01X6263618Y-6435455D01*
G01X6263156Y-6419370D01*
G01X6258833Y-6403870D01*
G01X6250904Y-6389868D01*
G01X6250904Y-6374363D01*
G01X6256568Y-6382026D01*
G01X6264053Y-6387925D01*
G01X6272829Y-6391639D01*
G01X6282273Y-6392908D01*
G01X6395527Y-6392908D01*
G01X6400200Y-6392601D01*
G01X6406512Y-6400488D01*
G01X6439212Y-6433188D01*
G01X6448698Y-6440467D01*
G01X6459745Y-6445043D01*
G01X6471600Y-6446604D01*
G01X6978727Y-6446604D01*
G01X7016112Y-6483988D01*
G01X7025598Y-6491267D01*
G01X7036645Y-6495843D01*
G01X7048500Y-6497404D01*
G01X7701196Y-6497404D01*
G01X7701196Y-6543467D01*
G01X7694296Y-6542796D01*
G01X364882Y-6542796D01*
G01X364882Y-6327776D01*
G01X427115Y-6327776D01*
G01X427115Y-6345713D01*
G01X430844Y-6363259D01*
G01X438140Y-6379646D01*
G01X448684Y-6394158D01*
G01X462014Y-6406161D01*
G01X477549Y-6415130D01*
G01X494609Y-6420673D01*
G01X512449Y-6422548D01*
G01X592448Y-6422548D01*
G01X610288Y-6420673D01*
G01X627348Y-6415130D01*
G01X642883Y-6406161D01*
G01X656213Y-6394158D01*
G01X666757Y-6379646D01*
G01X674053Y-6363259D01*
G01X677782Y-6345713D01*
G01X677782Y-6327776D01*
G01X674053Y-6310230D01*
G01X666757Y-6293843D01*
G01X656213Y-6279331D01*
G01X642883Y-6267328D01*
G01X627348Y-6258359D01*
G01X610288Y-6252816D01*
G01X592448Y-6250941D01*
G01X592448Y-6250941D01*
G01X512449Y-6250941D01*
G01X494609Y-6252816D01*
G01X477549Y-6258359D01*
G01X462014Y-6267328D01*
G01X448684Y-6279331D01*
G01X438140Y-6293843D01*
G01X430844Y-6310230D01*
G01X427115Y-6327776D01*
G01X364882Y-6327776D01*
G01X364882Y-5463779D01*
G01X427110Y-5463779D01*
G01X427110Y-5481717D01*
G01X430839Y-5499263D01*
G01X438135Y-5515650D01*
G01X448679Y-5530162D01*
G01X462009Y-5542165D01*
G01X477544Y-5551134D01*
G01X494604Y-5556677D01*
G01X512443Y-5558552D01*
G01X592443Y-5558552D01*
G01X610283Y-5556677D01*
G01X627343Y-5551134D01*
G01X642878Y-5542165D01*
G01X656208Y-5530162D01*
G01X666752Y-5515650D01*
G01X674048Y-5499263D01*
G01X677777Y-5481717D01*
G01X677777Y-5463779D01*
G01X674048Y-5446233D01*
G01X666752Y-5429846D01*
G01X656208Y-5415334D01*
G01X642878Y-5403331D01*
G01X627343Y-5394363D01*
G01X610283Y-5388819D01*
G01X592443Y-5386944D01*
G01X592443Y-5386944D01*
G01X512443Y-5386944D01*
G01X494604Y-5388819D01*
G01X477544Y-5394363D01*
G01X462009Y-5403331D01*
G01X448679Y-5415334D01*
G01X438135Y-5429846D01*
G01X430839Y-5446233D01*
G01X427110Y-5463779D01*
G01X364882Y-5463779D01*
G01X364882Y-5293604D01*
G37*
G36*
G01X1302025Y-5879843D02*
G01X1302025Y-5933043D01*
G01X1302188Y-5936452D01*
G01X1291748Y-5932697D01*
G01X1280727Y-5931423D01*
G01X1202943Y-5931423D01*
G01X1202943Y-5879727D01*
G01X1202913Y-5878044D01*
G01X1269560Y-5878044D01*
G01X1282062Y-5876398D01*
G01X1293712Y-5871573D01*
G01X1303716Y-5863896D01*
G01X1307861Y-5859751D01*
G01X1308194Y-5859751D01*
G01X1303602Y-5869334D01*
G01X1302025Y-5879843D01*
G37*
G36*
G01X1480376Y-5938751D02*
G01X1490679Y-5943116D01*
G01X1501570Y-5945686D01*
G01X1511584Y-5952943D01*
G01X1523001Y-5957697D01*
G01X1535207Y-5959691D01*
G01X1532695Y-5967081D01*
G01X1531844Y-5974839D01*
G01X1531844Y-6028039D01*
G01X1533597Y-6039103D01*
G01X1538682Y-6049084D01*
G01X1546603Y-6057005D01*
G01X1556584Y-6062091D01*
G01X1567648Y-6063843D01*
G01X1674849Y-6063843D01*
G01X1683484Y-6062786D01*
G01X1691610Y-6059678D01*
G01X1698746Y-6054702D01*
G01X1698746Y-6073096D01*
G01X1674661Y-6073096D01*
G01X1662159Y-6074742D01*
G01X1650509Y-6079568D01*
G01X1640505Y-6087244D01*
G01X1624323Y-6103426D01*
G01X1582570Y-6103426D01*
G01X1571139Y-6104798D01*
G01X1560357Y-6108837D01*
G01X1525943Y-6108837D01*
G01X1514879Y-6110589D01*
G01X1504898Y-6115674D01*
G01X1496977Y-6123595D01*
G01X1491892Y-6133576D01*
G01X1490139Y-6144640D01*
G01X1490139Y-6261738D01*
G01X1475001Y-6261738D01*
G01X1475001Y-6144640D01*
G01X1473282Y-6133679D01*
G01X1468289Y-6123769D01*
G01X1460502Y-6115865D01*
G01X1450668Y-6110724D01*
G01X1439733Y-6108841D01*
G01X1439733Y-6063843D01*
G01X1445030Y-6063843D01*
G01X1456094Y-6062091D01*
G01X1466075Y-6057005D01*
G01X1473996Y-6049084D01*
G01X1479081Y-6039103D01*
G01X1480834Y-6028039D01*
G01X1480834Y-5974839D01*
G01X1479109Y-5963861D01*
G01X1474102Y-5953941D01*
G01X1478122Y-5946711D01*
G01X1480376Y-5938751D01*
G37*
G36*
G01X1909655Y-5844626D02*
G01X1909655Y-5737904D01*
G01X1912161Y-5737904D01*
G01X1982440Y-5811791D01*
G01X1992593Y-5819924D01*
G01X2004549Y-5825052D01*
G01X2017440Y-5826804D01*
G01X2271023Y-5826804D01*
G01X2269844Y-5827944D01*
G01X2239144Y-5858644D01*
G01X2231468Y-5868648D01*
G01X2226642Y-5880298D01*
G01X2224996Y-5892800D01*
G01X2224996Y-6288996D01*
G01X2194094Y-6288996D01*
G01X2194094Y-5946440D01*
G01X2192342Y-5935376D01*
G01X2187256Y-5925395D01*
G01X2179335Y-5917474D01*
G01X2169354Y-5912388D01*
G01X2158290Y-5910636D01*
G01X2017622Y-5910636D01*
G01X2007720Y-5912032D01*
G01X1998590Y-5916113D01*
G01X1990945Y-5922560D01*
G01X1985381Y-5930869D01*
G01X1982333Y-5940393D01*
G01X1910691Y-5868752D01*
G01X1904370Y-5863348D01*
G01X1908308Y-5854353D01*
G01X1909655Y-5844626D01*
G37*
G36*
G01X1908054Y-6016881D02*
G01X1981818Y-6090645D01*
G01X1981818Y-6135509D01*
G01X1933553Y-6087244D01*
G01X1926017Y-6081093D01*
G01X1917401Y-6076577D01*
G01X1908054Y-6073878D01*
G01X1908054Y-6016881D01*
G37*
G36*
G01X2929877Y-5697094D02*
G01X3139100Y-5697094D01*
G01X3150164Y-5695342D01*
G01X3160145Y-5690256D01*
G01X3168066Y-5682335D01*
G01X3173151Y-5672354D01*
G01X3174904Y-5661290D01*
G01X3174904Y-5524209D01*
G01X3335405Y-5524209D01*
G01X3335405Y-5541405D01*
G01X3337254Y-5552762D01*
G01X3342610Y-5562946D01*
G01X3350919Y-5570905D01*
G01X3342610Y-5578864D01*
G01X3337254Y-5589048D01*
G01X3335405Y-5600404D01*
G01X3335405Y-5741405D01*
G01X3336750Y-5751123D01*
G01X3340681Y-5760112D01*
G01X3346905Y-5767696D01*
G01X3354954Y-5773306D01*
G01X3364224Y-5776521D01*
G01X3358359Y-5783995D01*
G01X3354667Y-5792748D01*
G01X3353406Y-5802164D01*
G01X3353406Y-5852196D01*
G01X2882900Y-5852196D01*
G01X2869104Y-5854012D01*
G01X2856248Y-5859337D01*
G01X2845208Y-5867808D01*
G01X2807108Y-5905908D01*
G01X2798637Y-5916948D01*
G01X2793312Y-5929804D01*
G01X2791496Y-5943600D01*
G01X2791496Y-5964105D01*
G01X2784925Y-5962161D01*
G01X2778103Y-5961506D01*
G01X2680103Y-5961506D01*
G01X2669504Y-5963110D01*
G01X2669504Y-5957468D01*
G01X2929877Y-5697094D01*
G37*
G36*
G01X3981203Y-5364601D02*
G01X3986082Y-5350324D01*
G01X3987607Y-5335314D01*
G01X3985700Y-5320348D01*
G01X3980458Y-5306200D01*
G01X3972154Y-5293604D01*
G01X9677878Y-5293604D01*
G01X9677875Y-8178285D01*
G01X9519550Y-8178254D01*
G01X9545776Y-8168825D01*
G01X9570529Y-8156019D01*
G01X9593376Y-8140060D01*
G01X9613919Y-8121226D01*
G01X9631797Y-8099846D01*
G01X9646699Y-8076295D01*
G01X9658364Y-8050984D01*
G01X9666588Y-8024356D01*
G01X9671228Y-7996875D01*
G01X9672201Y-7969023D01*
G01X9669492Y-7941285D01*
G01X9663148Y-7914147D01*
G01X9653279Y-7888083D01*
G01X9640058Y-7863549D01*
G01X9623716Y-7840974D01*
G01X9604539Y-7820751D01*
G01X9582862Y-7803235D01*
G01X9559063Y-7788732D01*
G01X9533560Y-7777495D01*
G01X9506797Y-7769720D01*
G01X9479242Y-7765544D01*
G01X9451377Y-7765039D01*
G01X9423689Y-7768215D01*
G01X9396661Y-7775015D01*
G01X9620888Y-7550788D01*
G01X9628167Y-7541302D01*
G01X9632743Y-7530255D01*
G01X9634304Y-7518400D01*
G01X9634304Y-6642100D01*
G01X9632743Y-6630245D01*
G01X9628167Y-6619198D01*
G01X9620888Y-6609712D01*
G01X9520217Y-6509041D01*
G01X9532942Y-6502570D01*
G01X9543986Y-6493526D01*
G01X9552839Y-6482328D01*
G01X9559089Y-6469494D01*
G01X9562448Y-6455619D01*
G01X9562759Y-6441348D01*
G01X9560008Y-6427340D01*
G01X9554322Y-6414246D01*
G01X9545966Y-6402673D01*
G01X9535326Y-6393156D01*
G01X9546480Y-6384188D01*
G01X9555450Y-6373035D01*
G01X9561817Y-6360218D01*
G01X9565286Y-6346332D01*
G01X9565694Y-6332026D01*
G01X9563022Y-6317965D01*
G01X9557396Y-6304805D01*
G01X9549076Y-6293160D01*
G01X9538451Y-6283571D01*
G01X9526016Y-6276485D01*
G01X9512350Y-6272233D01*
G01X9498090Y-6271013D01*
G01X9479004Y-6251927D01*
G01X9469518Y-6244648D01*
G01X9458471Y-6240072D01*
G01X9446616Y-6238512D01*
G01X9371065Y-6238512D01*
G01X9379588Y-6229988D01*
G01X9386867Y-6220502D01*
G01X9391443Y-6209455D01*
G01X9393004Y-6197600D01*
G01X9393004Y-6057900D01*
G01X9391443Y-6046045D01*
G01X9386867Y-6034998D01*
G01X9379588Y-6025512D01*
G01X9341488Y-5987412D01*
G01X9332002Y-5980133D01*
G01X9320955Y-5975557D01*
G01X9309100Y-5973996D01*
G01X9306240Y-5973996D01*
G01X9294200Y-5964056D01*
G01X9280169Y-5957206D01*
G01X9264926Y-5953828D01*
G01X9249315Y-5954108D01*
G01X9234203Y-5958030D01*
G01X9234203Y-5590691D01*
G01X9245026Y-5590691D01*
G01X9256090Y-5588938D01*
G01X9266071Y-5583853D01*
G01X9273992Y-5575932D01*
G01X9279077Y-5565951D01*
G01X9280830Y-5554887D01*
G01X9280830Y-5417186D01*
G01X9295968Y-5417186D01*
G01X9295968Y-5554887D01*
G01X9297720Y-5565951D01*
G01X9302806Y-5575932D01*
G01X9310727Y-5583853D01*
G01X9320708Y-5588938D01*
G01X9331772Y-5590691D01*
G01X9428276Y-5590691D01*
G01X9456387Y-5618801D01*
G01X9456387Y-5636996D01*
G01X9456387Y-5636996D01*
G01X9440691Y-5636996D01*
G01X9429627Y-5638749D01*
G01X9419646Y-5643834D01*
G01X9411725Y-5651755D01*
G01X9406639Y-5661736D01*
G01X9404887Y-5672800D01*
G01X9404887Y-5858800D01*
G01X9406639Y-5869864D01*
G01X9411725Y-5879845D01*
G01X9419646Y-5887766D01*
G01X9429627Y-5892851D01*
G01X9440691Y-5894604D01*
G01X9456387Y-5894604D01*
G01X9456387Y-5908091D01*
G01X9457948Y-5919946D01*
G01X9462523Y-5930993D01*
G01X9469803Y-5940479D01*
G01X9509513Y-5980190D01*
G01X9511024Y-5995853D01*
G01X9516184Y-6010720D01*
G01X9524702Y-6023952D01*
G01X9536098Y-6034803D01*
G01X9549730Y-6042664D01*
G01X9564831Y-6047090D01*
G01X9580550Y-6047834D01*
G01X9596002Y-6044852D01*
G01X9610315Y-6038312D01*
G01X9622684Y-6028584D01*
G01X9632412Y-6016215D01*
G01X9638952Y-6001902D01*
G01X9641934Y-5986450D01*
G01X9641190Y-5970731D01*
G01X9636764Y-5955630D01*
G01X9628903Y-5941998D01*
G01X9618052Y-5930602D01*
G01X9604820Y-5922084D01*
G01X9589953Y-5916924D01*
G01X9574290Y-5915413D01*
G01X9553480Y-5894604D01*
G01X9563691Y-5894604D01*
G01X9574755Y-5892851D01*
G01X9584736Y-5887766D01*
G01X9592657Y-5879845D01*
G01X9597742Y-5869864D01*
G01X9599495Y-5858800D01*
G01X9599495Y-5672800D01*
G01X9597742Y-5661736D01*
G01X9592657Y-5651755D01*
G01X9584736Y-5643834D01*
G01X9574755Y-5638749D01*
G01X9563691Y-5636996D01*
G01X9547995Y-5636996D01*
G01X9547995Y-5599829D01*
G01X9546434Y-5587974D01*
G01X9541858Y-5576927D01*
G01X9534579Y-5567440D01*
G01X9480829Y-5513690D01*
G01X9480829Y-5417186D01*
G01X9479077Y-5406122D01*
G01X9473991Y-5396141D01*
G01X9466070Y-5388220D01*
G01X9456089Y-5383134D01*
G01X9445025Y-5381382D01*
G01X9331772Y-5381382D01*
G01X9320708Y-5383134D01*
G01X9310727Y-5388220D01*
G01X9302806Y-5396141D01*
G01X9297720Y-5406122D01*
G01X9295968Y-5417186D01*
G01X9280830Y-5417186D01*
G01X9279077Y-5406122D01*
G01X9273992Y-5396141D01*
G01X9266071Y-5388220D01*
G01X9256090Y-5383134D01*
G01X9245026Y-5381382D01*
G01X9131772Y-5381382D01*
G01X9121391Y-5382920D01*
G01X9111902Y-5387402D01*
G01X9104119Y-5394443D01*
G01X9074788Y-5365112D01*
G01X9065302Y-5357833D01*
G01X9054255Y-5353257D01*
G01X9042400Y-5351696D01*
G01X8865323Y-5351696D01*
G01X8854935Y-5342594D01*
G01X8842908Y-5335805D01*
G01X8829748Y-5331613D01*
G01X8816010Y-5330196D01*
G01X8654009Y-5330196D01*
G01X8638426Y-5332025D01*
G01X8623690Y-5337412D01*
G01X8610602Y-5346064D01*
G01X8599872Y-5357512D01*
G01X8592085Y-5371133D01*
G01X8587663Y-5386186D01*
G01X8586846Y-5401855D01*
G01X8589679Y-5417286D01*
G01X8596008Y-5431643D01*
G01X8605489Y-5444144D01*
G01X8617607Y-5454110D01*
G01X8631703Y-5461000D01*
G01X8618144Y-5467548D01*
G01X8606381Y-5476946D01*
G01X8597001Y-5488724D01*
G01X8590474Y-5502292D01*
G01X8587127Y-5516972D01*
G01X8587127Y-5532028D01*
G01X8590474Y-5546708D01*
G01X8597001Y-5560276D01*
G01X8606381Y-5572054D01*
G01X8618144Y-5581452D01*
G01X8631703Y-5588000D01*
G01X8618144Y-5594548D01*
G01X8606381Y-5603946D01*
G01X8597001Y-5615724D01*
G01X8590474Y-5629292D01*
G01X8587127Y-5643972D01*
G01X8587127Y-5659028D01*
G01X8590474Y-5673708D01*
G01X8597001Y-5687276D01*
G01X8606381Y-5699054D01*
G01X8618144Y-5708452D01*
G01X8631703Y-5715000D01*
G01X8618628Y-5721246D01*
G01X8607193Y-5730146D01*
G01X8597928Y-5741288D01*
G01X8591262Y-5754155D01*
G01X8587505Y-5768150D01*
G01X8586831Y-5782624D01*
G01X8589271Y-5796908D01*
G01X8594712Y-5810338D01*
G01X8169288Y-5810338D01*
G01X8174729Y-5796908D01*
G01X8177169Y-5782624D01*
G01X8176495Y-5768150D01*
G01X8172738Y-5754155D01*
G01X8166072Y-5741288D01*
G01X8156807Y-5730146D01*
G01X8145372Y-5721246D01*
G01X8132297Y-5715000D01*
G01X8145856Y-5708452D01*
G01X8157619Y-5699054D01*
G01X8166999Y-5687276D01*
G01X8173526Y-5673708D01*
G01X8176873Y-5659028D01*
G01X8176873Y-5643972D01*
G01X8173526Y-5629292D01*
G01X8166999Y-5615724D01*
G01X8157619Y-5603946D01*
G01X8145856Y-5594548D01*
G01X8132297Y-5588000D01*
G01X8145856Y-5581452D01*
G01X8157619Y-5572054D01*
G01X8166999Y-5560276D01*
G01X8173526Y-5546708D01*
G01X8176873Y-5532028D01*
G01X8176873Y-5516972D01*
G01X8173526Y-5502292D01*
G01X8166999Y-5488724D01*
G01X8157619Y-5476946D01*
G01X8145856Y-5467548D01*
G01X8132297Y-5461000D01*
G01X8146393Y-5454110D01*
G01X8158511Y-5444144D01*
G01X8167992Y-5431643D01*
G01X8174321Y-5417286D01*
G01X8177154Y-5401855D01*
G01X8176337Y-5386186D01*
G01X8171915Y-5371133D01*
G01X8164128Y-5357512D01*
G01X8153398Y-5346064D01*
G01X8140310Y-5337412D01*
G01X8125574Y-5332025D01*
G01X8109991Y-5330196D01*
G01X7947990Y-5330196D01*
G01X7931963Y-5332132D01*
G01X7916859Y-5337829D01*
G01X7903545Y-5346959D01*
G01X7892788Y-5358996D01*
G01X7765100Y-5358996D01*
G01X7753245Y-5360557D01*
G01X7742198Y-5365133D01*
G01X7732712Y-5372412D01*
G01X7664527Y-5440596D01*
G01X7647331Y-5440596D01*
G01X7647331Y-5417549D01*
G01X7645578Y-5406485D01*
G01X7640493Y-5396504D01*
G01X7632572Y-5388583D01*
G01X7622591Y-5383498D01*
G01X7611527Y-5381746D01*
G01X7498273Y-5381746D01*
G01X7487209Y-5383498D01*
G01X7477228Y-5388583D01*
G01X7469307Y-5396504D01*
G01X7464221Y-5406485D01*
G01X7462469Y-5417549D01*
G01X7462469Y-5512957D01*
G01X7447331Y-5497819D01*
G01X7447331Y-5417549D01*
G01X7445579Y-5406485D01*
G01X7440493Y-5396504D01*
G01X7432572Y-5388583D01*
G01X7422591Y-5383498D01*
G01X7411527Y-5381746D01*
G01X7298273Y-5381746D01*
G01X7287209Y-5383498D01*
G01X7277228Y-5388583D01*
G01X7269307Y-5396504D01*
G01X7264222Y-5406485D01*
G01X7262469Y-5417549D01*
G01X7262469Y-5523219D01*
G01X7233292Y-5552396D01*
G01X7175500Y-5552396D01*
G01X7164854Y-5553584D01*
G01X7165574Y-5546439D01*
G01X7165574Y-5405438D01*
G01X7163821Y-5394374D01*
G01X7158736Y-5384393D01*
G01X7150815Y-5376472D01*
G01X7140834Y-5371387D01*
G01X7129770Y-5369634D01*
G01X6994769Y-5369634D01*
G01X6983705Y-5371387D01*
G01X6973724Y-5376472D01*
G01X6965803Y-5384393D01*
G01X6960717Y-5394374D01*
G01X6958965Y-5405438D01*
G01X6958965Y-5546439D01*
G01X6960814Y-5557795D01*
G01X6966169Y-5567979D01*
G01X6974478Y-5575938D01*
G01X6966169Y-5583897D01*
G01X6960814Y-5594081D01*
G01X6958965Y-5605438D01*
G01X6958965Y-5622634D01*
G01X6924274Y-5622634D01*
G01X6924274Y-5605438D01*
G01X6922425Y-5594081D01*
G01X6917069Y-5583897D01*
G01X6908760Y-5575938D01*
G01X6917069Y-5567979D01*
G01X6922425Y-5557795D01*
G01X6924274Y-5546439D01*
G01X6924274Y-5405438D01*
G01X6922521Y-5394374D01*
G01X6917436Y-5384393D01*
G01X6909515Y-5376472D01*
G01X6899534Y-5371387D01*
G01X6888470Y-5369634D01*
G01X6753469Y-5369634D01*
G01X6742405Y-5371387D01*
G01X6732424Y-5376472D01*
G01X6724503Y-5384393D01*
G01X6719417Y-5394374D01*
G01X6717665Y-5405438D01*
G01X6717665Y-5546439D01*
G01X6719514Y-5557795D01*
G01X6724869Y-5567979D01*
G01X6733178Y-5575938D01*
G01X6724869Y-5583897D01*
G01X6719514Y-5594081D01*
G01X6717665Y-5605438D01*
G01X6717665Y-5622634D01*
G01X6681904Y-5622634D01*
G01X6681904Y-5604800D01*
G01X6680056Y-5593443D01*
G01X6674700Y-5583259D01*
G01X6666391Y-5575300D01*
G01X6674700Y-5567341D01*
G01X6680056Y-5557157D01*
G01X6681904Y-5545800D01*
G01X6681904Y-5404800D01*
G01X6680152Y-5393736D01*
G01X6675067Y-5383755D01*
G01X6667146Y-5375834D01*
G01X6657165Y-5370748D01*
G01X6646101Y-5368996D01*
G01X6511100Y-5368996D01*
G01X6500035Y-5370748D01*
G01X6490054Y-5375834D01*
G01X6482133Y-5383755D01*
G01X6477048Y-5393736D01*
G01X6475296Y-5404800D01*
G01X6475296Y-5545800D01*
G01X6477144Y-5557157D01*
G01X6482500Y-5567341D01*
G01X6490809Y-5575300D01*
G01X6482500Y-5583259D01*
G01X6477144Y-5593443D01*
G01X6475296Y-5604800D01*
G01X6475296Y-5622634D01*
G01X6438039Y-5622634D01*
G01X6438039Y-5604398D01*
G01X6436190Y-5593042D01*
G01X6430834Y-5582858D01*
G01X6422525Y-5574899D01*
G01X6430834Y-5566940D01*
G01X6436190Y-5556756D01*
G01X6438039Y-5545399D01*
G01X6438039Y-5404399D01*
G01X6436286Y-5393335D01*
G01X6431201Y-5383354D01*
G01X6423280Y-5375433D01*
G01X6413299Y-5370347D01*
G01X6402235Y-5368595D01*
G01X6267234Y-5368595D01*
G01X6256170Y-5370347D01*
G01X6246189Y-5375433D01*
G01X6238268Y-5383354D01*
G01X6233182Y-5393335D01*
G01X6231430Y-5404399D01*
G01X6231430Y-5545399D01*
G01X6233278Y-5556756D01*
G01X6238634Y-5566940D01*
G01X6246943Y-5574899D01*
G01X6238634Y-5582858D01*
G01X6233278Y-5593042D01*
G01X6231430Y-5604398D01*
G01X6231430Y-5622634D01*
G01X6200374Y-5622634D01*
G01X6200374Y-5605438D01*
G01X6198525Y-5594081D01*
G01X6193169Y-5583897D01*
G01X6184860Y-5575938D01*
G01X6193169Y-5567979D01*
G01X6198525Y-5557795D01*
G01X6200374Y-5546439D01*
G01X6200374Y-5405438D01*
G01X6198621Y-5394374D01*
G01X6193536Y-5384393D01*
G01X6185615Y-5376472D01*
G01X6175634Y-5371387D01*
G01X6164570Y-5369634D01*
G01X6029569Y-5369634D01*
G01X6018505Y-5371387D01*
G01X6008524Y-5376472D01*
G01X6000603Y-5384393D01*
G01X5995517Y-5394374D01*
G01X5993765Y-5405438D01*
G01X5993765Y-5546439D01*
G01X5995614Y-5557795D01*
G01X6000969Y-5567979D01*
G01X6009278Y-5575938D01*
G01X6000969Y-5583897D01*
G01X5995614Y-5594081D01*
G01X5993765Y-5605438D01*
G01X5993765Y-5622634D01*
G01X5959074Y-5622634D01*
G01X5959074Y-5605438D01*
G01X5957225Y-5594081D01*
G01X5951869Y-5583897D01*
G01X5943560Y-5575938D01*
G01X5951869Y-5567979D01*
G01X5957225Y-5557795D01*
G01X5959074Y-5546439D01*
G01X5959074Y-5405438D01*
G01X5957321Y-5394374D01*
G01X5952236Y-5384393D01*
G01X5944315Y-5376472D01*
G01X5934334Y-5371387D01*
G01X5923270Y-5369634D01*
G01X5788269Y-5369634D01*
G01X5777205Y-5371387D01*
G01X5767224Y-5376472D01*
G01X5759303Y-5384393D01*
G01X5754217Y-5394374D01*
G01X5752465Y-5405438D01*
G01X5752465Y-5546439D01*
G01X5754314Y-5557795D01*
G01X5759669Y-5567979D01*
G01X5767978Y-5575938D01*
G01X5759669Y-5583897D01*
G01X5754314Y-5594081D01*
G01X5752465Y-5605438D01*
G01X5752465Y-5622634D01*
G01X5717774Y-5622634D01*
G01X5717774Y-5605438D01*
G01X5715925Y-5594081D01*
G01X5710569Y-5583897D01*
G01X5702260Y-5575938D01*
G01X5710569Y-5567979D01*
G01X5715925Y-5557795D01*
G01X5717774Y-5546438D01*
G01X5717774Y-5405438D01*
G01X5716021Y-5394374D01*
G01X5710936Y-5384393D01*
G01X5703015Y-5376472D01*
G01X5693034Y-5371386D01*
G01X5681970Y-5369634D01*
G01X5546969Y-5369634D01*
G01X5535905Y-5371386D01*
G01X5525924Y-5376472D01*
G01X5518003Y-5384393D01*
G01X5512917Y-5394374D01*
G01X5511165Y-5405438D01*
G01X5511165Y-5546438D01*
G01X5513014Y-5557795D01*
G01X5518369Y-5567979D01*
G01X5526678Y-5575938D01*
G01X5518369Y-5583897D01*
G01X5513014Y-5594081D01*
G01X5511165Y-5605438D01*
G01X5511165Y-5622634D01*
G01X5480064Y-5622634D01*
G01X5480064Y-5604284D01*
G01X5478215Y-5592927D01*
G01X5472860Y-5582744D01*
G01X5464551Y-5574784D01*
G01X5472860Y-5566825D01*
G01X5478215Y-5556641D01*
G01X5480064Y-5545285D01*
G01X5480064Y-5404284D01*
G01X5478312Y-5393220D01*
G01X5473226Y-5383239D01*
G01X5465305Y-5375318D01*
G01X5455324Y-5370233D01*
G01X5444260Y-5368480D01*
G01X5309259Y-5368480D01*
G01X5298195Y-5370233D01*
G01X5288214Y-5375318D01*
G01X5280293Y-5383239D01*
G01X5275208Y-5393220D01*
G01X5273455Y-5404284D01*
G01X5273455Y-5545285D01*
G01X5275304Y-5556641D01*
G01X5280660Y-5566825D01*
G01X5288969Y-5574784D01*
G01X5280660Y-5582744D01*
G01X5275304Y-5592927D01*
G01X5273455Y-5604284D01*
G01X5273455Y-5622634D01*
G01X5247874Y-5622634D01*
G01X5247874Y-5605438D01*
G01X5246025Y-5594081D01*
G01X5240669Y-5583897D01*
G01X5232360Y-5575938D01*
G01X5240669Y-5567979D01*
G01X5246025Y-5557795D01*
G01X5247874Y-5546439D01*
G01X5247874Y-5405438D01*
G01X5246121Y-5394374D01*
G01X5241036Y-5384393D01*
G01X5233115Y-5376472D01*
G01X5223134Y-5371387D01*
G01X5212070Y-5369634D01*
G01X5077069Y-5369634D01*
G01X5066005Y-5371387D01*
G01X5056024Y-5376472D01*
G01X5048103Y-5384393D01*
G01X5043017Y-5394374D01*
G01X5041265Y-5405438D01*
G01X5041265Y-5483490D01*
G01X5029751Y-5481399D01*
G01X5018049Y-5481365D01*
G01X5006522Y-5483389D01*
G01X5006522Y-5401027D01*
G01X5004770Y-5389963D01*
G01X4999685Y-5379981D01*
G01X4991764Y-5372061D01*
G01X4981783Y-5366975D01*
G01X4970719Y-5365223D01*
G01X4835718Y-5365223D01*
G01X4824653Y-5366975D01*
G01X4814672Y-5372061D01*
G01X4806752Y-5379981D01*
G01X4801666Y-5389963D01*
G01X4799914Y-5401027D01*
G01X4799914Y-5435730D01*
G01X4797397Y-5433213D01*
G01X4786357Y-5424742D01*
G01X4773501Y-5419417D01*
G01X4759705Y-5417601D01*
G01X4748514Y-5417601D01*
G01X4748514Y-5400405D01*
G01X4746762Y-5389341D01*
G01X4741676Y-5379360D01*
G01X4733755Y-5371439D01*
G01X4723774Y-5366353D01*
G01X4712710Y-5364601D01*
G01X4577709Y-5364601D01*
G01X4566645Y-5366353D01*
G01X4556664Y-5371439D01*
G01X4548743Y-5379360D01*
G01X4543658Y-5389341D01*
G01X4541905Y-5400405D01*
G01X4541905Y-5417601D01*
G01X4507214Y-5417601D01*
G01X4507214Y-5400405D01*
G01X4505462Y-5389341D01*
G01X4500376Y-5379360D01*
G01X4492455Y-5371439D01*
G01X4482474Y-5366353D01*
G01X4471410Y-5364601D01*
G01X4336409Y-5364601D01*
G01X4325345Y-5366353D01*
G01X4315364Y-5371439D01*
G01X4307443Y-5379360D01*
G01X4302358Y-5389341D01*
G01X4300605Y-5400405D01*
G01X4300605Y-5417601D01*
G01X4265914Y-5417601D01*
G01X4265914Y-5400405D01*
G01X4264162Y-5389341D01*
G01X4259076Y-5379360D01*
G01X4251155Y-5371439D01*
G01X4241174Y-5366353D01*
G01X4230110Y-5364601D01*
G01X4095109Y-5364601D01*
G01X4084045Y-5366353D01*
G01X4074064Y-5371439D01*
G01X4066143Y-5379360D01*
G01X4061058Y-5389341D01*
G01X4059305Y-5400405D01*
G01X4059305Y-5541405D01*
G01X4061154Y-5552762D01*
G01X4066510Y-5562946D01*
G01X4074819Y-5570905D01*
G01X4066510Y-5578864D01*
G01X4061154Y-5589048D01*
G01X4059305Y-5600404D01*
G01X4059305Y-5741405D01*
G01X4061058Y-5752469D01*
G01X4066143Y-5762450D01*
G01X4074064Y-5770371D01*
G01X4084045Y-5775456D01*
G01X4095109Y-5777209D01*
G01X4230110Y-5777209D01*
G01X4241174Y-5775456D01*
G01X4251155Y-5770371D01*
G01X4259076Y-5762450D01*
G01X4264162Y-5752469D01*
G01X4265914Y-5741405D01*
G01X4265914Y-5600404D01*
G01X4264066Y-5589048D01*
G01X4258710Y-5578864D01*
G01X4250401Y-5570905D01*
G01X4258710Y-5562946D01*
G01X4264066Y-5552762D01*
G01X4265914Y-5541405D01*
G01X4265914Y-5524209D01*
G01X4300605Y-5524209D01*
G01X4300605Y-5541405D01*
G01X4302454Y-5552762D01*
G01X4307810Y-5562946D01*
G01X4316119Y-5570905D01*
G01X4307810Y-5578864D01*
G01X4302454Y-5589048D01*
G01X4300605Y-5600404D01*
G01X4300605Y-5741405D01*
G01X4302358Y-5752469D01*
G01X4307443Y-5762450D01*
G01X4315364Y-5770371D01*
G01X4325345Y-5775456D01*
G01X4336409Y-5777209D01*
G01X4471410Y-5777209D01*
G01X4482474Y-5775456D01*
G01X4492455Y-5770371D01*
G01X4500376Y-5762450D01*
G01X4505462Y-5752469D01*
G01X4507214Y-5741405D01*
G01X4507214Y-5600404D01*
G01X4505366Y-5589048D01*
G01X4500010Y-5578864D01*
G01X4491701Y-5570905D01*
G01X4500010Y-5562946D01*
G01X4505366Y-5552762D01*
G01X4507214Y-5541405D01*
G01X4507214Y-5524209D01*
G01X4541905Y-5524209D01*
G01X4541905Y-5541405D01*
G01X4543754Y-5552762D01*
G01X4549110Y-5562946D01*
G01X4557419Y-5570905D01*
G01X4549110Y-5578864D01*
G01X4543754Y-5589048D01*
G01X4541905Y-5600404D01*
G01X4541905Y-5741405D01*
G01X4543658Y-5752469D01*
G01X4548743Y-5762450D01*
G01X4556664Y-5770371D01*
G01X4566645Y-5775456D01*
G01X4577709Y-5777209D01*
G01X4712710Y-5777209D01*
G01X4722833Y-5775748D01*
G01X4725837Y-5785915D01*
G01X4730795Y-5795287D01*
G01X4737508Y-5803492D01*
G01X4761567Y-5827550D01*
G01X4756384Y-5837605D01*
G01X4754597Y-5848775D01*
G01X4754597Y-5997277D01*
G01X4756142Y-6007683D01*
G01X4760646Y-6017191D01*
G01X4767719Y-6024980D01*
G01X4776750Y-6030376D01*
G01X4765255Y-6033074D01*
G01X4754636Y-6038236D01*
G01X4745414Y-6045608D01*
G01X4648082Y-6142941D01*
G01X4595710Y-6142941D01*
G01X4584594Y-6144710D01*
G01X4574576Y-6149844D01*
G01X4566647Y-6157834D01*
G01X4561591Y-6167892D01*
G01X4544480Y-6167892D01*
G01X4508564Y-6131976D01*
G01X4508564Y-6046078D01*
G01X4506812Y-6035014D01*
G01X4501726Y-6025033D01*
G01X4493805Y-6017112D01*
G01X4483824Y-6012026D01*
G01X4472760Y-6010274D01*
G01X4335059Y-6010274D01*
G01X4323995Y-6012026D01*
G01X4314014Y-6017112D01*
G01X4306093Y-6025033D01*
G01X4301008Y-6035014D01*
G01X4299255Y-6046078D01*
G01X4299255Y-6062101D01*
G01X4265914Y-6062101D01*
G01X4265914Y-6044904D01*
G01X4264066Y-6033548D01*
G01X4258710Y-6023364D01*
G01X4250401Y-6015405D01*
G01X4258710Y-6007446D01*
G01X4264066Y-5997262D01*
G01X4265914Y-5985905D01*
G01X4265914Y-5846078D01*
G01X4299255Y-5846078D01*
G01X4299255Y-5959332D01*
G01X4301008Y-5970396D01*
G01X4306093Y-5980377D01*
G01X4314014Y-5988298D01*
G01X4323995Y-5993383D01*
G01X4335059Y-5995136D01*
G01X4472760Y-5995136D01*
G01X4483824Y-5993383D01*
G01X4493805Y-5988298D01*
G01X4501726Y-5980377D01*
G01X4506812Y-5970396D01*
G01X4508564Y-5959332D01*
G01X4508564Y-5846078D01*
G01X4507644Y-5840264D01*
G01X4559906Y-5840264D01*
G01X4559906Y-5928265D01*
G01X4561659Y-5939329D01*
G01X4566744Y-5949310D01*
G01X4574665Y-5957231D01*
G01X4584646Y-5962317D01*
G01X4595710Y-5964069D01*
G01X4694709Y-5964069D01*
G01X4694709Y-5964069D01*
G01X4705773Y-5962317D01*
G01X4715754Y-5957231D01*
G01X4723675Y-5949310D01*
G01X4728761Y-5939329D01*
G01X4730513Y-5928265D01*
G01X4730513Y-5840264D01*
G01X4728761Y-5829200D01*
G01X4723675Y-5819219D01*
G01X4715754Y-5811298D01*
G01X4705773Y-5806213D01*
G01X4694709Y-5804460D01*
G01X4595710Y-5804460D01*
G01X4584646Y-5806213D01*
G01X4574665Y-5811298D01*
G01X4566744Y-5819219D01*
G01X4561659Y-5829200D01*
G01X4559906Y-5840264D01*
G01X4507644Y-5840264D01*
G01X4506812Y-5835014D01*
G01X4501726Y-5825033D01*
G01X4493805Y-5817112D01*
G01X4483824Y-5812027D01*
G01X4472760Y-5810274D01*
G01X4335059Y-5810274D01*
G01X4335059Y-5810274D01*
G01X4323995Y-5812027D01*
G01X4314014Y-5817112D01*
G01X4306093Y-5825033D01*
G01X4301008Y-5835014D01*
G01X4299255Y-5846078D01*
G01X4265914Y-5846078D01*
G01X4265914Y-5844905D01*
G01X4264162Y-5833841D01*
G01X4259076Y-5823860D01*
G01X4251155Y-5815939D01*
G01X4241174Y-5810853D01*
G01X4230110Y-5809101D01*
G01X4095109Y-5809101D01*
G01X4084045Y-5810853D01*
G01X4074064Y-5815939D01*
G01X4066143Y-5823860D01*
G01X4061058Y-5833841D01*
G01X4059305Y-5844905D01*
G01X4059305Y-5985905D01*
G01X4061154Y-5997262D01*
G01X4066510Y-6007446D01*
G01X4074819Y-6015405D01*
G01X4066510Y-6023364D01*
G01X4061154Y-6033548D01*
G01X4059305Y-6044904D01*
G01X4059305Y-6062101D01*
G01X4024614Y-6062101D01*
G01X4024614Y-6044904D01*
G01X4022766Y-6033548D01*
G01X4017410Y-6023364D01*
G01X4009101Y-6015405D01*
G01X4017410Y-6007446D01*
G01X4022766Y-5997262D01*
G01X4024614Y-5985905D01*
G01X4024614Y-5844905D01*
G01X4022862Y-5833841D01*
G01X4017776Y-5823860D01*
G01X4009855Y-5815939D01*
G01X3999874Y-5810853D01*
G01X3988810Y-5809101D01*
G01X3853809Y-5809101D01*
G01X3842745Y-5810853D01*
G01X3832764Y-5815939D01*
G01X3824843Y-5823860D01*
G01X3819758Y-5833841D01*
G01X3818005Y-5844905D01*
G01X3818005Y-5985905D01*
G01X3819854Y-5997262D01*
G01X3825210Y-6007446D01*
G01X3833519Y-6015405D01*
G01X3825210Y-6023364D01*
G01X3819854Y-6033548D01*
G01X3818005Y-6044904D01*
G01X3818005Y-6062101D01*
G01X3783314Y-6062101D01*
G01X3783314Y-6044904D01*
G01X3781466Y-6033548D01*
G01X3776110Y-6023364D01*
G01X3767801Y-6015405D01*
G01X3776110Y-6007446D01*
G01X3781466Y-5997262D01*
G01X3783314Y-5985905D01*
G01X3783314Y-5844905D01*
G01X3781562Y-5833841D01*
G01X3776476Y-5823860D01*
G01X3768555Y-5815939D01*
G01X3758574Y-5810853D01*
G01X3747510Y-5809101D01*
G01X3612509Y-5809101D01*
G01X3601445Y-5810853D01*
G01X3591464Y-5815939D01*
G01X3583543Y-5823860D01*
G01X3578458Y-5833841D01*
G01X3576705Y-5844905D01*
G01X3576705Y-5985905D01*
G01X3578554Y-5997262D01*
G01X3583910Y-6007446D01*
G01X3592219Y-6015405D01*
G01X3583910Y-6023364D01*
G01X3578554Y-6033548D01*
G01X3576705Y-6044904D01*
G01X3576705Y-6117092D01*
G01X3515176Y-6117092D01*
G01X3507487Y-6110474D01*
G01X3498252Y-6106278D01*
G01X3488209Y-6104841D01*
G01X3389210Y-6104841D01*
G01X3378094Y-6106610D01*
G01X3368076Y-6111744D01*
G01X3360147Y-6119734D01*
G01X3355091Y-6129792D01*
G01X3273901Y-6129792D01*
G01X3273901Y-5997310D01*
G01X3272149Y-5986246D01*
G01X3267063Y-5976265D01*
G01X3259142Y-5968344D01*
G01X3249161Y-5963258D01*
G01X3238097Y-5961506D01*
G01X3140097Y-5961506D01*
G01X3129033Y-5963258D01*
G01X3119052Y-5968344D01*
G01X3111131Y-5976265D01*
G01X3106045Y-5986246D01*
G01X3104293Y-5997310D01*
G01X3104293Y-6233908D01*
G01X3105477Y-6243041D01*
G01X3108952Y-6251570D01*
G01X3114487Y-6258930D01*
G01X3025921Y-6347496D01*
G01X2846487Y-6347496D01*
G01X2882492Y-6311492D01*
G01X2890963Y-6300452D01*
G01X2896288Y-6287596D01*
G01X2898104Y-6273800D01*
G01X2898104Y-6267643D01*
G01X2904013Y-6269191D01*
G01X2910100Y-6269712D01*
G01X3008100Y-6269712D01*
G01X3019164Y-6267960D01*
G01X3029145Y-6262874D01*
G01X3037066Y-6254953D01*
G01X3042152Y-6244972D01*
G01X3043904Y-6233908D01*
G01X3043904Y-5997310D01*
G01X3042152Y-5986246D01*
G01X3037066Y-5976265D01*
G01X3029145Y-5968344D01*
G01X3019164Y-5963258D01*
G01X3008100Y-5961506D01*
G01X2910100Y-5961506D01*
G01X2901138Y-5962645D01*
G01X2904979Y-5958804D01*
G01X3393624Y-5958804D01*
G01X3407420Y-5956988D01*
G01X3420276Y-5951663D01*
G01X3431315Y-5943192D01*
G01X3448538Y-5925969D01*
G01X3488209Y-5925969D01*
G01X3499273Y-5924217D01*
G01X3509254Y-5919131D01*
G01X3517175Y-5911210D01*
G01X3522261Y-5901229D01*
G01X3524013Y-5890165D01*
G01X3524013Y-5802164D01*
G01X3522753Y-5792748D01*
G01X3519061Y-5783995D01*
G01X3513196Y-5776521D01*
G01X3522466Y-5773306D01*
G01X3530514Y-5767696D01*
G01X3536738Y-5760112D01*
G01X3540670Y-5751123D01*
G01X3542014Y-5741405D01*
G01X3542014Y-5600404D01*
G01X3540166Y-5589048D01*
G01X3534810Y-5578864D01*
G01X3526501Y-5570905D01*
G01X3534810Y-5562946D01*
G01X3540166Y-5552762D01*
G01X3542014Y-5541405D01*
G01X3542014Y-5524209D01*
G01X3576705Y-5524209D01*
G01X3576705Y-5541405D01*
G01X3578554Y-5552762D01*
G01X3583910Y-5562946D01*
G01X3592219Y-5570905D01*
G01X3583910Y-5578864D01*
G01X3578554Y-5589048D01*
G01X3576705Y-5600404D01*
G01X3576705Y-5741405D01*
G01X3578458Y-5752469D01*
G01X3583543Y-5762450D01*
G01X3591464Y-5770371D01*
G01X3601445Y-5775456D01*
G01X3612509Y-5777209D01*
G01X3747510Y-5777209D01*
G01X3758574Y-5775456D01*
G01X3768555Y-5770371D01*
G01X3776476Y-5762450D01*
G01X3781562Y-5752469D01*
G01X3783314Y-5741405D01*
G01X3783314Y-5600404D01*
G01X3781466Y-5589048D01*
G01X3776110Y-5578864D01*
G01X3767801Y-5570905D01*
G01X3776110Y-5562946D01*
G01X3781466Y-5552762D01*
G01X3783314Y-5541405D01*
G01X3783314Y-5524209D01*
G01X3818005Y-5524209D01*
G01X3818005Y-5541405D01*
G01X3819854Y-5552762D01*
G01X3825210Y-5562946D01*
G01X3833519Y-5570905D01*
G01X3825210Y-5578864D01*
G01X3819854Y-5589048D01*
G01X3818005Y-5600404D01*
G01X3818005Y-5741405D01*
G01X3819758Y-5752469D01*
G01X3824843Y-5762450D01*
G01X3832764Y-5770371D01*
G01X3842745Y-5775456D01*
G01X3853809Y-5777209D01*
G01X3988810Y-5777209D01*
G01X3999874Y-5775456D01*
G01X4009855Y-5770371D01*
G01X4017776Y-5762450D01*
G01X4022862Y-5752469D01*
G01X4024614Y-5741405D01*
G01X4024614Y-5600404D01*
G01X4022766Y-5589048D01*
G01X4017410Y-5578864D01*
G01X4009101Y-5570905D01*
G01X4017410Y-5562946D01*
G01X4022766Y-5552762D01*
G01X4024614Y-5541405D01*
G01X4024614Y-5400405D01*
G01X4022862Y-5389341D01*
G01X4017776Y-5379360D01*
G01X4009855Y-5371439D01*
G01X3999874Y-5366353D01*
G01X3988810Y-5364601D01*
G01X3981203Y-5364601D01*
G37*
G36*
G01X4999003Y-5997277D02*
G01X4999003Y-5848775D01*
G01X4998663Y-5843853D01*
G01X5074717Y-5843853D01*
G01X5078995Y-5848131D01*
G01X5082817Y-5862464D01*
G01X5089729Y-5875589D01*
G01X5099387Y-5886848D01*
G01X5111306Y-5895679D01*
G01X5110862Y-5901300D01*
G01X5110862Y-6011300D01*
G01X5112205Y-6021012D01*
G01X5116131Y-6029996D01*
G01X4977737Y-6029996D01*
G01X4986437Y-6024515D01*
G01X4993220Y-6016788D01*
G01X4997527Y-6007452D01*
G01X4999003Y-5997277D01*
G37*
G36*
G01X7613404Y-5894604D02*
G01X7734891Y-5894604D01*
G01X7744278Y-5893351D01*
G01X7753009Y-5889681D01*
G01X7757561Y-5901982D01*
G01X7765412Y-5912488D01*
G01X7816212Y-5963288D01*
G01X7826018Y-5970751D01*
G01X7837459Y-5975328D01*
G01X7830344Y-5982444D01*
G01X7825096Y-5988660D01*
G01X7820966Y-5995670D01*
G01X7795650Y-5995670D01*
G01X7784586Y-5997422D01*
G01X7774605Y-6002508D01*
G01X7766684Y-6010429D01*
G01X7761598Y-6020410D01*
G01X7759846Y-6031474D01*
G01X7759846Y-6039797D01*
G01X7716799Y-6039797D01*
G01X7704297Y-6041443D01*
G01X7692647Y-6046268D01*
G01X7682643Y-6053945D01*
G01X7643041Y-6093547D01*
G01X7643041Y-5979959D01*
G01X7641651Y-5970080D01*
G01X7637590Y-5960968D01*
G01X7631172Y-5953331D01*
G01X7622896Y-5947760D01*
G01X7613404Y-5944690D01*
G01X7613404Y-5894604D01*
G37*
G36*
G01X7647331Y-5555251D02*
G01X7647331Y-5532204D01*
G01X7683500Y-5532204D01*
G01X7695355Y-5530643D01*
G01X7706402Y-5526067D01*
G01X7715888Y-5518788D01*
G01X7751996Y-5482681D01*
G01X7751996Y-5641347D01*
G01X7743716Y-5638101D01*
G01X7734891Y-5636996D01*
G01X7613404Y-5636996D01*
G01X7613404Y-5591005D01*
G01X7624009Y-5588808D01*
G01X7633473Y-5583540D01*
G01X7640928Y-5575683D01*
G01X7645692Y-5565957D01*
G01X7647331Y-5555251D01*
G37*
G36*
G01X7730099Y-8177903D02*
G01X7730099Y-7406557D01*
G01X7743061Y-7414063D01*
G01X7757377Y-7418469D01*
G01X7772316Y-7419548D01*
G01X7787117Y-7417247D01*
G01X7801023Y-7411682D01*
G01X7801023Y-7417646D01*
G01X7802757Y-7428652D01*
G01X7801023Y-7439657D01*
G01X7801023Y-7467658D01*
G01X7802757Y-7478664D01*
G01X7801023Y-7489670D01*
G01X7801023Y-7517671D01*
G01X7802753Y-7528664D01*
G01X7801023Y-7539657D01*
G01X7801023Y-7567658D01*
G01X7802757Y-7578664D01*
G01X7801023Y-7589670D01*
G01X7801023Y-7617671D01*
G01X7802753Y-7628664D01*
G01X7801023Y-7639657D01*
G01X7801023Y-7667658D01*
G01X7802757Y-7678664D01*
G01X7801023Y-7689670D01*
G01X7801023Y-7717671D01*
G01X7802753Y-7728664D01*
G01X7801023Y-7739657D01*
G01X7801023Y-7767658D01*
G01X7802757Y-7778664D01*
G01X7801023Y-7789669D01*
G01X7801023Y-7817670D01*
G01X7802757Y-7828676D01*
G01X7801023Y-7839682D01*
G01X7801023Y-7867683D01*
G01X7802364Y-7877389D01*
G01X7806286Y-7886369D01*
G01X7802942Y-7894757D01*
G01X7801803Y-7903715D01*
G01X7801803Y-8058716D01*
G01X7803555Y-8069780D01*
G01X7808641Y-8079761D01*
G01X7816562Y-8087682D01*
G01X7826543Y-8092768D01*
G01X7837607Y-8094520D01*
G01X7936998Y-8094520D01*
G01X7942643Y-8108675D01*
G01X7951370Y-8121167D01*
G01X7962720Y-8131337D01*
G01X7976091Y-8138647D01*
G01X7990778Y-8142711D01*
G01X8006005Y-8143315D01*
G01X8020967Y-8140426D01*
G01X8034875Y-8134197D01*
G01X8046993Y-8124958D01*
G01X8056682Y-8113196D01*
G01X8063430Y-8099532D01*
G01X8066880Y-8084689D01*
G01X8066850Y-8069450D01*
G01X8063341Y-8054621D01*
G01X8056539Y-8040984D01*
G01X8046804Y-8029260D01*
G01X8046804Y-7886700D01*
G01X8045722Y-7876804D01*
G01X8143488Y-7876804D01*
G01X8156167Y-7887151D01*
G01X8170994Y-7894077D01*
G01X8187066Y-7897160D01*
G01X8203404Y-7896213D01*
G01X8219012Y-7891293D01*
G01X8217348Y-7897406D01*
G01X8216788Y-7903715D01*
G01X8216788Y-8058716D01*
G01X8218540Y-8069780D01*
G01X8223626Y-8079761D01*
G01X8231547Y-8087682D01*
G01X8241528Y-8092768D01*
G01X8252592Y-8094520D01*
G01X8367593Y-8094520D01*
G01X8377787Y-8093039D01*
G01X8387137Y-8088716D01*
G01X8394869Y-8081910D01*
G01X8406314Y-8092585D01*
G01X8419942Y-8100280D01*
G01X8434995Y-8104567D01*
G01X8450633Y-8105205D01*
G01X8465985Y-8102160D01*
G01X8480195Y-8095602D01*
G01X8492472Y-8085896D01*
G01X8500414Y-8104469D01*
G01X8511596Y-8121292D01*
G01X8525647Y-8135806D01*
G01X8542099Y-8147527D01*
G01X8560405Y-8156067D01*
G01X8579958Y-8161142D01*
G01X8600107Y-8162582D01*
G01X8620182Y-8160340D01*
G01X8639517Y-8154491D01*
G01X8657469Y-8145229D01*
G01X8673441Y-8132862D01*
G01X8686903Y-8117800D01*
G01X8697406Y-8100545D01*
G01X8704602Y-8081670D01*
G01X8708252Y-8061802D01*
G01X8708234Y-8041602D01*
G01X8704549Y-8021740D01*
G01X8697319Y-8002878D01*
G01X8686785Y-7985641D01*
G01X8673297Y-7970604D01*
G01X8763803Y-7970604D01*
G01X8750214Y-7985778D01*
G01X8739632Y-8003183D01*
G01X8732414Y-8022231D01*
G01X8728806Y-8042278D01*
G01X8728928Y-8062647D01*
G01X8732777Y-8082650D01*
G01X8740223Y-8101610D01*
G01X8751013Y-8118886D01*
G01X8764784Y-8133896D01*
G01X8781069Y-8146131D01*
G01X8799319Y-8155178D01*
G01X8818917Y-8160732D01*
G01X8839200Y-8162604D01*
G01X8859483Y-8160732D01*
G01X8879081Y-8155178D01*
G01X8897331Y-8146131D01*
G01X8913616Y-8133896D01*
G01X8927387Y-8118886D01*
G01X8938177Y-8101610D01*
G01X8945623Y-8082650D01*
G01X8949472Y-8062647D01*
G01X8949594Y-8042278D01*
G01X8945986Y-8022231D01*
G01X8938768Y-8003183D01*
G01X8928186Y-7985778D01*
G01X8914597Y-7970604D01*
G01X9005103Y-7970604D01*
G01X8991514Y-7985778D01*
G01X8980932Y-8003183D01*
G01X8973714Y-8022231D01*
G01X8970106Y-8042278D01*
G01X8970228Y-8062647D01*
G01X8974077Y-8082650D01*
G01X8981523Y-8101610D01*
G01X8992313Y-8118886D01*
G01X9006084Y-8133896D01*
G01X9022369Y-8146131D01*
G01X9040619Y-8155178D01*
G01X9060217Y-8160732D01*
G01X9080500Y-8162604D01*
G01X9100783Y-8160732D01*
G01X9120381Y-8155178D01*
G01X9138631Y-8146131D01*
G01X9154916Y-8133896D01*
G01X9168687Y-8118886D01*
G01X9179477Y-8101610D01*
G01X9186923Y-8082650D01*
G01X9190772Y-8062647D01*
G01X9190894Y-8042278D01*
G01X9187286Y-8022231D01*
G01X9180068Y-8003183D01*
G01X9169486Y-7985778D01*
G01X9155897Y-7970604D01*
G01X9182100Y-7970604D01*
G01X9193955Y-7969043D01*
G01X9205002Y-7964467D01*
G01X9214488Y-7957188D01*
G01X9260915Y-7910761D01*
G01X9254063Y-7938073D01*
G01X9250912Y-7966054D01*
G01X9251519Y-7994205D01*
G01X9255871Y-8022024D01*
G01X9263893Y-8049015D01*
G01X9275440Y-8074696D01*
G01X9290307Y-8098610D01*
G01X9308229Y-8120328D01*
G01X9328884Y-8139464D01*
G01X9351907Y-8155677D01*
G01X9376884Y-8168676D01*
G01X9403371Y-8178231D01*
G01X7730099Y-8177903D01*
G37*
G36*
G01X7830904Y-6607346D02*
G01X7845615Y-6613741D01*
G01X7861432Y-6616416D01*
G01X7877428Y-6615215D01*
G01X7892667Y-6610207D01*
G01X7906258Y-6601686D01*
G01X7917405Y-6590151D01*
G01X7925455Y-6576276D01*
G01X7929937Y-6560873D01*
G01X7930589Y-6544845D01*
G01X7927373Y-6529130D01*
G01X7920477Y-6514647D01*
G01X7910304Y-6502244D01*
G01X7910304Y-6380531D01*
G01X7933351Y-6380531D01*
G01X7944889Y-6378621D01*
G01X7955196Y-6373094D01*
G01X7955196Y-6662978D01*
G01X7952608Y-6662885D01*
G01X7837607Y-6662885D01*
G01X7830904Y-6663518D01*
G01X7830904Y-6607346D01*
G37*
G36*
G01X7972631Y-7067659D02*
G01X7972631Y-7039658D01*
G01X7971989Y-7032912D01*
G01X7993296Y-7011605D01*
G01X7993296Y-7239973D01*
G01X7983018Y-7238287D01*
G01X7972602Y-7238232D01*
G01X7970901Y-7228665D01*
G01X7972631Y-7217672D01*
G01X7972631Y-7189671D01*
G01X7970897Y-7178665D01*
G01X7972631Y-7167659D01*
G01X7972631Y-7139658D01*
G01X7970901Y-7128665D01*
G01X7972631Y-7117672D01*
G01X7972631Y-7089671D01*
G01X7970897Y-7078665D01*
G01X7972631Y-7067659D01*
G37*
G36*
G01X8406986Y-6649804D02*
G01X8413827Y-6649804D01*
G01X8440722Y-6676698D01*
G01X8448076Y-6682668D01*
G01X8456502Y-6686997D01*
G01X8456502Y-6694315D01*
G01X8457927Y-6704317D01*
G01X8456502Y-6714320D01*
G01X8456502Y-6734320D01*
G01X8457713Y-6743553D01*
G01X8444702Y-6738410D01*
G01X8430901Y-6736112D01*
G01X8416925Y-6736761D01*
G01X8403397Y-6740328D01*
G01X8403397Y-6698689D01*
G01X8402216Y-6689570D01*
G01X8398753Y-6681053D01*
G01X8393234Y-6673699D01*
G01X8401366Y-6662474D01*
G01X8406986Y-6649804D01*
G37*
G36*
G01X8492306Y-6770124D02*
G01X8571502Y-6770124D01*
G01X8571502Y-6857722D01*
G01X8403186Y-7026038D01*
G01X8404177Y-7017672D01*
G01X8404177Y-6996489D01*
G01X8412807Y-6992125D01*
G01X8420329Y-6986047D01*
G01X8439788Y-6966588D01*
G01X8447067Y-6957102D01*
G01X8451643Y-6946055D01*
G01X8453204Y-6934200D01*
G01X8453204Y-6863194D01*
G01X8465361Y-6856360D01*
G01X8475819Y-6847134D01*
G01X8484117Y-6835924D01*
G01X8489886Y-6823227D01*
G01X8492872Y-6809604D01*
G01X8492942Y-6795658D01*
G01X8490093Y-6782006D01*
G01X8484452Y-6769252D01*
G01X8492306Y-6770124D01*
G37*
G36*
G01X8479059Y-7271283D02*
G01X8471348Y-7265083D01*
G01X8462486Y-7260684D01*
G01X8452886Y-7258291D01*
G01X8522396Y-7188781D01*
G01X8522396Y-7196588D01*
G01X8523487Y-7205362D01*
G01X8526695Y-7213600D01*
G01X8523487Y-7221838D01*
G01X8522396Y-7230612D01*
G01X8522396Y-7280612D01*
G01X8524148Y-7291676D01*
G01X8529234Y-7301657D01*
G01X8537155Y-7309578D01*
G01X8547136Y-7314663D01*
G01X8558200Y-7316416D01*
G01X8612200Y-7316416D01*
G01X8622864Y-7314791D01*
G01X8632560Y-7310064D01*
G01X8640407Y-7302663D01*
G01X8645695Y-7293261D01*
G01X8645695Y-7393607D01*
G01X8647447Y-7404671D01*
G01X8652533Y-7414652D01*
G01X8660454Y-7422573D01*
G01X8670435Y-7427659D01*
G01X8681499Y-7429411D01*
G01X8801499Y-7429411D01*
G01X8812659Y-7427627D01*
G01X8822708Y-7422454D01*
G01X8822708Y-7432726D01*
G01X8816218Y-7430834D01*
G01X8809488Y-7430196D01*
G01X8759488Y-7430196D01*
G01X8748424Y-7431948D01*
G01X8738443Y-7437034D01*
G01X8730522Y-7444955D01*
G01X8725437Y-7454936D01*
G01X8723684Y-7466000D01*
G01X8723684Y-7499396D01*
G01X8707173Y-7499396D01*
G01X8479059Y-7271283D01*
G37*
G36*
G01X8648004Y-7230612D02*
G01X8647366Y-7223882D01*
G01X8645474Y-7217392D01*
G01X8673503Y-7217392D01*
G01X8682600Y-7216480D01*
G01X8691335Y-7213779D01*
G01X8699360Y-7209396D01*
G01X8801499Y-7209396D01*
G01X8810622Y-7208214D01*
G01X8819144Y-7204747D01*
G01X8826500Y-7199222D01*
G01X8833856Y-7204747D01*
G01X8842378Y-7208214D01*
G01X8851501Y-7209396D01*
G01X8971501Y-7209396D01*
G01X8982174Y-7207769D01*
G01X8991876Y-7203034D01*
G01X8999726Y-7195622D01*
G01X9005009Y-7186207D01*
G01X9010602Y-7194361D01*
G01X9018211Y-7200674D01*
G01X9027257Y-7204666D01*
G01X9037049Y-7206031D01*
G01X9161696Y-7206031D01*
G01X9161696Y-7221169D01*
G01X9037049Y-7221169D01*
G01X9027257Y-7222534D01*
G01X9018211Y-7226526D01*
G01X9010602Y-7232839D01*
G01X9005009Y-7240993D01*
G01X8999726Y-7231578D01*
G01X8991876Y-7224166D01*
G01X8982174Y-7219431D01*
G01X8971501Y-7217804D01*
G01X8851501Y-7217804D01*
G01X8842378Y-7218986D01*
G01X8833856Y-7222453D01*
G01X8826500Y-7227978D01*
G01X8819144Y-7222453D01*
G01X8810622Y-7218986D01*
G01X8801499Y-7217804D01*
G01X8681499Y-7217804D01*
G01X8670835Y-7219428D01*
G01X8661140Y-7224156D01*
G01X8653292Y-7231556D01*
G01X8648004Y-7240958D01*
G01X8648004Y-7230612D01*
G37*
G36*
G01X8896988Y-5492112D02*
G01X8887712Y-5484955D01*
G01X8876923Y-5480385D01*
G01X8865328Y-5478702D01*
G01X8852900Y-5468207D01*
G01X8838316Y-5461000D01*
G01X8852896Y-5453796D01*
G01X8865323Y-5443304D01*
G01X9023427Y-5443304D01*
G01X9095968Y-5515845D01*
G01X9095968Y-5554887D01*
G01X9097721Y-5565951D01*
G01X9102806Y-5575932D01*
G01X9110727Y-5583853D01*
G01X9120708Y-5588938D01*
G01X9131772Y-5590691D01*
G01X9142595Y-5590691D01*
G01X9142595Y-5640714D01*
G01X9134867Y-5637938D01*
G01X9126709Y-5636996D01*
G01X9003709Y-5636996D01*
G01X8992180Y-5638903D01*
G01X8981879Y-5644421D01*
G01X8973904Y-5652962D01*
G01X8973904Y-5588000D01*
G01X8972343Y-5576145D01*
G01X8967767Y-5565098D01*
G01X8960488Y-5555612D01*
G01X8896988Y-5492112D01*
G37*
G36*
G01X8870019Y-6655104D02*
G01X8927626Y-6655104D01*
G01X8921112Y-6660512D01*
G01X8864902Y-6716722D01*
G01X8860168Y-6722278D01*
G01X8856377Y-6728514D01*
G01X8847285Y-6728514D01*
G01X8838358Y-6729645D01*
G01X8850137Y-6721206D01*
G01X8859803Y-6710409D01*
G01X8866891Y-6697770D01*
G01X8871065Y-6683893D01*
G01X8872125Y-6669441D01*
G01X8870019Y-6655104D01*
G37*
G36*
G01X9082996Y-6342900D02*
G01X9082996Y-6644596D01*
G01X9057638Y-6644596D01*
G01X9063317Y-6637185D01*
G01X9066886Y-6628557D01*
G01X9068104Y-6619300D01*
G01X9068104Y-6344444D01*
G01X9082996Y-6342900D01*
G37*
G54D10*
G01X364882Y-5293604D02*
G01X3870463Y-5293604D01*
G03X3861415Y-5364601I50846J-42555D01*
G01X3853809Y-5364601D01*
G03X3818005Y-5400405I0J-35804D01*
G01X3818005Y-5417601D01*
G01X3783314Y-5417601D01*
G01X3783314Y-5400405D01*
G03X3747510Y-5364601I-35804J0D01*
G01X3612509Y-5364601D01*
G03X3576705Y-5400405I0J-35804D01*
G01X3576705Y-5417601D01*
G01X3542014Y-5417601D01*
G01X3542014Y-5400405D01*
G03X3506210Y-5364601I-35804J0D01*
G01X3371209Y-5364601D01*
G03X3335405Y-5400405I0J-35804D01*
G01X3335405Y-5417601D01*
G01X3174194Y-5417601D01*
G03X3139100Y-5388888I-35095J-7091D01*
G01X2779100Y-5388888D01*
G03X2743296Y-5424692I0J-35804D01*
G01X2743296Y-5661290D01*
G03X2779100Y-5697094I35804J0D01*
G01X2779354Y-5697094D01*
G01X2618838Y-5857416D01*
G03X2579034Y-5801250I-66138J-4684D01*
G03X2608105Y-5703979I-26334J60850D01*
G03X2507280Y-5692096I-55405J-36421D01*
G01X2489200Y-5692096D01*
G03X2455044Y-5706244I0J-48304D01*
G01X2431092Y-5730196D01*
G01X2407932Y-5730196D01*
G03X2298700Y-5339096I-109232J180296D01*
G03X2189468Y-5730196I0J-210804D01*
G01X2038160Y-5730196D01*
G01X1967880Y-5656309D01*
G03X1932881Y-5641296I-35000J-33291D01*
G01X1909655Y-5641296D01*
G01X1909655Y-5531373D01*
G03X1873851Y-5495569I-35804J0D01*
G01X1830323Y-5495569D01*
G03X1824856Y-5489041I-39623J-27628D01*
G01X1800107Y-5464293D01*
G03X1765951Y-5450145I-34156J-34156D01*
G01X1295000Y-5450145D01*
G03X1260844Y-5464293I0J-48304D01*
G01X1235844Y-5489293D01*
G03X1221696Y-5523449I34156J-34156D01*
G01X1221696Y-5609149D01*
G03X1145191Y-5609431I-38053J-54298D01*
G01X1123248Y-5609431D01*
G01X1123248Y-5552243D01*
G03X1095708Y-5517406I-35804J0D01*
G03X1022441Y-5386944I-73267J44657D01*
G01X912441Y-5386944D01*
G03X886892Y-5554660I0J-85804D01*
G03X849144Y-5616086I30555J-61088D01*
G03X887499Y-5677135I68302J339D01*
G03X858411Y-5692049I8604J-52605D01*
G01X813208Y-5737252D01*
G03X797596Y-5774943I37692J-37692D01*
G01X797596Y-5976396D01*
G03X813209Y-6014088I53304J0D01*
G01X866552Y-6067431D01*
G03X904244Y-6083044I37691J37692D01*
G01X931635Y-6083044D01*
G01X931635Y-6094727D01*
G03X933374Y-6105750I35804J0D01*
G03X931640Y-6116758I34070J-11007D01*
G01X931640Y-6126933D01*
G03X852975Y-6171190I-14193J-66812D01*
G03X886894Y-6254834I64472J-22555D01*
G03X912449Y-6422548I25555J-81910D01*
G01X1022449Y-6422548D01*
G03X1095715Y-6292086I0J85804D01*
G03X1123248Y-6257250I-8271J34836D01*
G01X1123248Y-6200062D01*
G01X1145191Y-6200062D01*
G03X1221696Y-6200344I38452J54015D01*
G01X1221696Y-6265571D01*
G03X1235844Y-6299727I48304J0D01*
G01X1280314Y-6344198D01*
G03X1314470Y-6358345I34156J34156D01*
G01X1787174Y-6358345D01*
G03X1821330Y-6344198I0J48304D01*
G01X1837556Y-6327971D01*
G03X1847362Y-6313831I-34156J34156D01*
G01X1872251Y-6313831D01*
G03X1908054Y-6278027I0J35804D01*
G01X1908054Y-6198369D01*
G01X1920196Y-6210511D01*
G01X1920196Y-6312300D01*
G03X1934344Y-6346456I48304J0D01*
G01X1959344Y-6371456D01*
G03X1993500Y-6385604I34156J34156D01*
G01X2247900Y-6385604D01*
G03X2282056Y-6371456I0J48304D01*
G01X2307456Y-6346056D01*
G03X2321604Y-6311900I-34156J34156D01*
G01X2321604Y-5912808D01*
G01X2324008Y-5910404D01*
G01X2507280Y-5910404D01*
G01X2507528Y-5910636D01*
G01X2388310Y-5910636D01*
G03X2352506Y-5946440I0J-35804D01*
G01X2352506Y-6296360D01*
G03X2388310Y-6332164I35804J0D01*
G01X2406880Y-6332164D01*
G03X2420952Y-6357135I51764J12720D01*
G01X2502308Y-6438492D01*
G03X2540000Y-6454104I37692J37692D01*
G01X3048000Y-6454104D01*
G03X3085692Y-6438492I0J53304D01*
G01X3226789Y-6297395D01*
G03X3241483Y-6269552I-37692J37692D01*
G03X3273815Y-6236400I-3386J35644D01*
G01X3354256Y-6236400D01*
G03X3389210Y-6264449I34954J7754D01*
G01X3488209Y-6264449D01*
G03X3524013Y-6228645I0J35804D01*
G01X3524013Y-6223700D01*
G01X3625019Y-6223700D01*
G03X3639450Y-6221709I0J53304D01*
G01X3747510Y-6221709D01*
G03X3783314Y-6185905I0J35804D01*
G01X3783314Y-6168709D01*
G01X3818005Y-6168709D01*
G01X3818005Y-6185905D01*
G03X3853809Y-6221709I35804J0D01*
G01X3988810Y-6221709D01*
G03X4024614Y-6185905I0J35804D01*
G01X4024614Y-6168709D01*
G01X4059305Y-6168709D01*
G01X4059305Y-6185905D01*
G03X4095109Y-6221709I35804J0D01*
G01X4230110Y-6221709D01*
G03X4265914Y-6185905I0J35804D01*
G01X4265914Y-6168709D01*
G01X4300505Y-6168709D01*
G03X4335059Y-6195135I34554J9377D01*
G01X4420957Y-6195135D01*
G01X4484709Y-6258887D01*
G03X4522401Y-6274500I37692J37692D01*
G01X4560756Y-6274500D01*
G03X4595710Y-6302549I34954J7754D01*
G01X4694709Y-6302549D01*
G03X4730513Y-6266745I0J35804D01*
G01X4730513Y-6211275D01*
G01X4754597Y-6187192D01*
G01X4754597Y-6315793D01*
G03X4790401Y-6351597I35804J0D01*
G01X4945658Y-6351597D01*
G03X4962378Y-6516087I83542J-74603D01*
G03X5124710Y-6484704I66822J89887D01*
G01X5154269Y-6484704D01*
G01X5154269Y-6495051D01*
G03X5190073Y-6530854I35804J0D01*
G01X5303327Y-6530854D01*
G03X5339131Y-6495051I0J35804D01*
G01X5339131Y-6357349D01*
G03X5303327Y-6321546I-35804J0D01*
G01X5286243Y-6321546D01*
G03X5292470Y-6301368I-29577J20178D01*
G01X5292470Y-6218315D01*
G03X5296308Y-6222592I41530J33415D01*
G01X5395262Y-6321546D01*
G01X5390073Y-6321546D01*
G03X5354269Y-6357349I0J-35804D01*
G01X5354269Y-6495051D01*
G03X5390073Y-6530854I35804J0D01*
G01X5503327Y-6530854D01*
G03X5539131Y-6495051I0J35804D01*
G01X5539131Y-6489134D01*
G03X5619024Y-6456408I20871J62934D01*
G01X5626508Y-6463892D01*
G03X5664200Y-6479504I37692J37692D01*
G01X6154290Y-6479504D01*
G03X6242696Y-6477907I43310J50204D01*
G03X6250904Y-6389868I-45096J48606D01*
G01X6250904Y-6374363D01*
G03X6282273Y-6392908I31370J17259D01*
G01X6395527Y-6392908D01*
G03X6400200Y-6392601I0J35804D01*
G03X6406512Y-6400488I38700J24501D01*
G01X6439212Y-6433188D01*
G03X6471600Y-6446604I32388J32388D01*
G01X6978727Y-6446604D01*
G01X7016112Y-6483988D01*
G03X7048500Y-6497404I32388J32388D01*
G01X7701196Y-6497404D01*
G01X7701196Y-6543467D01*
G03X7694296Y-6542796I-6901J-35133D01*
G01X364882Y-6542796D01*
G01X364882Y-5293604D01*
G01X592443Y-5386944D02*
G01X512443Y-5386944D01*
G03X512443Y-5558552I0J-85804D01*
G01X592443Y-5558552D01*
G03X592443Y-5386944I0J85804D01*
G01X592448Y-6250941D02*
G01X512449Y-6250941D01*
G03X512449Y-6422548I0J-85804D01*
G01X592448Y-6422548D01*
G03X592448Y-6250941I0J85804D01*
G01X3686496Y-6362700D02*
G03X3908104Y-6362700I110804J0D01*
G03X3686496Y-6362700I-110804J0D01*
G01X4029396Y-6362700D02*
G03X4251004Y-6362700I110804J0D01*
G03X4029396Y-6362700I-110804J0D01*
G01X4510796Y-6426200D02*
G03X4734804Y-6426200I112004J0D01*
G03X4510796Y-6426200I-112004J0D01*
G01X1302025Y-5879843D02*
G01X1302025Y-5933043D01*
G03X1302188Y-5936452I35804J0D01*
G03X1280727Y-5931423I-21461J-43275D01*
G01X1202943Y-5931423D01*
G01X1202943Y-5879727D01*
G01X1202913Y-5878044D01*
G01X1269560Y-5878044D01*
G03X1303716Y-5863896I0J48304D01*
G01X1307861Y-5859751D01*
G01X1308194Y-5859751D01*
G03X1302025Y-5879843I29635J-20092D01*
G01X1480376Y-5938751D02*
G03X1501570Y-5945686I30924J58651D01*
G03X1535207Y-5959691I36073J39243D01*
G03X1531844Y-5974839I32442J-15148D01*
G01X1531844Y-6028039D01*
G03X1567648Y-6063843I35804J0D01*
G01X1674849Y-6063843D01*
G03X1698746Y-6054702I0J35804D01*
G01X1698746Y-6073096D01*
G01X1674661Y-6073096D01*
G03X1640505Y-6087244I0J-48304D01*
G01X1624323Y-6103426D01*
G01X1582570Y-6103426D01*
G03X1560357Y-6108837I0J-48304D01*
G01X1525943Y-6108837D01*
G03X1490139Y-6144640I0J-35804D01*
G01X1490139Y-6261738D01*
G01X1475001Y-6261738D01*
G01X1475001Y-6144640D01*
G03X1439733Y-6108841I-35804J0D01*
G01X1439733Y-6063843D01*
G01X1445030Y-6063843D01*
G03X1480834Y-6028039I0J35804D01*
G01X1480834Y-5974839D01*
G03X1474102Y-5953941I-35804J0D01*
G03X1480376Y-5938751I-29072J20898D01*
G01X1909655Y-5844626D02*
G01X1909655Y-5737904D01*
G01X1912161Y-5737904D01*
G01X1982440Y-5811791D01*
G03X2017440Y-5826804I35000J33291D01*
G01X2271023Y-5826804D01*
G01X2269844Y-5827944D01*
G01X2239144Y-5858644D01*
G03X2224996Y-5892800I34156J-34156D01*
G01X2224996Y-6288996D01*
G01X2194094Y-6288996D01*
G01X2194094Y-5946440D01*
G03X2158290Y-5910636I-35804J0D01*
G01X2017622Y-5910636D01*
G03X1982333Y-5940393I0J-35804D01*
G01X1910691Y-5868752D01*
G03X1904370Y-5863348I-37692J-37692D01*
G03X1909655Y-5844626I-30519J18722D01*
G01X1908054Y-6016881D02*
G01X1981818Y-6090645D01*
G01X1981818Y-6135509D01*
G01X1933553Y-6087244D01*
G03X1908054Y-6073878I-34156J-34156D01*
G01X1908054Y-6016881D01*
G01X2929877Y-5697094D02*
G01X3139100Y-5697094D01*
G03X3174904Y-5661290I0J35804D01*
G01X3174904Y-5524209D01*
G01X3335405Y-5524209D01*
G01X3335405Y-5541405D01*
G03X3350919Y-5570905I35804J0D01*
G03X3335405Y-5600404I20290J-29500D01*
G01X3335405Y-5741405D01*
G03X3364224Y-5776521I35804J0D01*
G03X3353406Y-5802164I24987J-25643D01*
G01X3353406Y-5852196D01*
G01X2882900Y-5852196D01*
G03X2845208Y-5867808I0J-53304D01*
G01X2807108Y-5905908D01*
G03X2791496Y-5943600I37692J-37692D01*
G01X2791496Y-5964105D01*
G03X2778103Y-5961506I-13393J-33205D01*
G01X2680103Y-5961506D01*
G03X2669504Y-5963110I0J-35804D01*
G01X2669504Y-5957468D01*
G01X2929877Y-5697094D01*
G01X3981203Y-5364601D02*
G03X3972154Y-5293604I-59894J28442D01*
G01X9677878Y-5293604D01*
G01X9677875Y-8178285D01*
G01X9519550Y-8178254D01*
G03X9663148Y-7914147I-58050J202654D01*
G03X9396661Y-7775015I-201648J-61453D01*
G01X9620888Y-7550788D01*
G03X9634304Y-7518400I-32388J32388D01*
G01X9634304Y-6642100D01*
G03X9620888Y-6609712I-45804J0D01*
G01X9520217Y-6509041D01*
G03X9562448Y-6455619I-23517J61993D01*
G03X9535326Y-6393156I-65748J8572D01*
G03X9563022Y-6317965I-35726J55856D01*
G03X9498090Y-6271013I-63422J-19335D01*
G01X9479004Y-6251927D01*
G03X9446616Y-6238512I-32388J-32388D01*
G01X9371065Y-6238512D01*
G01X9379588Y-6229988D01*
G03X9393004Y-6197600I-32388J32388D01*
G01X9393004Y-6057900D01*
G03X9379588Y-6025512I-45804J0D01*
G01X9341488Y-5987412D01*
G03X9309100Y-5973996I-32388J-32388D01*
G01X9306240Y-5973996D01*
G03X9234203Y-5958030I-47940J-45804D01*
G01X9234203Y-5590691D01*
G01X9245026Y-5590691D01*
G03X9280830Y-5554887I0J35804D01*
G01X9280830Y-5417186D01*
G03X9245026Y-5381382I-35804J0D01*
G01X9131772Y-5381382D01*
G03X9104119Y-5394443I0J-35804D01*
G01X9074788Y-5365112D01*
G03X9042400Y-5351696I-32388J-32388D01*
G01X8865323Y-5351696D01*
G03X8816010Y-5330196I-49313J-45804D01*
G01X8654009Y-5330196D01*
G03X8631703Y-5461000I0J-67304D01*
G03X8631703Y-5588000I22306J-63500D01*
G03X8631703Y-5715000I22306J-63500D01*
G03X8594712Y-5810338I22306J-63500D01*
G01X8169288Y-5810338D01*
G03X8132297Y-5715000I-59297J31838D01*
G03X8132297Y-5588000I-22306J63500D01*
G03X8132297Y-5461000I-22306J63500D01*
G03X8109991Y-5330196I-22306J63500D01*
G01X7947990Y-5330196D01*
G03X7892788Y-5358996I0J-67304D01*
G01X7765100Y-5358996D01*
G03X7732712Y-5372412I0J-45804D01*
G01X7664527Y-5440596D01*
G01X7647331Y-5440596D01*
G01X7647331Y-5417549D01*
G03X7611527Y-5381746I-35804J0D01*
G01X7498273Y-5381746D01*
G03X7462469Y-5417549I0J-35804D01*
G01X7462469Y-5512957D01*
G01X7447331Y-5497819D01*
G01X7447331Y-5417549D01*
G03X7411527Y-5381746I-35804J0D01*
G01X7298273Y-5381746D01*
G03X7262469Y-5417549I0J-35804D01*
G01X7262469Y-5523219D01*
G01X7233292Y-5552396D01*
G01X7175500Y-5552396D01*
G03X7164854Y-5553584I0J-48304D01*
G03X7165574Y-5546439I-35084J7145D01*
G01X7165574Y-5405438D01*
G03X7129770Y-5369634I-35804J0D01*
G01X6994769Y-5369634D01*
G03X6958965Y-5405438I0J-35804D01*
G01X6958965Y-5546439D01*
G03X6974478Y-5575938I35804J0D01*
G03X6958965Y-5605438I20290J-29500D01*
G01X6958965Y-5622634D01*
G01X6924274Y-5622634D01*
G01X6924274Y-5605438D01*
G03X6908760Y-5575938I-35804J0D01*
G03X6924274Y-5546439I-20290J29500D01*
G01X6924274Y-5405438D01*
G03X6888470Y-5369634I-35804J0D01*
G01X6753469Y-5369634D01*
G03X6717665Y-5405438I0J-35804D01*
G01X6717665Y-5546439D01*
G03X6733178Y-5575938I35804J0D01*
G03X6717665Y-5605438I20290J-29500D01*
G01X6717665Y-5622634D01*
G01X6681904Y-5622634D01*
G01X6681904Y-5604800D01*
G03X6666391Y-5575300I-35804J0D01*
G03X6681904Y-5545800I-20290J29500D01*
G01X6681904Y-5404800D01*
G03X6646101Y-5368996I-35804J0D01*
G01X6511100Y-5368996D01*
G03X6475296Y-5404800I0J-35804D01*
G01X6475296Y-5545800D01*
G03X6490809Y-5575300I35804J0D01*
G03X6475296Y-5604800I20290J-29500D01*
G01X6475296Y-5622634D01*
G01X6438039Y-5622634D01*
G01X6438039Y-5604398D01*
G03X6422525Y-5574899I-35804J0D01*
G03X6438039Y-5545399I-20290J29500D01*
G01X6438039Y-5404399D01*
G03X6402235Y-5368595I-35804J0D01*
G01X6267234Y-5368595D01*
G03X6231430Y-5404399I0J-35804D01*
G01X6231430Y-5545399D01*
G03X6246943Y-5574899I35804J0D01*
G03X6231430Y-5604398I20290J-29500D01*
G01X6231430Y-5622634D01*
G01X6200374Y-5622634D01*
G01X6200374Y-5605438D01*
G03X6184860Y-5575938I-35804J0D01*
G03X6200374Y-5546439I-20290J29500D01*
G01X6200374Y-5405438D01*
G03X6164570Y-5369634I-35804J0D01*
G01X6029569Y-5369634D01*
G03X5993765Y-5405438I0J-35804D01*
G01X5993765Y-5546439D01*
G03X6009278Y-5575938I35804J0D01*
G03X5993765Y-5605438I20290J-29500D01*
G01X5993765Y-5622634D01*
G01X5959074Y-5622634D01*
G01X5959074Y-5605438D01*
G03X5943560Y-5575938I-35804J0D01*
G03X5959074Y-5546439I-20290J29500D01*
G01X5959074Y-5405438D01*
G03X5923270Y-5369634I-35804J0D01*
G01X5788269Y-5369634D01*
G03X5752465Y-5405438I0J-35804D01*
G01X5752465Y-5546439D01*
G03X5767978Y-5575938I35804J0D01*
G03X5752465Y-5605438I20290J-29500D01*
G01X5752465Y-5622634D01*
G01X5717774Y-5622634D01*
G01X5717774Y-5605438D01*
G03X5702260Y-5575938I-35804J0D01*
G03X5717774Y-5546438I-20290J29500D01*
G01X5717774Y-5405438D01*
G03X5681970Y-5369634I-35804J0D01*
G01X5546969Y-5369634D01*
G03X5511165Y-5405438I0J-35804D01*
G01X5511165Y-5546438D01*
G03X5526678Y-5575938I35804J0D01*
G03X5511165Y-5605438I20290J-29500D01*
G01X5511165Y-5622634D01*
G01X5480064Y-5622634D01*
G01X5480064Y-5604284D01*
G03X5464551Y-5574784I-35804J0D01*
G03X5480064Y-5545285I-20290J29500D01*
G01X5480064Y-5404284D01*
G03X5444260Y-5368480I-35804J0D01*
G01X5309259Y-5368480D01*
G03X5273455Y-5404284I0J-35804D01*
G01X5273455Y-5545285D01*
G03X5288969Y-5574784I35804J0D01*
G03X5273455Y-5604284I20290J-29500D01*
G01X5273455Y-5622634D01*
G01X5247874Y-5622634D01*
G01X5247874Y-5605438D01*
G03X5232360Y-5575938I-35804J0D01*
G03X5247874Y-5546439I-20290J29500D01*
G01X5247874Y-5405438D01*
G03X5212070Y-5369634I-35804J0D01*
G01X5077069Y-5369634D01*
G03X5041265Y-5405438I0J-35804D01*
G01X5041265Y-5483490D01*
G03X5006522Y-5483389I-17557J-63937D01*
G01X5006522Y-5401027D01*
G03X4970719Y-5365223I-35804J0D01*
G01X4835718Y-5365223D01*
G03X4799914Y-5401027I0J-35804D01*
G01X4799914Y-5435730D01*
G01X4797397Y-5433213D01*
G03X4759705Y-5417601I-37692J-37692D01*
G01X4748514Y-5417601D01*
G01X4748514Y-5400405D01*
G03X4712710Y-5364601I-35804J0D01*
G01X4577709Y-5364601D01*
G03X4541905Y-5400405I0J-35804D01*
G01X4541905Y-5417601D01*
G01X4507214Y-5417601D01*
G01X4507214Y-5400405D01*
G03X4471410Y-5364601I-35804J0D01*
G01X4336409Y-5364601D01*
G03X4300605Y-5400405I0J-35804D01*
G01X4300605Y-5417601D01*
G01X4265914Y-5417601D01*
G01X4265914Y-5400405D01*
G03X4230110Y-5364601I-35804J0D01*
G01X4095109Y-5364601D01*
G03X4059305Y-5400405I0J-35804D01*
G01X4059305Y-5541405D01*
G03X4074819Y-5570905I35804J0D01*
G03X4059305Y-5600404I20290J-29500D01*
G01X4059305Y-5741405D01*
G03X4095109Y-5777209I35804J0D01*
G01X4230110Y-5777209D01*
G03X4265914Y-5741405I0J35804D01*
G01X4265914Y-5600404D01*
G03X4250401Y-5570905I-35804J0D01*
G03X4265914Y-5541405I-20290J29500D01*
G01X4265914Y-5524209D01*
G01X4300605Y-5524209D01*
G01X4300605Y-5541405D01*
G03X4316119Y-5570905I35804J0D01*
G03X4300605Y-5600404I20290J-29500D01*
G01X4300605Y-5741405D01*
G03X4336409Y-5777209I35804J0D01*
G01X4471410Y-5777209D01*
G03X4507214Y-5741405I0J35804D01*
G01X4507214Y-5600404D01*
G03X4491701Y-5570905I-35804J0D01*
G03X4507214Y-5541405I-20290J29500D01*
G01X4507214Y-5524209D01*
G01X4541905Y-5524209D01*
G01X4541905Y-5541405D01*
G03X4557419Y-5570905I35804J0D01*
G03X4541905Y-5600404I20290J-29500D01*
G01X4541905Y-5741405D01*
G03X4577709Y-5777209I35804J0D01*
G01X4712710Y-5777209D01*
G03X4722833Y-5775748I0J35804D01*
G03X4737508Y-5803492I52367J9948D01*
G01X4761567Y-5827550D01*
G03X4754597Y-5848775I28834J-21226D01*
G01X4754597Y-5997277D01*
G03X4776750Y-6030376I35804J0D01*
G03X4745414Y-6045608I6355J-52924D01*
G01X4648082Y-6142941D01*
G01X4595710Y-6142941D01*
G03X4561591Y-6167892I0J-35804D01*
G01X4544480Y-6167892D01*
G01X4508564Y-6131976D01*
G01X4508564Y-6046078D01*
G03X4472760Y-6010274I-35804J0D01*
G01X4335059Y-6010274D01*
G03X4299255Y-6046078I0J-35804D01*
G01X4299255Y-6062101D01*
G01X4265914Y-6062101D01*
G01X4265914Y-6044904D01*
G03X4250401Y-6015405I-35804J0D01*
G03X4265914Y-5985905I-20290J29500D01*
G01X4265914Y-5844905D01*
G03X4230110Y-5809101I-35804J0D01*
G01X4095109Y-5809101D01*
G03X4059305Y-5844905I0J-35804D01*
G01X4059305Y-5985905D01*
G03X4074819Y-6015405I35804J0D01*
G03X4059305Y-6044904I20290J-29500D01*
G01X4059305Y-6062101D01*
G01X4024614Y-6062101D01*
G01X4024614Y-6044904D01*
G03X4009101Y-6015405I-35804J0D01*
G03X4024614Y-5985905I-20290J29500D01*
G01X4024614Y-5844905D01*
G03X3988810Y-5809101I-35804J0D01*
G01X3853809Y-5809101D01*
G03X3818005Y-5844905I0J-35804D01*
G01X3818005Y-5985905D01*
G03X3833519Y-6015405I35804J0D01*
G03X3818005Y-6044904I20290J-29500D01*
G01X3818005Y-6062101D01*
G01X3783314Y-6062101D01*
G01X3783314Y-6044904D01*
G03X3767801Y-6015405I-35804J0D01*
G03X3783314Y-5985905I-20290J29500D01*
G01X3783314Y-5844905D01*
G03X3747510Y-5809101I-35804J0D01*
G01X3612509Y-5809101D01*
G03X3576705Y-5844905I0J-35804D01*
G01X3576705Y-5985905D01*
G03X3592219Y-6015405I35804J0D01*
G03X3576705Y-6044904I20290J-29500D01*
G01X3576705Y-6117092D01*
G01X3515176Y-6117092D01*
G03X3488209Y-6104841I-26966J-23553D01*
G01X3389210Y-6104841D01*
G03X3355091Y-6129792I0J-35804D01*
G01X3273901Y-6129792D01*
G01X3273901Y-5997310D01*
G03X3238097Y-5961506I-35804J0D01*
G01X3140097Y-5961506D01*
G03X3104293Y-5997310I0J-35804D01*
G01X3104293Y-6233908D01*
G03X3114487Y-6258930I35804J0D01*
G01X3025921Y-6347496D01*
G01X2846487Y-6347496D01*
G01X2882492Y-6311492D01*
G03X2898104Y-6273800I-37692J37692D01*
G01X2898104Y-6267643D01*
G03X2910100Y-6269712I11996J33735D01*
G01X3008100Y-6269712D01*
G03X3043904Y-6233908I0J35804D01*
G01X3043904Y-5997310D01*
G03X3008100Y-5961506I-35804J0D01*
G01X2910100Y-5961506D01*
G03X2901138Y-5962645I0J-35804D01*
G01X2904979Y-5958804D01*
G01X3393624Y-5958804D01*
G03X3431315Y-5943192I0J53304D01*
G01X3448538Y-5925969D01*
G01X3488209Y-5925969D01*
G03X3524013Y-5890165I0J35804D01*
G01X3524013Y-5802164D01*
G03X3513196Y-5776521I-35804J0D01*
G03X3542014Y-5741405I-6986J35116D01*
G01X3542014Y-5600404D01*
G03X3526501Y-5570905I-35804J0D01*
G03X3542014Y-5541405I-20290J29500D01*
G01X3542014Y-5524209D01*
G01X3576705Y-5524209D01*
G01X3576705Y-5541405D01*
G03X3592219Y-5570905I35804J0D01*
G03X3576705Y-5600404I20290J-29500D01*
G01X3576705Y-5741405D01*
G03X3612509Y-5777209I35804J0D01*
G01X3747510Y-5777209D01*
G03X3783314Y-5741405I0J35804D01*
G01X3783314Y-5600404D01*
G03X3767801Y-5570905I-35804J0D01*
G03X3783314Y-5541405I-20290J29500D01*
G01X3783314Y-5524209D01*
G01X3818005Y-5524209D01*
G01X3818005Y-5541405D01*
G03X3833519Y-5570905I35804J0D01*
G03X3818005Y-5600404I20290J-29500D01*
G01X3818005Y-5741405D01*
G03X3853809Y-5777209I35804J0D01*
G01X3988810Y-5777209D01*
G03X4024614Y-5741405I0J35804D01*
G01X4024614Y-5600404D01*
G03X4009101Y-5570905I-35804J0D01*
G03X4024614Y-5541405I-20290J29500D01*
G01X4024614Y-5400405D01*
G03X3988810Y-5364601I-35804J0D01*
G01X3981203Y-5364601D01*
G01X4335059Y-5810274D02*
G03X4299255Y-5846078I0J-35804D01*
G01X4299255Y-5959332D01*
G03X4335059Y-5995136I35804J0D01*
G01X4472760Y-5995136D01*
G03X4508564Y-5959332I0J35804D01*
G01X4508564Y-5846078D01*
G03X4472760Y-5810274I-35804J0D01*
G01X4335059Y-5810274D01*
G01X4694709Y-5964069D02*
G03X4730513Y-5928265I0J35804D01*
G01X4730513Y-5840264D01*
G03X4694709Y-5804460I-35804J0D01*
G01X4595710Y-5804460D01*
G03X4559906Y-5840264I0J-35804D01*
G01X4559906Y-5928265D01*
G03X4595710Y-5964069I35804J0D01*
G01X4694709Y-5964069D01*
G01X9456387Y-5636996D02*
G01X9440691Y-5636996D01*
G03X9404887Y-5672800I0J-35804D01*
G01X9404887Y-5858800D01*
G03X9440691Y-5894604I35804J0D01*
G01X9456387Y-5894604D01*
G01X9456387Y-5908091D01*
G03X9469803Y-5940479I45804J0D01*
G01X9509513Y-5980190D01*
G03X9622684Y-6028584I66287J-1510D01*
G03X9574290Y-5915413I-46884J46884D01*
G01X9553480Y-5894604D01*
G01X9563691Y-5894604D01*
G03X9599495Y-5858800I0J35804D01*
G01X9599495Y-5672800D01*
G03X9563691Y-5636996I-35804J0D01*
G01X9547995Y-5636996D01*
G01X9547995Y-5599829D01*
G03X9534579Y-5567440I-45804J0D01*
G01X9480829Y-5513690D01*
G01X9480829Y-5417186D01*
G03X9445025Y-5381382I-35804J0D01*
G01X9331772Y-5381382D01*
G03X9295968Y-5417186I0J-35804D01*
G01X9295968Y-5554887D01*
G03X9331772Y-5590691I35804J0D01*
G01X9428276Y-5590691D01*
G01X9456387Y-5618801D01*
G01X9456387Y-5636996D01*
G01X4999003Y-5997277D02*
G01X4999003Y-5848775D01*
G03X4998663Y-5843853I-35804J0D01*
G01X5074717Y-5843853D01*
G01X5078995Y-5848131D01*
G03X5111306Y-5895679I65575J9809D01*
G03X5110862Y-5901300I35360J-5621D01*
G01X5110862Y-6011300D01*
G03X5116131Y-6029996I35804J0D01*
G01X4977737Y-6029996D01*
G03X4999003Y-5997277I-14538J32720D01*
G01X7613404Y-5894604D02*
G01X7734891Y-5894604D01*
G03X7753009Y-5889681I0J35804D01*
G03X7765412Y-5912488I44791J9581D01*
G01X7816212Y-5963288D01*
G03X7837459Y-5975328I32388J32388D01*
G01X7830344Y-5982444D01*
G03X7820966Y-5995670I34156J-34156D01*
G01X7795650Y-5995670D01*
G03X7759846Y-6031474I0J-35804D01*
G01X7759846Y-6039797D01*
G01X7716799Y-6039797D01*
G03X7682643Y-6053945I0J-48304D01*
G01X7643041Y-6093547D01*
G01X7643041Y-5979959D01*
G03X7613404Y-5944690I-35804J0D01*
G01X7613404Y-5894604D01*
G01X7647331Y-5555251D02*
G01X7647331Y-5532204D01*
G01X7683500Y-5532204D01*
G03X7715888Y-5518788I0J45804D01*
G01X7751996Y-5482681D01*
G01X7751996Y-5641347D01*
G03X7734891Y-5636996I-17106J-31454D01*
G01X7613404Y-5636996D01*
G01X7613404Y-5591005D01*
G03X7647331Y-5555251I-1877J35755D01*
G01X7730099Y-8177903D02*
G01X7730099Y-7406557D01*
G03X7801023Y-7411682I39495J53257D01*
G01X7801023Y-7417646D01*
G03X7802757Y-7428652I35804J0D01*
G03X7801023Y-7439657I34070J-11006D01*
G01X7801023Y-7467658D01*
G03X7802757Y-7478664I35804J0D01*
G03X7801023Y-7489670I34070J-11006D01*
G01X7801023Y-7517671D01*
G03X7802753Y-7528664I35804J0D01*
G03X7801023Y-7539657I34075J-10993D01*
G01X7801023Y-7567658D01*
G03X7802757Y-7578664I35804J0D01*
G03X7801023Y-7589670I34070J-11006D01*
G01X7801023Y-7617671D01*
G03X7802753Y-7628664I35804J0D01*
G03X7801023Y-7639657I34075J-10993D01*
G01X7801023Y-7667658D01*
G03X7802757Y-7678664I35804J0D01*
G03X7801023Y-7689670I34070J-11006D01*
G01X7801023Y-7717671D01*
G03X7802753Y-7728664I35804J0D01*
G03X7801023Y-7739657I34075J-10993D01*
G01X7801023Y-7767658D01*
G03X7802757Y-7778664I35804J0D01*
G03X7801023Y-7789669I34070J-11006D01*
G01X7801023Y-7817670D01*
G03X7802757Y-7828676I35804J0D01*
G03X7801023Y-7839682I34070J-11006D01*
G01X7801023Y-7867683D01*
G03X7806286Y-7886369I35804J0D01*
G03X7801803Y-7903715I31321J-17347D01*
G01X7801803Y-8058716D01*
G03X7837607Y-8094520I35804J0D01*
G01X7936998Y-8094520D01*
G03X8034875Y-8134197I64002J17320D01*
G03X8046804Y-8029260I-33875J56997D01*
G01X8046804Y-7886700D01*
G03X8045722Y-7876804I-45804J0D01*
G01X8143488Y-7876804D01*
G03X8219012Y-7891293I47940J45804D01*
G03X8216788Y-7903715I33580J-12422D01*
G01X8216788Y-8058716D01*
G03X8252592Y-8094520I35804J0D01*
G01X8367593Y-8094520D01*
G03X8394869Y-8081910I0J35804D01*
G03X8492472Y-8085896I50631J42810D01*
G03X8657469Y-8145229I105428J34096D01*
G03X8673297Y-7970604I-59569J93429D01*
G01X8763803Y-7970604D01*
G03X8839200Y-8162604I75397J-81196D01*
G03X8914597Y-7970604I0J110804D01*
G01X9005103Y-7970604D01*
G03X9080500Y-8162604I75397J-81196D01*
G03X9155897Y-7970604I0J110804D01*
G01X9182100Y-7970604D01*
G03X9214488Y-7957188I0J45804D01*
G01X9260915Y-7910761D01*
G03X9403371Y-8178231I200585J-64839D01*
G01X7730099Y-8177903D01*
G01X7830904Y-6607346D02*
G03X7917405Y-6590151I33596J57162D01*
G03X7910304Y-6502244I-52904J39967D01*
G01X7910304Y-6380531D01*
G01X7933351Y-6380531D01*
G03X7955196Y-6373094I0J35804D01*
G01X7955196Y-6662978D01*
G03X7952608Y-6662885I-2588J-35710D01*
G01X7837607Y-6662885D01*
G03X7830904Y-6663518I0J-35804D01*
G01X7830904Y-6607346D01*
G01X7972631Y-7067659D02*
G01X7972631Y-7039658D01*
G03X7971989Y-7032912I-35804J0D01*
G01X7993296Y-7011605D01*
G01X7993296Y-7239973D01*
G03X7972602Y-7238232I-15838J-64385D01*
G03X7970901Y-7228665I-35776J-1426D01*
G03X7972631Y-7217672I-34075J10993D01*
G01X7972631Y-7189671D01*
G03X7970897Y-7178665I-35804J0D01*
G03X7972631Y-7167659I-34070J11006D01*
G01X7972631Y-7139658D01*
G03X7970901Y-7128665I-35804J0D01*
G03X7972631Y-7117672I-34075J10993D01*
G01X7972631Y-7089671D01*
G03X7970897Y-7078665I-35804J0D01*
G03X7972631Y-7067659I-34070J11006D01*
G01X8406986Y-6649804D02*
G01X8413827Y-6649804D01*
G01X8440722Y-6676698D01*
G03X8456502Y-6686997I32388J32388D01*
G01X8456502Y-6694315D01*
G03X8457927Y-6704317I35804J0D01*
G03X8456502Y-6714320I34378J-10003D01*
G01X8456502Y-6734320D01*
G03X8457713Y-6743553I35804J0D01*
G03X8403397Y-6740328I-30742J-58747D01*
G01X8403397Y-6698689D01*
G03X8393234Y-6673699I-35804J0D01*
G03X8406986Y-6649804I-49334J44299D01*
G01X8492306Y-6770124D02*
G01X8571502Y-6770124D01*
G01X8571502Y-6857722D01*
G01X8403186Y-7026038D01*
G03X8404177Y-7017672I-34813J8366D01*
G01X8404177Y-6996489D01*
G03X8420329Y-6986047I-16236J42830D01*
G01X8439788Y-6966588D01*
G03X8453204Y-6934200I-32388J32388D01*
G01X8453204Y-6863194D01*
G03X8489886Y-6823227I-26233J60894D01*
G03X8484452Y-6769252I-62915J20927D01*
G03X8492306Y-6770124I7854J34932D01*
G01X8479059Y-7271283D02*
G03X8452886Y-7258291I-32388J-32388D01*
G01X8522396Y-7188781D01*
G01X8522396Y-7196588D01*
G03X8526695Y-7213600I35804J0D01*
G03X8522396Y-7230612I31504J-17012D01*
G01X8522396Y-7280612D01*
G03X8558200Y-7316416I35804J0D01*
G01X8612200Y-7316416D01*
G03X8645695Y-7293261I0J35804D01*
G01X8645695Y-7393607D01*
G03X8681499Y-7429411I35804J0D01*
G01X8801499Y-7429411D01*
G03X8822708Y-7422454I0J35804D01*
G01X8822708Y-7432726D01*
G03X8809488Y-7430196I-13219J-33274D01*
G01X8759488Y-7430196D01*
G03X8723684Y-7466000I0J-35804D01*
G01X8723684Y-7499396D01*
G01X8707173Y-7499396D01*
G01X8479059Y-7271283D01*
G01X8648004Y-7230612D02*
G03X8645474Y-7217392I-35804J0D01*
G01X8673503Y-7217392D01*
G03X8699360Y-7209396I0J45804D01*
G01X8801499Y-7209396D01*
G03X8826500Y-7199222I0J35804D01*
G03X8851501Y-7209396I25001J25629D01*
G01X8971501Y-7209396D01*
G03X9005009Y-7186207I0J35804D01*
G03X9037049Y-7206031I32040J15980D01*
G01X9161696Y-7206031D01*
G01X9161696Y-7221169D01*
G01X9037049Y-7221169D01*
G03X9005009Y-7240993I0J-35804D01*
G03X8971501Y-7217804I-33508J-12614D01*
G01X8851501Y-7217804D01*
G03X8826500Y-7227978I0J-35804D01*
G03X8801499Y-7217804I-25001J-25629D01*
G01X8681499Y-7217804D01*
G03X8648004Y-7240958I0J-35804D01*
G01X8648004Y-7230612D01*
G01X8896988Y-5492112D02*
G03X8865328Y-5478702I-32388J-32388D01*
G03X8838316Y-5461000I-49319J-45798D01*
G03X8865323Y-5443304I-22306J63500D01*
G01X9023427Y-5443304D01*
G01X9095968Y-5515845D01*
G01X9095968Y-5554887D01*
G03X9131772Y-5590691I35804J0D01*
G01X9142595Y-5590691D01*
G01X9142595Y-5640714D01*
G03X9126709Y-5636996I-15886J-32087D01*
G01X9003709Y-5636996D01*
G03X8973904Y-5652962I0J-35804D01*
G01X8973904Y-5588000D01*
G03X8960488Y-5555612I-45804J0D01*
G01X8896988Y-5492112D01*
G01X8870019Y-6655104D02*
G01X8927626Y-6655104D01*
G03X8921112Y-6660512I25874J-37796D01*
G01X8864902Y-6716722D01*
G03X8856377Y-6728514I32388J-32388D01*
G01X8847285Y-6728514D01*
G03X8838358Y-6729645I0J-35804D01*
G03X8870019Y-6655104I-32493J57796D01*
G01X9082996Y-6342900D02*
G01X9082996Y-6644596D01*
G01X9057638Y-6644596D01*
G03X9068104Y-6619300I-25338J25296D01*
G01X9068104Y-6344444D01*
G03X9082996Y-6342900I653J66301D01*
G54D11*
G01X552443Y-5472748D02*
G01X552443Y-5397094D01*
G01X552443Y-5472748D02*
G01X552443Y-5548402D01*
G01X552443Y-5472748D02*
G01X668097Y-5472748D01*
G01X552443Y-5472748D02*
G01X436790Y-5472748D01*
G01X552448Y-6336745D02*
G01X552448Y-6261091D01*
G01X552448Y-6336745D02*
G01X552448Y-6412398D01*
G01X552448Y-6336745D02*
G01X668102Y-6336745D01*
G01X552448Y-6336745D02*
G01X436795Y-6336745D01*
G01X967441Y-5472748D02*
G01X967441Y-5397094D01*
G01X967441Y-5472748D02*
G01X1098095Y-5472748D01*
G01X967441Y-5472748D02*
G01X836788Y-5472748D01*
G01X967449Y-6336745D02*
G01X967449Y-6412398D01*
G01X967449Y-6336745D02*
G01X1098103Y-6336745D01*
G01X967449Y-6336745D02*
G01X836795Y-6336745D01*
G01X2298700Y-5549900D02*
G01X2098046Y-5549900D01*
G01X2298700Y-5549900D02*
G01X2499354Y-5549900D01*
G01X2298700Y-5549900D02*
G01X2298700Y-5349246D01*
G01X3797300Y-6362700D02*
G01X3696646Y-6362700D01*
G01X3797300Y-6362700D02*
G01X3897954Y-6362700D01*
G01X3797300Y-6362700D02*
G01X3797300Y-6262046D01*
G01X3797300Y-6362700D02*
G01X3797300Y-6463354D01*
G01X9461500Y-7975600D02*
G01X9260846Y-7975600D01*
G01X9461500Y-7975600D02*
G01X9662154Y-7975600D01*
G01X9461500Y-7975600D02*
G01X9461500Y-7774946D01*
G01X1027444Y-5582243D02*
G01X1113098Y-5582243D01*
G01X1027444Y-6227250D02*
G01X1113098Y-6227250D01*
G01X1391430Y-5906443D02*
G01X1312175Y-5906443D01*
G01X1803400Y-6021400D02*
G01X1897905Y-6021400D01*
G01X1805000Y-5788000D02*
G01X1899505Y-5788000D01*
G01X2729103Y-6115609D02*
G01X2729103Y-5971656D01*
G01X3438710Y-5670905D02*
G01X3531864Y-5670905D01*
G01X3438710Y-5670905D02*
G01X3345555Y-5670905D01*
G01X3680010Y-5915405D02*
G01X3680010Y-5819251D01*
G01X3680010Y-5915405D02*
G01X3586855Y-5915405D01*
G01X3680010Y-5915405D02*
G01X3773164Y-5915405D01*
G01X3680010Y-5670905D02*
G01X3680010Y-5767059D01*
G01X3680010Y-5670905D02*
G01X3773164Y-5670905D01*
G01X3680010Y-5670905D02*
G01X3586855Y-5670905D01*
G01X3921310Y-5915405D02*
G01X3921310Y-5819251D01*
G01X3921310Y-5915405D02*
G01X3828155Y-5915405D01*
G01X3921310Y-5915405D02*
G01X4014464Y-5915405D01*
G01X3921310Y-5670905D02*
G01X3921310Y-5767059D01*
G01X3921310Y-5670905D02*
G01X4014464Y-5670905D01*
G01X3921310Y-5670905D02*
G01X3828155Y-5670905D01*
G01X4162610Y-5670905D02*
G01X4162610Y-5767059D01*
G01X4162610Y-5670905D02*
G01X4069455Y-5670905D01*
G01X4162610Y-5670905D02*
G01X4255764Y-5670905D01*
G01X4162610Y-5915405D02*
G01X4162610Y-5819251D01*
G01X4162610Y-5915405D02*
G01X4069455Y-5915405D01*
G01X4162610Y-5915405D02*
G01X4255764Y-5915405D01*
G01X4403910Y-5902705D02*
G01X4403910Y-5820424D01*
G01X4403910Y-5902705D02*
G01X4403910Y-5984986D01*
G01X4403910Y-5902705D02*
G01X4498414Y-5902705D01*
G01X4403910Y-5902705D02*
G01X4309405Y-5902705D01*
G01X4403910Y-5670905D02*
G01X4403910Y-5767059D01*
G01X4403910Y-5670905D02*
G01X4497064Y-5670905D01*
G01X4403910Y-5670905D02*
G01X4310755Y-5670905D01*
G01X4645210Y-5884265D02*
G01X4645210Y-5953919D01*
G01X4645210Y-5884265D02*
G01X4645210Y-5814610D01*
G01X4645210Y-5884265D02*
G01X4570056Y-5884265D01*
G01X4645210Y-5884265D02*
G01X4720363Y-5884265D01*
G01X4645210Y-5670905D02*
G01X4645210Y-5767059D01*
G01X4645210Y-5670905D02*
G01X4552055Y-5670905D01*
G01X4876800Y-5923026D02*
G01X4988853Y-5923026D01*
G01X4876800Y-5923026D02*
G01X4764747Y-5923026D01*
G01X4903218Y-5471527D02*
G01X4903218Y-5375373D01*
G01X4903218Y-5471527D02*
G01X4996373Y-5471527D01*
G01X5144569Y-5475939D02*
G01X5144569Y-5379784D01*
G01X5144569Y-5475939D02*
G01X5237724Y-5475939D01*
G01X5144569Y-5475939D02*
G01X5051415Y-5475939D01*
G01X5376760Y-5474785D02*
G01X5376760Y-5378630D01*
G01X5376760Y-5474785D02*
G01X5469914Y-5474785D01*
G01X5376760Y-5474785D02*
G01X5283605Y-5474785D01*
G01X5614469Y-5475938D02*
G01X5614469Y-5379784D01*
G01X5614469Y-5475938D02*
G01X5521315Y-5475938D01*
G01X5614469Y-5475938D02*
G01X5707624Y-5475938D01*
G01X5855769Y-5475939D02*
G01X5855769Y-5379784D01*
G01X5855769Y-5475939D02*
G01X5948924Y-5475939D01*
G01X5855769Y-5475939D02*
G01X5762615Y-5475939D01*
G01X6097069Y-5475939D02*
G01X6097069Y-5379784D01*
G01X6097069Y-5475939D02*
G01X6003915Y-5475939D01*
G01X6097069Y-5475939D02*
G01X6190224Y-5475939D01*
G01X6334734Y-5474899D02*
G01X6334734Y-5378745D01*
G01X6334734Y-5474899D02*
G01X6427889Y-5474899D01*
G01X6334734Y-5474899D02*
G01X6241580Y-5474899D01*
G01X6578600Y-5475300D02*
G01X6578600Y-5379146D01*
G01X6578600Y-5475300D02*
G01X6671755Y-5475300D01*
G01X6578600Y-5475300D02*
G01X6485446Y-5475300D01*
G01X6820969Y-5475939D02*
G01X6820969Y-5379784D01*
G01X6820969Y-5475939D02*
G01X6727815Y-5475939D01*
G01X6820969Y-5475939D02*
G01X6914124Y-5475939D01*
G01X7062269Y-5475939D02*
G01X7062269Y-5379784D01*
G01X7062269Y-5475939D02*
G01X7155424Y-5475939D01*
G01X7062269Y-5475939D02*
G01X6969115Y-5475939D01*
G01X7673391Y-5765800D02*
G01X7673391Y-5884454D01*
G01X7673391Y-5765800D02*
G01X7673391Y-5647146D01*
G01X7895107Y-6776189D02*
G01X7895107Y-6673035D01*
G01X7895107Y-7981216D02*
G01X7895107Y-8084370D01*
G01X7895107Y-7981216D02*
G01X7811953Y-7981216D01*
G01X8028991Y-5778500D02*
G01X8167145Y-5778500D01*
G01X8310093Y-7981216D02*
G01X8310093Y-8084370D01*
G01X8310093Y-7981216D02*
G01X8226938Y-7981216D01*
G01X8585200Y-7255612D02*
G01X8585200Y-7306266D01*
G01X8585200Y-7255612D02*
G01X8532546Y-7255612D01*
G01X8741499Y-7323607D02*
G01X8741499Y-7419261D01*
G01X8741499Y-7323607D02*
G01X8741499Y-7227954D01*
G01X8741499Y-7323607D02*
G01X8655845Y-7323607D01*
G01X8784488Y-7493000D02*
G01X8733834Y-7493000D01*
G01X8784488Y-7493000D02*
G01X8784488Y-7440346D01*
G01X8877300Y-6464300D02*
G01X9057954Y-6464300D01*
G01X8877300Y-6464300D02*
G01X8877300Y-6644954D01*
G01X8911501Y-7103593D02*
G01X8911501Y-7199246D01*
G01X9065209Y-5765800D02*
G01X9065209Y-5647146D01*
G04 Copper End*

G04 PolygonModel Start*
G54D12*
G01X8039100Y-6083300D02*
G01X8039100Y-6578600D01*
G01X5560001Y-6426200D02*
G01X5428799Y-6426200D01*
G54D13*
G01X5023708Y-5547427D02*
G01X5023708Y-5674141D01*
G01X5025505Y-5675938D01*
G54D12*
G01X8318373Y-7003672D02*
G01X8391300Y-7003672D01*
G01X8484886Y-6910086D01*

G04 Pad Start*
G54D14*
G01X9461500Y-7975600D03*
G01X2298700Y-5549900D03*
G54D15*
G01X8597900Y-8051800D03*
G01X8839200Y-8051800D03*
G01X9080500Y-8051800D03*
G01X4140200Y-6362700D03*
G01X3797300Y-6362700D03*
G54D16*
G01X4622800Y-6426200D03*
G01X5029200Y-6426200D03*
G54D17*
G01X5376760Y-5674784D03*
G01X5376760Y-5474785D03*
G01X6334734Y-5674899D03*
G01X6334734Y-5474899D03*
G01X5855769Y-5675938D03*
G01X5855769Y-5475939D03*
G01X7062269Y-5675938D03*
G01X7062269Y-5475939D03*
G01X4903218Y-5671526D03*
G01X4903218Y-5471527D03*
G01X4162610Y-5470905D03*
G01X4162610Y-5670905D03*
G01X4645210Y-5470905D03*
G01X4645210Y-5670905D03*
G01X6578600Y-5675300D03*
G01X6578600Y-5475300D03*
G01X5144569Y-5675938D03*
G01X5144569Y-5475939D03*
G54D18*
G01X5201666Y-6246368D03*
G01X5201666Y-5956300D03*
G54D20*
G01X2087956Y-6121400D03*
G01X2458644Y-6121400D03*
G54D21*
G01X7886827Y-7853683D03*
G01X7886827Y-7803670D03*
G01X8318373Y-7853683D03*
G01X8318373Y-7803670D03*
G01X7886827Y-7753657D03*
G01X8318373Y-7753657D03*
G01X7886827Y-7703670D03*
G01X8318373Y-7703670D03*
G01X7886827Y-7653658D03*
G01X8318373Y-7653658D03*
G01X7886827Y-7603670D03*
G01X8318373Y-7603670D03*
G01X7886827Y-7553658D03*
G01X8318373Y-7553658D03*
G01X7886827Y-7503671D03*
G01X8318373Y-7503671D03*
G01X7886827Y-7453658D03*
G01X8318373Y-7453658D03*
G01X7886827Y-7403645D03*
G01X8318373Y-7403645D03*
G01X7886827Y-7353658D03*
G01X8318373Y-7353658D03*
G01X7886827Y-7303671D03*
G01X8318373Y-7303671D03*
G01X7886827Y-7253658D03*
G01X8318373Y-7253658D03*
G01X7886827Y-7203671D03*
G01X8318373Y-7203671D03*
G01X7886827Y-7153659D03*
G01X8318373Y-7153659D03*
G01X7886827Y-7103671D03*
G01X8318373Y-7103671D03*
G01X7886827Y-7053659D03*
G01X8318373Y-7053659D03*
G01X7886827Y-7003672D03*
G01X8318373Y-7003672D03*
G01X7886827Y-6953659D03*
G01X8318373Y-6953659D03*
G01X7886827Y-6903672D03*
G01X8318373Y-6903672D03*
G54D22*
G01X7895107Y-7981216D03*
G01X8310093Y-7981216D03*
G01X8310093Y-6776189D03*
G01X7895107Y-6776189D03*
G54D23*
G01X6343904Y-6081700D03*
G01X6533896Y-6081700D03*
G01X6438900Y-5881700D03*
G01X6953504Y-6081700D03*
G01X7143496Y-6081700D03*
G01X7048500Y-5881700D03*
G01X5734304Y-6081700D03*
G01X5924296Y-6081700D03*
G01X5829300Y-5881700D03*
G54D24*
G01X1382571Y-6213491D03*
G01X1582570Y-6213491D03*
G01X6338900Y-6288253D03*
G01X6538900Y-6288253D03*
G54D25*
G01X7864500Y-6088101D03*
G01X7864500Y-6288100D03*
G01X6121400Y-6083453D03*
G01X6121400Y-5883453D03*
G01X4403910Y-6102705D03*
G01X4403910Y-5902705D03*
G54D24*
G01X1380939Y-5601643D03*
G01X1580939Y-5601643D03*
G54D25*
G01X9105900Y-7113600D03*
G01X9105900Y-7313600D03*
G54D24*
G01X7550610Y-6048809D03*
G01X7350611Y-6048809D03*
G01X9388399Y-5486036D03*
G01X9188399Y-5486036D03*
G01X7354900Y-5486400D03*
G01X7554900Y-5486400D03*
G01X7367600Y-6286500D03*
G01X7567600Y-6286500D03*
G01X6948500Y-6288253D03*
G01X7148500Y-6288253D03*
G54D25*
G01X6731000Y-6083453D03*
G01X6731000Y-5883453D03*
G54D24*
G01X5729300Y-6283453D03*
G01X5929300Y-6283453D03*
G54D25*
G01X5511800Y-6078653D03*
G01X5511800Y-5878653D03*
G54D26*
G01X9502191Y-5765800D03*
G01X9065209Y-5765800D03*
G01X7673391Y-5765800D03*
G01X7236409Y-5765800D03*
G54D27*
G01X8877300Y-6464300D03*
G54D28*
G01X8617306Y-6121806D03*
G01X8657285Y-6121806D03*
G01X8697290Y-6121806D03*
G01X8737295Y-6121806D03*
G01X8777300Y-6121806D03*
G01X8817305Y-6121806D03*
G01X8857285Y-6121806D03*
G01X8897290Y-6121806D03*
G01X8937295Y-6121806D03*
G01X8977300Y-6121806D03*
G01X9017305Y-6121806D03*
G01X9057284Y-6121806D03*
G01X9097289Y-6121806D03*
G01X9137294Y-6121806D03*
G54D29*
G01X9219794Y-6204306D03*
G01X9219794Y-6244311D03*
G01X9219794Y-6284316D03*
G01X9219794Y-6324321D03*
G01X9219794Y-6364300D03*
G01X9219794Y-6404305D03*
G01X9219794Y-6444310D03*
G01X9219794Y-6484315D03*
G01X9219794Y-6524320D03*
G01X9219794Y-6564300D03*
G01X9219794Y-6604305D03*
G01X9219794Y-6644310D03*
G01X9219794Y-6684315D03*
G01X9219794Y-6724320D03*
G54D28*
G01X9137294Y-6806819D03*
G01X9097289Y-6806819D03*
G01X9057284Y-6806819D03*
G01X9017305Y-6806819D03*
G01X8977300Y-6806819D03*
G01X8937295Y-6806819D03*
G01X8897290Y-6806819D03*
G01X8857285Y-6806819D03*
G01X8817305Y-6806819D03*
G01X8777300Y-6806819D03*
G01X8737295Y-6806819D03*
G01X8697290Y-6806819D03*
G01X8657285Y-6806819D03*
G01X8617306Y-6806819D03*
G54D29*
G01X8534806Y-6724320D03*
G01X8534806Y-6684315D03*
G01X8534806Y-6644310D03*
G01X8534806Y-6604305D03*
G01X8534806Y-6564300D03*
G01X8534806Y-6524320D03*
G01X8534806Y-6484315D03*
G01X8534806Y-6444310D03*
G01X8534806Y-6404305D03*
G01X8534806Y-6364300D03*
G01X8534806Y-6324321D03*
G01X8534806Y-6284316D03*
G01X8534806Y-6244311D03*
G01X8534806Y-6204306D03*
G54D30*
G01X8028991Y-5397500D03*
G01X8028991Y-5524500D03*
G01X8028991Y-5651500D03*
G01X8028991Y-5778500D03*
G01X8735009Y-5397500D03*
G01X8735009Y-5524500D03*
G01X8735009Y-5651500D03*
G01X8735009Y-5778500D03*
G54D31*
G01X2729103Y-6115609D03*
G01X2959100Y-6115609D03*
G01X3189097Y-6115609D03*
G54D32*
G01X2959100Y-5542991D03*
G54D33*
G01X1391430Y-5811447D03*
G01X1391430Y-5906443D03*
G01X1391430Y-6001439D03*
G01X1621249Y-6001439D03*
G01X1621249Y-5906443D03*
G01X1621249Y-5811447D03*
G54D34*
G01X1027444Y-5582243D03*
G01X1027444Y-5662735D03*
G54D35*
G01X1027439Y-5729740D03*
G01X1027439Y-5779728D03*
G01X1027439Y-5829740D03*
G01X1027439Y-5879727D03*
G01X1027439Y-5929740D03*
G01X1027439Y-5979727D03*
G01X1027439Y-6029740D03*
G01X1027439Y-6079727D03*
G54D34*
G01X1027444Y-6146758D03*
G01X1027444Y-6227250D03*
G54D36*
G01X967449Y-6336745D03*
G54D37*
G01X552448Y-6336745D03*
G01X552443Y-5472748D03*
G54D36*
G01X967441Y-5472748D03*
G54D17*
G01X3680010Y-5915405D03*
G01X3680010Y-6115405D03*
G01X3921310Y-5670905D03*
G01X3921310Y-5470905D03*
G01X3438710Y-5670905D03*
G01X3438710Y-5470905D03*
G01X3680010Y-5670905D03*
G01X3680010Y-5470905D03*
G01X3921310Y-5915405D03*
G01X3921310Y-6115405D03*
G01X4403910Y-5670905D03*
G01X4403910Y-5470905D03*
G01X5614469Y-5475938D03*
G01X5614469Y-5675938D03*
G01X6820969Y-5475939D03*
G01X6820969Y-5675938D03*
G01X6097069Y-5475939D03*
G01X6097069Y-5675938D03*
G01X4162610Y-5915405D03*
G01X4162610Y-6115405D03*
G54D38*
G01X4645210Y-5884265D03*
G01X4645210Y-6222745D03*
G01X3438710Y-5846165D03*
G01X3438710Y-6184645D03*
G54D39*
G01X4876800Y-6241542D03*
G01X4876800Y-5923026D03*
G54D25*
G01X1803400Y-6021400D03*
G01X1803400Y-6221400D03*
G01X1805000Y-5788000D03*
G01X1805000Y-5588000D03*
G54D40*
G01X8911501Y-7323607D03*
G01X8911501Y-7103593D03*
G01X8741499Y-7103593D03*
G01X8741499Y-7323607D03*
G54D41*
G01X8585200Y-7171588D03*
G01X8585200Y-7255612D03*
G54D42*
G01X8868512Y-7493000D03*
G01X8784488Y-7493000D03*
G54D24*
G01X5246700Y-6426200D03*
G01X5446700Y-6426200D03*
G04 Pad End*

G04 Via Start*
G54D43*
G01X8389756Y-6126584D03*
G01X9496700Y-6447047D03*
G01X9499600Y-6337300D03*
G01X8445500Y-8039100D03*
G01X8001000Y-8077200D03*
G01X8191427Y-7831000D03*
G01X8117706Y-7749406D03*
G01X8191500Y-7671258D03*
G01X8115300Y-7581900D03*
G01X8191500Y-6131200D03*
G01X8115300Y-6197600D03*
G01X8144158Y-6388100D03*
G01X8267700Y-6197600D03*
G01X7904300Y-6776189D03*
G01X8310093Y-6776189D03*
G01X7895107Y-7981216D03*
G01X7979058Y-7102758D03*
G01X8767900Y-7323607D03*
G01X8911501Y-7103593D03*
G01X8310093Y-7981216D03*
G01X8775700Y-6362700D03*
G01X8978900Y-6362700D03*
G01X8978900Y-6565900D03*
G01X8775700Y-6565900D03*
G01X1183644Y-6146046D03*
G01X1183644Y-5663446D03*
G01X8204200Y-7454900D03*
G01X7864500Y-6550183D03*
G01X7977458Y-7304358D03*
G01X7719590Y-6193018D03*
G01X5854945Y-5988921D03*
G01X9017000Y-5537200D03*
G01X7213600Y-5473700D03*
G01X7721600Y-5588000D03*
G01X9258300Y-6019800D03*
G01X6058200Y-6324600D03*
G01X9118600Y-5969000D03*
G01X9055926Y-6974754D03*
G01X8964267Y-6952692D03*
G01X8876171Y-6952692D03*
G01X9146900Y-6972300D03*
G01X8915400Y-5969000D03*
G01X9001584Y-5969000D03*
G01X9575800Y-5981700D03*
G01X6731000Y-6286500D03*
G01X6197600Y-6429300D03*
G01X5144569Y-5838322D03*
G01X1511300Y-5880100D03*
G01X2552700Y-5740400D03*
G01X2552700Y-5862100D03*
G01X3251200Y-5613400D03*
G01X5499100Y-6235700D03*
G01X8426971Y-6802300D03*
G01X8484886Y-6910086D03*
G01X8805864Y-6671849D03*
G01X8343900Y-6629400D03*
G01X9068757Y-6278143D03*
G01X6527800Y-5969000D03*
G01X7143496Y-5980100D03*
G01X7769595Y-7353300D03*
G01X7270796Y-6347699D03*
G01X8128000Y-7988300D03*
G01X1943100Y-6070600D03*
G01X1968500Y-5854700D03*
G01X9398000Y-5994400D03*
G01X8039100Y-6083300D03*
G01X5560001Y-6426200D03*
G01X3921309Y-5336159D03*
G01X5023708Y-5547427D03*
G04 Via End*

G04 Track Start*
G54D11*
G01X1154439Y-5979727D02*
G01X1154439Y-5879727D01*
G01X913139Y-5829740D02*
G01X913139Y-5929740D01*
G01X1034648Y-5929740D01*
G54D12*
G01X8868512Y-7366597D02*
G01X8911501Y-7323607D01*
G01X8868512Y-7480300D02*
G01X8868512Y-7366597D01*
G01X8585200Y-7171588D02*
G01X8673503Y-7171588D01*
G01X8711590Y-7133501D01*
G01X9118600Y-7326300D02*
G01X8914194Y-7326300D01*
G01X8911501Y-7323607D01*
G01X9323500Y-6732700D02*
G01X9275115Y-6684315D01*
G01X9219794Y-6684315D01*
G01X8878700Y-7545200D02*
G01X8890000Y-7556500D01*
G01X8688200Y-7545200D02*
G01X8878700Y-7545200D01*
G01X8305673Y-7503671D02*
G01X8430771Y-7503671D01*
G01X8305673Y-7453658D02*
G01X8431558Y-7453658D01*
G01X8305673Y-7353658D02*
G01X8443295Y-7353658D01*
G01X8305673Y-7303671D02*
G01X8446671Y-7303671D01*
G01X8688200Y-7545200D01*
G01X8309303Y-7607300D02*
G01X8305673Y-7603670D01*
G01X8443295Y-7353658D02*
G01X8671537Y-7581900D01*
G01X8872691Y-7581900D01*
G01X8877491Y-7586700D01*
G01X8305673Y-7403645D02*
G01X8445045Y-7403645D01*
G01X8661400Y-7620000D01*
G01X8431558Y-7453658D02*
G01X8636000Y-7658100D01*
G01X8430771Y-7503671D02*
G01X8623300Y-7696200D01*
G01X8305673Y-7553658D02*
G01X8429958Y-7553658D01*
G01X8610600Y-7734300D01*
G01X8432800Y-7607300D02*
G01X8309303Y-7607300D01*
G01X8305673Y-7653658D02*
G01X8428358Y-7653658D01*
G01X8585200Y-7810500D01*
G01X8305673Y-7703670D02*
G01X8427570Y-7703670D01*
G01X8572500Y-7848600D01*
G01X8305673Y-7753657D02*
G01X8426757Y-7753657D01*
G01X8559800Y-7886700D01*
G01X9285910Y-6644310D02*
G01X9219794Y-6644310D01*
G01X9293965Y-6604305D02*
G01X9219794Y-6604305D01*
G01X8305673Y-7803670D02*
G01X8425970Y-7803670D01*
G01X8547100Y-7924800D01*
G01X9359900Y-6718300D02*
G01X9285910Y-6644310D01*
G01X9398000Y-6708340D02*
G01X9293965Y-6604305D01*
G01X7874582Y-7404100D02*
G01X7874127Y-7403645D01*
G01X8534806Y-6524320D02*
G01X8283880Y-6524320D01*
G01X8534806Y-6484315D02*
G01X8260385Y-6484315D01*
G01X8534806Y-6444310D02*
G01X8236890Y-6444310D01*
G01X8534806Y-6404305D02*
G01X8213395Y-6404305D01*
G01X9219794Y-6564300D02*
G01X9134381Y-6564300D01*
G01X9131300Y-6561219D01*
G01X9097289Y-6121806D02*
G01X9097289Y-6176289D01*
G54D44*
G01X9131300Y-6210338D02*
G01X9131300Y-6561219D01*
G54D12*
G01X9137294Y-6210338D02*
G01X9131338Y-6210338D01*
G01X9097289Y-6176289D02*
G01X9131319Y-6210319D01*
G01X9137294Y-6209111D02*
G01X9137294Y-6121806D01*
G01X9219794Y-6204306D02*
G01X9142099Y-6204306D01*
G01X9137294Y-6209111D01*
G01X9137294Y-6210338D02*
G01X9136681Y-6209724D01*
G01X9137294Y-6209111D01*
G01X9131338Y-6210338D02*
G01X9131338Y-6204381D01*
G54D44*
G01X8472291Y-6197600D02*
G01X8559800Y-6197600D01*
G54D12*
G01X8937295Y-6188405D02*
G01X8921394Y-6204306D01*
G01X8898521Y-6204306D01*
G01X8599500Y-6564300D02*
G01X8534806Y-6564300D01*
G01X8737295Y-6806819D02*
G01X8737295Y-6909105D01*
G01X8392742Y-7253658D02*
G01X8305673Y-7253658D01*
G01X8392742Y-7253658D02*
G01X8737295Y-6909105D01*
G01X8305673Y-7203671D02*
G01X8391929Y-7203671D01*
G01X8697290Y-6898310D01*
G01X8697290Y-6806819D01*
G01X8305673Y-7153659D02*
G01X8391141Y-7153659D01*
G01X8657285Y-6887515D01*
G01X8657285Y-6806819D01*
G01X8617306Y-6806819D02*
G01X8617306Y-6876694D01*
G01X8390329Y-7103671D01*
G01X8305673Y-7103671D01*
G01X9219794Y-6524320D02*
G01X9267520Y-6524320D01*
G01X9272300Y-6529100D01*
G01X9272732Y-6529100D01*
G01X9287494Y-6543862D01*
G01X9287494Y-6544294D01*
G01X9436100Y-6692900D01*
G01X9219794Y-6484315D02*
G01X9278315Y-6484315D01*
G01X9474200Y-6680200D01*
G01X9512300Y-6667500D02*
G01X9289110Y-6444310D01*
G01X9219794Y-6444310D01*
G01X9550400Y-6654800D02*
G01X9299905Y-6404305D01*
G01X9219794Y-6404305D01*
G01X9588500Y-6642100D02*
G01X9310700Y-6364300D01*
G01X9219794Y-6364300D01*
G01X7886827Y-7753657D02*
G01X8033057Y-7753657D01*
G01X7886827Y-7803670D02*
G01X8006870Y-7803670D01*
G01X8623300Y-6540500D02*
G01X8599500Y-6564300D01*
G01X8623300Y-6204306D02*
G01X8623300Y-6540500D01*
G01X8898521Y-6204306D02*
G01X8623300Y-6204306D01*
G01X8775700Y-6565900D02*
G01X8877300Y-6464300D01*
G01X8735009Y-5778500D02*
G01X8737295Y-5780786D01*
G01X8737295Y-6121806D01*
G01X8735009Y-5651500D02*
G01X8864600Y-5651500D01*
G01X8890000Y-5676900D01*
G01X8928100Y-5588000D02*
G01X8864600Y-5524500D01*
G01X8735009Y-5524500D01*
G01X8028991Y-5651500D02*
G01X7886700Y-5651500D01*
G01X7874000Y-5664200D01*
G01X7874000Y-5842000D01*
G01X7888142Y-5856142D01*
G01X8697290Y-5904732D02*
G01X8697290Y-6121806D01*
G01X7888142Y-5856142D02*
G01X8648700Y-5856142D01*
G01X8697290Y-5904732D01*
G01X8657285Y-6121806D02*
G01X8657285Y-5926785D01*
G01X8623300Y-5892800D01*
G01X7861300Y-5892800D02*
G01X7837430Y-5868930D01*
G01X7837430Y-5563023D01*
G01X7875954Y-5524500D01*
G01X8028991Y-5524500D02*
G01X7875954Y-5524500D01*
G01X8623300Y-5892800D02*
G01X7861300Y-5892800D01*
G01X7797800Y-5880100D02*
G01X7797800Y-5404800D01*
G01X7848600Y-5930900D02*
G01X7797800Y-5880100D01*
G01X8617306Y-6121806D02*
G01X8617306Y-5950306D01*
G01X8597900Y-5930900D01*
G01X7848600Y-5930900D01*
G01X9388399Y-5486036D02*
G01X9502191Y-5599829D01*
G01X9502191Y-5765800D01*
G01X7350611Y-6048809D02*
G01X7236409Y-5934608D01*
G01X7236409Y-5765800D01*
G01X7554900Y-6044520D02*
G01X7550610Y-6048809D01*
G54D13*
G01X1040139Y-6029740D02*
G01X904244Y-6029740D01*
G01X896103Y-5729740D02*
G01X1040139Y-5729740D01*
G54D11*
G01X1154439Y-5879727D02*
G01X1034648Y-5879727D01*
G01X1002039Y-5829740D02*
G01X913139Y-5829740D01*
G54D12*
G01X8236890Y-6444310D02*
G01X8077200Y-6604000D01*
G01X8260385Y-6484315D02*
G01X8115300Y-6629400D01*
G01X8283880Y-6524320D02*
G01X8153400Y-6654800D01*
G01X8260128Y-6903672D02*
G01X8318373Y-6903672D01*
G01X8229511Y-6934289D02*
G01X8260128Y-6903672D01*
G01X7967983Y-7853683D02*
G01X7886827Y-7853683D01*
G01X7962900Y-7404100D02*
G01X7874582Y-7404100D01*
G01X8077200Y-6604000D02*
G01X8077200Y-7340600D01*
G01X7964142Y-7453658D01*
G01X7874127Y-7453658D01*
G01X8115300Y-6629400D02*
G01X8115300Y-7353300D01*
G01X7964929Y-7503671D01*
G01X7874127Y-7503671D01*
G01X8153400Y-6654800D02*
G01X8153400Y-7366000D01*
G01X7965742Y-7553658D01*
G01X7874127Y-7553658D01*
G01X7874127Y-7603670D02*
G01X7966530Y-7603670D01*
G01X8191500Y-7378700D01*
G01X8191500Y-6667500D01*
G54D13*
G01X4907630Y-5675938D02*
G01X4903218Y-5671526D01*
G01X5855769Y-5675938D02*
G01X5614469Y-5675938D01*
G01X5144569Y-5675938D02*
G01X4907630Y-5675938D01*
G01X4645210Y-5470905D02*
G01X4403910Y-5470905D01*
G01X4162610Y-5470905D01*
G01X4162610Y-5670905D02*
G01X4403910Y-5670905D01*
G01X4645210Y-5670905D01*
G01X4408101Y-5898514D02*
G01X4403910Y-5902705D01*
G01X4162610Y-5915405D02*
G01X4391210Y-5915405D01*
G01X4403910Y-5902705D01*
G01X4162610Y-5915405D02*
G01X3921310Y-5915405D01*
G01X3680010Y-5915405D01*
G01X3680010Y-6115405D02*
G01X3921310Y-6115405D01*
G01X4162610Y-6115405D01*
G01X4391210Y-6115405D01*
G01X4403910Y-6102705D01*
G01X6820969Y-5675938D02*
G01X7062269Y-5675938D01*
G01X7062269Y-5475939D02*
G01X7057858Y-5471527D01*
G01X3680010Y-6115405D02*
G01X3625019Y-6170396D01*
G01X3438710Y-6170396D01*
G01X3921310Y-5670905D02*
G01X4162610Y-5670905D01*
G01X3921310Y-5670905D02*
G01X3680010Y-5670905D01*
G01X3921310Y-5915405D02*
G01X3921310Y-5670905D01*
G54D12*
G01X7887871Y-7303671D02*
G01X7886827Y-7303671D01*
G01X7886827Y-7103671D02*
G01X7978145Y-7103671D01*
G01X7979058Y-7102758D01*
G01X6538900Y-6288253D02*
G01X6533896Y-6283249D01*
G01X6533896Y-6081700D01*
G01X6338900Y-6288253D02*
G01X6338900Y-6086704D01*
G01X6343904Y-6081700D01*
G01X6438900Y-5881700D02*
G01X6123153Y-5881700D01*
G01X6121400Y-5883453D01*
G01X6718300Y-5883453D02*
G01X6720053Y-5881700D01*
G01X7048500Y-5881700D01*
G01X6953504Y-6081700D02*
G01X6953504Y-6283250D01*
G01X6948500Y-6288253D01*
G01X5924296Y-6081700D02*
G01X5924296Y-6278449D01*
G01X5929300Y-6283453D01*
G01X5729300Y-6283453D02*
G01X5729300Y-6086704D01*
G01X5734304Y-6081700D01*
G01X7047058Y-5883142D02*
G01X7048500Y-5881700D01*
G01X7886827Y-6903672D02*
G01X7785100Y-6903672D01*
G01X7886827Y-6953659D02*
G01X7779159Y-6953659D01*
G01X7747000Y-6921500D01*
G01X5511800Y-5878653D02*
G01X5826253Y-5878653D01*
G01X5829300Y-5881700D01*
G54D13*
G01X6578600Y-5675938D02*
G01X6820969Y-5675938D01*
G54D12*
G01X6578600Y-5675938D02*
G01X6578600Y-5675300D01*
G01X6953504Y-6081700D02*
G01X6853504Y-5981700D01*
G01X6642100Y-5981700D01*
G01X6578600Y-5918200D01*
G54D44*
G01X6343904Y-6081700D02*
G01X6243904Y-5981700D01*
G54D13*
G01X6097069Y-5675938D02*
G01X5980439Y-5675938D01*
G01X5855769Y-5675938D01*
G54D44*
G01X6243904Y-5981700D02*
G01X6032500Y-5981700D01*
G01X5980439Y-5929639D01*
G01X5734304Y-6081700D02*
G01X5634304Y-5981700D01*
G01X5384800Y-5981700D01*
G01X5359400Y-5956300D01*
G01X5359400Y-5675938D01*
G54D13*
G01X5614469Y-5675938D02*
G01X5359400Y-5675938D01*
G01X5144569Y-5675938D02*
G01X5359400Y-5675938D01*
G54D12*
G01X9188399Y-5486036D02*
G01X9130936Y-5486036D01*
G01X9042400Y-5397500D01*
G01X8735009Y-5397500D01*
G01X8153400Y-5778500D02*
G01X8028991Y-5778500D01*
G01X8470900Y-5461000D02*
G01X8153400Y-5778500D01*
G01X7567600Y-5486400D02*
G01X7567600Y-6044520D01*
G01X8028991Y-5397500D02*
G01X8021691Y-5404800D01*
G01X7797800Y-5404800D01*
G01X7765100Y-5404800D01*
G01X7683500Y-5486400D01*
G01X7567600Y-5486400D01*
G54D44*
G01X7716799Y-6088101D02*
G01X7864500Y-6088101D01*
G54D12*
G01X5201666Y-6246368D02*
G01X4881626Y-6246368D01*
G01X4876800Y-6241542D01*
G01X9017000Y-5537200D02*
G01X9017000Y-5524500D01*
G01X8953500Y-5461000D01*
G01X8470900Y-5461000D01*
G01X9065209Y-5765800D02*
G01X9055100Y-5765800D01*
G01X9029700Y-5740400D01*
G01X9029700Y-5549900D01*
G01X9017000Y-5537200D01*
G54D44*
G01X7100262Y-5675938D02*
G01X7062269Y-5675938D01*
G01X7367600Y-5486400D02*
G01X7253300Y-5600700D01*
G01X7175500Y-5600700D01*
G01X7100262Y-5675938D01*
G54D12*
G01X7213600Y-5473700D02*
G01X7064508Y-5473700D01*
G01X7062269Y-5475939D01*
G54D13*
G01X7057858Y-5471527D02*
G01X4903218Y-5471527D01*
G54D12*
G01X7721600Y-5588000D02*
G01X7721600Y-5730291D01*
G01X7686091Y-5765800D01*
G01X9300489Y-6244311D02*
G01X9219794Y-6244311D01*
G01X9207500Y-6891300D02*
G01X9199600Y-6883400D01*
G01X8937295Y-6806819D02*
G01X8937295Y-6874205D01*
G01X9245600Y-6865300D02*
G01X9187500Y-6807200D01*
G01X9137294Y-6807200D01*
G01X9137294Y-6806819D01*
G01X9055100Y-7093600D02*
G01X9075100Y-7113600D01*
G01X9105900Y-7113600D01*
G01X9055100Y-7061200D02*
G01X9055100Y-7093600D01*
G01X9199600Y-6883400D02*
G01X9118600Y-6883400D01*
G01X9097289Y-6862089D01*
G01X9097289Y-6806819D01*
G01X8857285Y-6806819D02*
G01X8857285Y-6890715D01*
G01X8817305Y-6806819D02*
G01X8817305Y-6879895D01*
G01X8750300Y-6946900D01*
G01X8750300Y-7061200D01*
G01X8857285Y-6890715D02*
G01X8801100Y-6946900D01*
G01X8801100Y-6972300D01*
G01X9004300Y-7010400D02*
G01X9055100Y-7061200D01*
G01X8983946Y-7010400D02*
G01X9004300Y-7010400D01*
G01X8801100Y-6972300D02*
G01X8837193Y-7008393D01*
G01X8981939Y-7008393D01*
G01X8983946Y-7010400D01*
G01X8937295Y-6874205D02*
G01X8876171Y-6935329D01*
G01X8876171Y-6952692D01*
G01X8977300Y-6806819D02*
G01X8977300Y-6939660D01*
G01X8964267Y-6952692D01*
G01X9057284Y-6882685D02*
G01X9057284Y-6806819D01*
G01X9057284Y-6882685D02*
G01X9146900Y-6972300D01*
G01X9017305Y-6806819D02*
G01X9017305Y-6909105D01*
G01X9055926Y-6947726D01*
G01X9055926Y-6974754D01*
G01X7992742Y-7653658D02*
G01X7886827Y-7653658D01*
G01X8001000Y-8077200D02*
G01X8001000Y-7886700D01*
G01X7967983Y-7853683D01*
G01X7886827Y-7703670D02*
G01X8018930Y-7703670D01*
G01X8890000Y-5676900D02*
G01X8890000Y-5791200D01*
G01X8777300Y-5903900D01*
G01X8777300Y-6121806D01*
G01X8817305Y-6121806D02*
G01X8817305Y-5927395D01*
G01X8928100Y-5816600D01*
G01X8928100Y-5588000D01*
G01X8857285Y-6121806D02*
G01X8857285Y-5938215D01*
G01X8890000Y-5905500D01*
G01X9029700Y-5905500D01*
G01X9057284Y-5933084D01*
G01X8977300Y-6121806D02*
G01X8977300Y-6030900D01*
G01X8915400Y-5969000D01*
G01X9001584Y-5969000D02*
G01X9017305Y-5984721D01*
G01X9017305Y-6121806D01*
G01X8412483Y-7853683D02*
G01X8318373Y-7853683D01*
G01X9137294Y-6121806D02*
G01X9137294Y-6064606D01*
G01X9188399Y-6013501D01*
G01X9188399Y-5486036D01*
G54D13*
G01X4645210Y-6221196D02*
G01X4783105Y-6083300D01*
G01X5201666Y-5956300D02*
G01X5201666Y-6081370D01*
G01X5199736Y-6083300D01*
G01X4783105Y-6083300D02*
G01X5199736Y-6083300D01*
G01X6731000Y-6286500D02*
G01X6731000Y-6083453D01*
G54D12*
G01X6578600Y-5918200D02*
G01X6578600Y-5688638D01*
G01X6578600Y-5675938D01*
G54D13*
G01X4403910Y-6102705D02*
G01X4522401Y-6221196D01*
G01X4645210Y-6221196D01*
G01X4876800Y-5923026D02*
G01X4852288Y-5898514D01*
G01X3200400Y-6126912D02*
G01X3189097Y-6115609D01*
G01X3200400Y-6183096D02*
G01X3438710Y-6183096D01*
G01X3200400Y-6183096D02*
G01X3200400Y-6126912D01*
G01X3680010Y-5470905D02*
G01X3438710Y-5470905D01*
G01X2959100Y-5542991D02*
G01X3031186Y-5470905D01*
G01X3438710Y-5470905D01*
G01X3438710Y-5670905D02*
G01X3680010Y-5670905D01*
G01X2729103Y-6115609D02*
G01X2729103Y-5932297D01*
G01X3333395Y-5670905D02*
G01X3438710Y-5670905D01*
G01X2729103Y-5932297D02*
G01X2844800Y-5816600D01*
G01X3187700Y-5816600D01*
G01X3333395Y-5670905D01*
G01X4645210Y-5470905D02*
G01X4759705Y-5470905D01*
G01X4775200Y-5486400D01*
G01X4775200Y-5765800D01*
G01X4799949Y-5790549D01*
G54D11*
G01X1040139Y-5979727D02*
G01X1154439Y-5979727D01*
G54D44*
G01X1391430Y-5811447D02*
G01X1287853Y-5811447D01*
G01X1269560Y-5829740D01*
G01X1040139Y-5829740D01*
G01X1391430Y-6001439D02*
G01X1302439Y-6001439D01*
G01X1280727Y-5979727D01*
G01X1154439Y-5979727D01*
G01X1380939Y-5601643D02*
G01X1391430Y-5612133D01*
G01X1391430Y-5811447D01*
G01X1391430Y-6001439D02*
G01X1391430Y-6204632D01*
G01X1382571Y-6213491D01*
G01X1805000Y-5588000D02*
G01X1790700Y-5573700D01*
G01X1270000Y-5753100D02*
G01X1243372Y-5779728D01*
G01X1040139Y-5779728D01*
G01X1790700Y-5573700D02*
G01X1790700Y-5523197D01*
G01X1765951Y-5498449D01*
G01X1295000Y-5498449D01*
G01X1270000Y-5523449D01*
G01X1270000Y-5753100D01*
G01X1241027Y-6079727D02*
G01X1027439Y-6079727D01*
G01X1314470Y-6310041D02*
G01X1270000Y-6265571D01*
G01X1270000Y-6108700D01*
G01X1241027Y-6079727D01*
G01X1787174Y-6310041D02*
G01X1314470Y-6310041D01*
G01X1803400Y-6234100D02*
G01X1803400Y-6293815D01*
G01X1787174Y-6310041D01*
G54D13*
G01X1621249Y-5906443D02*
G01X1872999Y-5906443D01*
G01X2087956Y-6121400D01*
G01X3189097Y-6259703D02*
G01X3189097Y-6115609D01*
G01X904244Y-6029740D02*
G01X850900Y-5976396D01*
G01X850900Y-5774943D01*
G01X896103Y-5729740D01*
G54D44*
G01X1993500Y-6337300D02*
G01X1968500Y-6312300D01*
G01X1968500Y-6190503D01*
G01X1899397Y-6121400D01*
G01X1582570Y-6151730D02*
G01X1582570Y-6213491D01*
G01X1899397Y-6121400D02*
G01X1674661Y-6121400D01*
G01X1644331Y-6151730D01*
G01X1582570Y-6151730D01*
G54D12*
G01X9118600Y-5969000D02*
G01X9057284Y-5969000D01*
G01X9057284Y-6121806D01*
G01X9057284Y-5933084D02*
G01X9057284Y-5969000D01*
G54D13*
G01X3048000Y-6400800D02*
G01X3189097Y-6259703D01*
G01X2458644Y-6121400D02*
G01X2458644Y-6319444D01*
G01X2540000Y-6400800D01*
G01X3048000Y-6400800D01*
G01X3438710Y-5860414D02*
G01X3393624Y-5905500D01*
G01X2882900Y-5905500D01*
G01X2844800Y-5943600D01*
G01X2654300Y-6311900D02*
G01X2616200Y-6273800D01*
G01X2844800Y-5943600D02*
G01X2844800Y-6273800D01*
G01X2806700Y-6311900D01*
G01X2654300Y-6311900D01*
G01X2616200Y-6273800D02*
G01X2616200Y-5935389D01*
G01X2959100Y-5592489D01*
G01X2959100Y-5542991D01*
G01X3251200Y-5613400D02*
G01X3308705Y-5670905D01*
G01X3333395Y-5670905D01*
G54D12*
G01X8597900Y-7772400D02*
G01X8432800Y-7607300D01*
G01X7785100Y-6903672D02*
G01X7785100Y-6438900D01*
G01X7759700Y-6413500D01*
G01X8877491Y-7586700D02*
G01X9063000Y-7586700D01*
G01X9245600Y-7404100D01*
G01X9245600Y-6865300D01*
G01X8890000Y-7556500D02*
G01X9042400Y-7556500D01*
G01X9207500Y-7391400D01*
G01X9207500Y-6891300D01*
G01X8661400Y-7620000D02*
G01X9080500Y-7620000D01*
G01X9283700Y-7416800D01*
G01X8636000Y-7658100D02*
G01X9093200Y-7658100D01*
G01X9323500Y-7427800D01*
G01X9323500Y-6732700D01*
G01X8623300Y-7696200D02*
G01X9105900Y-7696200D01*
G01X9359900Y-7442200D01*
G01X9359900Y-6718300D01*
G01X8610600Y-7734300D02*
G01X9118600Y-7734300D01*
G01X9398000Y-7454900D01*
G01X9398000Y-6708340D01*
G01X9436100Y-6692900D02*
G01X9436100Y-7467600D01*
G01X9131300Y-7772400D01*
G01X8597900Y-7772400D01*
G01X8585200Y-7810500D02*
G01X9144000Y-7810500D01*
G01X9474200Y-7480300D01*
G01X9474200Y-6680200D01*
G01X8572500Y-7848600D02*
G01X9156700Y-7848600D01*
G01X9512300Y-7493000D01*
G01X9512300Y-6667500D01*
G01X8559800Y-7886700D02*
G01X9169400Y-7886700D01*
G01X9550400Y-7505700D01*
G01X9550400Y-6654800D01*
G01X8547100Y-7924800D02*
G01X9182100Y-7924800D01*
G01X9588500Y-7518400D01*
G01X9588500Y-6642100D01*
G01X9283700Y-7416800D02*
G01X9283700Y-6743700D01*
G01X9264320Y-6724320D01*
G01X9219794Y-6724320D01*
G01X9219794Y-6324321D02*
G01X9373974Y-6324321D01*
G01X9496700Y-6447047D01*
G01X9219794Y-6284316D02*
G01X9446616Y-6284316D01*
G01X9499600Y-6337300D01*
G54D13*
G01X5511800Y-6078653D02*
G01X5507153Y-6083300D01*
G01X5199736Y-6083300D02*
G01X5334000Y-6083300D01*
G01X5507153Y-6083300D02*
G01X5334000Y-6083300D01*
G54D44*
G01X1580939Y-5601643D02*
G01X1668896Y-5689600D01*
G01X1932881Y-5689600D01*
G01X2017440Y-5778500D01*
G01X2273300Y-6311900D02*
G01X2247900Y-6337300D01*
G01X1993500Y-6337300D01*
G01X2273300Y-5892800D02*
G01X2273300Y-6311900D01*
G01X2552700Y-5862100D02*
G01X2304000Y-5862100D01*
G01X2273300Y-5892800D01*
G01X2017440Y-5778500D02*
G01X2451100Y-5778500D01*
G01X2489200Y-5740400D01*
G01X2552700Y-5740400D01*
G54D12*
G01X8407400Y-6934200D02*
G01X8387941Y-6953659D01*
G01X8318373Y-6953659D01*
G01X7864500Y-6288100D02*
G01X7864500Y-6550183D01*
G54D44*
G01X5980439Y-5929639D02*
G01X5980439Y-5675938D01*
G54D12*
G01X8191500Y-6667500D02*
G01X8293100Y-6565900D01*
G01X8448268Y-6565900D01*
G01X8534806Y-6644310D02*
G01X8473110Y-6644310D01*
G01X7719590Y-6193018D02*
G01X7661082Y-6193018D01*
G01X7567600Y-6286500D01*
G01X8473110Y-6644310D02*
G01X8432800Y-6604000D01*
G01X8486673Y-6604305D02*
G01X8534806Y-6604305D01*
G01X8486673Y-6604305D02*
G01X8448268Y-6565900D01*
G01X8582940Y-6684315D02*
G01X8534806Y-6684315D01*
G01X8674100Y-6273800D02*
G01X8699500Y-6248400D01*
G01X6527800Y-5969000D02*
G01X6527800Y-6075604D01*
G01X6533896Y-6081700D01*
G01X8897290Y-6121806D02*
G01X8898521Y-6123038D01*
G01X8898521Y-6204306D01*
G01X7148500Y-6288253D02*
G01X7143496Y-6283250D01*
G01X7143496Y-6081700D01*
G01X7143496Y-5980100D01*
G01X8432800Y-6604000D02*
G01X8369300Y-6604000D01*
G01X8343900Y-6629400D01*
G01X7289800Y-6286500D02*
G01X7367600Y-6286500D01*
G01X8937295Y-6188405D02*
G01X8937295Y-6121806D01*
G01X8699500Y-6248400D02*
G01X9039014Y-6248400D01*
G01X9068757Y-6278143D01*
G01X9097289Y-6176289D02*
G01X9090940Y-6176289D01*
G01X9077723Y-6189507D01*
G01X8938397Y-6189507D01*
G01X8937295Y-6188405D01*
G01X8534806Y-6204306D02*
G01X8623300Y-6204306D01*
G54D13*
G01X6097069Y-5675938D02*
G01X6578600Y-5675938D01*
G54D12*
G01X8445500Y-8039100D02*
G01X8445500Y-7886700D01*
G01X8412483Y-7853683D01*
G01X8585200Y-7255612D02*
G01X8699904Y-7255612D01*
G01X8767900Y-7323607D01*
G01X8784488Y-7340196D01*
G01X8784488Y-7480300D01*
G01X7977458Y-7304358D02*
G01X7888558Y-7304358D01*
G01X7887871Y-7303671D01*
G01X7886827Y-7353658D02*
G01X7769953Y-7353658D01*
G01X7769595Y-7353300D01*
G54D13*
G01X1002044Y-6146758D02*
G01X1182932Y-6146758D01*
G01X1183644Y-6146046D01*
G01X1002044Y-5662735D02*
G01X1182932Y-5662735D01*
G01X1183644Y-5663446D01*
G01X1027444Y-5582243D02*
G01X1097957Y-5582243D01*
G01X1257300Y-5422900D01*
G01X2171700Y-5422900D01*
G01X2298700Y-5549900D01*
G01X1803400Y-6021400D02*
G01X1893900Y-6021400D01*
G01X1943100Y-6070600D01*
G01X1805000Y-5788000D02*
G01X1901800Y-5788000D01*
G01X1968500Y-5854700D01*
G01X1688394Y-6060739D02*
G01X1727733Y-6021400D01*
G01X1803400Y-6021400D01*
G01X1477730Y-6037030D02*
G01X1501439Y-6060739D01*
G01X1688394Y-6060739D01*
G01X1477730Y-5961294D02*
G01X1477730Y-6037030D01*
G01X1391430Y-5906443D02*
G01X1422879Y-5906443D01*
G01X1477730Y-5961294D01*
G01X1511300Y-5880100D02*
G01X1537643Y-5906443D01*
G01X1621249Y-5906443D01*
G54D12*
G01X8310093Y-6776189D02*
G01X8324111Y-6776189D01*
G01X8382000Y-6718300D01*
G01X8503371Y-6891601D02*
G01X8484886Y-6910086D01*
G01X8503371Y-6788871D02*
G01X8432800Y-6718300D01*
G01X8382000Y-6718300D01*
G01X8426971Y-6802300D02*
G01X8407400Y-6821871D01*
G01X8407400Y-6934200D01*
G01X8674100Y-6273800D02*
G01X8674100Y-6593155D01*
G01X8582940Y-6684315D01*
G01X8777300Y-6806819D02*
G01X8777300Y-6758685D01*
G01X8804985Y-6731000D01*
G01X8503371Y-6891601D02*
G01X8503371Y-6788871D01*
G54D44*
G01X9131300Y-6561219D02*
G01X9131300Y-6667900D01*
G01X9106300Y-6692900D01*
G01X8966200Y-6692900D01*
G54D12*
G01X8897290Y-6749110D02*
G01X8897290Y-6806819D01*
G01X8877300Y-6565900D02*
G01X8775700Y-6565900D01*
G01X8902700Y-6591300D02*
G01X8877300Y-6565900D01*
G01X8804985Y-6731000D02*
G01X8851900Y-6731000D01*
G01X8902700Y-6680200D01*
G01X8902700Y-6591300D01*
G01X8966200Y-6692900D02*
G01X8953500Y-6692900D01*
G01X8897290Y-6749110D01*
G54D45*
G01X1027444Y-6227250D02*
G01X1027444Y-6276750D01*
G01X967449Y-6336745D01*
G54D44*
G01X8472291Y-6197600D02*
G01X8401275Y-6126584D01*
G01X8389756Y-6126584D01*
G54D12*
G01X9575800Y-5981700D02*
G01X9502191Y-5908091D01*
G01X9502191Y-5765800D01*
G01X9347200Y-6197600D02*
G01X9300489Y-6244311D01*
G01X9258300Y-6019800D02*
G01X9309100Y-6019800D01*
G01X9347200Y-6057900D01*
G01X9347200Y-6197600D01*
G01X8591880Y-6724320D02*
G01X8534806Y-6724320D01*
G01X8534806Y-6284316D02*
G01X8240116Y-6284316D01*
G01X8191500Y-6235700D01*
G01X8191500Y-6131200D01*
G01X8534806Y-6324321D02*
G01X8203921Y-6324321D01*
G01X8115300Y-6235700D01*
G01X8115300Y-6197600D01*
G01X8534806Y-6244311D02*
G01X8301711Y-6244311D01*
G01X8267700Y-6210300D01*
G01X8267700Y-6197600D01*
G01X8144158Y-6388100D02*
G01X8167958Y-6364300D01*
G01X8534806Y-6364300D01*
G54D13*
G01X4852288Y-5898514D02*
G01X4408101Y-5898514D01*
G54D12*
G01X8213395Y-6404305D02*
G01X8039100Y-6578600D01*
G01X8039100Y-7327900D02*
G01X7962900Y-7404100D01*
G01X8039100Y-6578600D02*
G01X8039100Y-7327900D01*
G01X6058200Y-6324600D02*
G01X5970447Y-6324600D01*
G01X5929300Y-6283453D01*
G54D13*
G01X6194500Y-6426200D02*
G01X6197600Y-6429300D01*
G01X6197600Y-6159653D01*
G01X6121400Y-6083453D01*
G54D44*
G01X8389756Y-6126584D02*
G01X8389756Y-5981700D01*
G01X7899400Y-5981700D01*
G01X7864500Y-6016600D01*
G01X7864500Y-6088101D01*
G54D12*
G01X7864500Y-6088101D02*
G01X7864500Y-6099200D01*
G01X8001000Y-6939125D02*
G01X8001000Y-6235700D01*
G01X7864500Y-6099200D01*
G01X7936453Y-7003672D02*
G01X8001000Y-6939125D01*
G01X7936453Y-7003672D02*
G01X7886827Y-7003672D01*
G01X5854945Y-5988921D02*
G01X5854945Y-5907345D01*
G01X5829300Y-5881700D01*
G01X8805864Y-6671849D02*
G01X8644351Y-6671849D01*
G01X8591880Y-6724320D01*
G01X8006870Y-7803670D02*
G01X8034200Y-7831000D01*
G01X8191427Y-7831000D01*
G01X8033057Y-7753657D02*
G01X8037309Y-7749406D01*
G01X8117706Y-7749406D01*
G01X8018930Y-7703670D02*
G01X8051342Y-7671258D01*
G01X8191500Y-7671258D01*
G01X8115300Y-7581900D02*
G01X8064500Y-7581900D01*
G01X7992742Y-7653658D01*
G01X8204200Y-7454900D02*
G01X8229511Y-7429589D01*
G01X8229511Y-6934289D01*
G01X5729300Y-6283453D02*
G01X5681547Y-6235700D01*
G01X5499100Y-6235700D01*
G54D13*
G01X4799949Y-5790549D02*
G01X5096796Y-5790549D01*
G01X5144569Y-5838322D01*
G54D12*
G01X5003800Y-6438900D02*
G01X5259400Y-6438900D01*
G01X5272100Y-6426200D01*
G54D13*
G01X3680010Y-5470905D02*
G01X3870338Y-5470905D01*
G01X3870338Y-5472541D01*
G01X3921309Y-5336159D02*
G01X3921309Y-5463159D01*
G54D44*
G01X7493000Y-6172200D02*
G01X7632700Y-6172200D01*
G01X7716799Y-6088101D01*
G01X7367600Y-5486400D02*
G01X7454900Y-5573700D01*
G01X7454900Y-6134100D01*
G01X7493000Y-6172200D01*
G54D12*
G01X8484886Y-6910086D02*
G01X8484886Y-6958314D01*
G01X8389541Y-7053659D01*
G01X8318373Y-7053659D01*
G01X7270796Y-6347699D02*
G01X7270796Y-6305504D01*
G01X7289800Y-6286500D01*
G01X6438900Y-6368100D02*
G01X6438900Y-5881700D01*
G01X6471600Y-6400800D02*
G01X6438900Y-6368100D01*
G01X7747000Y-6921500D02*
G01X7747000Y-6477000D01*
G01X7721600Y-6451600D01*
G01X7759700Y-6413500D02*
G01X7073900Y-6413500D01*
G01X7047058Y-6386658D01*
G01X7047058Y-5883142D01*
G01X7721600Y-6451600D02*
G01X7048500Y-6451600D01*
G01X6997700Y-6400800D01*
G01X6471600Y-6400800D01*
G54D13*
G01X5334000Y-6083300D02*
G01X5334000Y-6184900D01*
G01X5664200Y-6426200D02*
G01X6194500Y-6426200D01*
G01X5334000Y-6184900D02*
G01X5461000Y-6311900D01*
G01X5549900Y-6311900D01*
G01X5664200Y-6426200D01*
G04 Track End*

M02*

