G04 Layer: TopSolderMaskLayer*
G04 EasyEDA Pro v3.2.148, 2026-07-05 23:03:08*
G04 Gerber Generator version 0.3*
G04 Scale: 100 percent, Rotated: No, Reflected: No*
G04 Dimensions in millimeters*
G04 Leading zeros omitted, absolute positions, 4 integers and 5 decimals*
G04 Generated by one-click*
G04 Object Configs: Pad,Via,Track,Text,Image,Dimension,BoardOutline,BoardCutout,CopperFilled,SolidRegion,FPCStiffener,Line,PlaneZone,ComponentProperty,ComponentSilkscreen,TearDrop*
G04 Layer Configs: 1,2,3,4,5,6,7,8,9,10,11,13,14,56*
G04 Copper Areas: 0*
%FSLAX45Y45*%
%MOMM*%
%AMRoundRect*1,1,$1,$2,$3*1,1,$1,$4,$5*1,1,$1,0-$2,0-$3*1,1,$1,0-$4,0-$5*20,1,$1,$2,$3,$4,$5,0*20,1,$1,$4,$5,0-$2,0-$3,0*20,1,$1,0-$2,0-$3,0-$4,0-$5,0*20,1,$1,0-$4,0-$5,$2,$3,0*4,1,4,$2,$3,$4,$5,0-$2,0-$3,0-$4,0-$5,$2,$3,0*%
%ADD10C,3.6016*%
%ADD11C,1.6016*%
%ADD12C,1.6256*%
%ADD13RoundRect,0.1016X-0.675X-0.705X-0.675X0.705*%
%ADD14RoundRect,0.1016X-0.55X-0.55X-0.55X0.55*%
%ADD15RoundRect,0.1084X-0.70334X1.7496X0.70334X1.7496*%
%ADD16RoundRect,0.1016X-0.70334X1.7496X0.70334X1.7496*%
%ADD17RoundRect,0.1016X-0.5X0.14X0.5X0.14*%
%ADD18RoundRect,0.1016X-0.57501X-0.775X-0.57501X0.775*%
%ADD19RoundRect,0.1016X-0.35X-0.62501X-0.35X0.62501*%
%ADD20RoundRect,0.1016X-0.56627X0.68851X0.56627X0.68851*%
%ADD21RoundRect,0.1016X-0.68851X-0.56627X-0.68851X0.56627*%
%ADD22RoundRect,0.1016X-0.615X0.93X0.615X0.93*%
%ADD23RoundRect,0.10003X-1.55X1.55X1.55X1.55*%
%ADD24RoundRect,0.10003X-0.1X-0.42501X-0.1X0.42501*%
%ADD25RoundRect,0.10003X-0.42501X0.1X0.42501X0.1*%
%ADD26O,2.35161X0.7316*%
%ADD27RoundRect,0.1016X-0.49X-1.18299X-0.49X1.18299*%
%ADD28RoundRect,0.1016X-1.8X-1.18299X-1.8X1.18299*%
%ADD29RoundRect,0.1016X-0.536X-0.266X-0.536X0.266*%
%ADD30RoundRect,0.10003X-0.6X-0.3X-0.6X0.3*%
%ADD31RoundRect,0.10003X-0.6X-0.15X-0.6X0.15*%
%ADD32O,2.20002X1.10002*%
%ADD33O,1.90002X1.10002*%
%ADD34RoundRect,0.1016X-0.495X-0.44X-0.495X0.44*%
%ADD35RoundRect,0.1016X-0.86399X-0.74251X-0.86399X0.74251*%
%ADD36RoundRect,0.1016X-0.6X-0.7X-0.6X0.7*%
%ADD37RoundRect,0.1016X-0.27X-0.25X-0.27X0.25*%
%ADD38RoundRect,0.1016X-0.25X0.27X0.25X0.27*%
G75*


G04 Pad Start*
G54D10*
G01X9461500Y-7975600D03*
G01X2298700Y-5549900D03*
G54D11*
G01X8597900Y-8051800D03*
G01X8839200Y-8051800D03*
G01X9080500Y-8051800D03*
G01X4140200Y-6362700D03*
G01X3797300Y-6362700D03*
G54D12*
G01X4622800Y-6426200D03*
G01X5029200Y-6426200D03*
G54D13*
G01X5376760Y-5674784D03*
G01X5376760Y-5474785D03*
G01X6334734Y-5674899D03*
G01X6334734Y-5474899D03*
G01X5855769Y-5675938D03*
G01X5855769Y-5475939D03*
G01X7062269Y-5675938D03*
G01X7062269Y-5475939D03*
G01X4903218Y-5671526D03*
G01X4903218Y-5471527D03*
G01X4162610Y-5470905D03*
G01X4162610Y-5670905D03*
G01X4645210Y-5470905D03*
G01X4645210Y-5670905D03*
G01X6578600Y-5675300D03*
G01X6578600Y-5475300D03*
G01X5144569Y-5675938D03*
G01X5144569Y-5475939D03*
G54D14*
G01X5201666Y-6246368D03*
G01X5201666Y-5956300D03*
G54D16*
G01X2087956Y-6121400D03*
G01X2458644Y-6121400D03*
G54D17*
G01X7886827Y-7853683D03*
G01X7886827Y-7803670D03*
G01X8318373Y-7853683D03*
G01X8318373Y-7803670D03*
G01X7886827Y-7753657D03*
G01X8318373Y-7753657D03*
G01X7886827Y-7703670D03*
G01X8318373Y-7703670D03*
G01X7886827Y-7653658D03*
G01X8318373Y-7653658D03*
G01X7886827Y-7603670D03*
G01X8318373Y-7603670D03*
G01X7886827Y-7553658D03*
G01X8318373Y-7553658D03*
G01X7886827Y-7503671D03*
G01X8318373Y-7503671D03*
G01X7886827Y-7453658D03*
G01X8318373Y-7453658D03*
G01X7886827Y-7403645D03*
G01X8318373Y-7403645D03*
G01X7886827Y-7353658D03*
G01X8318373Y-7353658D03*
G01X7886827Y-7303671D03*
G01X8318373Y-7303671D03*
G01X7886827Y-7253658D03*
G01X8318373Y-7253658D03*
G01X7886827Y-7203671D03*
G01X8318373Y-7203671D03*
G01X7886827Y-7153659D03*
G01X8318373Y-7153659D03*
G01X7886827Y-7103671D03*
G01X8318373Y-7103671D03*
G01X7886827Y-7053659D03*
G01X8318373Y-7053659D03*
G01X7886827Y-7003672D03*
G01X8318373Y-7003672D03*
G01X7886827Y-6953659D03*
G01X8318373Y-6953659D03*
G01X7886827Y-6903672D03*
G01X8318373Y-6903672D03*
G54D18*
G01X7895107Y-7981216D03*
G01X8310093Y-7981216D03*
G01X8310093Y-6776189D03*
G01X7895107Y-6776189D03*
G54D19*
G01X6343904Y-6081700D03*
G01X6533896Y-6081700D03*
G01X6438900Y-5881700D03*
G01X6953504Y-6081700D03*
G01X7143496Y-6081700D03*
G01X7048500Y-5881700D03*
G01X5734304Y-6081700D03*
G01X5924296Y-6081700D03*
G01X5829300Y-5881700D03*
G54D20*
G01X1382571Y-6213491D03*
G01X1582570Y-6213491D03*
G01X6338900Y-6288253D03*
G01X6538900Y-6288253D03*
G54D21*
G01X7864500Y-6088101D03*
G01X7864500Y-6288100D03*
G01X6121400Y-6083453D03*
G01X6121400Y-5883453D03*
G01X4403910Y-6102705D03*
G01X4403910Y-5902705D03*
G54D20*
G01X1380939Y-5601643D03*
G01X1580939Y-5601643D03*
G54D21*
G01X9105900Y-7113600D03*
G01X9105900Y-7313600D03*
G54D20*
G01X7550610Y-6048809D03*
G01X7350611Y-6048809D03*
G01X9388399Y-5486036D03*
G01X9188399Y-5486036D03*
G01X7354900Y-5486400D03*
G01X7554900Y-5486400D03*
G01X7367600Y-6286500D03*
G01X7567600Y-6286500D03*
G01X6948500Y-6288253D03*
G01X7148500Y-6288253D03*
G54D21*
G01X6731000Y-6083453D03*
G01X6731000Y-5883453D03*
G54D20*
G01X5729300Y-6283453D03*
G01X5929300Y-6283453D03*
G54D21*
G01X5511800Y-6078653D03*
G01X5511800Y-5878653D03*
G54D22*
G01X9502191Y-5765800D03*
G01X9065209Y-5765800D03*
G01X7673391Y-5765800D03*
G01X7236409Y-5765800D03*
G54D23*
G01X8877300Y-6464300D03*
G54D24*
G01X8617306Y-6121806D03*
G01X8657285Y-6121806D03*
G01X8697290Y-6121806D03*
G01X8737295Y-6121806D03*
G01X8777300Y-6121806D03*
G01X8817305Y-6121806D03*
G01X8857285Y-6121806D03*
G01X8897290Y-6121806D03*
G01X8937295Y-6121806D03*
G01X8977300Y-6121806D03*
G01X9017305Y-6121806D03*
G01X9057284Y-6121806D03*
G01X9097289Y-6121806D03*
G01X9137294Y-6121806D03*
G54D25*
G01X9219794Y-6204306D03*
G01X9219794Y-6244311D03*
G01X9219794Y-6284316D03*
G01X9219794Y-6324321D03*
G01X9219794Y-6364300D03*
G01X9219794Y-6404305D03*
G01X9219794Y-6444310D03*
G01X9219794Y-6484315D03*
G01X9219794Y-6524320D03*
G01X9219794Y-6564300D03*
G01X9219794Y-6604305D03*
G01X9219794Y-6644310D03*
G01X9219794Y-6684315D03*
G01X9219794Y-6724320D03*
G54D24*
G01X9137294Y-6806819D03*
G01X9097289Y-6806819D03*
G01X9057284Y-6806819D03*
G01X9017305Y-6806819D03*
G01X8977300Y-6806819D03*
G01X8937295Y-6806819D03*
G01X8897290Y-6806819D03*
G01X8857285Y-6806819D03*
G01X8817305Y-6806819D03*
G01X8777300Y-6806819D03*
G01X8737295Y-6806819D03*
G01X8697290Y-6806819D03*
G01X8657285Y-6806819D03*
G01X8617306Y-6806819D03*
G54D25*
G01X8534806Y-6724320D03*
G01X8534806Y-6684315D03*
G01X8534806Y-6644310D03*
G01X8534806Y-6604305D03*
G01X8534806Y-6564300D03*
G01X8534806Y-6524320D03*
G01X8534806Y-6484315D03*
G01X8534806Y-6444310D03*
G01X8534806Y-6404305D03*
G01X8534806Y-6364300D03*
G01X8534806Y-6324321D03*
G01X8534806Y-6284316D03*
G01X8534806Y-6244311D03*
G01X8534806Y-6204306D03*
G54D26*
G01X8028991Y-5397500D03*
G01X8028991Y-5524500D03*
G01X8028991Y-5651500D03*
G01X8028991Y-5778500D03*
G01X8735009Y-5397500D03*
G01X8735009Y-5524500D03*
G01X8735009Y-5651500D03*
G01X8735009Y-5778500D03*
G54D27*
G01X2729103Y-6115609D03*
G01X2959100Y-6115609D03*
G01X3189097Y-6115609D03*
G54D28*
G01X2959100Y-5542991D03*
G54D29*
G01X1391430Y-5811447D03*
G01X1391430Y-5906443D03*
G01X1391430Y-6001439D03*
G01X1621249Y-6001439D03*
G01X1621249Y-5906443D03*
G01X1621249Y-5811447D03*
G54D30*
G01X1027444Y-5582243D03*
G01X1027444Y-5662735D03*
G54D31*
G01X1027439Y-5729740D03*
G01X1027439Y-5779728D03*
G01X1027439Y-5829740D03*
G01X1027439Y-5879727D03*
G01X1027439Y-5929740D03*
G01X1027439Y-5979727D03*
G01X1027439Y-6029740D03*
G01X1027439Y-6079727D03*
G54D30*
G01X1027444Y-6146758D03*
G01X1027444Y-6227250D03*
G54D32*
G01X967449Y-6336745D03*
G54D33*
G01X552448Y-6336745D03*
G01X552443Y-5472748D03*
G54D32*
G01X967441Y-5472748D03*
G54D13*
G01X3680010Y-5915405D03*
G01X3680010Y-6115405D03*
G01X3921310Y-5670905D03*
G01X3921310Y-5470905D03*
G01X3438710Y-5670905D03*
G01X3438710Y-5470905D03*
G01X3680010Y-5670905D03*
G01X3680010Y-5470905D03*
G01X3921310Y-5915405D03*
G01X3921310Y-6115405D03*
G01X4403910Y-5670905D03*
G01X4403910Y-5470905D03*
G01X5614469Y-5475938D03*
G01X5614469Y-5675938D03*
G01X6820969Y-5475939D03*
G01X6820969Y-5675938D03*
G01X6097069Y-5475939D03*
G01X6097069Y-5675938D03*
G01X4162610Y-5915405D03*
G01X4162610Y-6115405D03*
G54D34*
G01X4645210Y-5884265D03*
G01X4645210Y-6222745D03*
G01X3438710Y-5846165D03*
G01X3438710Y-6184645D03*
G54D35*
G01X4876800Y-6241542D03*
G01X4876800Y-5923026D03*
G54D21*
G01X1803400Y-6021400D03*
G01X1803400Y-6221400D03*
G01X1805000Y-5788000D03*
G01X1805000Y-5588000D03*
G54D36*
G01X8911501Y-7323607D03*
G01X8911501Y-7103593D03*
G01X8741499Y-7103593D03*
G01X8741499Y-7323607D03*
G54D37*
G01X8585200Y-7171588D03*
G01X8585200Y-7255612D03*
G54D38*
G01X8868512Y-7493000D03*
G01X8784488Y-7493000D03*
G54D20*
G01X5246700Y-6426200D03*
G01X5446700Y-6426200D03*
G04 Pad End*

M02*

